<svg width="49" height="49" viewBox="0 0 49 49" fill="none" xmlns="http://www.w3.org/2000/svg">
<path d="M24.1306 16.8313C19.7237 16.8313 16.1274 20.4276 16.1274 24.8345C16.1274 29.2414 19.7237 32.8378 24.1306 32.8378C28.5375 32.8378 32.1339 29.2414 32.1339 24.8345C32.1339 20.4276 28.5375 16.8313 24.1306 16.8313ZM48.1344 24.8345C48.1344 21.5203 48.1644 18.2362 47.9783 14.928C47.7922 11.0855 46.9156 7.67524 44.1058 4.86539C41.2899 2.04954 37.8857 1.17897 34.0431 0.992849C30.729 0.806727 27.4448 0.836747 24.1366 0.836747C20.8225 0.836747 17.5383 0.806727 14.2301 0.992849C10.3876 1.17897 6.97736 2.05555 4.16752 4.86539C1.35167 7.68124 0.481096 11.0855 0.294973 14.928C0.108851 18.2422 0.138871 21.5263 0.138871 24.8345C0.138871 28.1427 0.108851 31.4328 0.294973 34.741C0.481096 38.5835 1.35767 41.9938 4.16752 44.8036C6.98337 47.6195 10.3876 48.4901 14.2301 48.6762C17.5443 48.8623 20.8285 48.8323 24.1366 48.8323C27.4508 48.8323 30.735 48.8623 34.0431 48.6762C37.8857 48.4901 41.2959 47.6135 44.1058 44.8036C46.9216 41.9878 47.7922 38.5835 47.9783 34.741C48.1704 31.4328 48.1344 28.1487 48.1344 24.8345ZM24.1306 37.1486C17.3162 37.1486 11.8165 31.649 11.8165 24.8345C11.8165 18.02 17.3162 12.5204 24.1306 12.5204C30.9451 12.5204 36.4447 18.02 36.4447 24.8345C36.4447 31.649 30.9451 37.1486 24.1306 37.1486ZM36.9491 14.892C35.358 14.892 34.0732 13.6071 34.0732 12.0161C34.0732 10.425 35.358 9.1402 36.9491 9.1402C38.5401 9.1402 39.825 10.425 39.825 12.0161C39.8254 12.3939 39.7514 12.7681 39.607 13.1172C39.4626 13.4663 39.2508 13.7836 38.9837 14.0507C38.7165 14.3179 38.3993 14.5297 38.0502 14.674C37.701 14.8184 37.3269 14.8925 36.9491 14.892Z" fill="#EBEBEB"/>
</svg>
