<svg xmlns="http://www.w3.org/2000/svg" viewBox="0 0 96 99.88"><g id="Capa_2" data-name="Capa 2"><g id="icon-facebook"><path id="orquideorama" d="M86.45,49.9,96,66.58,86.45,83.2H67.21L57.66,99.88H38.41L28.79,83.2H9.62L0,66.58,9.62,49.9,0,33.29,9.62,16.68H28.79L38.41,0H57.66l9.55,16.68H86.45L96,33.29Z"/><path id="facebook" d="M61.9,53.67l1.66-10.81H53.19v-7c0-3,1.45-5.84,6.09-5.84H64V20.79a57.54,57.54,0,0,0-8.37-.73c-8.55,0-14.13,5.18-14.13,14.56v8.24H32V53.67h9.5V79.81H53.19V53.67Z" style="fill:#ebebeb"/></g></g></svg>
