<svg xmlns="http://www.w3.org/2000/svg" viewBox="0 0 96 99.88"><g id="Capa_2" data-name="Capa 2"><g id="icon-instagram"><path id="orquideorama" d="M86.45,49.9,96,66.58,86.45,83.2H67.21L57.66,99.88H38.41L28.79,83.2H9.62L0,66.58,9.62,49.9,0,33.29,9.62,16.68H28.79L38.41,0H57.66l9.55,16.68H86.45L96,33.29Z"/><path id="instagram" d="M48,41.93a8,8,0,1,0,8,8A8,8,0,0,0,48,41.93Zm24,8c0-3.32,0-6.6-.16-9.91C71.66,36.19,70.78,32.78,68,30s-6.22-3.69-10.06-3.87c-3.32-.19-6.6-.16-9.91-.16s-6.6,0-9.91.16C34.25,26.28,30.84,27.16,28,30S24.34,36.19,24.16,40C24,43.35,24,46.63,24,49.94s0,6.6.16,9.9c.18,3.85,1.06,7.26,3.87,10.07s6.22,3.68,10.06,3.87c3.32.19,6.6.16,9.91.16s6.6,0,9.91-.16c3.84-.19,7.25-1.06,10.06-3.87s3.69-6.22,3.87-10.07C72,56.54,72,53.25,72,49.94ZM48,62.25A12.32,12.32,0,1,1,60.31,49.94,12.3,12.3,0,0,1,48,62.25ZM60.81,40a2.88,2.88,0,1,1,2.88-2.88,3,3,0,0,1-.22,1.1,2.81,2.81,0,0,1-.62.93,3,3,0,0,1-.94.63A3,3,0,0,1,60.81,40Z" style="fill:#ebebeb"/></g></g></svg>
