<svg width="13" height="14" viewBox="0 0 13 14" fill="none" xmlns="http://www.w3.org/2000/svg">
<path d="M11.1152 1.43274H9.7258V0.043335H8.3364V1.43274H4.1682V0.043335H2.7788V1.43274H1.3894C0.623146 1.43274 0 2.05588 0 2.82214V12.5479C0 13.3142 0.623146 13.9373 1.3894 13.9373H11.1152C11.8815 13.9373 12.5046 13.3142 12.5046 12.5479V2.82214C12.5046 2.05588 11.8815 1.43274 11.1152 1.43274ZM11.1166 12.5479H1.3894V3.03923H11.1152L11.1166 12.5479Z" fill="#EBEBEB"/>
<path d="M5.55729 10.3606L9.52194 6.39599L8.53964 5.41368L5.55729 8.39603L3.96434 6.80308L2.98204 7.78539L5.55729 10.3606Z" fill="#EBEBEB"/>
</svg>
