<svg width="13" height="13" viewBox="0 0 13 13" fill="none" xmlns="http://www.w3.org/2000/svg">
<path d="M6.2523 11.5404C7.57887 11.5404 8.85111 11.0134 9.78913 10.0754C10.7272 9.13736 11.2541 7.86512 11.2541 6.53855C11.2541 5.21198 10.7272 3.93975 9.78913 3.00172C8.85111 2.06369 7.57887 1.53671 6.2523 1.53671C4.92573 1.53671 3.65349 2.06369 2.71546 3.00172C1.77744 3.93975 1.25046 5.21198 1.25046 6.53855C1.25046 7.86512 1.77744 9.13736 2.71546 10.0754C3.65349 11.0134 4.92573 11.5404 6.2523 11.5404ZM6.2523 0.286255C7.07336 0.286255 7.88639 0.447975 8.64495 0.762183C9.40351 1.07639 10.0928 1.53693 10.6733 2.11751C11.2539 2.69809 11.7145 3.38734 12.0287 4.1459C12.3429 4.90447 12.5046 5.71749 12.5046 6.53855C12.5046 8.19677 11.8459 9.78706 10.6733 10.9596C9.50081 12.1321 7.91051 12.7909 6.2523 12.7909C2.79478 12.7909 0 9.97732 0 6.53855C0 4.88034 0.658723 3.29004 1.83126 2.11751C3.00379 0.944977 4.59409 0.286255 6.2523 0.286255ZM6.56491 3.4124V6.69486L9.37845 8.36423L8.90953 9.13326L5.62707 7.16378V3.4124H6.56491Z" fill="#EBEBEB"/>
</svg>
