<svg width="33" height="37" viewBox="0 0 33 37" fill="none" xmlns="http://www.w3.org/2000/svg">
  <path d="M29.1944 4.22157H25.6389V0.666016H22.0833V4.22157H11.4167V0.666016H7.86111V4.22157H4.30556C2.34467 4.22157 0.75 5.81624 0.75 7.77713V32.666C0.75 34.6269 2.34467 36.2216 4.30556 36.2216H29.1944C31.1553 36.2216 32.75 34.6269 32.75 32.666V7.77713C32.75 5.81624 31.1553 4.22157 29.1944 4.22157ZM29.198 32.666H4.30556V8.33268H29.1944L29.198 32.666Z" fill="#EBEBEB"/>
  <path d="M14.9722 27.0687L25.118 16.923L22.6042 14.4092L14.9722 22.0412L10.8957 17.9647L8.38196 20.4785L14.9722 27.0687Z" fill="#EBEBEB"/>
</svg>
