<svg xmlns="http://www.w3.org/2000/svg" xmlns:xlink="http://www.w3.org/1999/xlink" viewBox="0 0 202.19 156.42"><defs><linearGradient id="Degradado_sin_nombre_8" x1="101.1" y1="151.51" x2="101.1" y2="60.14" gradientUnits="userSpaceOnUse"><stop offset="0" stop-color="#4fb56d" stop-opacity="0"/><stop offset="0.47" stop-color="#2b9955" stop-opacity="0.52"/><stop offset="0.94" stop-color="#0b7f40"/></linearGradient></defs><g id="Capa_2" data-name="Capa 2"><g id="arbustos_tableros"><g id="arbusto_platinum"><g id="suelo"><g id="monte"><g id="monte-2" data-name="monte"><path d="M59.19,92.62H59.1Z" style="fill:#41995d"/><path d="M58.79,92.52c-.07,0-.15,0-.11,0a1,1,0,0,1,.17,0c.06,0,.1,0,.09,0l.13,0a2,2,0,0,0-.28-.06S58.79,92.52,58.79,92.52Z" style="fill:#41995d"/><path d="M53,91l0,0Z" style="fill:#41995d"/><path d="M49.36,90.19s0,0,0,0S49.36,90.16,49.36,90.19Z" style="fill:#41995d"/><path d="M48.76,89.8l0,0S48.78,89.78,48.76,89.8Z" style="fill:#41995d"/><path d="M53,91l-.09-.08C52.9,91,53,91,53,91Z" style="fill:#41995d"/><path d="M58,92.44h0Z" style="fill:#41995d"/><path d="M54.63,91.2h0l0-.06Z" style="fill:#41995d"/><path d="M55.85,91.51s-.05.08-.07.12,0,0,.07,0A.16.16,0,0,0,55.85,91.51Z" style="fill:#41995d"/><path d="M57.73,92.21h0Z" style="fill:#41995d"/><path d="M53.76,91v0Z" style="fill:#41995d"/><path d="M18.93,92.49h0S18.92,92.49,18.93,92.49Z" style="fill:#41995d"/><polygon points="17.47 92.62 17.49 92.61 17.49 92.61 17.47 92.62" style="fill:#41995d"/><path d="M47.64,89.32h0S47.66,89.3,47.64,89.32Z" style="fill:#41995d"/><path d="M36.88,88.93c.13.24-.19.33,0,.6C36.86,89.42,37,89.09,36.88,88.93Z" style="fill:#41995d"/><path d="M57.93,92.43h0Z" style="fill:#41995d"/><path d="M36.88,89.53h0l0,0Z" style="fill:#41995d"/><path d="M44.94,89.15a.36.36,0,0,0,0,.11A.89.89,0,0,0,44.94,89.15Z" style="fill:#41995d"/><path d="M46.91,89.72l0,0S46.89,89.72,46.91,89.72Z" style="fill:#41995d"/><path d="M43.88,89.42s0-.06-.07,0v0S43.85,89.38,43.88,89.42Z" style="fill:#41995d"/><path d="M42.8,89.37v.06l0,0Z" style="fill:#41995d"/><path d="M22.17,92.15A.41.41,0,0,1,22.1,92C22.14,92.13,22,92.18,22.17,92.15Z" style="fill:#41995d"/><path d="M58,92.42h0S58,92.42,58,92.42Z" style="fill:#41995d"/><path d="M43.72,91.51l-.16,0A.27.27,0,0,0,43.72,91.51Z" style="fill:#41995d"/><path d="M29.8,91.53l0,0S29.79,91.56,29.8,91.53Z" style="fill:#41995d"/><path d="M43.06,91.51a.56.56,0,0,0-.09-.19.14.14,0,0,0,0,.07Z" style="fill:#41995d"/><path d="M22.1,92Z" style="fill:#41995d"/><path d="M21,92.4c.17,0,.06-.13.07-.21.19-.06.11.09.19.15s.18-.18.28-.18,0,0,0,.06c.11-.13.38,0,.5-.21,0,0,0,0,0,0a.73.73,0,0,1-.06-.22c.07,0,.11-.12.16,0s0,0-.05.09l.06-.06c.1.15-.09.07-.07.18.14-.06.29-.22.41-.19s-.26.08-.08.21l-.19,0c.18.23-.11,0,.06.24.24,0,.25-.1.49-.08,0-.09,0-.13,0-.23.3-.21.33.4.53.15,0-.12,0-.35.22-.25l0,.21c.22,0,.08-.31.33-.19,0,.09-.16.09-.12.11s.08-.13.2-.14L24,92c.23,0,.47-.22.72-.29,0,.07,0,.13,0,.19a1.48,1.48,0,0,1,1.05.08l.1-.2s.06.08,0,.12,0-.12,0-.21.11.11.07.18c.2-.19.57-.44.84-.23l0,.07c.19.07.14-.46.34-.27l0,0c.4.06.81-.2,1.15.14,0-.34.41.13.38-.35.25.22.19.31.52.46.09,0,.1-.32.19-.38l0,.26.12-.28.1.31.09-.08s-.09-.11-.09-.19.39.16.4.3l.34-.25a.37.37,0,0,1-.09.22c.16-.29.06.28.21,0,0-.06,0-.16,0-.22a.32.32,0,0,0,.44.07v.19a5.42,5.42,0,0,0,.85-.12c-.11-.08-.12-.42,0-.46l.06.3c0-.19-.1-.11,0-.34.11,0,.1.34,0,.44l.13-.11a2.36,2.36,0,0,1,0,.25c0-.19.25.29.31,0v.09c.3,0,.43-.12.67-.14,0-.27.09-.22.15-.43.18.07.39.27.61.24s0-.23.09-.4c0,.25.24.22.13.4a1.33,1.33,0,0,0,.65-.27c0-.1-.08-.14-.07-.23s.14.1.14.22v0c.35-.39.88.71,1.15.17l0,0,.29-.28c.15,0-.07.19,0,.34.31-.43.51,0,.77-.25.23.75.74,0,1,.43l0-.18c.07-.17.09.1.15.14,0-.14-.08-.16,0-.25.61-.22,1.27.25,1.9.4.23,0,.14-.92.43-.5l-.09.33c.47-.39.95,0,1.41-.3,0,.08,0,.18-.08.17.09.24.36,0,.37-.17.07,0,0,.17.05.27s.25-.29.29-.06c0,0,0,.08,0,.09s.29,0,.24-.23c.16.13.33-.12.46,0,.1-.29.29.15.33-.27,0,.43.29.35.41.15-.05.13.08.14,0,.31.12,0,.24-.08.23-.3.2.52.48-.38.57.27a3.77,3.77,0,0,1,1.07-.41c0,.4-.37,0-.38.45.32-.16.53-.5.83-.38.08.06-.06.17-.09.24.33-.15.6.06.9-.14,0,0,0,.07-.07.1s.12.06.13-.11l0,0c-.07-.26.26-.52.29-.65-.14.49.26.14,0,.76a.33.33,0,0,0,.1-.23s.06.11,0,.24c.21-.09.16-.27.33-.26,0,.08,0,.11-.07.21.1-.16.21-.31.35-.23,0,0,0,.12,0,.11.26,0,.48-.37.75-.19-.12.33.08.12.06.42l.17-.08,0-.14c.13,0,.28-.19.38-.08l-.11.11.26,0-.13-.12c.15-.14,0-.37.2-.27,0,0,.13,0,.18.2h0c.08-.08.16-.17.25-.09a3,3,0,0,1-.06.36c.1-.22.33,0,.44-.26a.68.68,0,0,0,0,.22l.08-.17c0,.06.06.09,0,.2.19,0,0-.34.19-.17,0,0,0,0,0,.06.21.09.44-.07.64,0,0,.26-.19,0-.15.26.3,0,.65-.24.93-.13l-.05,0c.09-.32.18.2.35.07,0,0-.07.17-.06.13.19.08.41,0,.72-.07l0,.07c.1.09.3.08.41.14s.12,0,.1-.16c.31.45.77-.09,1.05.27-.05,0-.11,0-.08,0l.3,0c0-.11,0-.07-.07-.16a.21.21,0,0,1,.21-.07c-.14,0,0,.16,0,.22s0-.06,0-.09c.11.2.07-.2.25,0l0,0c.08,0,.16-.06.24,0s-.09,0-.11.12.27-.16.35,0a1.24,1.24,0,0,0-.18,0c.09.14.11.11.19.15h0l.19.09,0,0c.2-.22.31,0,.54-.09-.23.09-.05.07-.09.17s.11.08.08.1.15.08.3,0,.1,0,.06.08c.13,0,0,0,0-.08.21-.05.42.17.71.11a4.81,4.81,0,0,1,.52,0c.06,0-.08,0-.08,0a.87.87,0,0,0,.31.07s0,0,0,.05.07,0,.18,0a.2.2,0,0,1-.1,0l.33,0s-.08,0-.12,0a1.68,1.68,0,0,0,.36,0l-.07,0s0,0,0,0-.14,0-.15,0h.08c-.06-.07-.31-.06-.46-.09l.08,0h-.17s0-.06,0,0c-.1-.06-.1,0-.18-.06s0,0,0,0h-.11s0-.06.06,0c-.18-.1-.32,0-.38-.11h0c-.27,0,0,.06-.26.09L57,91.94l0,.06s-.08,0-.07,0,0,0-.06.07-.37-.06-.37-.2c-.06.05.12.08,0,.09,0-.17-.17,0-.27-.12s.15,0,0-.11c-.1.13-.22-.1-.33-.1s-.23,0-.41,0c0,0-.31-.15-.45-.25v0c-.07.14-.23.08-.35.09a.18.18,0,0,1,.12-.16l-.11,0a.19.19,0,0,1-.15.06l.05-.11c-.15,0-.33.08-.51-.06,0,.13.09.38-.13.43,0-.07,0-.19.08-.21s-.08.05-.11,0l.11-.1c-.08-.07-.07.09-.14.06s0-.08,0-.15,0,0,.09,0a.35.35,0,0,1-.18-.2c0,.06,0,.13-.09.13s0-.13-.1-.2-.13,0-.17.12c0,0,0-.09,0-.13s-.37-.07-.31.13h0c-.28.11-.51-.21-.78-.19v-.06c-.16,0-.34,0-.47.08s-.09-.14-.06-.21-.15.09-.3,0c.13-.09,0-.11.13-.06-.14-.08-.16-.2-.35,0a.13.13,0,0,0-.16-.2l.09.14a.43.43,0,0,1-.23,0l.08-.22c-.28-.34-.63.39-.8-.14-.11.16.15.15,0,.33-.14,0-.24-.43-.29-.44-.18-.17-.23.33-.42.21,0,.09,0,.33-.16.39s-.12-.4,0-.46,0,0,0,.06.11,0,.07-.16l0,.09c-.06-.11-.26-.13-.19-.27-.12.06-.07.14,0,.2-.17-.16-.29,0-.47-.17,0,0,0,.17,0,.16-.27-.16-.14.16-.34.17-.09-.16.08-.34-.12-.25-.11-.11,0-.26,0-.32-.19.15-.31-.18-.4-.24l.1-.06a.17.17,0,0,1-.15,0l0,.2s-.1-.05-.09-.13c-.06.12,0,.33-.12.49-.06-.11-.22.09-.22-.18.21.12,0-.27.19-.29,0,0-.08,0-.13,0a0,0,0,0,1,0-.06c-.2-.27-.13.28-.35.25,0-.15,0-.29-.07-.26s0,.25-.07.36c-.14-.13-.17.07-.24,0l.08.06c0,.15-.11.13-.22.17,0-.13.1-.08.07-.13-.14.26-.23-.31-.4-.14-.06-.12,0-.3,0-.38-.19.19-.17-.23-.37-.09,0,.22,0,.17-.09.37l.31-.12-.22.29c.09,0,.21-.12.26-.08-.11.17-.1.11-.07.29-.09-.33-.26.17-.38-.06l0-.53c-.19-.26-.4.23-.67.07l.08.1c0,.21-.17,0-.27.09a.8.8,0,0,0-.06-.37c0,.14-.21,0-.26.33l-.11-.25c-.22-.12-.28.5-.5.42.08-.2,0-.34.14-.47-.07,0-.13-.05-.14.08,0-.12-.22.24-.28.06,0,.08-.05.27-.13.26a.31.31,0,0,1,0-.1c0,.1-.13.12-.07.33-.19-.59-.62,0-.8-.49a1.88,1.88,0,0,1-.5.11c0-.05,0-.09,0-.07-.19-.19-.14.54-.35.34s.12-.17,0-.29c0-.63-.27.08-.42-.3l0,0c-.11-.22-.29.23-.48.18a.77.77,0,0,0,0-.1,1,1,0,0,1-.57.51c.06-.25.08-.13.05-.39-.08,0,0,.41-.14.48a1.35,1.35,0,0,1-.18-.54h.15c-.07-.36-.2,0-.28,0V89.1c-.24.05-.24.44-.5.42l0,.11c-.14.39-.11-.21-.25.08l0-.4a2.35,2.35,0,0,1-.48.46,2.14,2.14,0,0,1,.4-.62c-.09,0-.31,0-.35.23,0,0,.08-.14.12-.08-.11.31-.26.47-.44.46,0-.76-.47-.19-.61-.78-.32.28-.64-.12-1-.07.15.59-.11,0-.07.63-.08,0-.12,0-.13,0l-.27-.35c-.07-.17.08-.14.07-.27-.19,0-.09-.26-.22-.41,0,.21-.06.31-.17.24l.16.27c-.25.33-.24-.5-.5-.17l.07-.19c-.13.12-.51,0-.62.52,0-.07-.07-.24,0-.28-.33,0-.71.55-1,.27l0-.15c-.06,0-.1.28-.18.14s0-.15,0-.15-.15.26-.24.18l.06-.16c-.33-.17-.47.42-.73.54a.59.59,0,0,0-.42-.58v-.06c-.37,0-.61.41-.94.6-.25-.42-.74-.11-1.1-.31.06.06,0,.31,0,.35s-.2.3-.22-.06h0c-.09-.35-.25-.23-.38-.22l0,.47c-.4-.62-.86.36-1.1-.2-.07.12-.17.14-.24.26l0-.24a1.15,1.15,0,0,0-.62.07l0-.18c-.16,0-.13.69-.27.72L28,89.85c-.28.05-.59-.18-.82.16,0-.05,0-.14,0-.16-.13,0-.53-.12-.42.3,0-.28-.29,0-.42.17v-.2c-.09.28-.09.34-.25.44s-.06-.15,0-.11c-.15-.07-.08.2-.26.13l.05-.13c-.15,0-.13.07-.18.22s-.28,0-.32-.16c0,.1-.06.25-.15.22a.17.17,0,0,1,0-.13c-.25-.08-.31.28-.5.13a.19.19,0,0,0,0-.09c.18,0,.33-.06.32,0,0-.17-.18-.16-.09-.42-.1.16-.27.46-.43.42l0,0,0,0a.08.08,0,0,0-.09,0,.3.3,0,0,0-.13,0c0-.13-.18,0-.26,0s-.07.16.05.27,0,0,.05,0,0,0,0,0h0l.19-.05c-.05.1-.1.18-.2.11l-.06.29c-.14-.22-.36-.29-.41-.42-.21.14-.52.19-.62.49-.06,0-.09-.07-.12-.1S23,91,23,91c-.11.1-.37.12-.37.31-.18,0,.06-.19-.16-.11l0-.06c-.48-.15-.64.58-1.18.37,0,0,0,0,.06,0-.57,0-1.12.37-1.69.36-.16,0-.17.08-.25.15l0-.06-.14.12c-.22.1-.43,0-.69.15h0c-.11,0-.33.11-.31.08s0,0-.08,0h0l-.25.09c-.2.06,0,0-.26.05l-.26.11.12,0-.1,0h.15l.17,0h.06l-.14,0a.54.54,0,0,0,.19,0H18l.17-.06s-.07,0,0,0-.08,0,.05-.06.06,0,.16,0,0,0,0,0a1.26,1.26,0,0,0,.26-.06c.1,0,.29,0,.3,0a.6.6,0,0,1,.21-.09c-.12.11.3,0,.29.09.08-.11.38-.08.55-.17,0,0,0,0,0,0a.58.58,0,0,1,.22.06c0-.11.15-.15.23-.24.15.1-.05.15,0,.25,0-.09.21-.11.15-.19.11.06.09,0,.16.12,0-.16.09,0,.15-.14.16.06.07.15.22.08S21,92.4,21,92.4Zm3.7-.75h0l-.08,0Zm.32,0h-.14c0-.06,0-.12,0-.12S25,91.57,25.05,91.61Zm-.85-1.08c.05,0,.07,0,.08,0l-.08,0v0A.28.28,0,0,1,24.2,90.53Z" style="fill:#41995d"/><path d="M24.14,90.77s0,0,0,0l0,0v-.06Z" style="fill:#41995d"/><path d="M53.05,91h0s0,0,0,0Z" style="fill:#41995d"/><polygon points="29.46 91.67 29.45 91.61 29.43 91.67 29.46 91.67" style="fill:#41995d"/><path d="M54.68,91.79s0,0,0,0A.08.08,0,0,0,54.68,91.79Z" style="fill:#41995d"/><path d="M55.43,91.93l.1,0Z" style="fill:#41995d"/><path d="M56,92.08l0,0h0Z" style="fill:#41995d"/><path d="M46.8,91.34h0C46.72,91.39,46.76,91.38,46.8,91.34Z" style="fill:#41995d"/><path d="M49.59,91l-.1.09S49.57,91.16,49.59,91Z" style="fill:#41995d"/><polygon points="43.74 91.52 43.74 91.51 43.72 91.51 43.74 91.52" style="fill:#41995d"/><path d="M49.36,91.11a.1.1,0,0,0,.13,0S49.4,91.08,49.36,91.11Z" style="fill:#41995d"/><polygon points="58.48 92.52 58.51 92.52 58.51 92.52 58.48 92.52" style="fill:#41995d"/><path d="M58.51,92.52h0Z" style="fill:#41995d"/><path d="M58.61,92.53h0Z" style="fill:#41995d"/><path d="M57.72,92.38v0S57.72,92.39,57.72,92.38Z" style="fill:#41995d"/><path d="M57.49,92.35a.8.8,0,0,0,.2.06h0C57.66,92.42,57.55,92.33,57.49,92.35Z" style="fill:#41995d"/><path d="M56.6,91.84l.19.07s-.06-.09,0-.07C56.6,91.68,56.85,91.92,56.6,91.84Z" style="fill:#41995d"/><path d="M56,91.61c.1,0,0,0,0-.07S56,91.56,56,91.61Z" style="fill:#41995d"/><path d="M51.72,90.58l0-.16C51.67,90.42,51.74,90.48,51.72,90.58Z" style="fill:#41995d"/><polygon points="50.75 91.34 50.81 91.46 50.87 91.3 50.75 91.34" style="fill:#41995d"/><polygon points="50.44 90 50.48 89.98 50.33 90.02 50.44 90" style="fill:#41995d"/><path d="M43,89.14v.3C43.07,89.39,43.09,89.05,43,89.14Z" style="fill:#41995d"/><path d="M39.76,89.34c0-.16-.12-.26-.18-.1S39.73,89.38,39.76,89.34Z" style="fill:#41995d"/><polygon points="30.09 89.42 30.14 89.32 30.03 89.42 30.09 89.42" style="fill:#41995d"/></g><g id="monte-3" data-name="monte"><path d="M76.5,107.7h0Z" style="fill:#41995d"/><path d="M76.27,107.65s-.09,0-.07,0a.44.44,0,0,1,.1,0l0,0h.07a.57.57,0,0,0-.15,0S76.27,107.65,76.27,107.65Z" style="fill:#41995d"/><path d="M73.1,106.68v0A0,0,0,0,0,73.1,106.68Z" style="fill:#41995d"/><path d="M71.09,106.14l0,0A.05.05,0,0,0,71.09,106.14Z" style="fill:#41995d"/><path d="M70.77,105.79l0,0S70.78,105.77,70.77,105.79Z" style="fill:#41995d"/><path d="M73.1,106.68l0-.08C73,106.66,73.07,106.66,73.1,106.68Z" style="fill:#41995d"/><path d="M75.8,107.65h0Z" style="fill:#41995d"/><path d="M74,106.77h0l0-.06Z" style="fill:#41995d"/><path d="M74.68,107s-.05.08-.06.12,0,0,0,0A.2.2,0,0,1,74.68,107Z" style="fill:#41995d"/><path d="M75.69,107.45h0Z" style="fill:#41995d"/><path d="M73.53,106.6v0Z" style="fill:#41995d"/><path d="M54.26,107.72Z" style="fill:#41995d"/><polygon points="53.44 107.7 53.45 107.7 53.45 107.7 53.44 107.7" style="fill:#41995d"/><path d="M70.16,105.36h0S70.17,105.35,70.16,105.36Z" style="fill:#41995d"/><path d="M64.15,105.15c.08.24-.1.32,0,.59C64.15,105.64,64.24,105.3,64.15,105.15Z" style="fill:#41995d"/><path d="M75.79,107.65h0Z" style="fill:#41995d"/><path d="M64.16,105.74h0v0Z" style="fill:#41995d"/><path d="M68.65,105.29a.45.45,0,0,0,0,.12A.62.62,0,0,0,68.65,105.29Z" style="fill:#41995d"/><path d="M69.73,105.79l0,0Z" style="fill:#41995d"/><path d="M68.05,105.6s0-.06,0,0v0S68,105.55,68.05,105.6Z" style="fill:#41995d"/><path d="M67.45,105.56v.06l0,0Z" style="fill:#41995d"/><path d="M56.08,107.67a.37.37,0,0,1,0-.11C56.06,107.65,56,107.68,56.08,107.67Z" style="fill:#41995d"/><path d="M75.81,107.63l0,0h0Z" style="fill:#41995d"/><path d="M67.91,107.69l-.09,0A.12.12,0,0,0,67.91,107.69Z" style="fill:#41995d"/><path d="M60.29,107.54v0S60.29,107.56,60.29,107.54Z" style="fill:#41995d"/><path d="M67.55,107.69a.82.82,0,0,0,0-.18l0,.07Z" style="fill:#41995d"/><path d="M56,107.56Z" style="fill:#41995d"/><path d="M55.45,107.83c.1,0,0-.13,0-.21s.07.1.12.17.08-.16.13-.16a.11.11,0,0,1,0,.06c0-.12.21,0,.26-.17,0,0,0,0,0,0a.68.68,0,0,1-.05-.22s.05-.11.09,0,0,0,0,.07l0,0c.06.15,0,.06,0,.17.07,0,.14-.19.21-.15s-.13.06,0,.2l-.11-.06c.12.24-.07,0,0,.24.14,0,.13-.08.27,0s0-.13,0-.23.21.43.31.19,0-.35.1-.23v.21c.13,0,0-.31.18-.17,0,.09-.09.08-.07.1.12.17,0-.12.11-.13l0,.2c.13,0,.25-.19.39-.24a.31.31,0,0,0,0,.19c.17-.11.4,0,.59.15l0-.2s.05.09,0,.13,0-.13,0-.21.07.12.05.18c.1-.17.3-.4.46-.17l0,.06c.11.09,0-.45.17-.25v0c.23.09.44-.14.65.2,0-.33.23.15.19-.33.15.24.12.32.31.48s0-.3.09-.36l0,.26,0-.28.07.31.05-.06a.38.38,0,0,1-.07-.2c.08-.12.23.18.24.32l.18-.24a.6.6,0,0,1-.05.22c.08-.28.05.28.12,0a1.62,1.62,0,0,1,0-.22c.07.16.17.16.25.09v.19c.15,0,.3-.09.47-.09a.69.69,0,0,1,0-.46l0,.3c0-.19,0-.11,0-.34.07,0,.07.34,0,.44l.07-.11a2.08,2.08,0,0,1,0,.25c0-.19.15.3.17,0v.09c.17,0,.23-.11.36-.13,0-.26,0-.21.07-.42.1.08.23.29.34.26s0-.23,0-.39c0,.24.14.22.09.4.14,0,.18-.05.34-.26a1,1,0,0,1,0-.23s.08.11.08.23v0c.18-.38.49.73.63.2v0l.16-.28c.08.05,0,.2,0,.35.17-.43.29.06.43-.23.13.75.4,0,.56.43v-.18c0-.18,0,.1.08.14,0-.14,0-.16,0-.25.33-.22.69.25,1,.4.13,0,.08-.91.24-.5l0,.33c.26-.39.52,0,.77-.31,0,.08,0,.17,0,.17,0,.24.19,0,.2-.18,0,0,0,.18,0,.27s.15-.3.17-.06a.24.24,0,0,1,0,.09c0-.11.16,0,.13-.24.09.13.19-.12.26,0,.06-.3.15.14.18-.28,0,.43.15.35.22.15,0,.12,0,.13,0,.31.07,0,.14-.09.14-.31.09.51.27-.39.3.25a2.17,2.17,0,0,1,.6-.45c0,.4-.2,0-.22.46.18-.17.31-.51.47-.4s0,.17-.06.24c.18-.16.33,0,.5-.17a.21.21,0,0,1,0,.1s.06.06.08-.12l0,0c0-.26.17-.53.19-.66-.1.5.14.13,0,.76a.67.67,0,0,0,.06-.23s0,.1,0,.23c.11-.09.09-.28.19-.27s0,.11,0,.21c.07-.16.13-.31.21-.24s0,.11,0,.11c.14,0,.28-.4.42-.23-.08.33,0,.11,0,.4l.09-.08v-.14c.07,0,.16-.2.21-.1l-.07.12.15,0-.07-.11c.1-.14,0-.36.13-.27s.07,0,.09.18h0c0-.09.1-.17.14-.1s0,.3,0,.36c.07-.23.18,0,.26-.29a1.24,1.24,0,0,0,0,.23l0-.18c0,.06,0,.09,0,.2s0-.34.12-.18c0,0,0,0,0,.06s.26-.09.36,0c0,.25-.11,0-.1.27.17,0,.38-.28.53-.2l0,0c.08-.33.09.18.2,0,0,0-.06.18,0,.14s.23-.05.41-.13l0,.08c0,.08.16.06.22.1s.07-.06.07-.17c.14.43.44-.15.57.19,0,0-.07,0,0,0l.17,0c0-.11,0-.07,0-.15s.08-.1.12-.09,0,.16,0,.22,0-.06,0-.1c0,.19.06-.19.15-.06l0,0c.05,0,.1-.07.15,0s-.06,0-.08.13.17-.18.2-.07-.07,0-.1,0,0,.1.09.13h0l.1.06,0,0c.13-.23.17,0,.31-.15-.14.12,0,.08-.07.18s.06.06,0,.09.08.06.17,0,.06,0,0,.07,0,0,0-.08.22.13.4,0,.17-.08.3-.08,0,.05,0,.05a.21.21,0,0,0,.17,0s0,0,0,0,0,0,.11,0l-.07,0a1.28,1.28,0,0,1,.19,0s0,0-.07,0,.19,0,.21,0h0s0,0,0,0-.08,0-.08,0h0c0-.06-.17,0-.26,0l0,0-.1,0s0-.06,0,0-.06,0-.1-.05,0,0,0,0h-.06s0-.06,0,0-.19,0-.21-.06h0c-.15,0,0,.06-.16.12l0-.2,0,.07s0,0,0,0,0,0,0,.08c0-.1-.2,0-.19-.16,0,.06.06.07,0,.09,0-.16-.09,0-.14-.08s.09,0,0-.12c-.07.14-.12-.07-.18-.06s-.14,0-.24,0-.16-.12-.24-.2v0c0,.15-.13.1-.2.12s0-.13.08-.16l-.06,0s0,.07-.09.08l0-.12c-.09,0-.2.1-.29,0,0,.13,0,.37-.11.43s0-.19.06-.21,0,0-.06,0l.07-.11c0-.06,0,.09-.08.08s0-.08,0-.16,0,0,0,0a.24.24,0,0,1-.08-.19c0,.06,0,.14-.06.14s0-.12,0-.19-.07,0-.1.13c0,0,0-.08,0-.13s-.2,0-.18.16h0c-.17.13-.28-.17-.43-.13v-.06c-.1,0-.2,0-.28.12a.25.25,0,0,1,0-.2c-.08,0-.09.1-.17,0,.08-.1,0-.11.08-.07-.08-.07-.08-.18-.2,0,.06-.16,0-.23-.08-.19l0,.14a.18.18,0,0,1-.12,0l.06-.22c-.14-.33-.38.42-.45-.09-.07.16.08.14,0,.32-.07,0-.11-.41-.13-.42s-.15.34-.25.23c0,.09,0,.33-.11.4s0-.4,0-.46,0,0,0,.06a.14.14,0,0,0,0-.16l0,.08c0-.1-.14-.11-.1-.25-.07.07,0,.14,0,.2-.09-.16-.16,0-.26-.15,0,.06,0,.17,0,.16s-.09.17-.2.19c0-.15.06-.34-.06-.24a.42.42,0,0,1,0-.32c-.12.16-.17-.16-.22-.21l.06-.07s-.06,0-.09,0v.2s0,0,0-.13a2.57,2.57,0,0,1-.09.49c0-.1-.13.1-.12-.17.12.11,0-.27.13-.29s0,0-.08,0a.14.14,0,0,1,0-.07c-.1-.25-.09.29-.21.27s0-.29,0-.26,0,.25-.06.36c-.07-.13-.1.08-.14.06l0,.06c0,.15-.07.13-.13.17,0-.12.06-.08,0-.13-.08.26-.11-.3-.22-.13,0-.11,0-.29,0-.37-.12.19-.09-.22-.21-.07a.46.46,0,0,1-.06.36l.18-.13-.14.3c.05,0,.12-.12.15-.08a.37.37,0,0,0,0,.29c0-.33-.15.17-.21,0l0-.53c-.1-.25-.23.24-.38.09l0,.1c0,.21-.1,0-.16.1a1.26,1.26,0,0,0,0-.36c0,.13-.12,0-.15.33l-.06-.25c-.12-.11-.17.51-.29.44,0-.2,0-.34.09-.47s-.08,0-.08.08c0-.12-.13.24-.16.06,0,.09,0,.28-.08.26a.55.55,0,0,1,0-.09c0,.09-.08.12,0,.33-.1-.59-.35,0-.43-.48a1.07,1.07,0,0,1-.28.12c0-.06,0-.1,0-.07-.1-.19-.08.54-.2.34s.07-.17,0-.29c0-.63-.15.08-.22-.29l0,0c-.06-.22-.17.23-.27.18a.24.24,0,0,0,0-.09.85.85,0,0,1-.32.51.85.85,0,0,0,0-.39s0,.41-.08.48a2.16,2.16,0,0,1-.1-.53l.09,0c0-.35-.11,0-.16,0v-.15c-.13,0-.14.44-.28.41l0,.12c-.08.39-.07-.22-.14.07l0-.39a2.07,2.07,0,0,1-.27.45,2.3,2.3,0,0,1,.23-.61s-.17,0-.2.22c0,0,.05-.14.07-.07-.07.31-.15.46-.25.45,0-.76-.26-.19-.34-.78-.17.28-.36-.12-.57-.07.09.59-.06,0,0,.63,0,0-.07,0-.07,0l-.16-.36c0-.17,0-.14,0-.27s-.05-.26-.13-.41c0,.21,0,.31-.09.23l.09.28c-.14.33-.14-.51-.28-.18l0-.19c-.08.12-.29,0-.34.5,0-.07,0-.23,0-.27-.19-.06-.39.53-.55.25v-.15s0,.28-.09.14,0-.15,0-.16-.07.26-.12.18l0-.16c-.19-.18-.26.41-.4.53,0-.42-.17-.54-.25-.6v-.06c-.21,0-.33.39-.51.57-.15-.43-.42-.14-.63-.35a.59.59,0,0,1,0,.35c-.05-.07-.1.29-.12-.07h0c-.07-.34-.15-.23-.23-.23l0,.46c-.26-.63-.47.32-.63-.24,0,.12-.09.13-.12.24l0-.23a.35.35,0,0,0-.34,0v-.16c-.09,0,0,.67-.11.69l-.07-.32c-.15,0-.34-.22-.45.1,0,0,0-.14,0-.16s-.3-.14-.22.28c0-.27-.16,0-.22.15l0-.2c0,.27,0,.33-.11.42s0-.15,0-.11,0,.2-.14.11v-.13c-.08,0-.06.07-.08.22s-.16,0-.19-.19c0,.11,0,.25-.07.21a.16.16,0,0,1,0-.12c-.15-.09-.16.25-.28.1a.23.23,0,0,0,0-.1c.1,0,.19,0,.18,0,0-.17-.11-.17-.08-.42,0,.15-.12.44-.21.39l0,0v0s0,0,0,0-.05,0-.08,0-.1,0-.14,0c0,.17,0,.15,0,.28s0,0,0,0l0,0v0l.11,0c0,.09-.05.17-.11.09v.28c-.1-.22-.22-.31-.26-.44-.11.12-.29.15-.32.44,0,0,0-.07-.07-.11s0,0,0-.08-.2.09-.19.27c-.1-.05,0-.17-.1-.11v-.06c-.29-.18-.32.52-.64.27,0,0,0,0,0,0-.33,0-.61.27-.94.22-.09,0-.08.06-.13.11l0-.06-.07.11c-.12.07-.25-.06-.39.07l0,0c-.06,0-.18.07-.17,0s0,0,0,0h0l-.14.07c-.11,0,0,0-.14,0l-.14.07.06,0,0,0h.28a.16.16,0,0,0,.09,0s0,0,0,0-.05,0,0,0,0,0,.09,0,0,0,0,0,.13,0,.15,0,.16,0,.17.06a.22.22,0,0,1,.12-.07c-.06.1.16,0,.17.11,0-.1.21,0,.3-.11s0,0,0,0,.08,0,.13.07.07-.13.11-.21c.09.11,0,.14,0,.24,0-.09.1-.09.06-.17.07.07.06,0,.11.13,0-.16,0,0,.07-.13.1.08,0,.16.13.1S55.45,107.83,55.45,107.83Zm2-.46h0Zm.18,0a.11.11,0,0,0-.08,0c0-.06,0-.13,0-.12S57.62,107.31,57.66,107.36Zm-.55-1.13s0,0,0,0l0,0v0S57.1,106.25,57.11,106.23Z" style="fill:#41995d"/><path d="M57.09,106.46s0,0,0,0l0,0v-.05Z" style="fill:#41995d"/><path d="M73.12,106.71h0a0,0,0,0,1,0,0Z" style="fill:#41995d"/><polygon points="60.11 107.66 60.11 107.6 60.1 107.65 60.11 107.66" style="fill:#41995d"/><path d="M74,107.35a0,0,0,0,0,0,0A0,0,0,0,0,74,107.35Z" style="fill:#41995d"/><path d="M74.39,107.42l0,0Z" style="fill:#41995d"/><path d="M74.7,107.51v0h0Z" style="fill:#41995d"/><path d="M69.61,107.41h0S69.58,107.45,69.61,107.41Z" style="fill:#41995d"/><path d="M71.17,107a.35.35,0,0,1-.06.09S71.15,107.09,71.17,107Z" style="fill:#41995d"/><polygon points="67.92 107.69 67.92 107.69 67.91 107.69 67.92 107.69" style="fill:#41995d"/><path d="M71,107.06s0,0,.07,0S71.06,107,71,107.06Z" style="fill:#41995d"/><polygon points="76.09 107.68 76.11 107.68 76.11 107.67 76.09 107.68" style="fill:#41995d"/><path d="M76.11,107.67h0Z" style="fill:#41995d"/><path d="M76.17,107.67h0S76.16,107.68,76.17,107.67Z" style="fill:#41995d"/><path d="M75.67,107.63h0A0,0,0,0,1,75.67,107.63Z" style="fill:#41995d"/><path d="M75.54,107.62s.06,0,.11,0h0S75.57,107.59,75.54,107.62Z" style="fill:#41995d"/><path d="M75.08,107.21l.1.06s0-.09,0-.07C75.09,107.06,75.21,107.27,75.08,107.21Z" style="fill:#41995d"/><path d="M74.77,107.05c.06,0,0,0,0-.07S74.73,107,74.77,107.05Z" style="fill:#41995d"/><path d="M72.39,106.39l0-.16S72.41,106.29,72.39,106.39Z" style="fill:#41995d"/><polygon points="71.8 107.2 71.83 107.32 71.87 107.16 71.8 107.2" style="fill:#41995d"/><polygon points="71.7 105.89 71.73 105.87 71.64 105.92 71.7 105.89" style="fill:#41995d"/><path d="M67.56,105.33v.3S67.62,105.24,67.56,105.33Z" style="fill:#41995d"/><path d="M65.76,105.56c0-.15-.07-.25-.1-.1S65.74,105.6,65.76,105.56Z" style="fill:#41995d"/><polygon points="60.36 105.45 60.39 105.35 60.33 105.44 60.36 105.45" style="fill:#41995d"/></g><g id="monte-4" data-name="monte"><path d="M166.26,110s0,0,0,0h0Z" style="fill:#41995d"/><path d="M166.13,110s-.06,0,0,0l.06,0s0,0,0,0h0l-.09,0Z" style="fill:#41995d"/><path d="M164.3,109.32v0S164.3,109.33,164.3,109.32Z" style="fill:#41995d"/><path d="M163.14,108.91s0,0,0,0S163.14,108.89,163.14,108.91Z" style="fill:#41995d"/><path d="M163,108.58v0S163,108.57,163,108.58Z" style="fill:#41995d"/><path d="M164.3,109.32l0-.07C164.27,109.31,164.29,109.3,164.3,109.32Z" style="fill:#41995d"/><polygon points="165.84 110.05 165.86 110.03 165.84 110.04 165.84 110.05" style="fill:#41995d"/><path d="M164.83,109.35h0l0-.06Z" style="fill:#41995d"/><path d="M165.22,109.49a.5.5,0,0,0,0,.13.1.1,0,0,1,0-.06Z" style="fill:#41995d"/><path d="M165.79,109.86h0Z" style="fill:#41995d"/><path d="M164.56,109.22v0Z" style="fill:#41995d"/><path d="M153.36,110.12Z" style="fill:#41995d"/><polygon points="152.86 110.02 152.87 110.02 152.87 110.02 152.86 110.02" style="fill:#41995d"/><path d="M162.62,108.19h0S162.63,108.17,162.62,108.19Z" style="fill:#41995d"/><path d="M159.07,108.05c.05.25,0,.33,0,.6A2,2,0,0,0,159.07,108.05Z" style="fill:#41995d"/><path d="M165.83,110h0Z" style="fill:#41995d"/><path d="M159.08,108.65h0v0Z" style="fill:#41995d"/><path d="M161.73,108.16v0Z" style="fill:#41995d"/><path d="M162.35,108.63v0A.08.08,0,0,1,162.35,108.63Z" style="fill:#41995d"/><path d="M161.37,108.48s0-.06,0,0v0S161.36,108.44,161.37,108.48Z" style="fill:#41995d"/><path d="M161,108.46v.05h0Z" style="fill:#41995d"/><path d="M154.43,110.22l0-.11C154.42,110.2,154.37,110.22,154.43,110.22Z" style="fill:#41995d"/><path d="M165.85,110s0,0,0,0h0A0,0,0,0,0,165.85,110Z" style="fill:#41995d"/><path d="M161.24,110.58l-.05,0A.07.07,0,0,0,161.24,110.58Z" style="fill:#41995d"/><path d="M156.89,110.34v0S156.89,110.36,156.89,110.34Z" style="fill:#41995d"/><path d="M161,110.59a.71.71,0,0,0,0-.19v.07Z" style="fill:#41995d"/><path d="M154.4,110.11Z" style="fill:#41995d"/><path d="M154.08,110.31s0-.12,0-.19.05.1.09.17,0-.15.07-.14,0,0,0,.06.12,0,.14-.14l0,0c0-.08,0-.16-.05-.22s0-.11.05,0,0,0,0,.07l0,0c.05.15,0,0,0,.16s.07-.18.11-.13-.07,0,0,.19l-.07-.06c.09.24,0,0,.05.24.09.06.07-.07.16,0,0-.09,0-.14,0-.23s.16.43.19.21,0-.34.05-.22l0,.2c.07,0,0-.3.09-.15s0,.06,0,.09,0-.12.05-.12l0,.19c.07,0,.13-.16.21-.2a.42.42,0,0,0,0,.19c.09-.1.23,0,.35.19l0-.2a.24.24,0,0,1,0,.13c.05.08,0-.12,0-.2s.05.11,0,.17c.05-.16.15-.37.26-.15v.07c.07.09,0-.44.09-.24v0c.14.09.25-.12.39.23,0-.33.14.16.09-.31a2.25,2.25,0,0,0,.21.49s0-.31,0-.36l0,.26,0-.27,0,.31,0-.07a.44.44,0,0,1,0-.19c0-.12.14.18.15.32l.1-.22a1.15,1.15,0,0,1,0,.21c0-.27,0,.28.07,0,0-.06,0-.16,0-.21,0,.16.11.17.15.1v.19c.09,0,.17-.08.26-.08a1.07,1.07,0,0,1,0-.46l0,.3c0-.18,0-.11,0-.34a1.18,1.18,0,0,1,0,.44l0-.1a1.85,1.85,0,0,1,0,.25c0-.19.1.3.1,0v.09c.09,0,.13-.1.2-.12a2.58,2.58,0,0,1,0-.42c.06.09.14.3.2.27a2.24,2.24,0,0,0,0-.38c0,.24.08.22,0,.4.08,0,.11,0,.2-.25a1,1,0,0,1,0-.23s0,.1,0,.22v0c.1-.38.29.73.36.2v0l.09-.28s0,.2,0,.35c.09-.42.17.06.24-.22.09.75.23,0,.33.43v-.18c0-.18,0,.1.05.14a1.29,1.29,0,0,1,0-.25c.19-.22.4.25.59.41s.05-.92.14-.5l0,.33c.15-.4.29,0,.44-.33,0,.08,0,.18,0,.18,0,.23.11,0,.12-.19a1.94,1.94,0,0,1,0,.27c0,.14.09-.3.1-.07a.87.87,0,0,1,0,.1c0-.12.09,0,.08-.24,0,.12.11-.13.14,0,0-.3.09.14.12-.28,0,.43.07.34.12.14,0,.13,0,.14,0,.31,0,0,.08-.08.08-.3,0,.5.17-.41.17.24a1.7,1.7,0,0,1,.36-.48c0,.41-.12,0-.15.47.11-.17.2-.52.29-.42s0,.17-.05.24c.12-.16.19,0,.3-.18l0,.1s0,.06.05-.12l0,0a3.32,3.32,0,0,1,.13-.66c-.07.5.08.12,0,.75a.6.6,0,0,0,.05-.23.51.51,0,0,1,0,.23c.07-.09.07-.28.12-.27s0,.11,0,.21c0-.17.09-.32.13-.25s0,.11,0,.11.19-.41.26-.26c-.06.34,0,.11,0,.41l.06-.09V110s.1-.2.13-.11l0,.12.09,0,0-.11c.06-.14,0-.36.09-.28s0,0,0,.18h0c0-.09.07-.18.09-.11s0,.3,0,.36c.05-.22.1-.06.16-.29,0,0,0,.19,0,.22l0-.18a.47.47,0,0,1,0,.2c.06,0,0-.34.08-.19s0,0,0,.07.16-.1.21,0c0,.26-.07.06-.08.28.11-.06.25-.3.33-.23v0c.06-.33,0,.17.11,0a.43.43,0,0,0,0,.14c.06,0,.14-.08.25-.16l0,.08c0,.07.09,0,.12.08s0-.06,0-.17c.05.41.28-.18.33.14,0,0,0,.06,0,.06l.1-.06c0-.1,0-.06,0-.14s.06-.1.08-.1a.26.26,0,0,0,0,.21l0-.09c0,.18,0-.19.09-.07l0,0s.07-.08.09-.06,0,0-.05.13.11-.19.12-.08,0,0-.06,0,0,.09.05.11h0l.06,0v0c.1-.23.1,0,.2-.17-.09.12,0,.08-.06.17s0,0,0,.08,0,0,.1,0,0,0,0,.06,0,0,0-.07.12.1.23,0,.11-.09.19-.1,0,0,0,0a.09.09,0,0,0,.1,0s0,0,0,0,0-.05.06,0a.1.1,0,0,1,0,0,.53.53,0,0,1,.12,0s0,0,0,0,.11,0,.13,0h0s0,0,0,0-.05,0-.05,0h0c0-.06-.11,0-.16,0l0,0-.06,0s0-.06,0-.06,0,0-.06,0h0s0-.05,0,0-.11,0-.12,0h0c-.09,0,0,.06-.11.12v-.18l0,.06s0,0,0,0,0,0,0,.07-.13,0-.1-.13c0,.06,0,.06,0,.1,0-.15-.06,0-.08-.07s.06,0,0-.11c-.05.13-.06-.06-.1,0s-.08,0-.14,0-.09-.1-.13-.18v0c0,.14-.09.1-.13.12s0-.13.06-.16h0s0,.07-.06.08l0-.12s-.12.11-.16,0c0,.13,0,.36-.1.43a.81.81,0,0,1,0-.21s0,.06,0,0l.05-.1c0-.06,0,.09-.05.07s0-.07,0-.15,0,.05,0,0a.3.3,0,0,1,0-.17c0,.06,0,.13,0,.14s0-.13,0-.19,0,0-.07.14c0,0,0-.08,0-.12s-.12,0-.12.16h0c-.11.14-.16-.14-.25-.09v-.06c-.06,0-.11,0-.17.13a.38.38,0,0,1,0-.19s-.06.11-.1,0,0-.1.06-.07,0-.18-.12,0c0-.16,0-.22,0-.17V109s-.05,0-.07,0l0-.22c-.06-.31-.25.44-.26-.06-.05.16,0,.13,0,.32-.05,0-.05-.4-.06-.41s-.11.35-.16.24a1.11,1.11,0,0,1-.09.4.88.88,0,0,1,0-.45s0,0,0,0a.24.24,0,0,0,0-.16l0,.09c0-.1-.08-.11,0-.25a.21.21,0,0,0,0,.2c0-.15-.09,0-.14-.13a.62.62,0,0,1,0,.16c-.08-.14-.06.16-.13.19,0-.15.06-.34,0-.23a.68.68,0,0,1,0-.33c-.07.17-.09-.15-.12-.2l0-.07s0,0-.05,0v.2a.29.29,0,0,1,0-.12c0,.12,0,.33-.07.49,0-.1-.08.1-.06-.17.06.11,0-.26.08-.29s0,0,0,0a.35.35,0,0,1,0-.06c0-.26-.06.29-.13.27s0-.29,0-.26,0,.25,0,.36c0-.12-.06.08-.09.07l0,.06c0,.15,0,.12-.08.17,0-.12,0-.08,0-.13-.06.26-.06-.3-.13-.12,0-.11,0-.29,0-.37-.07.19,0-.23-.12-.07a.72.72,0,0,1-.05.36l.11-.13-.09.3s.08-.13.09-.09a.73.73,0,0,0,0,.29c0-.32-.09.18-.12,0l0-.53c-.05-.25-.14.25-.22.11l0,.09c0,.22-.06,0-.1.11a1.5,1.5,0,0,0,0-.37c0,.14-.07,0-.1.34l0-.24c-.07-.11-.12.51-.19.44a2.61,2.61,0,0,1,.07-.47s-.05,0-.05.09c0-.12-.08.24-.09.06,0,.08,0,.28-.06.26v-.09a1,1,0,0,0,0,.33c0-.59-.2,0-.24-.48a.45.45,0,0,1-.17.13c0-.06,0-.1,0-.08-.06-.18-.06.55-.12.35s0-.17,0-.29c0-.63-.09.09-.13-.29v0c0-.22-.09.23-.16.18v-.09a1,1,0,0,1-.19.51,2.48,2.48,0,0,0,0-.39s0,.42-.06.49a4.33,4.33,0,0,1,0-.54h0c0-.36-.06,0-.09,0v-.16c-.08.05-.09.44-.17.41v.12c-.05.39,0-.22-.08.07l0-.39a3,3,0,0,1-.15.45,3.66,3.66,0,0,1,.13-.61s-.1,0-.12.22c0,0,0-.13,0-.07,0,.31-.08.46-.14.45,0-.76-.16-.19-.21-.78-.1.28-.21-.12-.33-.07.06.59,0,0,0,.62,0,0,0,0,0,0l-.09-.36c0-.18,0-.14,0-.27s0-.26-.09-.42c0,.22,0,.31,0,.23l.06.28c-.07.33-.09-.5-.17-.18l0-.19c0,.11-.17,0-.19.5a.9.9,0,0,1,0-.28c-.11-.06-.22.53-.32.24v-.14s0,.27,0,.13a.5.5,0,0,0,0-.15s0,.26-.07.17v-.16c-.11-.18-.14.41-.22.52a1,1,0,0,0-.16-.61v-.06c-.13,0-.19.38-.29.56-.1-.43-.25-.15-.38-.37a1.4,1.4,0,0,1,0,.35c0-.07,0,.28-.08-.08h0c-.05-.35-.1-.24-.14-.24l0,.46c-.18-.64-.27.3-.39-.27a2.1,2.1,0,0,1-.06.24l0-.24a.14.14,0,0,0-.2,0v-.17c-.06,0,0,.67,0,.69l-.05-.33c-.09,0-.21-.23-.26.09,0,0,0-.14,0-.16s-.19-.16-.12.26c0-.27-.1,0-.13.13l0-.2c0,.27,0,.33,0,.42s0-.16,0-.11,0,.19-.08.1V109c-.05,0,0,.06,0,.21s-.09,0-.13-.19c0,.1,0,.24,0,.2a.45.45,0,0,1,0-.12c-.09-.1-.08.24-.16.08s0-.09,0-.1.11,0,.1,0a1.71,1.71,0,0,1-.07-.41c0,.14,0,.42-.1.36l0,0v0s0,0,0,0,0,0-.05,0-.06,0-.09,0c0,.17,0,.15.05.28s0,0,0,0a0,0,0,0,0,0,0v0l.06,0c0,.09,0,.16-.06.08v.27c-.07-.22-.15-.31-.18-.45-.06.12-.16.13-.16.41,0,0,0-.07,0-.11s0,0,0-.07-.12.07-.1.25c-.06-.06,0-.17-.06-.12v0c-.19-.2-.15.48-.37.22,0,0,0,0,0,0-.19,0-.34.22-.54.14s-.05,0-.07.1l0-.06,0,.09c-.06.06-.15-.08-.22,0v0s-.1.06-.1,0,0,0,0,0h0l-.07,0c-.07,0,0,0-.09,0s-.09.06-.08,0h0s0,0,0,0h0a.07.07,0,0,0,.06,0l0,0,.05,0s0,0,0,0,0,0,0,0,0,0,.06,0,0,0,0,0,.08,0,.08,0,.1,0,.11.07,0-.06.06-.06.1,0,.11.12c0-.09.12,0,.17-.08s0,0,0,0,.06,0,.09.07,0-.12,0-.19c.07.11,0,.13,0,.23,0-.08.06-.08,0-.16a.91.91,0,0,1,.07.14c0-.15,0,0,0-.12.06.09,0,.16.09.11A.12.12,0,0,1,154.08,110.31Zm1.16-.29h0Zm.1,0h0c0-.06,0-.12,0-.12A.43.43,0,0,0,155.34,110Zm-.39-1.14s0,0,0,0l0,0v-.06Z" style="fill:#41995d"/><path d="M155,109.1v0Z" style="fill:#41995d"/><path d="M164.31,109.35h0v0Z" style="fill:#41995d"/><polygon points="156.79 110.45 156.78 110.39 156.78 110.44 156.79 110.45" style="fill:#41995d"/><path d="M164.78,109.91s0,0,0,0Z" style="fill:#41995d"/><path d="M165,110l0,0A.11.11,0,0,0,165,110Z" style="fill:#41995d"/><path d="M165.19,110v0h0Z" style="fill:#41995d"/><path d="M162.22,110.24h0S162.2,110.28,162.22,110.24Z" style="fill:#41995d"/><path d="M163.14,109.73a.25.25,0,0,1,0,.09S163.13,109.85,163.14,109.73Z" style="fill:#41995d"/><polygon points="161.25 110.58 161.25 110.58 161.24 110.58 161.25 110.58" style="fill:#41995d"/><path d="M163.06,109.82s0,0,0,0S163.08,109.79,163.06,109.82Z" style="fill:#41995d"/><polygon points="166.01 110.04 166.02 110.04 166.03 110.03 166.01 110.04" style="fill:#41995d"/><path d="M166,110h0Z" style="fill:#41995d"/><path d="M166.06,110h0Z" style="fill:#41995d"/><path d="M165.76,110v0Z" style="fill:#41995d"/><path d="M165.68,110s0,0,.07,0h0S165.71,110,165.68,110Z" style="fill:#41995d"/><path d="M165.44,109.69l.06,0s0-.07,0-.07S165.52,109.73,165.44,109.69Z" style="fill:#41995d"/><path d="M165.27,109.57s0,0,0-.07S165.25,109.53,165.27,109.57Z" style="fill:#41995d"/><path d="M163.9,109.09l0-.16S163.92,109,163.9,109.09Z" style="fill:#41995d"/><polygon points="163.5 109.93 163.51 110.04 163.54 109.88 163.5 109.93" style="fill:#41995d"/><polygon points="163.52 108.64 163.53 108.61 163.48 108.67 163.52 108.64" style="fill:#41995d"/><path d="M161.09,108.22v.3S161.12,108.13,161.09,108.22Z" style="fill:#41995d"/><path d="M160,108.48c0-.16,0-.26-.06-.11S160,108.52,160,108.48Z" style="fill:#41995d"/><polygon points="156.84 108.27 156.85 108.17 156.82 108.26 156.84 108.27" style="fill:#41995d"/></g></g><path id="cesped" d="M.48,77H201.9c1.36,14.74-2.24,21.86-6.36,25.58-6.14,5.53-14.47,4.5-15.84,9.36-1.65,5.81,1.36,9.58-.3,13.5-1.87,4.38-7.76-.33-20.34,5.46-12.73,5.86-9.42,17.46-20.4,22.56-13.86,6.44-23.61-10-46.62-7-14.55,1.9-13.55,8.82-28.67,9.84-17.32,1.16-36.55-6.72-36.55-6.72h0a30.84,30.84,0,0,0-6.36-16.08c-6.61-8.1-13.8-7-16.44-13.68-2.86-7.28,4.52-11.24,1.44-20.88C4,94.37,1.62,93,.48,87.18A27.43,27.43,0,0,1,.48,77Z" style="fill:url(#Degradado_sin_nombre_8)"/></g><path id="arbusto" d="M.48,77v-8.6c0-2.56,1.83-4.86,4.75-6.44a20,20,0,0,1,9.35-2.16,22.18,22.18,0,0,1,3.7.3,12.94,12.94,0,0,1-.12-1.77A13.56,13.56,0,0,1,38,46.29c1.8-13.14,12.53-23.24,25.51-23.24a24.79,24.79,0,0,1,16.13,6C82.32,12.43,93.1,0,106,0c11.36,0,21.08,9.64,25,23.28a25.29,25.29,0,0,1,3.39-.23,26.6,26.6,0,0,1,26.26,24.41,12.11,12.11,0,0,1,4.34-.79c6.51,0,11.95,5,13.31,11.82A31.12,31.12,0,0,1,184,58c5.9,0,11.14,1.55,14.4,3.93,2.2,1.61,3.5,3.6,3.5,5.76V77H.48" style="fill:#80c341"/><g id="texto"><path d="M45.44,64.6H42.07V47.8H48.8A6.74,6.74,0,0,1,55,57.13a6.72,6.72,0,0,1-1.44,2.14,6.84,6.84,0,0,1-2.14,1.44,6.58,6.58,0,0,1-2.61.53H45.44Zm0-13.44v6.72H48.8a3.18,3.18,0,0,0,1.3-.26,3.26,3.26,0,0,0,1.07-.72,3.47,3.47,0,0,0,.72-1.07,3.4,3.4,0,0,0,.26-1.31,3.35,3.35,0,0,0-.26-1.3,3.52,3.52,0,0,0-.72-1.08,3.6,3.6,0,0,0-1.07-.72,3.35,3.35,0,0,0-1.3-.26Z" style="fill:#ebebeb"/><path d="M69.25,64.6H57.48V47.8h3.37V61.24h8.4Z" style="fill:#ebebeb"/><path d="M84.25,64.6H80.89V61.24H74.16V64.6H70.81V54.52a6.43,6.43,0,0,1,.53-2.62,7,7,0,0,1,1.43-2.14,6.79,6.79,0,0,1,2.13-1.44,6.86,6.86,0,0,1,5.24,0,6.72,6.72,0,0,1,2.14,1.44,6.84,6.84,0,0,1,1.44,2.14,6.6,6.6,0,0,1,.53,2.62Zm-3.36-6.72V54.52a3.45,3.45,0,0,0-1-2.38,3.47,3.47,0,0,0-1.07-.72,3.4,3.4,0,0,0-1.31-.26,3.35,3.35,0,0,0-1.3.26,3.64,3.64,0,0,0-1.08.72,3.52,3.52,0,0,0-.72,1.08,3.35,3.35,0,0,0-.26,1.3v3.36Z" style="fill:#ebebeb"/><path d="M93.72,64.6H90.37V51.16H85.32V47.8H98.76v3.36h-5Z" style="fill:#ebebeb"/><path d="M103.9,64.6h-3.36V47.8h3.36Z" style="fill:#ebebeb"/><path d="M120.46,64.6h-3.6l-6.48-11.06V64.6H107V47.8h3.6l6.48,11.07V47.8h3.36Z" style="fill:#ebebeb"/><path d="M136.83,57.88a6.39,6.39,0,0,1-.53,2.62,6.72,6.72,0,0,1-1.44,2.14,6.86,6.86,0,0,1-2.14,1.43,6.72,6.72,0,0,1-5.23,0,6.6,6.6,0,0,1-3.57-3.57,6.56,6.56,0,0,1-.53-2.62V47.8h3.35V57.88a3.35,3.35,0,0,0,1,2.37,3.4,3.4,0,0,0,2.37,1,3.2,3.2,0,0,0,1.31-.27,3.16,3.16,0,0,0,1.07-.72,3.35,3.35,0,0,0,1-2.37V47.8h3.36Z" style="fill:#ebebeb"/><path d="M156.43,64.6h-3.36v-12a1.65,1.65,0,0,0-.13-.66,1.77,1.77,0,0,0-.36-.53,1.82,1.82,0,0,0-.54-.36,1.72,1.72,0,0,0-1.31,0,1.77,1.77,0,0,0-.53.36,1.61,1.61,0,0,0-.36.53,1.65,1.65,0,0,0-.13.66v12h-3.36v-12a1.85,1.85,0,0,0-.13-.66,1.71,1.71,0,0,0-.89-.89,1.8,1.8,0,0,0-.66-.13,1.85,1.85,0,0,0-.66.13,1.71,1.71,0,0,0-.89.89,1.84,1.84,0,0,0-.12.66v12h-3.37v-12a4.93,4.93,0,0,1,.39-2A5.29,5.29,0,0,1,141.1,49,5.12,5.12,0,0,1,142.71,48a5,5,0,0,1,2-.39,5,5,0,0,1,1.81.33,5.12,5.12,0,0,1,1.55,1,5.17,5.17,0,0,1,1.56-1,5.1,5.1,0,0,1,3.76.06A5.07,5.07,0,0,1,155,49a5.09,5.09,0,0,1,1.48,3.57Z" style="fill:#ebebeb"/></g><g id="flores"><g id="flor"><polygon id="petalos" points="31.9 67.04 33.17 69.24 31.9 71.44 29.36 71.44 28.09 73.65 25.55 73.65 24.27 71.44 21.73 71.44 20.46 69.24 21.73 67.04 20.46 64.84 21.73 62.64 24.27 62.64 25.55 60.43 28.09 60.43 29.36 62.64 31.9 62.64 33.17 64.84 31.9 67.04" style="fill:#d2e043"/><polygon id="centro" points="27.76 65.41 25.87 65.41 24.93 67.04 25.87 68.67 27.76 68.67 28.7 67.04 27.76 65.41" style="fill:#ebebeb"/></g><g id="flor-2" data-name="flor"><polygon id="petalos-2" data-name="petalos" points="123.84 20.98 125.11 23.18 123.84 25.38 121.3 25.38 120.03 27.59 117.48 27.59 116.21 25.38 113.67 25.38 112.4 23.18 113.67 20.98 112.4 18.78 113.67 16.57 116.21 16.57 117.48 14.37 120.03 14.37 121.3 16.57 123.84 16.57 125.11 18.78 123.84 20.98" style="fill:#d2e043"/><polygon id="centro-2" data-name="centro" points="119.69 19.34 117.81 19.34 116.86 20.98 117.81 22.61 119.69 22.61 120.64 20.98 119.69 19.34" style="fill:#ebebeb"/></g><g id="flor-3" data-name="flor"><polygon id="petalos-3" data-name="petalos" points="101.28 27.59 102.55 29.79 101.28 31.99 98.74 31.99 97.47 34.2 94.92 34.2 93.65 31.99 91.11 31.99 89.84 29.79 91.11 27.59 89.84 25.39 91.11 23.18 93.65 23.18 94.92 20.98 97.47 20.98 98.74 23.18 101.28 23.18 102.55 25.39 101.28 27.59" style="fill:#d2e043"/><polygon id="centro-3" data-name="centro" points="97.14 25.95 95.25 25.95 94.31 27.59 95.25 29.22 97.14 29.22 98.08 27.59 97.14 25.95" style="fill:#ebebeb"/></g></g></g></g></g></svg>
