<svg xmlns="http://www.w3.org/2000/svg" xmlns:xlink="http://www.w3.org/1999/xlink" viewBox="0 0 121.15 89.69"><defs><linearGradient id="Degradado_sin_nombre_11" x1="61.7" y1="89.69" x2="61.7" y2="51.99" gradientUnits="userSpaceOnUse"><stop offset="0" stop-color="#4fb56d" stop-opacity="0"/><stop offset="0.55" stop-color="#47a463" stop-opacity="0.6"/><stop offset="0.94" stop-color="#41995d"/></linearGradient></defs><g id="Capa_2" data-name="Capa 2"><g id="arbustos_tableros"><g id="arbusto_silver"><g id="suelo"><path id="cesped" d="M25.39,52.24a18.26,18.26,0,0,0-7.28,1.4c-1.91.83-3.33,1.92-3.62,3.37-.47,2.44,2.69,3.93,2.28,6.36-.67,4-10,3.52-11,7.2C4.61,74.5,13.66,80.64,19.41,83.65a49,49,0,0,0,25.39,6c12.07-.53,12.64-5.14,23.33-4.56,10.31.55,12,5,20.19,3.6,6.82-1.12,11.81-5.15,16.44-8.88a39.18,39.18,0,0,0,6.58-6,30.88,30.88,0,0,0,4.41-7.27,31.66,31.66,0,0,0,2-6.69,8.55,8.55,0,0,0-5.18-7.19c-1.8-.78-3.59-.7-7.15-.53-1.32.07-2.41.17-3.16.26Z" style="fill:url(#Degradado_sin_nombre_11)"/><g id="monte"><path d="M59.39,70.11h0Z" style="fill:#41995d"/><path d="M59.11,70.06s-.12,0-.09,0a.6.6,0,0,1,.12,0s.08,0,.07,0h.09l-.2,0S59.11,70.06,59.11,70.06Z" style="fill:#41995d"/><path d="M55,69.09l0,0S55.05,69.1,55,69.09Z" style="fill:#41995d"/><path d="M52.49,68.56s0,0,0,0S52.49,68.54,52.49,68.56Z" style="fill:#41995d"/><path d="M52.08,68.21l0,0S52.08,68.19,52.08,68.21Z" style="fill:#41995d"/><path d="M55,69.09,55,69C55,69.08,55,69.07,55,69.09Z" style="fill:#41995d"/><path d="M58.52,70.06h0Z" style="fill:#41995d"/><path d="M56.18,69.19h0l0,0Z" style="fill:#41995d"/><path d="M57,69.38s0,.08-.06.13,0-.06.05-.06A.15.15,0,0,0,57,69.38Z" style="fill:#41995d"/><path d="M58.36,69.86h0Z" style="fill:#41995d"/><path d="M55.57,69v0Z" style="fill:#41995d"/><path d="M31.25,70.13h0Z" style="fill:#41995d"/><polygon points="30.21 70.11 30.23 70.1 30.23 70.1 30.21 70.11" style="fill:#41995d"/><path d="M51.29,67.79h0S51.3,67.77,51.29,67.79Z" style="fill:#41995d"/><path d="M43.79,67.58c.09.25-.13.33,0,.6C43.77,68.07,43.9,67.74,43.79,67.58Z" style="fill:#41995d"/><path d="M58.5,70.06h0Z" style="fill:#41995d"/><path d="M43.79,68.18h0v0Z" style="fill:#41995d"/><path d="M49.41,67.72a.45.45,0,0,0,0,.12A.62.62,0,0,0,49.41,67.72Z" style="fill:#41995d"/><path d="M50.78,68.22l0,0S50.77,68.22,50.78,68.22Z" style="fill:#41995d"/><path d="M48.66,68s0-.06,0,0v0S48.64,68,48.66,68Z" style="fill:#41995d"/><path d="M47.91,68v.06l0,0Z" style="fill:#41995d"/><path d="M33.53,70.09a.22.22,0,0,1-.05-.11C33.5,70.07,33.39,70.1,33.53,70.09Z" style="fill:#41995d"/><path d="M58.52,70l0,0h0S58.53,70.05,58.52,70Z" style="fill:#41995d"/><path d="M48.55,70.12l-.12,0A.17.17,0,0,0,48.55,70.12Z" style="fill:#41995d"/><path d="M38.86,70l0,0S38.85,70,38.86,70Z" style="fill:#41995d"/><path d="M48.08,70.13a.35.35,0,0,0-.06-.19s0,0,0,.07Z" style="fill:#41995d"/><path d="M33.48,70Z" style="fill:#41995d"/><path d="M32.73,70.24c.11,0,0-.12.05-.2s.07.1.13.17.12-.17.19-.16a.06.06,0,0,1,0,.06c.07-.12.27,0,.35-.17,0,0,0,0,0,0a.68.68,0,0,1,0-.22s.08-.11.11,0,0,0,0,.08l0,0c.07.15-.06.06,0,.17.1,0,.2-.19.28-.15s-.17.06-.05.2l-.13-.06c.13.24-.08,0,0,.24.17,0,.17-.08.34,0,0-.09,0-.14,0-.23.2-.19.24.43.37.19s0-.35.15-.23v.21c.16,0,0-.31.23-.17,0,.09-.11.08-.08.1.12.17.06-.12.14-.13l0,.2c.16,0,.33-.19.5-.24,0,.07,0,.13,0,.2a.77.77,0,0,1,.74.15l.06-.2s.05.09,0,.13,0-.13,0-.21.08.11.06.17c.13-.17.39-.39.58-.17l0,.07c.14.08.1-.45.24-.25l0,0c.28.08.56-.15.8.2,0-.34.29.15.26-.33.18.24.14.32.38.48.06,0,.06-.31.13-.36l0,.26.07-.28.08.31.06-.06a.39.39,0,0,1-.06-.2c.09-.12.27.18.28.32l.24-.24a.44.44,0,0,1-.07.22c.11-.28.05.28.15,0a.81.81,0,0,1,0-.22.19.19,0,0,0,.31.09v.19c.19,0,.38-.09.59-.09a.54.54,0,0,1,0-.46l0,.3c0-.19-.07-.11,0-.34.08,0,.07.34,0,.44l.09-.11a2.26,2.26,0,0,1,0,.25c0-.18.18.3.22,0v.09c.21,0,.3-.11.46-.12,0-.27.06-.21.1-.43.13.08.28.29.43.26s0-.23.06-.39c0,.25.17.22.1.4a.76.76,0,0,0,.45-.25c0-.11-.06-.15,0-.23s.1.1.09.22v0c.25-.38.62.73.81.2v0l.2-.28c.1,0,0,.19,0,.35.22-.43.36,0,.54-.24.16.75.52-.05.72.43V70c0-.17.06.11.1.15,0-.14-.06-.16,0-.26.43-.22.88.26,1.32.41.16,0,.1-.92.3-.5l-.06.33c.32-.4.65,0,1-.32,0,.08,0,.18-.06.18.07.23.25,0,.26-.18.05,0,0,.17,0,.27s.18-.3.21-.07a.11.11,0,0,1,0,.09c0-.11.21,0,.17-.24.12.13.23-.12.32,0,.08-.29.2.14.24-.27,0,.43.19.34.28.14,0,.13.06.13,0,.31.09,0,.17-.09.16-.3.14.51.34-.4.4.24a2.62,2.62,0,0,1,.74-.45c0,.41-.25,0-.27.46.23-.16.38-.51.59-.4,0,0,0,.17-.07.24.23-.16.42,0,.63-.17a.24.24,0,0,1-.05.1s.09.06.09-.12l0,0c0-.26.2-.53.21-.66-.1.5.19.13,0,.76a.39.39,0,0,0,.07-.23s.05.1,0,.23c.14-.09.11-.28.23-.27s0,.11-.05.21c.07-.16.15-.32.25-.24s0,.11,0,.11c.18,0,.35-.4.53-.24-.09.34.06.12,0,.41l.12-.08,0-.14c.09,0,.19-.2.26-.1l-.08.12.18-.05-.09-.11c.11-.14,0-.37.15-.28,0,0,.09,0,.12.18h0c.06-.08.11-.17.18-.1s0,.31,0,.37c.06-.23.22-.06.3-.29a.61.61,0,0,0,0,.22l.05-.18c0,.06,0,.09,0,.2s0-.34.13-.18c0,0,0,0,0,.07.15.08.31-.1.45,0,0,.25-.14.06-.11.27.21,0,.46-.28.65-.2l0,0c.07-.33.13.18.25,0a.4.4,0,0,0,0,.15c.13.06.29-.06.51-.14l0,.08c.07.08.21.06.29.1s.09-.06.07-.17c.21.43.54-.15.73.19,0,0-.07,0,0,0l.21,0c0-.1,0-.06-.05-.14a.2.2,0,0,1,.15-.1c-.1.06,0,.17,0,.23s0-.07,0-.1c.08.19.05-.2.17-.06v0s.12-.08.17-.06-.06,0-.08.13.19-.18.25-.06-.09,0-.13,0,.07.1.13.12h0l.13.07,0,0c.14-.23.21,0,.37-.14-.15.11,0,.07-.06.17s.08.07.06.09.1.07.21,0,.07,0,0,.08,0,0,0-.09.29.13.5,0,.21-.09.37-.09,0,.06,0,.06a.32.32,0,0,0,.22,0s0,0,0,0,0,0,.13,0l-.07,0,.23,0s0,0-.08,0a.91.91,0,0,0,.25,0h-.05s0,0,0,0-.1,0-.11,0h.06c0-.06-.22,0-.33,0l.06,0-.12,0s0-.06,0-.06-.08,0-.14,0,0,0,0,0h-.08s0-.06,0,0c-.12-.08-.22,0-.26-.06h0c-.19,0,0,.06-.19.12l-.06-.2,0,.07s0,0,0,0,0,0,0,.08-.26,0-.25-.16c-.05.06.07.07,0,.09,0-.16-.12,0-.19-.08s.11,0,0-.12c-.08.14-.16-.07-.24-.06s-.16,0-.29,0-.21-.12-.31-.2v0c0,.14-.15.09-.24.11s0-.13.09-.16l-.08,0a.13.13,0,0,1-.11.08l0-.12c-.11,0-.23.1-.36,0,0,.12.06.36-.1.43,0-.07,0-.19.06-.21s0,0-.07,0l.07-.11c0-.06,0,.09-.09.07s0-.08,0-.15,0,0,.06,0a.27.27,0,0,1-.12-.18c0,.06,0,.13-.06.14s0-.13-.07-.2-.1,0-.12.14c0,0,0-.09,0-.13s-.26,0-.22.15v0h0c-.2.14-.36-.16-.55-.12V69c-.11.05-.24,0-.33.12s-.06-.13,0-.2-.11.1-.21,0c.09-.1,0-.11.09-.07-.1-.07-.11-.18-.24,0,.06-.16-.06-.23-.11-.19l.06.14a.29.29,0,0,1-.16,0l0-.22c-.18-.33-.44.42-.56-.09-.07.16.11.14,0,.32-.1,0-.17-.41-.2-.41-.12-.17-.16.33-.3.22,0,.09,0,.33-.11.41s-.09-.4,0-.47,0,0,0,.06a.12.12,0,0,0,.06-.16l0,.09c0-.1-.18-.12-.13-.26-.08.07-.05.14,0,.2-.12-.15-.21,0-.33-.15,0,.06,0,.17,0,.17-.19-.15-.11.16-.24.19-.06-.16.06-.35-.09-.24-.07-.11,0-.26,0-.33-.14.16-.22-.16-.29-.21l.07-.07a.09.09,0,0,1-.1,0l0,.2s-.07,0-.06-.13c0,.13,0,.33-.09.5,0-.1-.16.09-.16-.17.15.11,0-.27.14-.3s-.06,0-.09,0a.12.12,0,0,1,0-.07c-.13-.26-.09.29-.25.27,0-.15,0-.29,0-.26s0,.25-.06.36c-.09-.13-.11.08-.16.06l0,.06c0,.15-.08.13-.15.17,0-.12.07-.08,0-.13-.1.26-.16-.3-.28-.13,0-.11,0-.29,0-.37-.14.19-.12-.23-.26-.07,0,.21,0,.16-.07.36l.22-.13-.15.3c.06,0,.14-.12.17-.08s-.06.11,0,.29c-.07-.33-.18.17-.27,0l0-.53c-.13-.26-.28.24-.47.09l.06.1c0,.21-.12,0-.19.1a.91.91,0,0,0,0-.36c0,.13-.14,0-.18.33l-.08-.25c-.15-.11-.2.51-.35.44.06-.2,0-.34.1-.47,0,0-.09,0-.1.08,0-.12-.15.25-.19.07,0,.08,0,.27-.1.25a.78.78,0,0,1,0-.09c0,.09-.1.12-.05.33-.14-.59-.44,0-.56-.48a1,1,0,0,1-.35.12s0-.09,0-.07c-.13-.19-.1.55-.25.34s.09-.16,0-.28c0-.64-.19.08-.29-.3l0,0c-.08-.22-.2.24-.34.19a.77.77,0,0,0,0-.1.82.82,0,0,1-.4.51c0-.25.06-.13,0-.38-.06,0,0,.41-.1.48A1.62,1.62,0,0,1,46.2,68h.11c-.05-.36-.14,0-.2,0v-.16c-.16,0-.17.44-.35.42l0,.11c-.1.39-.08-.22-.17.07l0-.39a2.87,2.87,0,0,1-.34.46,2.13,2.13,0,0,1,.28-.62.25.25,0,0,0-.25.22s.06-.13.08-.07c-.07.31-.17.46-.3.46,0-.77-.33-.2-.43-.79-.22.29-.44-.12-.7-.07.1.59-.08,0,0,.63-.06,0-.09,0-.09,0l-.19-.35c-.05-.18,0-.14,0-.28s-.06-.25-.15-.41c0,.22,0,.31-.12.23l.12.28c-.18.33-.18-.5-.36-.17l.06-.2c-.1.12-.36,0-.44.51,0-.07,0-.24,0-.28-.24-.06-.5.54-.69.25v-.15s-.06.28-.12.14,0-.15,0-.15-.1.26-.16.17l0-.16c-.23-.17-.33.41-.51.53a.65.65,0,0,0-.29-.6v-.06c-.27,0-.43.39-.66.57-.17-.43-.52-.14-.77-.35a.51.51,0,0,1,0,.35c-.06-.07-.13.29-.15-.07h0c-.07-.35-.18-.24-.27-.23l0,.46c-.28-.63-.6.32-.77-.25,0,.12-.12.13-.17.25V68a.57.57,0,0,0-.44,0l0-.17c-.11,0-.08.67-.18.7l-.06-.33c-.19,0-.41-.22-.57.11,0,0,0-.15,0-.16s-.37-.15-.29.27c0-.27-.2,0-.29.15v-.2c-.07.27-.06.33-.17.42s-.05-.15,0-.11c-.11-.08-.06.2-.18.11l0-.13c-.1,0-.09.07-.13.22s-.19,0-.22-.19c0,.11,0,.25-.11.21a.35.35,0,0,1,0-.12c-.17-.1-.22.25-.35.09a.41.41,0,0,0,0-.1c.13,0,.24,0,.23,0,0-.17-.13-.17-.07-.42-.07.15-.19.44-.3.38s0,0,0,0v0s0,0-.06,0a.19.19,0,0,0-.09,0c0-.12-.13,0-.18,0s0,.15,0,.27,0,0,0,0,0,0,0,0h0l.13,0c0,.1-.06.18-.13.1a2.06,2.06,0,0,0,0,.28c-.1-.22-.26-.32-.29-.45-.15.13-.37.15-.43.44,0,0-.07-.07-.09-.11s0,0,.06-.07-.26.08-.26.27c-.12-.06,0-.18-.11-.12v-.06c-.34-.18-.44.53-.82.28,0,0,0,0,0,0-.4,0-.78.26-1.19.21-.11,0-.11.06-.17.11l0-.06-.11.1c-.15.08-.29-.06-.48.08l0,0c-.07,0-.23.07-.22,0s0,0,0,0h0l-.17.06c-.14,0,0,0-.18,0l-.18.07.08,0h-.07s-.07,0,.11,0l.12,0h-.07a.33.33,0,0,0,.14,0h0l.12,0s-.05,0,0,0-.06,0,0-.05,0,0,.12,0,0,0,0,0,.16,0,.18,0,.21,0,.21.06a.4.4,0,0,1,.16-.07c-.09.1.2,0,.2.11.06-.1.26,0,.39-.1s0,0,0,0,.1,0,.15.07.11-.13.16-.21c.11.11,0,.14,0,.25,0-.09.15-.1.1-.18.08.07.07,0,.12.14,0-.16.06,0,.1-.13.12.07,0,.15.16.1S32.73,70.24,32.73,70.24Zm2.59-.44Zm.22,0a.33.33,0,0,0-.1,0c0-.06,0-.12,0-.12S35.5,69.73,35.54,69.78Zm-.61-1.13s0,0,.06,0a.09.09,0,0,0-.06,0v-.06Z" style="fill:#41995d"/><path d="M34.89,68.88a0,0,0,0,1,0,0l0,0v-.06Z" style="fill:#41995d"/><path d="M55.07,69.12h0s0,0,0,0Z" style="fill:#41995d"/><polygon points="38.62 70.09 38.62 70.03 38.6 70.08 38.62 70.09" style="fill:#41995d"/><path d="M56.21,69.77a0,0,0,0,0,0,0A0,0,0,0,0,56.21,69.77Z" style="fill:#41995d"/><path d="M56.73,69.83l.07,0Z" style="fill:#41995d"/><path d="M57.13,69.93v0h0Z" style="fill:#41995d"/><path d="M50.69,69.84h0C50.64,69.9,50.66,69.88,50.69,69.84Z" style="fill:#41995d"/><path d="M52.64,69.39a.43.43,0,0,1-.07.1S52.63,69.51,52.64,69.39Z" style="fill:#41995d"/><polygon points="48.56 70.13 48.56 70.12 48.55 70.12 48.56 70.13" style="fill:#41995d"/><path d="M52.48,69.48s.06,0,.09,0S52.51,69.45,52.48,69.48Z" style="fill:#41995d"/><polygon points="58.88 70.08 58.9 70.09 58.91 70.08 58.88 70.08" style="fill:#41995d"/><path d="M58.91,70.08h0Z" style="fill:#41995d"/><path d="M59,70.08h0Z" style="fill:#41995d"/><path d="M58.35,70h0Z" style="fill:#41995d"/><path d="M58.18,70a.54.54,0,0,0,.15,0v0S58.22,70,58.18,70Z" style="fill:#41995d"/><path d="M57.56,69.62l.13,0s0-.08,0-.07C57.56,69.47,57.74,69.68,57.56,69.62Z" style="fill:#41995d"/><path d="M57.16,69.46c.07,0,0,0,0-.07S57.11,69.42,57.16,69.46Z" style="fill:#41995d"/><path d="M54.14,68.81l0-.16C54.1,68.66,54.16,68.71,54.14,68.81Z" style="fill:#41995d"/><polygon points="53.45 69.63 53.49 69.74 53.54 69.58 53.45 69.63" style="fill:#41995d"/><polygon points="53.24 68.31 53.27 68.29 53.17 68.34 53.24 68.31" style="fill:#41995d"/><path d="M48.05,67.76v.3S48.12,67.67,48.05,67.76Z" style="fill:#41995d"/><path d="M45.8,68c0-.16-.09-.26-.13-.1S45.77,68,45.8,68Z" style="fill:#41995d"/><polygon points="39.04 67.88 39.08 67.78 39 67.87 39.04 67.88" style="fill:#41995d"/></g></g><path id="arbusto" d="M121.15,26.18a19.55,19.55,0,0,1-4.42,12.1,3.26,3.26,0,0,0-.72,2h0a12.07,12.07,0,0,1-12.07,12.08H25.67a35.84,35.84,0,0,1-10.52-1.54C6.22,48.11,0,42,0,34.91c0-9.63,11.5-17.46,25.67-17.46a34.41,34.41,0,0,1,14.72,3.16A3.14,3.14,0,0,0,44.61,19c4.65-11,19.7-19,37.52-19C103.67,0,121.15,11.72,121.15,26.18Z" style="fill:#80c341"/><g id="texto"><path d="M22.68,31.53a4.92,4.92,0,0,1,.39-2A5.1,5.1,0,0,1,24.16,28a5.22,5.22,0,0,1,1.6-1.09,4.93,4.93,0,0,1,1.95-.4h7.72v3.37H27.71a1.69,1.69,0,0,0-1.18.48,1.51,1.51,0,0,0-.36.54,1.57,1.57,0,0,0-.13.65,1.67,1.67,0,0,0,.13.67,1.71,1.71,0,0,0,.89.89,1.57,1.57,0,0,0,.65.13h3.37a5,5,0,0,1,2,.39,5.24,5.24,0,0,1,1.61,1.08,5.09,5.09,0,0,1,1.07,1.61,5,5,0,0,1,0,3.92,5.16,5.16,0,0,1-1.07,1.6A5.24,5.24,0,0,1,33,42.9a4.81,4.81,0,0,1-2,.4H23.61V39.94h7.47a1.75,1.75,0,0,0,.65-.13,1.7,1.7,0,0,0,.54-.36,1.58,1.58,0,0,0,.35-.53,1.74,1.74,0,0,0,0-1.32,1.58,1.58,0,0,0-.35-.53,1.7,1.7,0,0,0-.54-.36,1.75,1.75,0,0,0-.65-.13H27.71a4.92,4.92,0,0,1-1.95-.39,5.2,5.2,0,0,1-2.69-2.69A5,5,0,0,1,22.68,31.53Z" style="fill:#ebebeb"/><path d="M41.68,43.3H38.32V26.49h3.36Z" style="fill:#ebebeb"/><path d="M56.57,43.3H44.8V26.49h3.36V39.94h8.41Z" style="fill:#ebebeb"/><path d="M69.48,26.49,64,43.3H60.6L55.1,26.49h3.82l3.35,11.22,3.37-11.22Z" style="fill:#ebebeb"/><path d="M82.61,43.3H71.09V26.49H82.61v3.37H74.45v3.36H80v3.36H74.45v3.36h8.16Z" style="fill:#ebebeb"/><path d="M88.32,43.3H85V26.49h6.73a6.59,6.59,0,0,1,1.78.24,6.88,6.88,0,0,1,1.6.68,7.32,7.32,0,0,1,1.36,1.06,6.71,6.71,0,0,1,2,4.75,6.8,6.8,0,0,1-.21,1.69,7.28,7.28,0,0,1-.63,1.56,6.85,6.85,0,0,1-1,1.36,6.45,6.45,0,0,1-1.31,1.07l1.86,4.4H93.55l-1.46-3.39-3.77,0Zm0-13.44v6.72h3.37a3.18,3.18,0,0,0,1.3-.26,3.55,3.55,0,0,0,1.06-.72,3.33,3.33,0,0,0,.73-1.07,3.43,3.43,0,0,0,0-2.62,3.45,3.45,0,0,0-.73-1.07A3.55,3.55,0,0,0,93,30.12a3.35,3.35,0,0,0-1.3-.26Z" style="fill:#ebebeb"/></g><g id="flor"><polygon id="petalos" points="103.49 14.64 104.76 16.84 103.49 19.04 100.95 19.04 99.68 21.25 97.13 21.25 95.86 19.04 93.32 19.04 92.05 16.84 93.32 14.64 92.05 12.44 93.32 10.23 95.86 10.23 97.13 8.03 99.68 8.03 100.95 10.23 103.49 10.23 104.76 12.44 103.49 14.64" style="fill:#d2e043"/><polygon id="centro" points="99.34 13 97.46 13 96.52 14.64 97.46 16.27 99.34 16.27 100.29 14.64 99.34 13" style="fill:#ebebeb"/></g></g></g></g></svg>
