<svg xmlns="http://www.w3.org/2000/svg" xmlns:xlink="http://www.w3.org/1999/xlink" viewBox="0 0 132.4 112.76"><defs><linearGradient id="Degradado_sin_nombre_11" x1="64.25" y1="112.76" x2="64.25" y2="59.09" gradientUnits="userSpaceOnUse"><stop offset="0" stop-color="#4fb56d" stop-opacity="0"/><stop offset="0.55" stop-color="#47a463" stop-opacity="0.6"/><stop offset="0.94" stop-color="#41995d"/></linearGradient></defs><g id="Capa_2" data-name="Capa 2"><g id="arbustos_tableros"><g id="arbusto_gold"><g id="suelo"><path id="cesped" d="M118.16,59.09a24.79,24.79,0,0,1,2.57,15.63c-1.25,6.83-5.39,11-10,15.66-5.58,5.65-10.07,10.19-16.66,11-9.67,1.17-13.66-7-20.51-4.5-6,2.18-5.26,9.34-11.7,13.5s-15,2.13-20.88,0L21.55,95.71l-5.87-2.08a9.78,9.78,0,0,1-6-2.89C6.28,87,7,80.26,9.67,76.16s6.24-4.1,6.66-7.56c.31-2.55-1.43-4.29-.36-6.84a6.11,6.11,0,0,1,2.36-2.67Z" style="fill:url(#Degradado_sin_nombre_11)"/><g id="monte"><g id="monte-2" data-name="monte"><path d="M41.62,74.94h0Z" style="fill:#41995d"/><path d="M41.5,74.91s-.06,0,0,0,0,0,.06,0h.07a.13.13,0,0,0-.09,0A0,0,0,0,1,41.5,74.91Z" style="fill:#41995d"/><path d="M39.67,74.23v0S39.67,74.24,39.67,74.23Z" style="fill:#41995d"/><path d="M38.51,73.83a.08.08,0,0,0,0,0A.06.06,0,0,0,38.51,73.83Z" style="fill:#41995d"/><path d="M38.34,73.5v0S38.34,73.48,38.34,73.5Z" style="fill:#41995d"/><path d="M39.67,74.23l0-.06C39.64,74.23,39.66,74.22,39.67,74.23Z" style="fill:#41995d"/><polygon points="41.21 74.96 41.23 74.94 41.21 74.95 41.21 74.96" style="fill:#41995d"/><path d="M40.2,74.26h0l0-.06Z" style="fill:#41995d"/><path d="M40.59,74.41s0,.08,0,.12a.1.1,0,0,1,0-.06Z" style="fill:#41995d"/><path d="M41.16,74.77h0Z" style="fill:#41995d"/><path d="M39.93,74.13v0Z" style="fill:#41995d"/><path d="M28.73,75h0Z" style="fill:#41995d"/><polygon points="28.23 74.94 28.24 74.93 28.24 74.93 28.23 74.94" style="fill:#41995d"/><path d="M38,73.1h0S38,73.08,38,73.1Z" style="fill:#41995d"/><path d="M34.44,73c.05.24,0,.32,0,.59A2.36,2.36,0,0,0,34.44,73Z" style="fill:#41995d"/><path d="M41.2,75h0Z" style="fill:#41995d"/><path d="M34.45,73.56h0v0Z" style="fill:#41995d"/><path d="M37.1,73.07v0Z" style="fill:#41995d"/><path d="M37.72,73.54v0S37.72,73.53,37.72,73.54Z" style="fill:#41995d"/><path d="M36.74,73.39s0,0,0,0v0S36.73,73.35,36.74,73.39Z" style="fill:#41995d"/><path d="M36.38,73.37v0h0Z" style="fill:#41995d"/><path d="M29.8,75.13l0-.11C29.79,75.11,29.74,75.13,29.8,75.13Z" style="fill:#41995d"/><path d="M41.21,74.94s0,0,0,0h0Z" style="fill:#41995d"/><path d="M36.61,75.49l0,0A.05.05,0,0,0,36.61,75.49Z" style="fill:#41995d"/><path d="M32.26,75.25v0A0,0,0,0,0,32.26,75.25Z" style="fill:#41995d"/><path d="M36.4,75.5a.71.71,0,0,0,0-.19v.07Z" style="fill:#41995d"/><path d="M29.77,75Z" style="fill:#41995d"/><path d="M29.45,75.22c.05,0,0-.12,0-.19s0,.1.09.17,0-.15.07-.14,0,0,0,.06.12,0,.14-.14l0,0a1.12,1.12,0,0,1-.05-.22s0-.1.05,0,0,0,0,.08l0,0c0,.15,0,0,0,.16s.07-.17.11-.13-.07,0,0,.19L29.82,75c.09.24,0,0,.05.24.09.06.07-.07.16,0,0-.09,0-.14,0-.23s.16.44.19.21,0-.34,0-.22v.2c.08,0,0-.29.1-.15s-.05.07,0,.09,0-.12.05-.12l0,.2c.07,0,.13-.17.21-.21a.4.4,0,0,0,0,.19c.09-.1.23,0,.35.19l0-.19a.9.9,0,0,1,0,.13c.05.07,0-.13,0-.21s0,.12,0,.18c.05-.17.15-.38.26-.15v.06c.07.09,0-.44.09-.24v0c.14.09.25-.12.39.23,0-.33.14.16.09-.31a2.06,2.06,0,0,0,.21.49s0-.3,0-.36l0,.26,0-.27,0,.31,0-.06a.56.56,0,0,1,0-.2c0-.12.14.19.15.32l.09-.22a.66.66,0,0,1,0,.21c0-.27,0,.28.07,0a1.65,1.65,0,0,1,0-.21c.05.16.11.17.15.1v.19c.09,0,.17-.08.26-.08a1.07,1.07,0,0,1,0-.46l0,.3c0-.18,0-.11,0-.34a1.18,1.18,0,0,1,0,.44l0-.1a1.85,1.85,0,0,1,0,.25c0-.19.1.3.1,0v.09c.09,0,.13-.1.2-.11a2.42,2.42,0,0,1,0-.42c.06.08.14.29.2.27a1.67,1.67,0,0,0,0-.39c0,.24.09.22.06.4.08,0,.1,0,.2-.25a1,1,0,0,1,0-.23s0,.1,0,.22v0c.1-.38.29.73.36.21v0l.08-.27c.05,0,0,.19,0,.34.09-.42.17.06.24-.22.08.75.23-.05.33.43v-.18c0-.17,0,.1,0,.14a1.24,1.24,0,0,1,0-.25c.19-.22.4.26.59.41s0-.92.14-.5l0,.33c.15-.4.29,0,.44-.32,0,.07,0,.17,0,.17,0,.23.11,0,.12-.18a1.79,1.79,0,0,1,0,.27c0,.13.09-.31.09-.07,0,0,0,.07,0,.09s.09,0,.08-.24c0,.12.11-.12.14,0,0-.29.09.14.12-.28,0,.44.07.35.12.14,0,.13,0,.14,0,.32,0,0,.07-.09.08-.31,0,.51.17-.4.17.24a1.5,1.5,0,0,1,.36-.47c0,.4-.12,0-.15.47.11-.18.19-.52.29-.43a.52.52,0,0,1,0,.24c.12-.16.19,0,.3-.18l0,.1s0,.06,0-.12l0,0a3.47,3.47,0,0,1,.13-.66c-.08.5.08.13,0,.75a.89.89,0,0,0,.05-.23.51.51,0,0,1,0,.23c.07-.09.07-.27.12-.27s0,.11,0,.21c.05-.16.09-.32.13-.25s0,.11,0,.11.19-.41.26-.26c-.07.34,0,.12,0,.41l.06-.09v-.14s.11-.2.13-.11l0,.12.09-.05,0-.11c.06-.14,0-.36.09-.27s0,0,0,.17h0c0-.09.07-.18.09-.11a2.84,2.84,0,0,1-.05.36c.06-.22.11-.06.17-.29,0,.05,0,.19,0,.22l0-.18a.47.47,0,0,1,0,.2c.05,0,0-.34.08-.19a.36.36,0,0,1,0,.07c.06.08.16-.1.21,0,0,.25-.07.06-.08.27.11,0,.25-.3.33-.23l0,0c.07-.32,0,.17.12,0a.51.51,0,0,0,0,.14c.06.05.14-.07.25-.16l0,.08c0,.07.09,0,.12.08s0-.06,0-.17c.05.41.28-.17.33.14,0,0,0,.06,0,.06l.1-.06a.65.65,0,0,0,0-.14c0-.06.06-.1.08-.1a.28.28,0,0,0,0,.22l0-.1c0,.18,0-.19.09-.07l0,0s.07-.08.09-.06,0,0,0,.13.11-.18.12-.08,0,0-.06,0,0,.09,0,.11h0l.06,0v0c.09-.23.1,0,.2-.17-.09.13,0,.08-.06.17s0,.06,0,.08,0,.06.1,0,0,0,0,.07,0,0,0-.08.12.1.23,0,.11-.09.19-.1,0,0,0,0a.11.11,0,0,0,.11,0s0,0,0,0,0,0,.06,0,0,0,0,0a.53.53,0,0,1,.12,0s0,0-.05,0,.11,0,.13,0h0s0,0,0,0,0,0,0,0h0c0-.06-.11,0-.16,0l0-.06-.06,0a0,0,0,0,1,0-.06s0,0-.06,0h0s0,0,0,0-.11,0-.12,0h0c-.09,0,0,.06-.11.12v-.18l0,.07s0,0,0,0,0,0,0,.08-.13,0-.1-.13c0,.06,0,.06,0,.09,0-.15-.06,0-.08-.07s.05,0,0-.11c0,.13-.06-.06-.1,0s-.08,0-.14,0-.09-.1-.13-.17v0c0,.15-.09.1-.14.13s0-.14.07-.17h0s0,.07-.06.08l0-.12s-.12.12-.16,0c0,.12,0,.35-.1.43a.71.71,0,0,1,0-.21s0,.05,0,0l0-.11c0-.06,0,.09,0,.07s0-.07,0-.15,0,0,0,0a.3.3,0,0,1,0-.17c0,.06,0,.14,0,.14s0-.12,0-.19,0,0-.07.14c0,0,0-.08,0-.12s-.12,0-.12.16v0h0c-.11.15-.16-.14-.25-.09v-.06c-.06.06-.11,0-.17.14a.43.43,0,0,1,0-.2s-.06.11-.1,0,0-.1.06-.07,0-.18-.12,0c0-.17,0-.23,0-.18v.13s-.05,0-.07,0l0-.23c-.07-.31-.25.44-.26-.06-.05.16,0,.13,0,.32a2.17,2.17,0,0,1,0-.4c-.05-.16-.11.34-.16.23a1.06,1.06,0,0,1-.09.4.88.88,0,0,1,0-.45s0,0,0,.06a.27.27,0,0,0,0-.17l0,.09c0-.1-.08-.1,0-.25a.24.24,0,0,0,0,.2c0-.15-.09,0-.14-.13a.62.62,0,0,1,0,.16c-.08-.14-.06.17-.13.19,0-.15,0-.34,0-.23a.7.7,0,0,1,0-.33c-.07.17-.09-.15-.12-.2l0-.06s0,0,0,0v.2a.35.35,0,0,1,0-.13c0,.12,0,.33-.07.5,0-.11-.08.09-.06-.17.06.1,0-.27.08-.3s0,0,0,0a.56.56,0,0,1,0-.07c0-.26-.06.29-.13.27s0-.29,0-.26,0,.25,0,.37c0-.13-.06.08-.09.06l0,.06c0,.15,0,.13-.09.17,0-.12,0-.08,0-.13-.06.26,0-.29-.12-.12,0-.11,0-.29,0-.37-.07.19,0-.22-.12-.07a.76.76,0,0,1-.05.37l.11-.14-.09.3s.08-.12.09-.09a.75.75,0,0,0,0,.3c0-.33-.09.17-.12,0l0-.53c0-.25-.14.25-.23.11l0,.1c0,.21-.06,0-.1.1a2.12,2.12,0,0,0,0-.36c0,.13-.07,0-.1.34l0-.25c-.07-.11-.12.51-.19.44a2.61,2.61,0,0,1,.07-.47s0,0,0,.09c0-.12-.08.24-.1.06,0,.08,0,.28-.05.26v-.09a1,1,0,0,0,0,.33c0-.59-.2,0-.24-.48a.45.45,0,0,1-.17.13c0-.06,0-.09,0-.07-.06-.19-.06.55-.12.34s0-.16,0-.28c0-.64-.09.08-.13-.3v0c0-.22-.1.23-.16.18V73.3a.88.88,0,0,1-.2.51,1.63,1.63,0,0,0,0-.38s0,.41-.06.48a4.13,4.13,0,0,1-.05-.54h.05c0-.36-.06,0-.09,0v-.16c-.08,0-.09.44-.17.42v.11c0,.39,0-.21-.08.07l0-.39a3.53,3.53,0,0,1-.15.46,2.84,2.84,0,0,1,.13-.62s-.11,0-.12.22c0,0,0-.13,0-.07,0,.31-.08.46-.14.46,0-.77-.16-.2-.21-.79-.1.28-.21-.12-.33-.07.06.59,0,0,0,.63,0,0,0,0,0,0l-.09-.36c0-.18,0-.14,0-.27s0-.26-.08-.42c0,.22,0,.32,0,.24l.06.27c-.08.33-.09-.5-.17-.18l0-.19c0,.12-.17,0-.19.5a.9.9,0,0,1,0-.28c-.11-.06-.22.53-.32.25V73s0,.27-.05.13a.53.53,0,0,0,0-.15c0,.05,0,.26-.07.18V73c-.11-.18-.14.41-.22.52,0-.42-.11-.54-.16-.6v-.06c-.13,0-.19.37-.29.55-.1-.43-.25-.15-.38-.37a1.4,1.4,0,0,1,0,.35c0-.07,0,.28-.08-.07h0c0-.35-.1-.24-.14-.24l0,.46c-.18-.64-.27.3-.39-.27a2.1,2.1,0,0,1-.06.24l0-.23c-.08,0-.12-.06-.2,0V73.1c-.06,0,0,.67,0,.69l-.05-.33c-.09,0-.21-.22-.26.09a.47.47,0,0,1,0-.16s-.18-.15-.11.26c0-.27-.1,0-.13.13l0-.2c0,.27,0,.34,0,.42s0-.16,0-.11,0,.19-.08.1v-.13c-.05,0,0,.06,0,.21s-.1,0-.13-.19c0,.1,0,.24,0,.2a.45.45,0,0,1,0-.12c-.1-.1-.08.24-.16.08s0-.08,0-.1.1,0,.1,0a1.71,1.71,0,0,1-.07-.41c0,.14-.05.42-.1.37l0-.06v0s0,0,0,0,0,0,0,0-.06,0-.09,0,0,.14,0,.27,0,0,0,0a0,0,0,0,0,0,0v0l.06,0c0,.09,0,.17-.06.08v.27c-.07-.22-.15-.31-.18-.44C30.1,74,30,74,30,74.3c0,0,0-.08-.05-.12s0,0,0-.07-.12.07-.1.25c-.06-.06,0-.17-.06-.12v0c-.19-.19-.15.49-.37.22a.09.09,0,0,1,0,0c-.2,0-.34.21-.54.13s-.05,0-.07.1l0-.06,0,.09c-.06.07-.15-.08-.22,0v0s-.1.06-.1,0,0,0,0,0h0l-.08.05c-.06,0,0,0-.08,0s-.09.06-.08.05h0s0,0,.05,0h.09l0,0,.05,0s0,0,0,0,0,0,0,0,0,0,.06,0,0,0,0,0,.07,0,.08,0,.1,0,.11.07l.06-.06c0,.09.1,0,.11.12,0-.09.12,0,.17-.08s0,0,0,0,.06,0,.09.08,0-.13,0-.2c.07.11,0,.13,0,.24,0-.09.06-.08,0-.16.05.07,0,0,.08.13,0-.15,0,0,0-.11.06.08,0,.15.09.11A.1.1,0,0,1,29.45,75.22Zm1.16-.28Zm.1,0a0,0,0,0,0,0,0c0-.06,0-.13,0-.12S30.69,74.88,30.71,74.93Zm-.39-1.14s0,0,0,0l0,0v-.06Z" style="fill:#41995d"/><path d="M30.32,74v0Z" style="fill:#41995d"/><path d="M39.68,74.26h0v0Z" style="fill:#41995d"/><polygon points="32.16 75.36 32.15 75.3 32.15 75.36 32.16 75.36" style="fill:#41995d"/><path d="M40.15,74.83a0,0,0,0,0,0,0Z" style="fill:#41995d"/><path d="M40.38,74.86l0,0Z" style="fill:#41995d"/><path d="M40.56,74.92v0h0Z" style="fill:#41995d"/><path d="M37.59,75.15h0S37.57,75.19,37.59,75.15Z" style="fill:#41995d"/><path d="M38.51,74.64a.3.3,0,0,1,0,.1S38.5,74.76,38.51,74.64Z" style="fill:#41995d"/><polygon points="36.62 75.49 36.62 75.49 36.61 75.49 36.62 75.49" style="fill:#41995d"/><path d="M38.43,74.73s0,0,0,0S38.45,74.7,38.43,74.73Z" style="fill:#41995d"/><polygon points="41.38 74.95 41.39 74.95 41.39 74.95 41.38 74.95" style="fill:#41995d"/><path d="M41.39,75h0Z" style="fill:#41995d"/><path d="M41.43,74.94h0Z" style="fill:#41995d"/><path d="M41.13,74.94v0Z" style="fill:#41995d"/><path d="M41.05,74.94s0,0,.07,0h0S41.08,74.91,41.05,74.94Z" style="fill:#41995d"/><path d="M40.81,74.6l.06,0s0-.07,0-.06S40.89,74.64,40.81,74.6Z" style="fill:#41995d"/><path d="M40.64,74.48s0,0,0-.07S40.62,74.44,40.64,74.48Z" style="fill:#41995d"/><path d="M39.27,74l0-.16S39.29,73.91,39.27,74Z" style="fill:#41995d"/><polygon points="38.87 74.84 38.88 74.95 38.91 74.79 38.87 74.84" style="fill:#41995d"/><polygon points="38.89 73.55 38.9 73.53 38.85 73.58 38.89 73.55" style="fill:#41995d"/><path d="M36.45,73.13v.31C36.47,73.38,36.49,73,36.45,73.13Z" style="fill:#41995d"/><path d="M35.39,73.39c0-.16,0-.26-.06-.1S35.38,73.43,35.39,73.39Z" style="fill:#41995d"/><polygon points="32.21 73.18 32.22 73.08 32.19 73.17 32.21 73.18" style="fill:#41995d"/></g><g id="monte-3" data-name="monte"><path d="M79.51,83.38h0Z" style="fill:#41995d"/><path d="M79.23,83.33s-.11,0-.08,0l.12,0,.07,0h.08a1,1,0,0,0-.19,0S79.23,83.33,79.23,83.33Z" style="fill:#41995d"/><path d="M75.17,82.37l0,0S75.18,82.37,75.17,82.37Z" style="fill:#41995d"/><path d="M72.62,81.84a.05.05,0,0,0,0,0S72.61,81.81,72.62,81.84Z" style="fill:#41995d"/><path d="M72.2,81.49l0,0S72.21,81.47,72.2,81.49Z" style="fill:#41995d"/><path d="M75.17,82.37l-.06-.08C75.09,82.35,75.14,82.35,75.17,82.37Z" style="fill:#41995d"/><path d="M78.65,83.34h0Z" style="fill:#41995d"/><path d="M76.31,82.46h0l0,0Z" style="fill:#41995d"/><path d="M77.16,82.65s0,.09,0,.13,0,0,0-.06A.08.08,0,0,0,77.16,82.65Z" style="fill:#41995d"/><path d="M78.49,83.13h0Z" style="fill:#41995d"/><path d="M75.7,82.29v-.05S75.7,82.27,75.7,82.29Z" style="fill:#41995d"/><path d="M51.37,83.41h0Z" style="fill:#41995d"/><polygon points="50.34 83.38 50.35 83.38 50.36 83.38 50.34 83.38" style="fill:#41995d"/><path d="M71.42,81.06h0S71.43,81.05,71.42,81.06Z" style="fill:#41995d"/><path d="M63.91,80.85c.09.25-.13.33,0,.6C63.9,81.34,64,81,63.91,80.85Z" style="fill:#41995d"/><path d="M78.62,83.33h0Z" style="fill:#41995d"/><path d="M63.92,81.45h0v0Z" style="fill:#41995d"/><path d="M69.53,81a.37.37,0,0,0,0,.12A1,1,0,0,0,69.53,81Z" style="fill:#41995d"/><path d="M70.91,81.49l0,0Z" style="fill:#41995d"/><path d="M68.79,81.3s0-.06-.05,0v0S68.77,81.26,68.79,81.3Z" style="fill:#41995d"/><path d="M68,81.27v0h0Z" style="fill:#41995d"/><path d="M53.65,83.36a1.17,1.17,0,0,1,0-.11C53.63,83.34,53.52,83.37,53.65,83.36Z" style="fill:#41995d"/><path d="M78.65,83.32h0Z" style="fill:#41995d"/><path d="M68.67,83.4l-.11,0A.21.21,0,0,0,68.67,83.4Z" style="fill:#41995d"/><path d="M59,83.24l0,0S59,83.27,59,83.24Z" style="fill:#41995d"/><path d="M68.21,83.4a.6.6,0,0,0-.06-.18.56.56,0,0,0,0,.07Z" style="fill:#41995d"/><path d="M53.6,83.25Z" style="fill:#41995d"/><path d="M52.86,83.52c.11,0,0-.13,0-.21s.08.1.14.17.12-.16.19-.16,0,0,0,.06.26,0,.34-.17c0,0,0,0,0,0a.64.64,0,0,1,0-.22s.07-.11.11,0,0,0,0,.07l0,0c.07.16-.07.06,0,.18.09-.06.2-.2.28-.16s-.18.06,0,.2l-.13-.06c.13.24-.08,0,0,.25.17,0,.17-.08.34,0s0-.13,0-.23c.2-.18.23.43.37.2s0-.35.15-.24v.21c.16,0,.05-.3.23-.17,0,.09-.11.08-.09.1s.06-.12.14-.12l.05.19c.16,0,.32-.18.5-.23,0,.06,0,.13,0,.19a.81.81,0,0,1,.73.15l.07-.2s0,.09,0,.13,0-.13,0-.21.08.12.05.18c.14-.17.4-.4.59-.17l0,.06c.13.09.1-.45.23-.25v0c.28.09.56-.14.8.21,0-.34.28.15.26-.33.18.23.14.32.37.48.06,0,.06-.31.13-.37l0,.26.07-.27.08.31.06-.07a.3.3,0,0,1-.07-.19c.1-.13.28.17.29.31l.23-.23a.4.4,0,0,1-.06.21c.11-.27,0,.29.15,0a.76.76,0,0,1,0-.21.19.19,0,0,0,.31.09v.19c.18,0,.38-.09.59-.09-.08-.09-.09-.43,0-.46l0,.29c0-.18-.07-.11,0-.34.08,0,.08.34,0,.44l.09-.1a2.45,2.45,0,0,1,0,.25c0-.19.18.3.22,0v.09c.2,0,.29-.1.46-.12,0-.27.06-.21.1-.43.13.08.28.29.43.26s0-.22.06-.38c0,.24.16.22.09.39a.74.74,0,0,0,.45-.25.53.53,0,0,1-.05-.23s.1.1.1.22v0c.25-.38.62.72.8.19v0l.21-.28c.09,0-.06.19,0,.35.22-.43.36,0,.54-.23.16.75.51-.06.72.42l0-.17c0-.18.06.1.1.14,0-.14,0-.16,0-.26.42-.21.88.26,1.32.41.16,0,.09-.92.29-.5l-.06.33c.33-.39.66,0,1-.31,0,.07,0,.17,0,.17.06.23.25,0,.25-.18,0,0,0,.17,0,.27s.18-.3.2-.07c0,0,0,.08,0,.1s.2,0,.17-.24c.11.12.23-.12.32,0,.07-.3.2.14.23-.28,0,.43.2.34.28.14,0,.13.06.14,0,.32.08,0,.16-.09.16-.31.13.51.34-.4.4.25a2.68,2.68,0,0,1,.74-.46c0,.41-.26,0-.27.47.23-.17.37-.51.59-.41,0,0,0,.17-.07.24.23-.16.42,0,.63-.17a.47.47,0,0,1-.05.1s.08.06.09-.11l0,0c0-.26.19-.53.21-.66-.1.5.18.13,0,.76a.34.34,0,0,0,.07-.23s0,.1,0,.23c.15-.09.11-.27.24-.27a1.66,1.66,0,0,1-.06.21c.08-.16.15-.31.25-.24s0,.12,0,.11c.18,0,.34-.4.53-.23-.09.34.06.11,0,.41l.11-.09,0-.14c.1,0,.2-.2.27-.1l-.08.12.18,0-.09-.11c.11-.14,0-.36.14-.27s.1,0,.13.18h0c0-.09.11-.18.17-.1a3.29,3.29,0,0,1,0,.36c.07-.23.23-.05.31-.29a1.24,1.24,0,0,0,0,.23l.06-.18c0,.06,0,.09,0,.2s0-.34.14-.19c0,0,0,0,0,.07.14.08.31-.09.44,0,0,.26-.13.06-.1.28.21,0,.46-.29.65-.2l0,0c.06-.33.12.17.24,0a.51.51,0,0,0,0,.14c.13.06.29-.06.51-.13l0,.07c.07.08.21.06.29.1s.08,0,.07-.16c.21.42.54-.16.73.18,0,0-.08,0,0,0l.21,0c0-.11,0-.07,0-.15a.17.17,0,0,1,.15-.09c-.1.05,0,.16,0,.22s0-.07,0-.1c.08.19.05-.19.18-.06l0,.05c.06,0,.12-.08.18-.05s-.07,0-.09.13.2-.18.25-.07l-.12,0c.06.13.07.1.13.13h0l.13.07,0,0c.15-.24.22,0,.38-.15-.16.12,0,.08-.06.17s.08.07.06.1.09.06.21,0,.07,0,0,.08,0,0,0-.08.29.12.5,0,.21-.08.37-.08-.06,0-.06,0a.43.43,0,0,0,.22,0s0,0,0,0,.05,0,.13,0l-.07,0,.23,0s0,0-.08,0a1.47,1.47,0,0,0,.25,0h0s0,0,0,0-.11,0-.11,0H79c0-.06-.22,0-.33,0l.06,0-.12,0s0-.06,0-.06-.07,0-.13,0,0,0,0,0h-.08s0-.06,0,0c-.13-.08-.23,0-.27-.07h0c-.2,0,0,0-.19.11L78,83l0,.07s-.06,0,0,0,0,0,0,.08-.26,0-.26-.16c0,.06.08.07,0,.1,0-.17-.12,0-.19-.09s.12,0,.05-.11c-.08.13-.16-.08-.24-.07s-.16,0-.29,0-.21-.12-.32-.2v0c0,.15-.16.1-.24.12s0-.14.09-.17l-.08,0a.15.15,0,0,1-.11.08l0-.12c-.11,0-.24.11-.36,0,0,.13.06.37-.1.43,0-.07,0-.19.06-.21s0,.05-.07,0l.07-.11c0-.06,0,.09-.09.07s0-.07,0-.15,0,.05.06,0a.24.24,0,0,1-.12-.18c0,.06,0,.14-.06.14s0-.13-.08-.19-.09,0-.11.13c0,0,0-.08,0-.13s-.25,0-.22.16h0c-.2.13-.36-.17-.55-.13v-.06c-.12,0-.24,0-.34.12s-.06-.13,0-.2-.11.1-.21,0c.09-.1,0-.1.09-.07-.1-.07-.11-.18-.25,0,.06-.16,0-.23-.11-.18l.06.13a.16.16,0,0,1-.15,0l0-.22c-.19-.32-.45.42-.56-.09-.07.16.11.14,0,.33-.09,0-.16-.41-.19-.42-.13-.16-.17.34-.3.22,0,.1,0,.34-.11.41s-.09-.4,0-.46,0,0,0,.06.08-.06,0-.17l0,.09c0-.1-.18-.11-.13-.26a.12.12,0,0,0,0,.2c-.11-.15-.2,0-.32-.14,0,0,0,.16,0,.16-.18-.14-.1.17-.23.19-.07-.15,0-.34-.09-.24a.34.34,0,0,1,0-.33c-.13.17-.21-.16-.28-.21l.07-.06s-.07,0-.11,0l0,.2s-.07,0-.06-.12c0,.12,0,.33-.09.49,0-.1-.16.1-.16-.17.15.11,0-.27.14-.29,0,0-.06,0-.09,0s0,0,0-.07c-.14-.25-.09.29-.25.27,0-.15,0-.29,0-.26s0,.25-.06.36c-.09-.12-.11.08-.16.06l0,.06c0,.15-.08.13-.15.17,0-.12.07-.07,0-.13-.1.27-.16-.3-.28-.12,0-.11,0-.3,0-.37-.13.19-.11-.23-.25-.08,0,.22,0,.16-.07.36l.22-.12-.16.29c.07,0,.15-.12.18-.08s-.06.11,0,.29c-.07-.32-.19.17-.27-.05l0-.53c-.14-.25-.28.25-.47.09l.06.1c0,.22-.12,0-.19.1a1.15,1.15,0,0,0,0-.36c0,.13-.15,0-.18.34l-.08-.25c-.15-.12-.2.5-.35.43,0-.2,0-.33.1-.47-.05,0-.1,0-.1.09,0-.12-.15.24-.19.06,0,.08,0,.28-.1.26v-.09c0,.09-.09.12-.05.33-.13-.6-.43,0-.55-.49a1.08,1.08,0,0,1-.35.13c0-.06,0-.1,0-.08-.13-.18-.1.55-.25.35s.09-.17,0-.29c0-.63-.19.08-.29-.3l0,0c-.08-.22-.21.23-.34.18a.31.31,0,0,0,0-.1.81.81,0,0,1-.39.52c0-.25.06-.13,0-.39-.06,0,0,.41-.11.48a2,2,0,0,1-.12-.53l.11,0c-.06-.35-.14,0-.2,0V81c-.17,0-.17.44-.35.41l0,.12c-.1.38-.08-.22-.18.07l0-.4a2.05,2.05,0,0,1-.33.46,2.12,2.12,0,0,1,.28-.62.24.24,0,0,0-.25.23s.06-.14.08-.08c-.08.31-.18.47-.3.46,0-.77-.33-.19-.43-.79-.22.29-.45-.11-.71-.06.11.59-.07,0,0,.62-.06,0-.08,0-.08,0l-.2-.35c0-.18.06-.14.05-.27s-.06-.26-.15-.42c0,.22,0,.32-.12.24l.11.27c-.17.33-.17-.5-.35-.17l.05-.19c-.09.11-.35,0-.43.5,0-.07-.05-.23,0-.28-.23-.06-.49.54-.68.25v-.14s-.06.27-.12.13,0-.14,0-.15-.1.26-.17.18l.05-.17c-.24-.17-.33.42-.51.53a.63.63,0,0,0-.3-.6v-.06c-.26,0-.42.39-.65.57-.18-.42-.52-.14-.78-.35a.46.46,0,0,1,0,.35c-.06-.07-.14.29-.15-.07h0c-.07-.34-.18-.23-.27-.23l0,.46c-.29-.63-.6.32-.77-.24,0,.11-.12.12-.17.24l0-.23a.51.51,0,0,0-.43,0l0-.17c-.12,0-.08.68-.18.7l-.07-.33c-.19,0-.41-.22-.57.11,0,0,0-.14,0-.16s-.37-.14-.29.28c0-.28-.2,0-.29.14v-.2c-.06.27,0,.34-.17.43s0-.16,0-.11,0,.19-.18.11l0-.13c-.1,0-.08.06-.12.21s-.19,0-.23-.18c0,.1,0,.25-.1.21a.23.23,0,0,1,0-.13c-.18-.09-.22.25-.35.1a.23.23,0,0,0,0-.1.78.78,0,0,1,.23,0c0-.17-.13-.17-.08-.42-.06.15-.18.44-.29.39l0-.05v0s-.05,0-.06,0-.06,0-.09,0-.13,0-.18,0c0,.17-.05.15,0,.28s0,0,0,0,0,0,0,0h0l.13,0c0,.09-.07.17-.14.09,0,.11,0,.23,0,.28-.1-.22-.25-.31-.29-.44-.14.12-.36.14-.43.44,0,0-.06-.07-.08-.11s.05,0,.06-.08-.26.09-.26.27c-.13-.06,0-.18-.11-.11v-.06c-.34-.18-.44.52-.83.27a.07.07,0,0,1,0,0c-.41,0-.78.26-1.19.21-.11,0-.11.06-.17.12l0-.06-.1.1c-.15.07-.3-.06-.48.07l0,0c-.08,0-.23.07-.22,0s0,0,0,0h0l-.17.07c-.14,0,0-.05-.19,0l-.18.07.08,0-.07,0h.31l.05,0,.12,0s0,0,0,0-.06,0,0,0,0,0,.11,0,0,0,0,0,.16,0,.18,0,.2,0,.21.05a.42.42,0,0,1,.15-.07c-.08.1.21,0,.2.12.06-.1.27,0,.39-.11s0,0,0,0a.34.34,0,0,1,.16.08c0-.11.11-.14.16-.22.11.12,0,.15,0,.25,0-.09.14-.09.1-.18a.33.33,0,0,1,.12.14c0-.16.06,0,.1-.13.11.08.05.16.15.1S52.86,83.52,52.86,83.52Zm2.59-.45h0l-.06,0Zm.22,0h-.1c0-.06,0-.12,0-.12S55.63,83,55.67,83.05Zm-.61-1.13s0,0,0,0l-.06,0v0A.22.22,0,0,1,55.06,81.92Z" style="fill:#41995d"/><path d="M55,82.15s0,0,0,0l0,0v-.06Z" style="fill:#41995d"/><path d="M75.19,82.4h0s0,0,0,0Z" style="fill:#41995d"/><polygon points="58.75 83.36 58.75 83.3 58.73 83.36 58.75 83.36" style="fill:#41995d"/><path d="M76.34,83a0,0,0,0,0,0,0Z" style="fill:#41995d"/><path d="M76.86,83.11l.07,0Z" style="fill:#41995d"/><path d="M77.25,83.2l0,0h0Z" style="fill:#41995d"/><path d="M70.82,83.11h0S70.79,83.15,70.82,83.11Z" style="fill:#41995d"/><path d="M72.77,82.67l-.07.09S72.76,82.79,72.77,82.67Z" style="fill:#41995d"/><polygon points="68.69 83.4 68.69 83.39 68.67 83.4 68.69 83.4" style="fill:#41995d"/><path d="M72.61,82.75s.06,0,.09,0S72.64,82.72,72.61,82.75Z" style="fill:#41995d"/><polygon points="79.01 83.36 79.03 83.36 79.03 83.36 79.01 83.36" style="fill:#41995d"/><path d="M79,83.36h0Z" style="fill:#41995d"/><path d="M79.1,83.35h0A0,0,0,0,0,79.1,83.35Z" style="fill:#41995d"/><path d="M78.47,83.31v0Z" style="fill:#41995d"/><path d="M78.31,83.3s.09,0,.15,0h0S78.35,83.27,78.31,83.3Z" style="fill:#41995d"/><path d="M77.69,82.89l.13.06s0-.08,0-.07C77.69,82.74,77.86,83,77.69,82.89Z" style="fill:#41995d"/><path d="M77.29,82.73c.07,0,0,0,0-.07S77.24,82.69,77.29,82.73Z" style="fill:#41995d"/><path d="M74.26,82.08l0-.16C74.23,81.93,74.28,82,74.26,82.08Z" style="fill:#41995d"/><polygon points="73.58 82.9 73.62 83.01 73.66 82.86 73.58 82.9" style="fill:#41995d"/><polygon points="73.37 81.58 73.4 81.56 73.3 81.61 73.37 81.58" style="fill:#41995d"/><path d="M68.18,81v.31C68.23,81.28,68.24,81,68.18,81Z" style="fill:#41995d"/><path d="M65.92,81.27c0-.15-.08-.26-.12-.1S65.9,81.31,65.92,81.27Z" style="fill:#41995d"/><polygon points="59.17 81.15 59.21 81.05 59.13 81.14 59.17 81.15" style="fill:#41995d"/></g></g></g><path id="arbusto" d="M132.4,35.52a21.94,21.94,0,0,1-8.19,17V53a6.05,6.05,0,0,1-6,6.05H18.33c-1.58,0-2.81-1-4-1.62l-.3-.18c-1.8-1.22-14-10-14-18.54A19.36,19.36,0,0,1,28.05,21.43C31.75,9.08,44.31,0,59.2,0c14.61,0,27,8.72,30.93,20.71a24.67,24.67,0,0,1,18.18-7.8C121.61,12.91,132.4,23,132.4,35.52Z" style="fill:#80c341"/><g id="texto"><path d="M49.21,48.16a8.38,8.38,0,0,1-2.61,1.53,8.47,8.47,0,0,1-3,.53,8.35,8.35,0,0,1-2.3-.31A8.63,8.63,0,0,1,39.23,49a9.3,9.3,0,0,1-1.76-1.36,8.9,8.9,0,0,1-1.36-1.76,9.33,9.33,0,0,1-.87-2.08,8.72,8.72,0,0,1,0-4.61,9.45,9.45,0,0,1,.87-2.07,8.56,8.56,0,0,1,1.36-1.75,8.9,8.9,0,0,1,1.76-1.36,9.06,9.06,0,0,1,2.07-.87,8.35,8.35,0,0,1,2.3-.31,8.69,8.69,0,0,1,3,.53,8.79,8.79,0,0,1,2.61,1.53l-1.76,2.93a5.6,5.6,0,0,0-1.75-1.21,5.24,5.24,0,0,0-2.1-.44,5.18,5.18,0,0,0-2.07.42,5.47,5.47,0,0,0-1.69,1.14,5.33,5.33,0,0,0-1.15,1.69,5.18,5.18,0,0,0-.42,2.07,5.24,5.24,0,0,0,.42,2.09,5.47,5.47,0,0,0,2.84,2.84,5.18,5.18,0,0,0,2.07.43,5.06,5.06,0,0,0,1.23-.16A5.55,5.55,0,0,0,46,46.31V41.53h3.24Z" style="fill:#ebebeb"/><path d="M68.27,41.53a8.74,8.74,0,0,1-.31,2.3,8.91,8.91,0,0,1-.88,2.08,8.21,8.21,0,0,1-1.36,1.76A8.89,8.89,0,0,1,64,49a8.71,8.71,0,0,1-2.08.87,8.72,8.72,0,0,1-4.61,0A8.63,8.63,0,0,1,55.21,49a8.73,8.73,0,0,1-1.77-1.37,8.72,8.72,0,0,1-2.24-3.84,8.72,8.72,0,0,1,0-4.61,8.66,8.66,0,0,1,.88-2.07,8.9,8.9,0,0,1,1.36-1.76A8.34,8.34,0,0,1,55.21,34a8.25,8.25,0,0,1,2.07-.87A8.74,8.74,0,0,1,64,34a8.48,8.48,0,0,1,1.75,1.36,8.21,8.21,0,0,1,1.36,1.76A8.66,8.66,0,0,1,68,39.22,8.82,8.82,0,0,1,68.27,41.53Zm-3.34,0a5.22,5.22,0,0,0-.42-2.08,5.6,5.6,0,0,0-1.15-1.7,5.29,5.29,0,0,0-1.7-1.14,5.36,5.36,0,0,0-4.16,0,5.4,5.4,0,0,0-1.7,1.14,5.31,5.31,0,0,0-1.57,3.78,5.18,5.18,0,0,0,.42,2.07,5.33,5.33,0,0,0,1.15,1.69,5.27,5.27,0,0,0,1.7,1.15,5.33,5.33,0,0,0,5.86-1.15,5.68,5.68,0,0,0,1.15-1.69A5.18,5.18,0,0,0,64.93,41.53Z" style="fill:#ebebeb"/><path d="M82.24,49.86H70.47V33.06h3.36V46.5h8.41Z" style="fill:#ebebeb"/><path d="M97.45,41.46a8.22,8.22,0,0,1-.3,2.23,8.32,8.32,0,0,1-.85,2A9,9,0,0,1,95,47.39a8,8,0,0,1-1.7,1.32,8.49,8.49,0,0,1-2,.85,8.29,8.29,0,0,1-2.24.3H84V33.06H89a8.29,8.29,0,0,1,2.24.3,8.1,8.1,0,0,1,2,.85A8.29,8.29,0,0,1,95,35.52a9.39,9.39,0,0,1,1.31,1.7,8.35,8.35,0,0,1,1.15,4.24Zm-3.37,0a4.93,4.93,0,0,0-.39-2,5,5,0,0,0-1.08-1.6A5.07,5.07,0,0,0,91,36.82a4.85,4.85,0,0,0-2-.4H87.37V46.5H89a5,5,0,0,0,2-.39A5.25,5.25,0,0,0,92.61,45a5,5,0,0,0,1.47-3.57Z" style="fill:#ebebeb"/></g><g id="flores"><g id="flor"><polygon id="petalos" points="113.94 29.54 115.21 31.75 113.94 33.95 111.4 33.95 110.13 36.15 107.58 36.15 106.31 33.95 103.77 33.95 102.5 31.75 103.77 29.54 102.5 27.34 103.77 25.14 106.31 25.14 107.58 22.93 110.13 22.93 111.4 25.14 113.94 25.14 115.21 27.34 113.94 29.54" style="fill:#d2e043"/><polygon id="centro" points="109.8 27.91 107.91 27.91 106.97 29.54 107.91 31.18 109.8 31.18 110.74 29.54 109.8 27.91" style="fill:#ebebeb"/></g><g id="flor-2" data-name="flor"><polygon id="petalos-2" data-name="petalos" points="75.01 13.22 76.28 15.42 75.01 17.62 72.47 17.62 71.2 19.83 68.65 19.83 67.38 17.62 64.84 17.62 63.57 15.42 64.84 13.22 63.57 11.02 64.84 8.81 67.38 8.81 68.65 6.61 71.2 6.61 72.47 8.81 75.01 8.81 76.28 11.02 75.01 13.22" style="fill:#d2e043"/><polygon id="centro-2" data-name="centro" points="70.86 11.58 68.98 11.58 68.03 13.22 68.98 14.85 70.86 14.85 71.81 13.22 70.86 11.58" style="fill:#ebebeb"/></g></g></g></g></g></svg>
