<?xml version="1.0" encoding="utf-8"?>
<!-- Generator: Adobe Illustrator 24.0.1, SVG Export Plug-In . SVG Version: 6.00 Build 0)  -->
<svg version="1.1" id="arbustos_tableros_1_" xmlns="http://www.w3.org/2000/svg" xmlns:xlink="http://www.w3.org/1999/xlink"
	 x="0px" y="0px" viewBox="0 0 132.4 112.8" style="enable-background:new 0 0 132.4 112.8;" xml:space="preserve">
<style type="text/css">
	.st0{fill:url(#cesped_1_);}
	.st1{fill:#41995D;}
	.st2{fill:#80C341;}
	.st3{fill:#EBEBEB;}
	.st4{fill:#D2E043;}
</style>
<g id="arbusto_gold">
	<g id="suelo">
		
			<linearGradient id="cesped_1_" gradientUnits="userSpaceOnUse" x1="64.2232" y1="1.2027" x2="64.2232" y2="54.91" gradientTransform="matrix(1 0 0 -1 0 114)">
			<stop  offset="0" style="stop-color:#4FB56D;stop-opacity:0"/>
			<stop  offset="0.55" style="stop-color:#47A463;stop-opacity:0.6"/>
			<stop  offset="0.94" style="stop-color:#41995D"/>
		</linearGradient>
		<path id="cesped" class="st0" d="M118.2,59.1c2.5,4.8,3.4,10.3,2.6,15.6c-1.3,6.8-5.4,11-10,15.7c-5.6,5.7-10.1,10.2-16.7,11
			c-9.7,1.2-13.7-7-20.5-4.5c-6,2.2-5.3,9.3-11.7,13.5s-15,2.1-20.9,0L21.5,95.7l-5.9-2.1c-2.3-0.2-4.4-1.3-6-2.9
			C6.3,87,7,80.3,9.7,76.2s6.2-4.1,6.7-7.6c0.3-2.6-1.4-4.3-0.4-6.8c0.5-1.1,1.3-2,2.4-2.7L118.2,59.1z"/>
		<g id="monte">
			<g id="monte-2">
				<path class="st1" d="M41.6,74.9L41.6,74.9z"/>
				<path class="st1" d="M41.5,74.9C41.5,74.9,41.4,74.9,41.5,74.9S41.5,74.9,41.5,74.9h0.1C41.6,74.9,41.6,74.9,41.5,74.9
					L41.5,74.9z"/>
				<path class="st1" d="M39.7,74.2L39.7,74.2C39.7,74.2,39.7,74.2,39.7,74.2z"/>
				<path class="st1" d="M38.5,73.8L38.5,73.8L38.5,73.8z"/>
				<path class="st1" d="M38.3,73.5L38.3,73.5C38.3,73.5,38.3,73.5,38.3,73.5z"/>
				<path class="st1" d="M39.7,74.2L39.7,74.2C39.6,74.2,39.7,74.2,39.7,74.2z"/>
				<polygon class="st1" points="41.2,75 41.2,74.9 41.2,74.9 				"/>
				<path class="st1" d="M40.2,74.3L40.2,74.3L40.2,74.3L40.2,74.3z"/>
				<path class="st1" d="M40.6,74.4c0,0,0,0.1,0,0.1C40.6,74.5,40.6,74.5,40.6,74.4L40.6,74.4z"/>
				<path class="st1" d="M41.2,74.8L41.2,74.8z"/>
				<path class="st1" d="M39.9,74.1L39.9,74.1z"/>
				<path class="st1" d="M28.7,75L28.7,75z"/>
				<polygon class="st1" points="28.2,74.9 28.2,74.9 28.2,74.9 				"/>
				<path class="st1" d="M38,73.1L38,73.1C38,73.1,38,73.1,38,73.1z"/>
				<path class="st1" d="M34.4,73c0,0.2,0,0.3,0,0.6C34.5,73.4,34.5,73.2,34.4,73z"/>
				<path class="st1" d="M41.2,75L41.2,75z"/>
				<path class="st1" d="M34.5,73.6L34.5,73.6L34.5,73.6z"/>
				<path class="st1" d="M37.1,73.1L37.1,73.1z"/>
				<path class="st1" d="M37.7,73.5L37.7,73.5C37.7,73.5,37.7,73.5,37.7,73.5z"/>
				<path class="st1" d="M36.7,73.4L36.7,73.4L36.7,73.4C36.7,73.4,36.7,73.3,36.7,73.4z"/>
				<path class="st1" d="M36.4,73.4L36.4,73.4L36.4,73.4z"/>
				<path class="st1" d="M29.8,75.1V75C29.8,75.1,29.7,75.1,29.8,75.1z"/>
				<path class="st1" d="M41.2,74.9L41.2,74.9L41.2,74.9z"/>
				<path class="st1" d="M36.6,75.5L36.6,75.5L36.6,75.5z"/>
				<path class="st1" d="M32.3,75.3L32.3,75.3L32.3,75.3z"/>
				<path class="st1" d="M36.4,75.5c0-0.1,0-0.1,0-0.2v0.1V75.5z"/>
				<path class="st1" d="M29.8,75"/>
				<path class="st1" d="M29.5,75.2c0,0,0-0.1,0-0.2S29.5,75.1,29.5,75.2c0.2,0,0.1-0.2,0.2-0.2s0,0,0,0.1s0.1,0,0.1-0.1l0,0
					c0-0.1,0-0.1,0-0.2c0,0,0-0.1,0,0s0,0,0,0.1l0,0c0,0.2,0,0,0,0.2s0.1-0.2,0.1-0.1s-0.1,0,0,0.2l0-0.1c0.1,0.2,0,0,0,0.2
					c0.1,0.1,0.1-0.1,0.2,0c0-0.1,0-0.1,0-0.2s0.2,0.4,0.2,0.2s0-0.3,0-0.2v0.2c0.1,0,0-0.3,0.1-0.2s0,0.1,0,0.1s0-0.1,0-0.1v0.2
					c0.1,0,0.1-0.2,0.2-0.2c0,0.1,0,0.1,0,0.2c0.1-0.1,0.2,0,0.4,0.2v-0.2c0,0,0,0.1,0,0.1c0,0.1,0-0.1,0-0.2s0,0.1,0,0.2
					c0-0.2,0.1-0.4,0.3-0.2v0.1c0.1,0.1,0-0.4,0.1-0.2l0,0c0.1,0.1,0.3-0.1,0.4,0.2c0-0.3,0.1,0.2,0.1-0.3c0,0.2,0.1,0.3,0.2,0.5
					c0,0,0-0.3,0-0.4v0.3V75v0.3v-0.1c0-0.1,0-0.1,0-0.2c0-0.1,0.1,0.2,0.2,0.3l0.1-0.2c0,0.1,0,0.1,0,0.2c0-0.3,0,0.3,0.1,0
					c0-0.1,0-0.1,0-0.2c0,0.2,0.1,0.2,0.2,0.1v0.2c0.1,0,0.2-0.1,0.3-0.1c0-0.2,0-0.3,0-0.5v0.3c0-0.2,0-0.1,0-0.3
					c0,0.1,0,0.3,0,0.4v-0.1c0,0.1,0,0.2,0,0.3c0-0.2,0.1,0.3,0.1,0v0.1c0.1,0,0.1-0.1,0.2-0.1c0-0.1,0-0.3,0-0.4
					c0.1,0.1,0.1,0.3,0.2,0.3c0-0.1,0-0.3,0-0.4c0,0.2,0.1,0.2,0.1,0.4c0.1,0,0.1,0,0.2-0.3c0-0.1,0-0.2,0-0.2c0,0,0,0.1,0,0.2l0,0
					c0.1-0.4,0.3,0.7,0.4,0.2l0,0l0.1-0.3c0,0,0,0.2,0,0.3c0.1-0.4,0.2,0.1,0.2-0.2c0.1,0.8,0.2-0.1,0.3,0.4v-0.2c0-0.2,0,0.1,0,0.1
					c0-0.1,0-0.2,0-0.3c0.2-0.2,0.4,0.3,0.6,0.4s0-0.9,0.1-0.5v0.3c0.2-0.4,0.3,0,0.4-0.3c0,0.1,0,0.2,0,0.2c0,0.2,0.1,0,0.1-0.2
					c0,0.1,0,0.2,0,0.3c0,0.1,0.1-0.3,0.1-0.1c0,0,0,0.1,0,0.1s0.1,0,0.1-0.2c0,0.1,0.1-0.1,0.1,0c0-0.3,0.1,0.1,0.1-0.3
					c0,0.4,0.1,0.3,0.1,0.1c0,0.1,0,0.1,0,0.3c0,0,0.1-0.1,0.1-0.3c0,0.5,0.2-0.4,0.2,0.2c0.1-0.2,0.2-0.3,0.4-0.5
					c0,0.4-0.1,0-0.2,0.5c0.1-0.2,0.2-0.5,0.3-0.4c0,0.1,0,0.2,0,0.2c0.1-0.2,0.2,0,0.3-0.2V75c0,0,0,0.1,0-0.1l0,0
					c0-0.2,0.1-0.4,0.1-0.7c-0.1,0.5,0.1,0.1,0,0.8c0-0.1,0-0.2,0-0.2c0,0.1,0,0.2,0,0.2c0.1-0.1,0.1-0.3,0.1-0.3s0,0.1,0,0.2
					c0-0.2,0.1-0.3,0.1-0.3s0,0.1,0,0.1s0.2-0.4,0.3-0.3c-0.1,0.3,0,0.1,0,0.4l0.1-0.1v-0.1c0,0,0.1-0.2,0.1-0.1v0.1l0.1-0.1v-0.1
					c0.1-0.1,0-0.4,0.1-0.3s0,0,0,0.2l0,0c0-0.1,0.1-0.2,0.1-0.1c0,0.1,0,0.2,0,0.4c0.1-0.2,0.1-0.1,0.2-0.3c0,0.1,0,0.2,0,0.2v-0.2
					c0,0.1,0,0.1,0,0.2c0,0,0-0.3,0.1-0.2c0,0,0,0,0,0.1c0.1,0.1,0.2-0.1,0.2,0c0,0.3-0.1,0.1-0.1,0.3c0.1,0,0.3-0.3,0.3-0.2l0,0
					c0.1-0.3,0,0.2,0.1,0c0,0,0,0.1,0,0.1c0.1,0.1,0.1-0.1,0.3-0.2v0.1c0,0.1,0.1,0,0.1,0.1s0-0.1,0-0.2c0,0.4,0.3-0.2,0.3,0.1v0.1
					l0.1-0.1c0,0,0-0.1,0-0.1c0-0.1,0.1-0.1,0.1-0.1c0,0.1,0,0.1,0,0.2v-0.1c0,0.2,0-0.2,0.1-0.1l0,0c0,0,0.1-0.1,0.1-0.1s0,0,0,0.1
					s0.1-0.2,0.1-0.1s0,0-0.1,0s0,0.1,0,0.1l0,0h0.1l0,0c0.1-0.2,0.1,0,0.2-0.2c-0.1,0.1,0,0.1-0.1,0.2s0,0.1,0,0.1s0,0.1,0.1,0
					s0,0,0,0.1s0,0,0-0.1s0.1,0.1,0.2,0s0.1-0.1,0.2-0.1s0,0,0,0c0,0,0.1,0,0.1,0l0,0c0,0,0,0,0.1,0s0,0,0,0c0,0,0.1,0,0.1,0
					c0,0,0,0,0,0s0.1,0,0.1,0l0,0l0,0l0,0l0,0c0-0.1-0.1,0-0.2,0v-0.1h-0.1 M41.3,74.5C41.3,74.5,41.3,74.5,41.3,74.5L41.3,74.5
					L41.3,74.5c-0.1,0-0.2,0-0.2,0l0,0c-0.1,0,0,0.1-0.1,0.1v-0.2v0.1l0,0c0,0,0,0,0,0.1s-0.1,0-0.1-0.1c0,0.1,0,0.1,0,0.1
					c0-0.2-0.1,0-0.1-0.1s0,0,0-0.1c0,0.1-0.1-0.1-0.1,0s-0.1,0-0.1,0s-0.1-0.1-0.1-0.2l0,0c0,0.2-0.1,0.1-0.1,0.1s0-0.1,0.1-0.2
					l0,0c0,0,0,0.1-0.1,0.1v-0.1c0,0-0.1,0.1-0.2,0c0,0.1,0,0.3-0.1,0.4c0-0.1,0-0.1,0-0.2c0,0,0,0.1,0,0v-0.1c0-0.1,0,0.1,0,0.1
					s0-0.1,0-0.2s0,0,0,0c0-0.1,0-0.1,0-0.2c0,0.1,0,0.1,0,0.1s0-0.1,0-0.2s0,0-0.1,0.1c0,0,0-0.1,0-0.1s-0.1,0-0.1,0.2l0,0l0,0
					c-0.1,0.2-0.2-0.1-0.3-0.1v-0.1c-0.1,0.1-0.1,0-0.2,0.1c0-0.1,0-0.1,0-0.2c0,0-0.1,0.1-0.1,0s0-0.1,0.1-0.1s0-0.2-0.1,0
					c0-0.2,0-0.2,0-0.2v0.1c0,0,0,0-0.1,0v-0.2c-0.1-0.3-0.3,0.4-0.3-0.1c0,0.2,0,0.1,0,0.3c0-0.1,0-0.3,0-0.4
					c0-0.2-0.1,0.3-0.2,0.2c0,0.1,0,0.3-0.1,0.4c0-0.1,0-0.3,0-0.4c0,0,0,0,0,0.1c0-0.1,0-0.1,0-0.2v0.1c0-0.1-0.1-0.1,0-0.3
					c0,0.1,0,0.1,0,0.2c0-0.2-0.1,0-0.1-0.1c0,0.1,0,0.1,0,0.2c-0.1-0.1-0.1,0.2-0.1,0.2c0-0.2,0-0.3,0-0.2c0-0.1,0-0.2,0-0.3
					c-0.1,0.2-0.1-0.2-0.1-0.2v-0.1l0,0v0.2c0,0,0-0.1,0-0.1c0,0.1,0,0.3-0.1,0.5c0-0.1-0.1,0.1-0.1-0.2c0.1,0.1,0-0.3,0.1-0.3
					s0,0,0,0c0,0,0,0,0-0.1c0-0.3-0.1,0.3-0.1,0.3s0-0.3,0-0.3s0,0.3,0,0.4c0-0.1-0.1,0.1-0.1,0.1v0.1c0,0.2,0,0.1-0.1,0.2
					c0-0.1,0-0.1,0-0.1c-0.1,0.3,0-0.3-0.1-0.1c0-0.1,0-0.3,0-0.4c-0.1,0.2,0-0.2-0.1-0.1c0,0.1,0,0.3,0,0.4l0.1-0.1l-0.1,0.3
					c0,0,0.1-0.1,0.1-0.1c0,0.1,0,0.2,0,0.3c0-0.3-0.1,0.2-0.1,0v-0.5c0-0.3-0.1,0.3-0.2,0.1v0.1c0,0.2-0.1,0-0.1,0.1
					c0-0.1,0-0.2,0-0.4c0,0.1-0.1,0-0.1,0.3v-0.3c-0.1-0.1-0.1,0.5-0.2,0.4c0-0.2,0-0.3,0.1-0.5c0,0,0,0,0,0.1
					c0-0.1-0.1,0.2-0.1,0.1c0,0.1,0,0.3,0,0.3v-0.1c0,0.1,0,0.2,0,0.3c0-0.6-0.2,0-0.2-0.5c0,0.1-0.1,0.1-0.2,0.1c0-0.1,0-0.1,0-0.1
					c-0.1-0.2-0.1,0.6-0.1,0.3s0-0.2,0-0.3c0-0.6-0.1,0.1-0.1-0.3l0,0c0-0.2-0.1,0.2-0.2,0.2v0c0,0.2-0.1,0.4-0.2,0.5
					c0-0.1,0-0.3,0-0.4c0,0,0,0.4-0.1,0.5c0-0.2,0-0.4,0-0.5h0c0-0.4-0.1,0-0.1,0v-0.2c-0.1,0-0.1,0.4-0.2,0.4v0.1
					c0,0.4,0-0.2-0.1,0.1v-0.4c0,0.2-0.1,0.3-0.2,0.5c0-0.2,0.1-0.4,0.1-0.6c0,0-0.1,0-0.1,0.2c0,0,0-0.1,0-0.1
					c0,0.3-0.1,0.5-0.1,0.5c0-0.8-0.2-0.2-0.2-0.8c-0.1,0.3-0.2-0.1-0.3-0.1c0.1,0.6,0,0,0,0.6l0,0l-0.1-0.4c0-0.2,0-0.1,0-0.3
					s0-0.3-0.1-0.4c0,0.2,0,0.3,0,0.2l0.1,0.3c-0.1,0.3-0.1-0.5-0.2-0.2v-0.2c0,0.1-0.2,0-0.2,0.5c0-0.1,0-0.2,0-0.3
					c-0.1-0.1-0.2,0.5-0.3,0.3V73c0,0,0,0.3,0,0.1c0,0,0-0.1,0-0.2c0,0.1,0,0.3-0.1,0.2V73c-0.1-0.2-0.1,0.4-0.2,0.5
					c0-0.4-0.1-0.5-0.2-0.6v-0.1c-0.1,0-0.2,0.4-0.3,0.6C33,73,32.9,73.3,32.7,73c0,0.1,0,0.2,0,0.3c0-0.1,0,0.3-0.1-0.1l0,0
					c0-0.3-0.1-0.2-0.1-0.2v0.5c-0.2-0.6-0.3,0.3-0.4-0.3c0,0.1,0,0.2-0.1,0.2v-0.2c-0.1,0-0.1-0.1-0.2,0v-0.2c-0.1,0,0,0.7,0,0.7
					l0-0.3c-0.1,0-0.2-0.2-0.3,0.1c0-0.1,0-0.1,0-0.2c0,0-0.2-0.2-0.1,0.3c0-0.3-0.1,0-0.1,0.1v-0.2c0,0.3,0,0.3,0,0.4s0-0.2,0-0.1
					s0,0.2-0.1,0.1v-0.1c0,0,0,0.1,0,0.2s-0.1,0-0.1-0.2c0,0.1,0,0.2,0,0.2c0,0,0-0.1,0-0.1C31,73.9,31,74.2,31,74s0-0.1,0-0.1
					s0.1,0,0.1,0c0-0.1-0.1-0.3-0.1-0.4c0,0.1,0,0.4-0.1,0.4v-0.1l0,0l0,0l0,0c0,0-0.1,0-0.1,0s0,0.1,0,0.3s0,0,0,0l0,0l0,0h0.1
					c0,0.1,0,0.2-0.1,0.1v0.3c-0.1-0.2-0.1-0.3-0.2-0.4c-0.5,0-0.6,0-0.6,0.3c0,0,0-0.1,0-0.1s0,0,0-0.1s-0.1,0.1-0.1,0.3
					c-0.1-0.1,0-0.2-0.1-0.1l0,0c-0.2-0.2-0.1,0.5-0.4,0.2l0,0c-0.2,0-0.3,0.2-0.5,0.1s0,0-0.1,0.1v-0.1v0.1c-0.1,0.1-0.1-0.1-0.2,0
					l0,0c0,0-0.1,0.1-0.1,0s0,0,0,0l0,0l-0.1,0.1c-0.1,0,0,0-0.1,0s-0.1,0.1-0.1,0.1l0,0c0,0,0,0,0,0h0.1l0,0h0l0,0l0,0
					c0,0,0,0,0.1,0s0,0,0,0s0.1,0,0.1,0s0.1,0,0.1,0.1l0.1-0.1c0,0.1,0.1,0,0.1,0.1c0-0.1,0.1,0,0.2-0.1s0,0,0,0s0.1,0,0.1,0.1
					s0-0.1,0-0.2c0.1,0.1,0,0.1,0,0.2c0-0.1,0.1-0.1,0-0.2c0,0.1,0,0,0.1,0.1c0-0.2,0,0,0-0.1c0.1,0.1,0,0.2,0.1,0.1
					c0.1,0,0.2,0,0.2,0.1c0,0.1,0,0.2,0,0.2L41.3,74.5z M30.7,74.9L30.7,74.9c0-0.1,0-0.1,0-0.1S30.7,74.9,30.7,74.9L30.7,74.9z
					 M30.3,73.8L30.3,73.8L30.3,73.8L30.3,73.8L30.3,73.8z"/>
				<path class="st1" d="M30.3,74L30.3,74z"/>
				<path class="st1" d="M39.7,74.3L39.7,74.3L39.7,74.3z"/>
				<polygon class="st1" points="32.2,75.4 32.2,75.3 32.2,75.4 				"/>
				<path class="st1" d="M40.2,74.8L40.2,74.8z"/>
				<path class="st1" d="M40.4,74.9L40.4,74.9z"/>
				<path class="st1" d="M40.6,74.9L40.6,74.9L40.6,74.9z"/>
				<path class="st1" d="M37.6,75.2L37.6,75.2C37.6,75.2,37.6,75.2,37.6,75.2z"/>
				<path class="st1" d="M38.5,74.6C38.5,74.7,38.5,74.7,38.5,74.6C38.5,74.7,38.5,74.8,38.5,74.6z"/>
				<polygon class="st1" points="36.6,75.5 36.6,75.5 36.6,75.5 				"/>
				<path class="st1" d="M38.4,74.7L38.4,74.7C38.4,74.7,38.5,74.7,38.4,74.7z"/>
				<polygon class="st1" points="41.4,74.9 41.4,74.9 41.4,74.9 				"/>
				<path class="st1" d="M41.4,75L41.4,75z"/>
				<path class="st1" d="M41.4,74.9L41.4,74.9z"/>
				<path class="st1" d="M41.1,74.9L41.1,74.9z"/>
				<path class="st1" d="M41,74.9C41,74.9,41,74.9,41,74.9L41,74.9C41.1,74.9,41.1,74.9,41,74.9z"/>
				<path class="st1" d="M40.8,74.6L40.8,74.6C40.9,74.6,40.9,74.5,40.8,74.6C40.9,74.6,40.9,74.6,40.8,74.6z"/>
				<path class="st1" d="M40.6,74.5C40.6,74.5,40.6,74.5,40.6,74.5C40.6,74.3,40.6,74.4,40.6,74.5z"/>
				<path class="st1" d="M39.3,74v-0.2C39.3,73.8,39.3,73.9,39.3,74z"/>
				<polygon class="st1" points="38.9,74.8 38.9,74.9 38.9,74.8 				"/>
				<polygon class="st1" points="38.9,73.6 38.9,73.5 38.8,73.6 				"/>
				<path class="st1" d="M36.5,73.1v0.3C36.5,73.4,36.5,73,36.5,73.1z"/>
				<path class="st1" d="M35.4,73.4C35.4,73.2,35.4,73.1,35.4,73.4C35.3,73.5,35.4,73.4,35.4,73.4z"/>
				<polygon class="st1" points="32.2,73.2 32.2,73.1 32.2,73.2 				"/>
			</g>
			<g id="monte-3">
				<path class="st1" d="M79.5,83.4L79.5,83.4z"/>
				<path class="st1" d="M79.2,83.3C79.2,83.3,79.1,83.3,79.2,83.3L79.2,83.3h0.1h0.1C79.4,83.3,79.3,83.3,79.2,83.3L79.2,83.3z"/>
				<path class="st1" d="M75.2,82.4L75.2,82.4C75.2,82.4,75.2,82.4,75.2,82.4z"/>
				<path class="st1" d="M72.6,81.8L72.6,81.8C72.6,81.8,72.6,81.8,72.6,81.8z"/>
				<path class="st1" d="M72.2,81.5L72.2,81.5C72.2,81.5,72.2,81.5,72.2,81.5z"/>
				<path class="st1" d="M75.2,82.4L75.2,82.4C75.1,82.3,75.1,82.3,75.2,82.4z"/>
				<path class="st1" d="M78.7,83.3L78.7,83.3z"/>
				<path class="st1" d="M76.3,82.5L76.3,82.5L76.3,82.5z"/>
				<path class="st1" d="M77.2,82.7c0,0,0,0.1,0,0.1S77.2,82.8,77.2,82.7C77.2,82.7,77.2,82.7,77.2,82.7z"/>
				<path class="st1" d="M78.5,83.1L78.5,83.1z"/>
				<path class="st1" d="M75.7,82.3L75.7,82.3C75.7,82.2,75.7,82.3,75.7,82.3z"/>
				<path class="st1" d="M51.4,83.4L51.4,83.4z"/>
				<polygon class="st1" points="50.3,83.4 50.3,83.4 50.4,83.4 				"/>
				<path class="st1" d="M71.4,81.1L71.4,81.1C71.4,81.1,71.4,81.1,71.4,81.1z"/>
				<path class="st1" d="M63.9,80.8c0.1,0.3-0.1,0.3,0,0.6C63.9,81.3,64,81,63.9,80.8z"/>
				<path class="st1" d="M78.6,83.3L78.6,83.3z"/>
				<path class="st1" d="M63.9,81.4L63.9,81.4L63.9,81.4z"/>
				<path class="st1" d="M69.5,81c0,0,0,0.1,0,0.1C69.5,81.1,69.5,81,69.5,81z"/>
				<path class="st1" d="M70.9,81.5L70.9,81.5z"/>
				<path class="st1" d="M68.8,81.3C68.8,81.3,68.8,81.2,68.8,81.3L68.8,81.3C68.7,81.3,68.8,81.3,68.8,81.3z"/>
				<path class="st1" d="M68,81.3L68,81.3L68,81.3z"/>
				<path class="st1" d="M53.7,83.4c0,0,0-0.1,0-0.1C53.6,83.3,53.5,83.4,53.7,83.4z"/>
				<path class="st1" d="M78.7,83.3L78.7,83.3z"/>
				<path class="st1" d="M68.7,83.4h-0.1C68.6,83.4,68.6,83.4,68.7,83.4z"/>
				<path class="st1" d="M59,83.2L59,83.2C59,83.2,59,83.3,59,83.2z"/>
				<path class="st1" d="M68.2,83.4c0-0.1,0-0.1-0.1-0.2c0,0,0,0,0,0.1L68.2,83.4z"/>
				<path class="st1" d="M53.6,83.3"/>
				<path class="st1" d="M52.9,83.5c0.1,0,0-0.1,0-0.2s0.1,0.1,0.1,0.2s0.1-0.2,0.2-0.2s0,0,0,0.1s0.3,0,0.3-0.2l0,0
					c0-0.1,0-0.1,0-0.2c0,0,0.1-0.1,0.1,0s0,0,0,0.1l0,0c0.1,0.2-0.1,0.1,0,0.2c0.1-0.1,0.2-0.2,0.3-0.2s-0.2,0.1,0,0.2l-0.1-0.1
					c0.1,0.2-0.1,0,0,0.3c0.2,0,0.2-0.1,0.3,0s0-0.1,0-0.2c0.2-0.2,0.2,0.4,0.4,0.2s0-0.3,0.2-0.2v0.2c0.2,0,0-0.3,0.2-0.2
					c0,0.1-0.1,0.1-0.1,0.1s0.1-0.1,0.1-0.1l0,0.2c0.2,0,0.3-0.2,0.5-0.2c0,0.1,0,0.1,0,0.2c0.3-0.1,0.5,0,0.7,0.2l0.1-0.2
					c0,0,0,0.1,0,0.1s0-0.1,0-0.2s0.1,0.1,0,0.2c0.1-0.2,0.4-0.4,0.6-0.2v0.1c0.1,0.1,0.1-0.4,0.2-0.3l0,0c0.3,0.1,0.6-0.1,0.8,0.2
					c0-0.3,0.3,0.2,0.3-0.3c0.2,0.2,0.1,0.3,0.4,0.5c0.1,0,0.1-0.3,0.1-0.4v0.3l0.1-0.3l0.1,0.3l0.1-0.1c0-0.1-0.1-0.1-0.1-0.2
					c0.1-0.1,0.3,0.2,0.3,0.3l0.2-0.2c0,0.1,0,0.1-0.1,0.2c0.1-0.3,0,0.3,0.2,0c0-0.1,0-0.1,0-0.2c0,0.1,0.1,0.2,0.2,0.1
					c0,0,0.1,0,0.1,0v0.2c0.2,0,0.4-0.1,0.6-0.1c-0.1-0.1-0.1-0.4,0-0.5v0.3c0-0.2-0.1-0.1,0-0.3c0.1,0,0.1,0.3,0,0.4l0.1-0.1
					c0,0.1,0,0.2,0,0.3c0-0.2,0.2,0.3,0.2,0v0.1c0.2,0,0.3-0.1,0.5-0.1c0-0.3,0.1-0.2,0.1-0.4c0.1,0.1,0.3,0.3,0.4,0.3
					s0-0.2,0.1-0.4c0,0.2,0.2,0.2,0.1,0.4c0.2,0,0.3-0.1,0.5-0.3c0-0.1-0.1-0.2,0-0.2c0,0,0.1,0.1,0.1,0.2l0,0
					c0.3-0.4,0.6,0.7,0.8,0.2l0,0l0.2-0.3c0.1,0-0.1,0.2,0,0.3c0.2-0.4,0.4,0,0.5-0.2c0.2,0.8,0.5-0.1,0.7,0.4v-0.2
					c0-0.2,0.1,0.1,0.1,0.1c0-0.1,0-0.2,0-0.3c0.4-0.2,0.9,0.3,1.3,0.4c0.2,0,0.1-0.9,0.3-0.5l-0.1,0.3c0.3-0.4,0.7,0,1-0.3
					c0,0.1,0,0.2,0,0.2c0.1,0.2,0.3,0,0.3-0.2c0,0,0,0.2,0,0.3s0.2-0.3,0.2-0.1c0,0,0,0.1,0,0.1s0.2,0,0.2-0.2
					c0.1,0.1,0.2-0.1,0.3,0c0.1-0.3,0.2,0.1,0.2-0.3c0,0.4,0.2,0.3,0.3,0.1c0,0.1,0.1,0.1,0,0.3c0.1,0,0.2-0.1,0.2-0.3
					c0.1,0.5,0.3-0.4,0.4,0.3c0.2-0.2,0.5-0.3,0.7-0.5c0,0.4-0.3,0-0.3,0.5c0.2-0.2,0.4-0.5,0.6-0.4c0,0,0,0.2-0.1,0.2
					c0.2-0.2,0.4,0,0.6-0.2c0,0,0,0.1-0.1,0.1c0,0,0.1,0.1,0.1-0.1l0,0c0-0.3,0.2-0.5,0.2-0.7c-0.1,0.5,0.2,0.1,0,0.8
					c0.1-0.1,0.1-0.1,0.1-0.2c0,0,0,0.1,0,0.2c0.2-0.1,0.1-0.3,0.2-0.3c0,0.1,0,0.1-0.1,0.2c0.1-0.2,0.2-0.3,0.3-0.2s0,0.1,0,0.1
					c0.2,0,0.3-0.4,0.5-0.2c-0.1,0.3,0.1,0.1,0,0.4l0.1-0.1v-0.1c0.1,0,0.2-0.2,0.3-0.1l-0.1,0.1h0.2l-0.1-0.1
					c0.1-0.1,0-0.4,0.1-0.3s0.1,0,0.1,0.2l0,0c0-0.1,0.1-0.2,0.2-0.1c0,0.1,0,0.2,0,0.4c0.1-0.2,0.2-0.1,0.3-0.3c0,0.1,0,0.2,0,0.2
					l0.1-0.2c0,0.1,0,0.1,0,0.2s0-0.3,0.1-0.2c0,0,0,0,0,0.1c0.1,0.1,0.3-0.1,0.4,0c0,0.3-0.1,0.1-0.1,0.3c0.2,0,0.5-0.3,0.7-0.2
					l0,0c0.1-0.3,0.1,0.2,0.2,0c0,0,0,0.1,0,0.1c0.1,0.1,0.3-0.1,0.5-0.1v0.1c0.1,0.1,0.2,0.1,0.3,0.1s0.1,0,0.1-0.2
					c0.2,0.4,0.5-0.2,0.7,0.2c0,0-0.1,0,0,0h0.2c0-0.1,0-0.1,0-0.2c0-0.1,0.1-0.1,0.2-0.1c-0.1,0.1,0,0.2,0,0.2s0-0.1,0-0.1
					c0.1,0.2,0.1-0.2,0.2-0.1v0.1c0.1,0,0.1-0.1,0.2-0.1s-0.1,0-0.1,0.1s0.2-0.2,0.3-0.1h-0.1c0.1,0.1,0.1,0.1,0.1,0.1l0,0l0.1,0.1
					l0,0c0.2-0.2,0.2,0,0.4-0.2c-0.2,0.1,0,0.1-0.1,0.2s0.1,0.1,0.1,0.1s0.1,0.1,0.2,0s0.1,0,0,0.1s0,0,0-0.1s0.3,0.1,0.5,0
					s0.2-0.1,0.4-0.1s-0.1,0-0.1,0c0.1,0,0.1,0,0.2,0l0,0c0,0,0.1,0,0.1,0H79h0.2c0,0,0,0-0.1,0c0.1,0,0.2,0,0.3,0l0,0l0,0h-0.1H79
					c0-0.1-0.2,0-0.3,0h0.1h-0.1V83c0,0-0.1,0-0.1,0s0,0,0,0h-0.1c0,0,0-0.1,0,0c-0.1-0.1-0.2,0-0.3-0.1l0,0c-0.2,0,0,0-0.2,0.1
					L78,83v0.1c0,0-0.1,0,0,0s0,0,0,0.1s-0.3,0-0.3-0.2c0,0.1,0.1,0.1,0,0.1c0-0.2-0.1,0-0.2-0.1s0.1,0,0.1-0.1
					c-0.1,0.1-0.2-0.1-0.2-0.1s-0.2,0-0.3,0s-0.2-0.1-0.3-0.2l0,0c0,0.2-0.2,0.1-0.2,0.1s0-0.1,0.1-0.2h-0.1c0,0-0.1,0.1-0.1,0.1
					v-0.1c-0.1,0-0.2,0.1-0.4,0c0,0.1,0.1,0.4-0.1,0.4c0-0.1,0-0.2,0.1-0.2s0,0.1-0.1,0l0.1-0.1c0-0.1,0,0.1-0.1,0.1s0-0.1,0-0.2
					s0,0.1,0.1,0c-0.1,0-0.1-0.1-0.1-0.2c0,0.1,0,0.1-0.1,0.1s0-0.1-0.1-0.2s-0.1,0-0.1,0.1c0,0,0-0.1,0-0.1s-0.3,0-0.2,0.2l0,0
					c-0.2,0.1-0.4-0.2-0.6-0.1v-0.1c-0.1,0-0.2,0-0.3,0.1s-0.1-0.1,0-0.2s-0.1,0.1-0.2,0c0.1-0.1,0-0.1,0.1-0.1
					c-0.1-0.1-0.1-0.2-0.3,0c0.1-0.2,0-0.2-0.1-0.2l0.1,0.1c0,0-0.1,0-0.2,0v-0.2c-0.2-0.3-0.4,0.4-0.6-0.1c-0.1,0.2,0.1,0.1,0,0.3
					c-0.1,0-0.2-0.4-0.2-0.4C73,81.5,73,82,72.9,81.9c0,0.1,0,0.3-0.1,0.4s-0.1-0.4,0-0.5s0,0,0,0.1s0.1-0.1,0-0.2v0.1
					c0-0.1-0.2-0.1-0.1-0.3c-0.1,0-0.1,0.1,0,0.2c0,0,0,0,0,0c-0.1-0.2-0.2,0-0.3-0.1v0.2c-0.2-0.1-0.1,0.2-0.2,0.2
					c-0.1-0.2,0-0.3-0.1-0.2c-0.1-0.1-0.1-0.2,0-0.3c-0.1,0.2-0.2-0.2-0.3-0.2l0.1-0.1c0,0-0.1,0-0.1,0v0.2c0,0-0.1,0-0.1-0.1
					c0,0.1,0,0.3-0.1,0.5c0-0.1-0.2,0.1-0.2-0.2c0.2,0.1,0-0.3,0.1-0.3c0,0-0.1,0-0.1,0s0,0,0-0.1c-0.1-0.3-0.1,0.3-0.3,0.3
					c0-0.2,0-0.3,0-0.3s0,0.3-0.1,0.4c-0.1-0.1-0.1,0.1-0.2,0.1v0.1c0,0.2-0.1,0.1-0.2,0.2c0-0.1,0.1-0.1,0-0.1
					c-0.1,0.3-0.2-0.3-0.3-0.1c0-0.1,0-0.3,0-0.4c-0.1,0.2-0.1-0.2-0.3-0.1c0,0.2,0,0.2-0.1,0.4l0.2-0.1l-0.2,0.3
					c0.1,0,0.2-0.1,0.2-0.1s-0.1,0.1,0,0.3c-0.1-0.3-0.2,0.2-0.3-0.1v-0.5c-0.1-0.3-0.3,0.3-0.5,0.1l0.1,0.1c0,0.2-0.1,0-0.2,0.1
					c0-0.1,0-0.2,0-0.4c0,0.1-0.2,0-0.2,0.3l-0.1-0.3c-0.2-0.1-0.2,0.5-0.3,0.4c0-0.2,0-0.3,0.1-0.5c-0.1,0-0.1,0-0.1,0.1
					c0-0.1-0.2,0.2-0.2,0.1c0,0.1,0,0.3-0.1,0.3v-0.1c0,0.1-0.1,0.1-0.1,0.3c-0.1-0.6-0.4,0-0.6-0.5c-0.1,0.1-0.2,0.1-0.3,0.1
					c0-0.1,0-0.1,0-0.1c-0.1-0.2-0.1,0.6-0.3,0.3s0.1-0.2,0-0.3c0-0.6-0.2,0.1-0.3-0.3l0,0c-0.1-0.2-0.2,0.2-0.3,0.2
					c0,0,0-0.1,0-0.1c-0.1,0.2-0.2,0.4-0.4,0.5c0-0.3,0.1-0.1,0-0.4c-0.1,0,0,0.4-0.1,0.5c-0.1-0.2-0.1-0.3-0.1-0.5h0.1
					c-0.1-0.3-0.1,0-0.2,0V81c-0.2,0-0.2,0.4-0.3,0.4v0.1c-0.1,0.4-0.1-0.2-0.2,0.1v-0.4c-0.1,0.2-0.2,0.3-0.3,0.5
					c0.1-0.2,0.2-0.4,0.3-0.6c-0.1,0-0.2,0.1-0.2,0.2c0,0,0,0,0,0c0,0,0.1-0.1,0.1-0.1c-0.1,0.3-0.2,0.5-0.3,0.5
					c0-0.8-0.3-0.2-0.4-0.8c-0.2,0.3-0.4-0.1-0.7-0.1c0.1,0.6-0.1,0,0,0.6c-0.1,0-0.1,0-0.1,0l-0.2-0.3c0-0.2,0.1-0.1,0-0.3
					s-0.1-0.3-0.2-0.4c0,0.2,0,0.3-0.1,0.2l0.1,0.3c-0.2,0.3-0.2-0.5-0.3-0.2l0-0.2c-0.1,0.1-0.3,0-0.4,0.5c0-0.1,0-0.2,0-0.3
					c-0.2-0.1-0.5,0.5-0.7,0.3v-0.1c0,0-0.1,0.3-0.1,0.1s0-0.1,0-0.2s-0.1,0.3-0.2,0.2l0-0.2c-0.2-0.2-0.3,0.4-0.5,0.5
					c0-0.2-0.1-0.5-0.3-0.6v-0.1c-0.3,0-0.4,0.4-0.7,0.6c-0.2-0.4-0.5-0.1-0.8-0.3c0,0.1,0,0.2,0,0.3c-0.1-0.1-0.1,0.3-0.2-0.1l0,0
					c-0.1-0.3-0.2-0.2-0.3-0.2v0.5c-0.3-0.6-0.6,0.3-0.8-0.2c0,0.1-0.1,0.1-0.2,0.2v-0.2c-0.1-0.1-0.3-0.1-0.4,0v-0.2
					c-0.1,0-0.1,0.7-0.2,0.7l-0.1-0.3c-0.2,0-0.4-0.2-0.6,0.1c0,0,0-0.1,0-0.2s-0.4-0.1-0.3,0.3c0-0.3-0.2,0-0.3,0.1v-0.2
					c-0.1,0.3,0,0.3-0.2,0.4s0-0.2,0-0.1s0,0.2-0.2,0.1v-0.1c-0.1,0-0.1,0.1-0.1,0.2s-0.2,0-0.2-0.2c0,0.1,0,0.3-0.1,0.2
					c0,0,0-0.1,0-0.1c-0.2-0.1-0.2,0.3-0.3,0.1c0,0,0-0.1,0-0.1c0.1,0,0.2,0,0.2,0c0-0.2-0.1-0.2-0.1-0.4c-0.1,0.2-0.2,0.4-0.3,0.4
					v-0.1l0,0c0,0,0,0-0.1,0s-0.1,0-0.1,0s-0.1,0-0.2,0c0,0.2,0,0.2,0,0.3s0,0,0,0l0,0l0,0H55c0,0.1-0.1,0.2-0.1,0.1
					c0,0.1,0,0.2,0,0.3c-0.1-0.2-0.3-0.3-0.3-0.4c-0.1,0.1-0.4,0.1-0.4,0.4c0,0-0.1-0.1-0.1-0.1s0,0,0.1-0.1s-0.3,0.1-0.3,0.3
					c-0.1-0.1,0-0.2-0.1-0.1v-0.1c-0.3-0.2-0.4,0.5-0.8,0.3l0,0c-0.4,0-0.8,0.3-1.2,0.2c-0.1,0-0.1,0.1-0.2,0.1V83l-0.1,0.1
					c-0.2,0.1-0.3-0.1-0.5,0.1l0,0c-0.1,0-0.2,0.1-0.2,0s0,0,0,0l0,0l-0.2,0.1c-0.1,0,0-0.1-0.2,0l-0.2,0.1h0.1h-0.1h0.3h0h0.1l0,0
					c0,0-0.1,0,0,0s0,0,0.1,0s0,0,0,0s0.2,0,0.2,0s0.2,0,0.2,0.1c0,0,0.1-0.1,0.2-0.1c-0.1,0.1,0.2,0,0.2,0.1c0.1-0.1,0.3,0,0.4-0.1
					s0,0,0,0c0.1,0,0.1,0,0.2,0.1c0-0.1,0.1-0.1,0.2-0.2c0.1,0.1,0,0.2,0,0.3c0-0.1,0.1-0.1,0.1-0.2c0.1,0,0.1,0.1,0.1,0.1
					c0-0.2,0.1,0,0.1-0.1c0.1,0.1,0,0.2,0.2,0.1S52.9,83.5,52.9,83.5z M55.5,83.1L55.5,83.1L55.5,83.1L55.5,83.1z M55.7,83.1
					L55.7,83.1c-0.1-0.1-0.1-0.1-0.1-0.1S55.6,83,55.7,83.1L55.7,83.1z M55.1,81.9L55.1,81.9L55.1,81.9L55.1,81.9
					C55,81.9,55,81.9,55.1,81.9L55.1,81.9z"/>
				<path class="st1" d="M55,82.2L55,82.2L55,82.2L55,82.2L55,82.2z"/>
				<path class="st1" d="M75.2,82.4L75.2,82.4L75.2,82.4z"/>
				<polygon class="st1" points="58.8,83.4 58.8,83.3 58.7,83.4 				"/>
				<path class="st1" d="M76.3,83L76.3,83z"/>
				<path class="st1" d="M76.9,83.1L76.9,83.1L76.9,83.1z"/>
				<path class="st1" d="M77.3,83.2L77.3,83.2L77.3,83.2z"/>
				<path class="st1" d="M70.8,83.1L70.8,83.1C70.8,83.1,70.8,83.2,70.8,83.1z"/>
				<path class="st1" d="M72.8,82.7L72.8,82.7C72.7,82.8,72.8,82.8,72.8,82.7z"/>
				<polygon class="st1" points="68.7,83.4 68.7,83.4 68.7,83.4 				"/>
				<path class="st1" d="M72.6,82.8C72.6,82.8,72.7,82.8,72.6,82.8C72.7,82.8,72.6,82.7,72.6,82.8z"/>
				<polygon class="st1" points="79,83.4 79,83.4 79,83.4 				"/>
				<path class="st1" d="M79,83.4L79,83.4z"/>
				<path class="st1" d="M79.1,83.3L79.1,83.3L79.1,83.3z"/>
				<path class="st1" d="M78.5,83.3L78.5,83.3z"/>
				<path class="st1" d="M78.3,83.3c0,0,0.1,0,0.2,0l0,0C78.5,83.3,78.3,83.3,78.3,83.3z"/>
				<path class="st1" d="M77.7,82.9l0.1,0.1c0,0,0-0.1,0-0.1C77.7,82.7,77.9,83,77.7,82.9z"/>
				<path class="st1" d="M77.3,82.7C77.4,82.7,77.3,82.7,77.3,82.7C77.3,82.6,77.2,82.7,77.3,82.7z"/>
				<path class="st1" d="M74.3,82.1v-0.2C74.2,81.9,74.3,82,74.3,82.1z"/>
				<polygon class="st1" points="73.6,82.9 73.6,83 73.7,82.9 				"/>
				<polygon class="st1" points="73.4,81.6 73.4,81.6 73.3,81.6 				"/>
				<path class="st1" d="M68.2,81v0.3C68.2,81.3,68.2,81,68.2,81z"/>
				<path class="st1" d="M65.9,81.3c0-0.2-0.1-0.3-0.1-0.1S65.9,81.3,65.9,81.3z"/>
				<polygon class="st1" points="59.2,81.2 59.2,81.1 59.1,81.1 				"/>
			</g>
		</g>
	</g>
	<path id="arbusto" class="st2" d="M132.4,35.5c0,6.6-3,12.9-8.2,17V53c0,3.3-2.7,6-6,6H18.3c-1.6,0-2.8-1-4-1.6L14,57.3
		C12.2,56,0,47.3,0,38.7C0,28,8.7,19.4,19.4,19.4c3,0,5.9,0.7,8.6,2C31.8,9.1,44.3,0,59.2,0c14.6,0,27,8.7,30.9,20.7
		c4.7-5,11.3-7.8,18.2-7.8C121.6,12.9,132.4,23,132.4,35.5z"/>
	<g id="texto">
		<path class="st3" d="M49.2,48.2c-0.8,0.7-1.7,1.2-2.6,1.5c-1,0.4-2,0.5-3,0.5c-0.8,0-1.6-0.1-2.3-0.3c-0.7-0.2-1.4-0.5-2.1-0.9
			c-0.6-0.4-1.2-0.8-1.8-1.4c-0.5-0.5-1-1.1-1.4-1.8c-0.4-0.7-0.7-1.4-0.9-2.1c-0.4-1.5-0.4-3.1,0-4.6c0.2-0.7,0.5-1.4,0.9-2.1
			c0.4-0.6,0.8-1.2,1.4-1.8c0.5-0.5,1.1-1,1.8-1.4c0.7-0.4,1.3-0.7,2.1-0.9c0.7-0.2,1.5-0.3,2.3-0.3c1,0,2,0.2,3,0.5
			c1,0.4,1.8,0.9,2.6,1.5l-1.8,2.9c-0.5-0.5-1.1-0.9-1.8-1.2c-0.7-0.3-1.4-0.4-2.1-0.4c-0.7,0-1.4,0.1-2.1,0.4
			c-0.6,0.3-1.2,0.7-1.7,1.1c-0.5,0.5-0.9,1.1-1.2,1.7c-0.3,0.7-0.4,1.4-0.4,2.1c0,0.7,0.1,1.4,0.4,2.1c0.6,1.3,1.6,2.3,2.8,2.8
			c0.7,0.3,1.4,0.4,2.1,0.4c0.4,0,0.8-0.1,1.2-0.2c0.4-0.1,0.8-0.2,1.2-0.4v-4.8h3.2L49.2,48.2z"/>
		<path class="st3" d="M68.3,41.5c0,0.8-0.1,1.6-0.3,2.3c-0.2,0.7-0.5,1.4-0.9,2.1c-0.4,0.6-0.8,1.2-1.4,1.8c-0.5,0.5-1.1,1-1.7,1.3
			c-0.7,0.4-1.4,0.7-2.1,0.9c-1.5,0.4-3.1,0.4-4.6,0c-0.7-0.2-1.4-0.5-2.1-0.9c-0.6-0.4-1.2-0.8-1.8-1.4c-1.1-1.1-1.8-2.4-2.2-3.8
			c-0.4-1.5-0.4-3.1,0-4.6c0.2-0.7,0.5-1.4,0.9-2.1c0.4-0.6,0.8-1.2,1.4-1.8c0.5-0.5,1.1-1,1.8-1.4c0.6-0.4,1.3-0.7,2.1-0.9
			c2.3-0.6,4.7-0.3,6.7,0.9c0.6,0.4,1.2,0.8,1.8,1.4c0.5,0.5,1,1.1,1.4,1.8c0.4,0.7,0.7,1.4,0.9,2.1C68.2,40,68.3,40.8,68.3,41.5z
			 M64.9,41.5c0-0.7-0.1-1.4-0.4-2.1c-0.3-0.6-0.7-1.2-1.2-1.7c-0.5-0.5-1.1-0.9-1.7-1.1c-1.3-0.6-2.8-0.6-4.2,0
			c-0.6,0.3-1.2,0.7-1.7,1.1c-1,1-1.6,2.4-1.6,3.8c0,0.7,0.1,1.4,0.4,2.1c0.3,0.6,0.7,1.2,1.2,1.7c0.5,0.5,1.1,0.9,1.7,1.2
			c2,0.8,4.3,0.4,5.9-1.2c0.5-0.5,0.9-1.1,1.2-1.7C64.8,42.9,64.9,42.2,64.9,41.5z"/>
		<path class="st3" d="M82.2,49.9H70.5V33.1h3.4v13.4h8.4L82.2,49.9z"/>
		<path class="st3" d="M97.4,41.5c0,0.8-0.1,1.5-0.3,2.2c-0.2,0.7-0.5,1.4-0.8,2c-0.4,0.6-0.8,1.2-1.3,1.7c-0.5,0.5-1.1,1-1.7,1.3
			c-0.6,0.4-1.3,0.7-2,0.8c-0.7,0.2-1.5,0.3-2.2,0.3H84V33.1h5c0.8,0,1.5,0.1,2.2,0.3c0.7,0.2,1.4,0.5,2,0.8
			c0.6,0.4,1.2,0.8,1.8,1.3c0.5,0.5,0.9,1.1,1.3,1.7C97.1,38.5,97.5,40,97.4,41.5L97.4,41.5z M94.1,41.5c0-0.7-0.1-1.4-0.4-2
			c-0.3-0.6-0.6-1.1-1.1-1.6c-0.5-0.4-1-0.8-1.6-1c-0.6-0.3-1.3-0.4-2-0.4h-1.6v10.1H89c0.7,0,1.4-0.1,2-0.4
			c0.6-0.3,1.1-0.6,1.6-1.1C93.6,44.1,94.1,42.8,94.1,41.5L94.1,41.5z"/>
	</g>
	<g id="flores">
		<g id="flor">
			<polygon id="petalos" class="st4" points="113.9,29.5 115.2,31.8 113.9,34 111.4,34 110.1,36.2 107.6,36.2 106.3,34 103.8,34 
				102.5,31.8 103.8,29.5 102.5,27.3 103.8,25.1 106.3,25.1 107.6,22.9 110.1,22.9 111.4,25.1 113.9,25.1 115.2,27.3 			"/>
			<polygon id="centro" class="st3" points="109.8,27.9 107.9,27.9 107,29.5 107.9,31.2 109.8,31.2 110.7,29.5 			"/>
		</g>
		<g id="flor-2">
			<polygon id="petalos-2" class="st4" points="75,13.2 76.3,15.4 75,17.6 72.5,17.6 71.2,19.8 68.7,19.8 67.4,17.6 64.8,17.6 
				63.6,15.4 64.8,13.2 63.6,11 64.8,8.8 67.4,8.8 68.7,6.6 71.2,6.6 72.5,8.8 75,8.8 76.3,11 			"/>
			<polygon id="centro-2" class="st3" points="70.9,11.6 69,11.6 68,13.2 69,14.9 70.9,14.9 71.8,13.2 			"/>
		</g>
	</g>
</g>
</svg>
