<svg xmlns="http://www.w3.org/2000/svg" viewBox="0 0 511.99 45.93"><g id="Capa_2" data-name="Capa 2"><g id="rama"><g id="ramas"><g id="rama-2" data-name="rama"><path d="M.64,12a327.86,327.86,0,0,0,32.87-1.39c5.47-.46,10.93-1,16.41-1.56S60.9,8,66.46,7.77a82,82,0,0,1,16.89.69c1.41.22,2.85.55,4.19.88s2.71.66,4,1c2.7.71,5.36,1.5,8,2.29,5.29,1.59,10.5,3.25,15.74,4.6a151.18,151.18,0,0,0,15.86,3.26c5.35.82,10.7,1.32,16.19,1.77s10.85.81,16.21.84A100.53,100.53,0,0,0,179.45,22c2.6-.45,5.19-.94,7.73-1.63s4.93-1.46,7.85-2.28a53.64,53.64,0,0,1,8.74-1.71,39.72,39.72,0,0,1,9.18.1,81.25,81.25,0,0,1,8.5,1.71A51.48,51.48,0,0,0,229,19.44a40.64,40.64,0,0,0,7.46-.13c2.71-.26,5.33-.53,7.86-1s5.32-1,8-1.49l8.2-1.45L268.7,14l2-.34.94-.15,1-.18a37.39,37.39,0,0,1,4.7-.55c3.05-.15,5.85-.12,8.7,0,1.43,0,2.85.08,4.27.17s2.84.17,4.25.29c5.66.44,11.28,1.14,16.82,2s11.06,2,16.35,2.93c1.31.24,2.61.47,3.82.64s2.59.3,3.92.45l8.19.92L360,22c5.41.6,10.81,1.06,16.14,1.46a136.66,136.66,0,0,0,15.75.31,54.39,54.39,0,0,0,14.67-2.41,52.83,52.83,0,0,0,13.2-6.82c2.12-1.44,4.21-3,6.4-4.73a73.94,73.94,0,0,1,7.22-5.13,24.92,24.92,0,0,1,9.38-3.45,26.6,26.6,0,0,1,9.79.53,37.36,37.36,0,0,1,8.59,3.28c2.59,1.31,4.91,2.67,7.14,3.69a16.12,16.12,0,0,0,6.62,1.65,16.84,16.84,0,0,0,6.8-1.47C483.92,8,486,6.43,488.8,5a13.72,13.72,0,0,1,4.65-1.43,11.71,11.71,0,0,1,2.44,0,9.88,9.88,0,0,1,2.49.57,12.56,12.56,0,0,1,4,2.55c1.1,1,2,2.05,3,3.07a27.57,27.57,0,0,0,2.79,2.82,6.64,6.64,0,0,0,3.3,1.58l.6.07,0,1.1-.6,0A7.76,7.76,0,0,1,507,14.08a28.51,28.51,0,0,1-3.44-2.57c-2.1-1.77-4.18-3.54-6.3-4a5.78,5.78,0,0,0-1.56-.13,8.2,8.2,0,0,0-1.67.21A9.26,9.26,0,0,0,491,9c-2,1.31-4.15,3.31-6.84,4.84a22.11,22.11,0,0,1-9,2.87,22.5,22.5,0,0,1-9.48-1.33c-2.9-1-5.43-2.23-7.83-3.22a29.82,29.82,0,0,0-7-2.09,18.24,18.24,0,0,0-6.61.14,16.69,16.69,0,0,0-5.83,2.64c-3.84,2.65-7.85,6.73-12.5,10.29a65.26,65.26,0,0,1-7.38,5c-.64.38-1.3.73-2,1.1s-1.37.71-2.06,1c-1.4.66-2.82,1.28-4.27,1.8a65.44,65.44,0,0,1-17.65,3.7c-11.71.83-22.91-.14-34-1.28-5.53-.55-11-1.29-16.48-2L334,31.37c-1.39-.2-2.64-.35-4.26-.62s-2.91-.54-4.3-.83c-5.49-1.19-10.73-2.44-16-3.47s-10.57-1.91-15.86-2.52c-1.32-.16-2.65-.29-4-.39s-2.65-.22-4-.29c-2.64-.17-5.34-.25-7.79-.19a27.09,27.09,0,0,0-3.5.31l-1.05.16-1.1.15-2,.26L262,25c-2.71.36-5.41.76-8.1,1.17s-5.34.88-8.22,1.29-5.77.62-8.54.81a50.35,50.35,0,0,1-9-.09,59.58,59.58,0,0,1-8.72-1.69,77.38,77.38,0,0,0-7.61-1.74,36.48,36.48,0,0,0-14.75,1c-2.4.58-5.28,1.49-8.06,2.07s-5.63,1.12-8.47,1.52a106,106,0,0,1-17.05.74c-5.65-.2-11.22-.73-16.71-1.36s-11-1.3-16.56-2.31a154.64,154.64,0,0,1-16.33-3.94c-5.36-1.58-10.57-3.45-15.76-5.2-2.59-.87-5.18-1.73-7.78-2.51-1.29-.4-2.6-.78-3.91-1.13s-2.55-.7-3.85-.95a78.47,78.47,0,0,0-16-1.21c-5.44.06-10.91.39-16.39.73s-11,.71-16.5,1a328.82,328.82,0,0,1-33.08,0l-.6,0L0,12Z" style="fill:#41995d"/></g><g id="rama-3" data-name="rama"><path d="M.62,12.54a252.71,252.71,0,0,0,33-.67c5.48-.45,11-1,16.44-1.65S61,9,66.54,8.64a71.27,71.27,0,0,1,16.57.54c1.37.22,2.72.55,4,.9s2.68.69,4,1.07c2.66.74,5.29,1.56,7.92,2.39,5.26,1.66,10.48,3.41,15.78,4.86A155.35,155.35,0,0,0,131,21.92c5.42.9,10.89,1.47,16.37,2s11,.95,16.45,1.05a101.88,101.88,0,0,0,16.38-1c2.7-.43,5.4-.92,8.05-1.6s5.25-1.5,7.95-2.21A40.62,40.62,0,0,1,212.8,18.9a79.94,79.94,0,0,1,8.13,1.83,54,54,0,0,0,8,1.54,48.06,48.06,0,0,0,8.14.11c2.75-.16,5.49-.3,8.19-.61,5.43-.74,10.93-1.5,16.4-2.11l4.11-.47c1.4-.14,2.64-.34,4.07-.57,2.79-.37,5.53-.55,8.28-.77l4.13-.29,4.16-.21,4.17,0c1.39,0,2.78.05,4.16.12a157.46,157.46,0,0,1,16.53,1.73c5.48.83,10.9,1.95,16.29,3,1.35.26,2.69.51,4,.69l4.09.51,8.2,1c5.47.66,10.94,1.31,16.41,1.88s10.94,1.08,16.42,1.37a129.9,129.9,0,0,0,16.39,0A57.07,57.07,0,0,0,409,24.44a58.6,58.6,0,0,0,14.14-8c2.19-1.62,4.3-3.37,6.45-5.11a55.22,55.22,0,0,1,6.8-4.9,20.36,20.36,0,0,1,8.06-2.73,24.07,24.07,0,0,1,8.46.64,38.69,38.69,0,0,1,7.82,3,78.87,78.87,0,0,0,7.46,3.41,17.55,17.55,0,0,0,7.88,1.06,19.93,19.93,0,0,0,7.62-2.48c2.38-1.3,4.5-3.12,7.07-4.32a10.88,10.88,0,0,1,4.12-1,8.52,8.52,0,0,1,2.13.17A7.11,7.11,0,0,1,499,5c2.46,1.45,4.2,3.68,6,5.69a21.46,21.46,0,0,0,3,2.84,5,5,0,0,0,3.75,1.15l0,.19a5.2,5.2,0,0,1-4-1.11A22.74,22.74,0,0,1,504.76,11c-1.89-2-3.68-4.16-6-5.47a6.7,6.7,0,0,0-3.83-.8,10,10,0,0,0-3.85,1c-2.41,1.17-4.5,3-6.93,4.43a20.29,20.29,0,0,1-7.95,2.73,18.59,18.59,0,0,1-8.37-1,77.74,77.74,0,0,1-7.62-3.35,38.11,38.11,0,0,0-7.61-2.81,22.91,22.91,0,0,0-7.95-.49,19.25,19.25,0,0,0-7.45,2.61,52.73,52.73,0,0,0-6.55,4.82c-2.12,1.74-4.24,3.53-6.47,5.2a59.82,59.82,0,0,1-14.51,8.32,59.22,59.22,0,0,1-16.39,3.43,126.73,126.73,0,0,1-16.65,0c-5.53-.29-11-.81-16.52-1.38s-11-1.22-16.44-1.89l-8.2-1-4.11-.52c-1.41-.19-2.77-.44-4.13-.71-5.43-1.05-10.79-2.2-16.21-3.05a152.11,152.11,0,0,0-16.33-1.8c-1.36-.07-2.73-.09-4.09-.14h-4.1l-4.09.18-4.12.28c-2.74.2-5.5.38-8.18.72-1.29.21-2.77.45-4.12.56l-4.1.44-8.2.94-8.21,1.06c-2.78.31-5.54.43-8.29.57a47.81,47.81,0,0,1-8.37-.16,55.17,55.17,0,0,1-8.21-1.61,81.32,81.32,0,0,0-8-1.84,39,39,0,0,0-16.1,1.14c-2.62.67-5.28,1.55-8,2.17s-5.43,1.16-8.17,1.59a103.37,103.37,0,0,1-16.58,1c-5.53-.13-11-.57-16.53-1.13s-11-1.14-16.43-2.07a154.21,154.21,0,0,1-16.17-3.65c-5.32-1.48-10.55-3.27-15.79-5-2.62-.84-5.24-1.67-7.88-2.42-1.32-.39-2.65-.75-4-1.09s-2.65-.69-4-.92a70.8,70.8,0,0,0-16.4-.63c-5.49.31-11,.91-16.45,1.47s-11,1.14-16.46,1.55a249.86,249.86,0,0,1-33.06.46Z" style="fill:#99cf67"/></g></g><g id="hojas"><path id="hoja" d="M112.7,20.58a1.41,1.41,0,0,1,1.35-1.74h.43a9.9,9.9,0,0,1,7.4,3.95c1.13,1.55,1.32,1.11,1.75,4.1.46,3.19,4.05,5.61,4.05,5.61C130.62,34.43,115.39,32.25,112.7,20.58Z" style="fill:#5cd67f"/><path id="hoja-2" data-name="hoja" d="M114.33,20.58A1.41,1.41,0,0,0,113,18.84h-.43a9.9,9.9,0,0,0-7.4,3.95c-1.12,1.55-1.32,1.11-1.75,4.1-.46,3.19-4.05,5.61-4.05,5.61C96.41,34.43,111.64,32.25,114.33,20.58Z" style="fill:#5cd67f"/><path id="hoja-3" data-name="hoja" d="M210.88,22.42a1.41,1.41,0,0,1,1.25-1.82l.42,0a9.94,9.94,0,0,1,7.63,3.49c1.21,1.48,1.38,1,2,4,.66,3.16,4.38,5.35,4.38,5.35C229.61,35.15,214.27,33.9,210.88,22.42Z" style="fill:#5cd67f"/><path id="hoja-4" data-name="hoja" d="M297,20.08a1.41,1.41,0,0,1,1.66-1.45l.42.09A9.93,9.93,0,0,1,305.57,24c.8,1.74,1.08,1.34.93,4.36-.15,3.22,2.91,6.27,2.91,6.27C311.94,37.08,297.4,32.05,297,20.08Z" style="fill:#5cd67f"/><path id="hoja-5" data-name="hoja" d="M404,30.78a1.41,1.41,0,0,1,1.66-1.45,3.15,3.15,0,0,1,.42.09,9.93,9.93,0,0,1,6.52,5.28c.8,1.73,1.08,1.34.93,4.35-.15,3.23,2.91,6.28,2.91,6.28C418.94,47.78,404.4,42.75,404,30.78Z" style="fill:#5cd67f"/><path id="hoja-6" data-name="hoja" d="M405.94,31.44a1.42,1.42,0,0,1-2-.91l-.09-.42a9.91,9.91,0,0,1,2.1-8.12c1.25-1.46.77-1.54,3.58-2.66,3-1.2,4.5-5.25,4.5-5.25C415.2,10.77,416.65,26.08,405.94,31.44Z" style="fill:#5cd67f"/><path id="hoja-7" data-name="hoja" d="M405.16,28a1.42,1.42,0,0,1-1.35,1.75h-.43A9.91,9.91,0,0,1,396,25.79c-1.13-1.55-1.32-1.11-1.76-4.09-.48-3.19-4.07-5.6-4.07-5.6C387.19,14.19,402.43,16.31,405.16,28Z" style="fill:#5cd67f"/><path id="hoja-8" data-name="hoja" d="M406.72,30.78a1.41,1.41,0,0,0-1.66-1.45l-.42.09a9.91,9.91,0,0,0-6.51,5.28c-.81,1.73-1.08,1.34-.94,4.35.15,3.23-2.91,6.28-2.91,6.28C391.76,47.78,406.29,42.75,406.72,30.78Z" style="fill:#5cd67f"/><path id="hoja-9" data-name="hoja" d="M213,21.92a1.42,1.42,0,0,0-1.8-1.28l-.41.13a9.89,9.89,0,0,0-5.95,5.91c-.63,1.81-.94,1.44-.5,4.43.48,3.19-2.26,6.53-2.26,6.53C199.84,40.33,213.8,33.87,213,21.92Z" style="fill:#5cd67f"/></g><g id="flores"><g id="flor"><polygon id="petalos" points="117.74 19.61 118.77 21.39 117.74 23.17 115.68 23.17 114.65 24.95 112.59 24.95 111.57 23.17 109.51 23.17 108.48 21.39 109.51 19.61 108.48 17.82 109.51 16.04 111.57 16.04 112.59 14.26 114.65 14.26 115.68 16.04 117.74 16.04 118.77 17.82 117.74 19.61" style="fill:#d2e043"/><polygon id="centro" points="114.39 18.28 112.86 18.28 112.1 19.61 112.86 20.93 114.39 20.93 115.15 19.61 114.39 18.28" style="fill:#ebebeb"/></g><g id="flor-2" data-name="flor"><polygon id="petalos-2" data-name="petalos" points="216.46 21.26 217.49 23.04 216.46 24.82 214.41 24.82 213.38 26.61 211.32 26.61 210.29 24.82 208.23 24.82 207.2 23.04 208.23 21.26 207.2 19.48 208.23 17.69 210.29 17.69 211.32 15.91 213.38 15.91 214.41 17.69 216.46 17.69 217.49 19.48 216.46 21.26" style="fill:#d2e043"/><polygon id="centro-2" data-name="centro" points="213.11 19.93 211.58 19.93 210.82 21.26 211.58 22.58 213.11 22.58 213.87 21.26 213.11 19.93" style="fill:#ebebeb"/></g><g id="flor-3" data-name="flor"><polygon id="petalos-3" data-name="petalos" points="409.31 29.3 410.34 31.08 409.31 32.86 407.25 32.86 406.23 34.65 404.17 34.65 403.14 32.86 401.08 32.86 400.05 31.08 401.08 29.3 400.05 27.52 401.08 25.74 403.14 25.74 404.17 23.95 406.23 23.95 407.25 25.74 409.31 25.74 410.34 27.52 409.31 29.3" style="fill:#d2e043"/><polygon id="centro-3" data-name="centro" points="405.96 27.98 404.43 27.98 403.67 29.3 404.43 30.62 405.96 30.62 406.72 29.3 405.96 27.98" style="fill:#ebebeb"/></g><g id="flor-4" data-name="flor"><polygon id="petalos-4" data-name="petalos" points="451.62 5.35 452.65 7.13 451.62 8.91 449.56 8.91 448.53 10.7 446.48 10.7 445.45 8.91 443.39 8.91 442.36 7.13 443.39 5.35 442.36 3.57 443.39 1.78 445.45 1.78 446.48 0 448.53 0 449.56 1.78 451.62 1.78 452.65 3.57 451.62 5.35" style="fill:#d2e043"/><polygon id="centro-4" data-name="centro" points="448.27 4.03 446.74 4.03 445.98 5.35 446.74 6.67 448.27 6.67 449.03 5.35 448.27 4.03" style="fill:#ebebeb"/></g><g id="flor-5" data-name="flor"><polygon id="petalos-5" data-name="petalos" points="302.61 19.93 303.64 21.71 302.61 23.49 300.56 23.49 299.53 25.27 297.47 25.27 296.44 23.49 294.38 23.49 293.35 21.71 294.38 19.93 293.35 18.14 294.38 16.36 296.44 16.36 297.47 14.58 299.53 14.58 300.56 16.36 302.61 16.36 303.64 18.14 302.61 19.93" style="fill:#d2e043"/><polygon id="centro-5" data-name="centro" points="299.26 18.61 297.73 18.61 296.97 19.93 297.73 21.25 299.26 21.25 300.02 19.93 299.26 18.61" style="fill:#ebebeb"/></g></g></g></g></svg>
