<?xml version="1.0" encoding="utf-8"?>
<!-- Generator: Adobe Illustrator 24.0.1, SVG Export Plug-In . SVG Version: 6.00 Build 0)  -->
<svg version="1.1" id="rama" xmlns="http://www.w3.org/2000/svg" xmlns:xlink="http://www.w3.org/1999/xlink" x="0px" y="0px"
	 viewBox="0 0 512 45.9" style="enable-background:new 0 0 512 45.9;" xml:space="preserve">
<style type="text/css">
	.st0{fill:#41995D;}
	.st1{fill:#99CF67;}
	.st2{fill:#5CD67F;}
	.st3{fill:#D2E043;}
	.st4{fill:#EBEBEB;}
</style>
<g id="ramas">
	<g id="rama-2">
		<path class="st0" d="M0.6,12c11,0.1,21.9-0.4,32.9-1.4c5.5-0.5,10.9-1,16.4-1.6s11-1,16.5-1.3c5.6-0.4,11.3-0.1,16.9,0.7
			c1.4,0.2,2.8,0.6,4.2,0.9s2.7,0.7,4,1c2.7,0.7,5.4,1.5,8,2.3c5.3,1.6,10.5,3.3,15.7,4.6c5.2,1.4,10.5,2.5,15.9,3.3
			c5.4,0.8,10.7,1.3,16.2,1.8s10.9,0.8,16.2,0.8c5.3,0.1,10.6-0.3,15.9-1.1c2.6-0.5,5.2-0.9,7.7-1.6s4.9-1.5,7.9-2.3
			c2.9-0.8,5.8-1.4,8.7-1.7c3.1-0.3,6.1-0.3,9.2,0.1c2.9,0.4,5.7,1,8.5,1.7c2.5,0.6,5,1,7.5,1.2c2.5,0.2,5,0.1,7.5-0.1
			c2.7-0.3,5.3-0.5,7.9-1s5.3-1,8-1.5l8.2-1.4l8.2-1.4l2-0.3l0.9-0.1l1-0.2c1.6-0.3,3.1-0.5,4.7-0.6c3-0.1,5.9-0.1,8.7,0
			c1.4,0,2.9,0.1,4.3,0.2s2.8,0.2,4.3,0.3c5.7,0.4,11.3,1.1,16.8,2c5.5,0.9,11.1,2,16.4,2.9c1.3,0.2,2.6,0.5,3.8,0.6
			s2.6,0.3,3.9,0.5l8.2,0.9L360,22c5.4,0.6,10.8,1.1,16.1,1.5c5.2,0.4,10.5,0.5,15.8,0.3c5-0.1,9.9-0.9,14.7-2.4
			c4.7-1.6,9.1-3.9,13.2-6.8c2.1-1.4,4.2-3,6.4-4.7c2.3-1.9,4.7-3.6,7.2-5.1c2.9-1.8,6.1-2.9,9.4-3.5c3.3-0.4,6.6-0.3,9.8,0.5
			c3,0.7,5.9,1.8,8.6,3.3c2.6,1.3,4.9,2.7,7.1,3.7c2.1,1,4.3,1.6,6.6,1.6c2.3,0,4.7-0.5,6.8-1.5c2.2-0.9,4.3-2.5,7.1-3.9
			c1.5-0.7,3-1.2,4.6-1.4c0.8-0.1,1.6-0.1,2.4,0c0.9,0.1,1.7,0.3,2.5,0.6c1.5,0.6,2.8,1.5,4,2.6c1.1,1,2,2.1,3,3.1
			c0.9,1,1.8,1.9,2.8,2.8c0.9,0.8,2.1,1.4,3.3,1.6l0.6,0.1v1.1h-0.6c-1.6,0-3.1-0.4-4.5-1.3c-1.2-0.8-2.4-1.6-3.4-2.6
			c-2.1-1.8-4.2-3.5-6.3-4c-0.5-0.1-1-0.2-1.6-0.1c-0.6,0-1.1,0.1-1.7,0.2c-1.1,0.3-2.1,0.8-3,1.4c-2,1.3-4.1,3.3-6.8,4.8
			c-2.8,1.6-5.8,2.6-9,2.9c-3.2,0.2-6.5-0.2-9.5-1.3c-2.9-1-5.4-2.2-7.8-3.2c-2.2-1-4.6-1.7-7-2.1c-2.2-0.4-4.4-0.3-6.6,0.1
			c-2.1,0.5-4.1,1.4-5.8,2.6c-3.8,2.7-7.9,6.7-12.5,10.3c-2.3,1.8-4.8,3.5-7.4,5c-0.6,0.4-1.3,0.7-2,1.1s-1.4,0.7-2.1,1
			c-1.4,0.7-2.8,1.3-4.3,1.8c-5.7,2-11.6,3.3-17.6,3.7c-11.7,0.8-22.9-0.1-34-1.3c-5.5-0.5-11-1.3-16.5-2l-8.1-1.1
			c-1.4-0.2-2.6-0.4-4.3-0.6s-2.9-0.5-4.3-0.8c-5.5-1.2-10.7-2.4-16-3.5s-10.6-1.9-15.9-2.5c-1.3-0.2-2.6-0.3-4-0.4s-2.6-0.2-4-0.3
			c-2.6-0.2-5.3-0.3-7.8-0.2c-1.2,0-2.3,0.1-3.5,0.3l-1,0.2l-1.1,0.1l-2,0.3L262,25c-2.7,0.4-5.4,0.8-8.1,1.2s-5.3,0.9-8.2,1.3
			s-5.8,0.6-8.5,0.8c-3,0.2-6,0.2-9-0.1c-2.9-0.3-5.9-0.9-8.7-1.7c-2.5-0.7-5-1.3-7.6-1.7c-4.9-0.7-10-0.3-14.8,1
			c-2.4,0.6-5.3,1.5-8.1,2.1s-5.6,1.1-8.5,1.5c-5.7,0.7-11.4,1-17.1,0.7c-5.6-0.2-11.2-0.7-16.7-1.4s-11-1.3-16.6-2.3
			c-5.5-1-11-2.3-16.3-3.9c-5.4-1.6-10.6-3.5-15.8-5.2c-2.6-0.9-5.2-1.7-7.8-2.5c-1.3-0.4-2.6-0.8-3.9-1.1s-2.6-0.7-3.8-0.9
			c-5.3-0.9-10.6-1.4-16-1.2c-5.4,0.1-10.9,0.4-16.4,0.7s-11,0.7-16.5,1c-11,0.6-22.1,0.6-33.1,0H0L0,12H0.6z"/>
	</g>
	<g id="rama-3">
		<path class="st1" d="M0.6,12.5c11,0.5,22,0.3,33-0.7c5.5-0.4,11-1,16.4-1.6S61,9,66.5,8.6c5.5-0.5,11.1-0.3,16.6,0.5
			c1.4,0.2,2.7,0.6,4,0.9s2.7,0.7,4,1.1c2.7,0.7,5.3,1.6,7.9,2.4c5.3,1.7,10.5,3.4,15.8,4.9c5.3,1.5,10.7,2.6,16.2,3.5
			c5.4,0.9,10.9,1.5,16.4,2s11,1,16.4,1c5.5,0.1,11-0.2,16.4-1c2.7-0.4,5.4-0.9,8.1-1.6s5.3-1.5,7.9-2.2c5.4-1.6,11-2,16.6-1.3
			c2.7,0.5,5.5,1.1,8.1,1.8c2.6,0.7,5.3,1.2,8,1.5c2.7,0.3,5.4,0.3,8.1,0.1c2.8-0.2,5.5-0.3,8.2-0.6c5.4-0.7,10.9-1.5,16.4-2.1
			l4.1-0.5c1.4-0.1,2.6-0.3,4.1-0.6c2.8-0.4,5.5-0.5,8.3-0.8l4.1-0.3l4.2-0.2h4.2c1.4,0,2.8,0,4.2,0.1c5.5,0.3,11.1,0.9,16.5,1.7
			c5.5,0.8,10.9,2,16.3,3c1.4,0.3,2.7,0.5,4,0.7l4.1,0.5l8.2,1c5.5,0.7,10.9,1.3,16.4,1.9s10.9,1.1,16.4,1.4
			c5.5,0.3,10.9,0.3,16.4,0c5.4-0.3,10.8-1.4,15.9-3.2c5.1-2,9.8-4.7,14.1-8c2.2-1.6,4.3-3.4,6.5-5.1c2.1-1.8,4.4-3.4,6.8-4.9
			c2.5-1.5,5.2-2.4,8.1-2.7c2.8-0.3,5.7-0.1,8.5,0.6c2.7,0.7,5.3,1.7,7.8,3c2.4,1.3,4.9,2.4,7.5,3.4c2.5,1,5.2,1.3,7.9,1.1
			c2.7-0.3,5.3-1.1,7.6-2.5c2.4-1.3,4.5-3.1,7.1-4.3c1.3-0.6,2.7-0.9,4.1-1c0.7,0,1.4,0,2.1,0.2c0.7,0.2,1.4,0.4,2,0.8
			c2.5,1.4,4.2,3.7,6,5.7c0.9,1,1.9,2,3,2.8c1,0.9,2.4,1.3,3.8,1.1v0.2c-1.4,0.2-2.9-0.2-4-1.1c-1.1-0.8-2.1-1.8-3-2.8
			c-1.9-2-3.7-4.2-6-5.5c-1.2-0.6-2.5-0.9-3.8-0.8c-1.3,0.1-2.6,0.4-3.9,1c-2.4,1.2-4.5,3-6.9,4.4c-2.4,1.5-5.1,2.4-8,2.7
			c-2.8,0.3-5.7,0-8.4-1c-2.6-1-5.1-2.1-7.6-3.4c-2.4-1.2-5-2.1-7.6-2.8c-2.6-0.6-5.3-0.8-8-0.5c-2.6,0.3-5.2,1.2-7.5,2.6
			c-2.3,1.4-4.5,3-6.5,4.8c-2.1,1.7-4.2,3.5-6.5,5.2c-4.4,3.4-9.3,6.2-14.5,8.3c-5.3,1.9-10.8,3.1-16.4,3.4
			c-5.5,0.4-11.1,0.4-16.6,0c-5.5-0.3-11-0.8-16.5-1.4s-11-1.2-16.4-1.9l-8.2-1l-4.1-0.5c-1.4-0.2-2.8-0.4-4.1-0.7
			c-5.4-1-10.8-2.2-16.2-3c-5.4-0.9-10.9-1.5-16.3-1.8c-1.4-0.1-2.7-0.1-4.1-0.1h-4.1l-4.1,0.2l-4.1,0.3c-2.7,0.2-5.5,0.4-8.2,0.7
			c-1.3,0.2-2.8,0.5-4.1,0.6l-4.1,0.4l-8.2,0.9l-8.2,1.1c-2.8,0.3-5.5,0.4-8.3,0.6c-2.8,0.2-5.6,0.1-8.4-0.2
			c-2.8-0.3-5.5-0.9-8.2-1.6c-2.6-0.7-5.3-1.4-8-1.8c-5.4-0.7-10.9-0.4-16.1,1.1c-2.6,0.7-5.3,1.5-8,2.2s-5.4,1.2-8.2,1.6
			c-5.5,0.8-11,1.1-16.6,1c-5.5-0.1-11-0.6-16.5-1.1s-11-1.1-16.4-2.1c-5.5-0.9-10.8-2.1-16.2-3.6c-5.3-1.5-10.6-3.3-15.8-5
			c-2.6-0.8-5.2-1.7-7.9-2.4c-1.3-0.4-2.7-0.8-4-1.1s-2.7-0.7-4-0.9C77.5,9,72,8.8,66.6,9.3c-5.5,0.3-11,0.9-16.5,1.5
			s-11,1.1-16.5,1.6c-11,0.9-22,1-33.1,0.5L0.6,12.5z"/>
	</g>
</g>
<g id="hojas">
	<path id="hoja" class="st2" d="M112.7,20.6c-0.2-0.8,0.3-1.5,1-1.7c0.1,0,0.2,0,0.3,0h0.4c2.9,0.2,5.6,1.6,7.4,4
		c1.1,1.5,1.3,1.1,1.8,4.1c0.5,3.2,4.1,5.6,4.1,5.6C130.6,34.4,115.4,32.3,112.7,20.6z"/>
	<path id="hoja-2" class="st2" d="M114.3,20.6c0.2-0.8-0.3-1.5-1-1.7c-0.1,0-0.2,0-0.3,0h-0.4c-2.9,0.2-5.6,1.6-7.4,4
		c-1.1,1.5-1.3,1.1-1.8,4.1c-0.5,3.2-4.1,5.6-4.1,5.6C96.4,34.4,111.6,32.3,114.3,20.6z"/>
	<path id="hoja-3" class="st2" d="M210.9,22.4c-0.2-0.7,0.2-1.5,0.9-1.8c0.1,0,0.2-0.1,0.3-0.1h0.4c2.9,0,5.7,1.3,7.6,3.5
		c1.2,1.5,1.4,1,2,4c0.7,3.2,4.4,5.3,4.4,5.3C229.6,35.2,214.3,33.9,210.9,22.4z"/>
	<path id="hoja-4" class="st2" d="M297,20.1c0-0.8,0.6-1.4,1.3-1.5c0.1,0,0.2,0,0.3,0l0.4,0.1c2.8,0.7,5.2,2.7,6.5,5.3
		c0.8,1.7,1.1,1.3,0.9,4.4c-0.1,3.2,2.9,6.3,2.9,6.3C311.9,37.1,297.4,32,297,20.1z"/>
	<path id="hoja-5" class="st2" d="M404,30.8c0-0.8,0.6-1.4,1.3-1.5c0.1,0,0.2,0,0.3,0c0.1,0,0.3,0.1,0.4,0.1
		c2.8,0.7,5.2,2.6,6.5,5.3c0.8,1.7,1.1,1.3,0.9,4.3c-0.1,3.2,2.9,6.3,2.9,6.3C418.9,47.8,404.4,42.8,404,30.8z"/>
	<path id="hoja-6" class="st2" d="M405.9,31.4c-0.7,0.3-1.6,0.1-1.9-0.6c0-0.1-0.1-0.2-0.1-0.3l-0.1-0.4c-0.5-2.9,0.2-5.9,2.1-8.1
		c1.3-1.5,0.8-1.5,3.6-2.7c3-1.2,4.5-5.3,4.5-5.3C415.2,10.8,416.6,26.1,405.9,31.4z"/>
	<path id="hoja-7" class="st2" d="M405.2,28c0.2,0.8-0.3,1.5-1.1,1.7c-0.1,0-0.2,0-0.3,0h-0.4c-2.9-0.2-5.6-1.6-7.4-4
		c-1.1-1.5-1.3-1.1-1.8-4.1c-0.5-3.2-4.1-5.6-4.1-5.6C387.2,14.2,402.4,16.3,405.2,28z"/>
	<path id="hoja-8" class="st2" d="M406.7,30.8c0-0.8-0.6-1.4-1.3-1.5c-0.1,0-0.2,0-0.3,0l-0.4,0.1c-2.8,0.7-5.2,2.6-6.5,5.3
		c-0.8,1.7-1.1,1.3-0.9,4.3c0.1,3.2-2.9,6.3-2.9,6.3C391.8,47.8,406.3,42.8,406.7,30.8z"/>
	<path id="hoja-9" class="st2" d="M213,21.9c0-0.8-0.7-1.4-1.5-1.3c-0.1,0-0.2,0-0.3,0l-0.4,0.1c-2.8,1-4.9,3.2-5.9,5.9
		c-0.6,1.8-0.9,1.4-0.5,4.4c0.5,3.2-2.3,6.5-2.3,6.5C199.8,40.3,213.8,33.9,213,21.9z"/>
</g>
<g id="flores">
	<g id="flor">
		<polygon id="petalos" class="st3" points="117.7,19.6 118.8,21.4 117.7,23.2 115.7,23.2 114.7,25 112.6,25 111.6,23.2 109.5,23.2 
			108.5,21.4 109.5,19.6 108.5,17.8 109.5,16 111.6,16 112.6,14.3 114.7,14.3 115.7,16 117.7,16 118.8,17.8 		"/>
		<polygon id="centro" class="st4" points="114.4,18.3 112.9,18.3 112.1,19.6 112.9,20.9 114.4,20.9 115.2,19.6 		"/>
	</g>
	<g id="flor-2">
		<polygon id="petalos-2" class="st3" points="216.5,21.3 217.5,23 216.5,24.8 214.4,24.8 213.4,26.6 211.3,26.6 210.3,24.8 
			208.2,24.8 207.2,23 208.2,21.3 207.2,19.5 208.2,17.7 210.3,17.7 211.3,15.9 213.4,15.9 214.4,17.7 216.5,17.7 217.5,19.5 		"/>
		<polygon id="centro-2" class="st4" points="213.1,19.9 211.6,19.9 210.8,21.3 211.6,22.6 213.1,22.6 213.9,21.3 		"/>
	</g>
	<g id="flor-3">
		<polygon id="petalos-3" class="st3" points="409.3,29.3 410.3,31.1 409.3,32.9 407.3,32.9 406.2,34.7 404.2,34.7 403.1,32.9 
			401.1,32.9 400,31.1 401.1,29.3 400,27.5 401.1,25.7 403.1,25.7 404.2,24 406.2,24 407.3,25.7 409.3,25.7 410.3,27.5 		"/>
		<polygon id="centro-3" class="st4" points="406,28 404.4,28 403.7,29.3 404.4,30.6 406,30.6 406.7,29.3 		"/>
	</g>
	<g id="flor-4">
		<polygon id="petalos-4" class="st3" points="451.6,5.3 452.6,7.1 451.6,8.9 449.6,8.9 448.5,10.7 446.5,10.7 445.5,8.9 443.4,8.9 
			442.4,7.1 443.4,5.3 442.4,3.6 443.4,1.8 445.5,1.8 446.5,0 448.5,0 449.6,1.8 451.6,1.8 452.6,3.6 		"/>
		<polygon id="centro-4" class="st4" points="448.3,4 446.7,4 446,5.3 446.7,6.7 448.3,6.7 449,5.3 		"/>
	</g>
	<g id="flor-5">
		<polygon id="petalos-5" class="st3" points="302.6,19.9 303.6,21.7 302.6,23.5 300.6,23.5 299.5,25.3 297.5,25.3 296.4,23.5 
			294.4,23.5 293.4,21.7 294.4,19.9 293.4,18.1 294.4,16.4 296.4,16.4 297.5,14.6 299.5,14.6 300.6,16.4 302.6,16.4 303.6,18.1 		
			"/>
		<polygon id="centro-5" class="st4" points="299.3,18.6 297.7,18.6 297,19.9 297.7,21.3 299.3,21.3 300,19.9 		"/>
	</g>
</g>
</svg>
