<svg width="25" height="21" viewBox="0 0 25 21" fill="none" xmlns="http://www.w3.org/2000/svg">
<path d="M24.25 3.04264C23.3674 3.42337 22.407 3.69737 21.4176 3.80409C22.4448 3.19388 23.2139 2.22985 23.5808 1.09288C22.617 1.66624 21.5611 2.06829 20.4601 2.2812C19.9999 1.78922 19.4433 1.39728 18.825 1.12982C18.2067 0.862352 17.5399 0.725086 16.8663 0.726574C14.1406 0.726574 11.9486 2.93592 11.9486 5.64714C11.9486 6.02786 11.9947 6.40858 12.0697 6.77489C7.98849 6.56145 4.34855 4.61168 1.92864 1.62647C1.48771 2.37959 1.25665 3.23712 1.25949 4.10982C1.25949 5.81731 2.12766 7.3229 3.45154 8.20837C2.67136 8.17764 1.90944 7.9632 1.22777 7.58248V7.64305C1.22777 10.0341 2.91795 12.0156 5.17056 12.4713C4.74761 12.5812 4.31251 12.6374 3.87553 12.6386C3.55537 12.6386 3.25252 12.6069 2.94679 12.5636C3.56979 14.5134 5.384 15.9296 7.54432 15.9757C5.85413 17.2996 3.73708 18.0783 1.43832 18.0783C1.02587 18.0783 0.645145 18.0639 0.25 18.0178C2.43051 19.4166 5.0177 20.2242 7.8039 20.2242C16.849 20.2242 21.7984 12.7309 21.7984 6.22688C21.7984 6.01344 21.7984 5.8 21.784 5.58657C22.7415 4.88569 23.5808 4.01753 24.25 3.04264Z" fill="#D2E043"/>
</svg>
