<svg xmlns="http://www.w3.org/2000/svg" xmlns:xlink="http://www.w3.org/1999/xlink" viewBox="0 0 224.8 240.96"><defs><linearGradient id="Degradado_sin_nombre_6" x1="99.53" y1="227.32" x2="99.53" y2="133.81" gradientUnits="userSpaceOnUse"><stop offset="0" stop-color="#41995d" stop-opacity="0"/><stop offset="0.07" stop-color="#449b5c" stop-opacity="0.04"/><stop offset="0.19" stop-color="#4ba058" stop-opacity="0.16"/><stop offset="0.34" stop-color="#58a853" stop-opacity="0.36"/><stop offset="0.51" stop-color="#69b34b" stop-opacity="0.63"/><stop offset="0.7" stop-color="#7ec242" stop-opacity="0.97"/><stop offset="0.72" stop-color="#80c341"/></linearGradient><linearGradient id="Degradado_sin_nombre_5" x1="81.22" y1="169.4" x2="93.54" y2="169.4" gradientUnits="userSpaceOnUse"><stop offset="0.05" stop-color="#41995d" stop-opacity="0.5"/><stop offset="0.15" stop-color="#469c5b" stop-opacity="0.54"/><stop offset="0.31" stop-color="#52a455" stop-opacity="0.63"/><stop offset="0.5" stop-color="#66b24d" stop-opacity="0.79"/><stop offset="0.72" stop-color="#80c341"/></linearGradient></defs><g id="Capa_2" data-name="Capa 2"><g id="jardin"><g id="hoja_back"><path id="hoja" d="M221.77,25.22c12.53,10.28-16.64,44.2-35.41,67.09s-38.16,39.08-50.7,28.8-7.48-37.17,11.29-60S209.23,14.94,221.77,25.22Z" style="fill:#0b7f40"/><g id="raiz"><path d="M164.88,73.45a23.89,23.89,0,0,0,5.24,1.35,23.48,23.48,0,0,0,5.36.2,23.85,23.85,0,0,0,5.19-1.1,31.24,31.24,0,0,0,5-2.06l.05.08A14,14,0,0,1,181,74.84a15.55,15.55,0,0,1-5.48,1,23.59,23.59,0,0,1-10.68-2.26Z" style="fill:#ebebeb"/></g><g id="raiz-2" data-name="raiz"><path d="M154.51,91.17a82.66,82.66,0,0,1,10.26-18.11,126.74,126.74,0,0,1,13.72-15.74c1.28-1.19,2.59-2.33,3.88-3.5.65-.58,1.28-1.18,1.95-1.74l2-1.64c1.37-1.09,2.71-2.2,4.08-3.26l4.26-3,2.14-1.5L199,41.27l4.43-2.76c.73-.46,1.5-.87,2.27-1.28L208,36l4.61-2.44c-3,1.83-6,3.49-8.93,5.36l-4.33,2.87-2.17,1.43-2.08,1.55L191,47.87c-1.36,1.06-2.68,2.18-4,3.27l-2,1.65c-.66.56-1.28,1.16-1.93,1.74-1.27,1.17-2.56,2.32-3.81,3.51a134.13,134.13,0,0,0-13.8,15.47l-1.57,2.07-1.49,2.13c-1,1.41-1.92,2.88-2.85,4.34A75.18,75.18,0,0,0,154.51,91.17Z" style="fill:#ebebeb"/></g><g id="raiz-3" data-name="raiz"><path d="M188.92,48.83a21,21,0,0,0,4.26.34,22,22,0,0,0,4.21-.45,25.77,25.77,0,0,0,4-1.28,37.9,37.9,0,0,0,3.86-1.77l.06.07a10.9,10.9,0,0,1-1.63,1.48c-.29.22-.6.41-.91.62l-1,.52a13.76,13.76,0,0,1-4.25,1.15,21.31,21.31,0,0,1-8.64-.58Z" style="fill:#ebebeb"/></g><g id="raiz-4" data-name="raiz"><path d="M167.81,49.13a17.52,17.52,0,0,0,3.82,6.23,18.94,18.94,0,0,0,2.82,2.25,29.12,29.12,0,0,0,3.15,1.88l0,.1a8.75,8.75,0,0,1-3.66-1.14A10.15,10.15,0,0,1,171,55.9a16.21,16.21,0,0,1-3.33-6.75Z" style="fill:#ebebeb"/></g></g><path id="hoja_front" d="M106.42.07c-16.09,2-9.53,46.26-5.87,75.63s11.42,53.42,27.51,51.42,26.16-27.44,22.5-56.82S122.51-1.94,106.42.07Z" style="fill:#23a249"/><g id="arbusto_flor"><path id="cesped" d="M199.07,147.45c-42.7,1.36-56.94,11.31-61,21.39-3.5,8.77,1.24,16.33-3.84,21.12-10.44,9.85-36.95-16-54.24-6.72-17,9.12-4,41-23.52,53.28C43.21,244.9,20,240.9,6.58,228.84A42,42,0,0,1,0,221.22l0-73.77Z" style="fill:url(#Degradado_sin_nombre_6)"/><g id="monte"><path d="M32.58,165.41h0Z" style="fill:#41995d"/><path d="M32.41,165.36s-.08,0-.07.08,0,0,.09-.06l0,0h.06a.22.22,0,0,0-.12,0S32.41,165.37,32.41,165.36Z" style="fill:#41995d"/><path d="M30.12,164.17v0Z" style="fill:#41995d"/><path d="M28.63,163.41a.32.32,0,0,0,0-.11A.28.28,0,0,0,28.63,163.41Z" style="fill:#41995d"/><path d="M28.45,162.76v0C28.46,162.75,28.46,162.72,28.45,162.76Z" style="fill:#41995d"/><path d="M30.12,164.17l0-.14C30.07,164.15,30.1,164.13,30.12,164.17Z" style="fill:#41995d"/><path d="M32,165.48l0,0h0Z" style="fill:#41995d"/><path d="M30.83,164.2h0l0-.11Z" style="fill:#41995d"/><path d="M31.32,164.44s-.06.17-.09.26a.38.38,0,0,1,.06-.12Z" style="fill:#41995d"/><path d="M32,165.13h0Z" style="fill:#41995d"/><path d="M30.49,164l0-.1Z" style="fill:#41995d"/><path d="M15.88,165.65v0Z" style="fill:#41995d"/><polygon points="15.18 165.41 15.19 165.41 15.19 165.41 15.18 165.41" style="fill:#41995d"/><path d="M28,162h0S28,162,28,162Z" style="fill:#41995d"/><path d="M23.21,161.75c.07.5-.06.65,0,1.2A7.1,7.1,0,0,0,23.21,161.75Z" style="fill:#41995d"/><path d="M32,165.48h0Z" style="fill:#41995d"/><path d="M23.24,163h0v0Z" style="fill:#41995d"/><path d="M26.81,162v0Z" style="fill:#41995d"/><path d="M27.61,162.86v-.06A.15.15,0,0,0,27.61,162.86Z" style="fill:#41995d"/><path d="M26.29,162.6s0-.12,0,0v.07C26.28,162.55,26.29,162.51,26.29,162.6Z" style="fill:#41995d"/><path d="M25.82,162.55v.11l0,0Z" style="fill:#41995d"/><path d="M17.33,165.92l-.07-.23C17.3,165.87,17.25,165.91,17.33,165.92Z" style="fill:#41995d"/><path d="M32,165.44l0,0h0A0,0,0,0,0,32,165.44Z" style="fill:#41995d"/><path d="M26,166.78l-.06-.07S26,166.78,26,166.78Z" style="fill:#41995d"/><path d="M20.52,166.26v.06S20.52,166.32,20.52,166.26Z" style="fill:#41995d"/><path d="M25.73,166.81a3.25,3.25,0,0,0,0-.37l0,.14Z" style="fill:#41995d"/><path d="M17.26,165.69Z" style="fill:#41995d"/><path d="M16.89,166.1c.07,0,0-.24-.06-.39s.09.2.15.34c0-.05,0-.3.06-.28a.21.21,0,0,1,0,.12c0-.22.17,0,.16-.28l0,.08c-.05-.16-.09-.32-.12-.43s0-.21.07,0c0,0,0,.08,0,.15v-.1c.1.31,0,.11,0,.33,0-.09.06-.35.12-.26.09.31-.09.1,0,.38l-.1-.13c.17.49-.05,0,.12.48.12.12.08-.13.2,0,0-.18-.07-.27-.09-.45.06-.34.3.86.3.42,0-.22-.11-.68,0-.43l.06.4c.1.06-.07-.59.09-.3s-.05.14,0,.19c.14.34,0-.24.05-.23l.09.38c.09,0,.14-.32.24-.39a1.33,1.33,0,0,0,.07.38c.1-.2.31.07.49.38l0-.39a.66.66,0,0,1,.06.26c.08.16,0-.25,0-.41s.08.24.09.36c0-.33.12-.74.3-.28v.12c.1.19-.06-.87.07-.47v.08c.2.2.31-.23.54.48-.08-.67.2.32.07-.63a6.7,6.7,0,0,0,.33,1c0,.05,0-.61,0-.71l.07.52v-.54l.11.62,0-.13a2.09,2.09,0,0,1-.08-.39c0-.24.2.37.23.64l.09-.44a3.34,3.34,0,0,1,0,.43c0-.54.08.56.09.07a3.56,3.56,0,0,1-.05-.43c.08.32.16.33.2.2l0,.38c.12.11.21-.16.33-.15a3.22,3.22,0,0,1-.1-.91l.08.59a5.74,5.74,0,0,1-.06-.67,3.41,3.41,0,0,1,.09.87l0-.21c0,.18,0,.27,0,.5,0-.37.16.61.12,0l0,.18c.12,0,.16-.2.25-.22a4.68,4.68,0,0,1,0-.84c.08.17.2.59.28.55a5.24,5.24,0,0,0,0-.78c0,.49.13.45.11.8.09-.07.12-.09.22-.49,0-.21,0-.29-.05-.46s.07.21.08.44V166c.11-.76.42,1.46.47.42v0l.1-.55c.05.09,0,.38,0,.69.1-.84.21.13.3-.44.12,1.5.28-.1.41.86v-.36c0-.35,0,.21.06.29,0-.28,0-.32,0-.51.24-.43.5.51.73.82.09.09.08-1.84.18-1l0,.66c.19-.79.36,0,.56-.65a2,2,0,0,1,0,.34c0,.47.13,0,.15-.36a4.62,4.62,0,0,1,0,.54c0,.27.12-.6.12-.14,0,.07,0,.15,0,.19,0-.23.11,0,.11-.49.05.25.14-.24.18.07.07-.59.09.28.16-.56-.06.86.07.68.14.28,0,.26,0,.26,0,.62.05,0,.1-.18.12-.61,0,1,.25-.81.2.47a3.82,3.82,0,0,1,.49-.95c-.08.81-.15.08-.23.94.16-.35.3-1,.4-.85a1.84,1.84,0,0,1-.08.48c.16-.33.24.05.4-.38a1.29,1.29,0,0,1-.05.21s0,.11.08-.24l0,.1a10.41,10.41,0,0,1,.26-1.33c-.16,1,.08.25-.14,1.5a2.09,2.09,0,0,0,.09-.46,1.74,1.74,0,0,1-.05.47c.1-.2.12-.56.19-.56,0,.17,0,.23-.08.43.08-.33.16-.64.2-.5s0,.22,0,.22.3-.83.37-.52c-.14.67,0,.22-.08.81l.09-.18,0-.28c.05,0,.17-.41.18-.22l-.07.24.12-.11,0-.22c.1-.29.11-.71.16-.55s.05,0,0,.34h0c.06-.18.11-.36.13-.22s-.11.6-.12.72c.1-.46.15-.13.27-.6,0,.11-.08.39-.09.45l.09-.36a1.38,1.38,0,0,1-.05.39c.07.07.1-.67.14-.38a.82.82,0,0,1-.05.14c.07.15.22-.21.28,0-.07.5-.1.12-.15.55.14-.11.37-.6.46-.47v-.05c.15-.66,0,.33.14,0a2.49,2.49,0,0,0-.07.29c.06.1.2-.16.36-.33l-.05.15c0,.14.11.08.15.15a1.08,1.08,0,0,0,.1-.33c0,.8.41-.37.4.25,0,0-.07.11-.06.11l.16-.11a1.68,1.68,0,0,0,0-.29c0-.12.1-.2.13-.19a.84.84,0,0,0-.09.42l.06-.18c0,.35.11-.39.13-.14l0,.09c.05,0,.11-.16.14-.13,0,.21-.06.09-.11.27.05,0,.2-.38.19-.17,0,0-.06,0-.1.1,0,.24,0,.18,0,.22h0l0,.1v-.06c.2-.47.15-.07.32-.35-.16.25-.06.15-.12.34s0,.12,0,.17c.09-.15,0,.11.16-.1,0,.05,0,0,0,.14.07-.05,0-.09,0-.16s.13.19.32,0c.12-.07.18-.19.28-.22s-.06.11-.06.11.08.05.13,0a.15.15,0,0,0,0,.07c.05,0,.06-.09.1,0a.61.61,0,0,1-.07.1.6.6,0,0,1,.16-.08s0,.05-.07.07a.58.58,0,0,0,.19-.07l0,0s0,0,0,0-.06,0-.06,0h0c0-.11-.14,0-.2,0l.06-.11-.1.08s0-.11.05-.11-.06,0-.07-.06,0,0,0,0l-.06,0s0-.11,0-.07c0-.13-.16.06-.15-.08h0c-.12,0-.05.12-.18.25l0-.37,0,.14s0,0,0-.08,0,.06-.07.15c0-.16-.17,0-.1-.26,0,.13,0,.13-.06.2.07-.32-.08,0-.09-.14s.08,0,.08-.22c-.11.27-.07-.11-.13-.08-.07.24-.12.06-.21.11s-.09-.2-.12-.34v0c-.09.29-.14.21-.21.26a1,1,0,0,1,.13-.34l-.05,0c0,.1-.06.15-.1.17l.07-.24c-.06,0-.19.24-.23,0a3.08,3.08,0,0,1-.23.85,1.82,1.82,0,0,1,.12-.42s-.06.11-.06,0l.09-.21c0-.12-.06.18-.09.15.05-.19,0-.15.06-.3s0,.09,0,0a.85.85,0,0,1,0-.34c0,.12-.06.27-.09.28s0-.25,0-.37c0,.14-.05,0-.12.28,0,0,0-.16,0-.25-.06.13-.16,0-.2.33v0h0c-.18.3-.18-.27-.32-.16l0-.12c-.09.11-.16,0-.26.28a1.05,1.05,0,0,1,0-.39c-.06.08-.1.22-.13,0s0-.2.09-.14c-.05-.14,0-.35-.16,0,.09-.32,0-.44,0-.35v.26s-.07,0-.1,0l.1-.45c0-.62-.41.87-.34-.12-.09.32,0,.26-.06.64a7.71,7.71,0,0,1,0-.81c0-.31-.19.69-.25.47a3.08,3.08,0,0,1-.18.81,2.76,2.76,0,0,1,.11-.91s0,.05,0,.11a.63.63,0,0,0,.07-.32l0,.17c0-.19-.08-.2,0-.49a.62.62,0,0,0,0,.39c0-.29-.13-.05-.18-.25a1,1,0,0,1,0,.32c-.08-.27-.1.34-.19.4,0-.3.11-.68,0-.47a1.81,1.81,0,0,1,.1-.65c-.13.34-.11-.3-.14-.39l.06-.14c0,.08-.06.07-.08.06l0,.4a.58.58,0,0,1,0-.25c-.06.25-.07.66-.16,1,0-.21-.12.2-.06-.33.07.2.05-.53.15-.59s0,0-.06,0a.42.42,0,0,1,0-.14c0-.5-.12.59-.22.55.05-.3.05-.58,0-.52a2.41,2.41,0,0,1-.1.73c0-.25-.09.16-.12.12l0,.12c0,.3-.07.26-.12.35,0-.24,0-.16,0-.27-.11.53,0-.58-.15-.23,0-.22.06-.58.05-.73-.12.38,0-.45-.16-.14a2.19,2.19,0,0,1-.1.73l.16-.27-.15.59s.11-.24.13-.17a1.91,1.91,0,0,0-.08.59c0-.65-.14.35-.16-.09l.11-1.05c-.05-.5-.22.5-.32.21l0,.19c-.05.43-.08.05-.13.22a6.61,6.61,0,0,0,0-.73c0,.27-.09-.05-.16.68v-.49c-.09-.22-.2,1-.28.89a6.77,6.77,0,0,1,.12-.95s-.06-.08-.08.18c0-.24-.12.49-.12.13a2.67,2.67,0,0,1-.09.52V163a4.19,4.19,0,0,0-.07.67c0-1.18-.27.06-.3-1a.67.67,0,0,1-.22.26c0-.12,0-.19,0-.15-.07-.37-.1,1.1-.18.69,0-.62.07-.33.05-.57,0-1.27-.13.16-.17-.58l0-.08c0-.44-.14.48-.22.38v-.2a3,3,0,0,1-.27,1,4.9,4.9,0,0,0,0-.77c0,.07,0,.82-.08,1a8.2,8.2,0,0,1-.06-1.07l.06,0c0-.71-.08,0-.12-.1v-.31c-.1.1-.11.88-.22.82v.24c-.07.77,0-.44-.11.14l0-.79a7.61,7.61,0,0,1-.21.91,9.53,9.53,0,0,1,.18-1.23s-.14.06-.16.45c0-.08,0-.27,0-.15,0,.62-.11.93-.18.91,0-1.53-.21-.38-.29-1.57-.13.57-.28-.24-.45-.14.09,1.18-.05,0,0,1.25,0,.08-.05.06-.06,0l-.14-.71c0-.35,0-.27,0-.55-.09-.08-.06-.51-.13-.83,0,.44,0,.63-.06.47l.09.55c-.09.66-.14-1-.24-.36l0-.38c-.06.23-.24,0-.25,1a2.64,2.64,0,0,1,0-.55c-.16-.13-.27,1.06-.42.48v-.29c0,.09,0,.55-.07.26,0-.12,0-.29,0-.3s0,.51-.09.35v-.33c-.17-.35-.16.82-.26,1a2.62,2.62,0,0,0-.27-1.21v-.11c-.18-.07-.22.74-.34,1.09-.18-.86-.35-.3-.56-.74a2.92,2.92,0,0,1,.05.7c-.05-.15,0,.56-.11-.15h0c-.1-.7-.15-.49-.21-.49l.1.93c-.31-1.28-.32.58-.55-.56,0,.23,0,.25,0,.48l-.06-.47c-.12-.08-.17-.12-.28,0l0-.33c-.07,0,.11,1.33.05,1.37l-.12-.66c-.11.05-.32-.47-.34.17a2.36,2.36,0,0,1,0-.32c-.05,0-.27-.32-.11.52-.1-.55-.13,0-.15.26l-.06-.4a2.65,2.65,0,0,1,0,.82s-.07-.3,0-.21c-.09-.18,0,.38-.09.2v-.26c-.07,0,0,.12,0,.41s-.13-.06-.2-.38c0,.2.05.48,0,.4a.92.92,0,0,1,0-.24c-.15-.2-.07.46-.2.15l-.05-.21c.07,0,.14,0,.14,0a4,4,0,0,1-.17-.83c0,.28,0,.84-.08.72l0-.1v0s0,0,0,.07,0-.07-.06-.07c-.06-.25-.1-.09-.13-.09a2.22,2.22,0,0,0,.11.54,0,0,0,0,1,0-.06s0,0,0,0v0l.07-.06c0,.19,0,.33-.05.17,0,.21.05.43.06.54-.14-.44-.26-.64-.33-.9a1.21,1.21,0,0,0-.13.81c0,.08-.07-.15-.1-.22s0-.07,0-.15c0,.17-.15.14-.08.5-.1-.13,0-.35-.11-.24V164c-.15-.22-.17.05-.2.27s-.08.39-.25.15a.13.13,0,0,1,.05.09c-.28-.12-.41.39-.7.23-.07,0-.05.1-.07.19l0-.12,0,.18c-.07.12-.23-.16-.29.07l0,0s-.12.1-.13.05,0,.05,0,0v0l-.08.1c-.08,0,0-.08-.12,0a.49.49,0,0,1-.09.1l.05,0,0,0,.07,0h.08l0,0-.07,0s.07,0,.09,0a.1.1,0,0,0,0,0l.06,0s0,0,0,.07-.06-.07,0-.08.05.08.09.05,0,0,0,0,.11,0,.11,0,.12,0,.16.14c0,0,0-.1.07-.1,0,.18.14,0,.18.25,0-.18.16,0,.21-.14s0,.05,0,0a.59.59,0,0,1,.13.17c-.05-.21,0-.25,0-.39.12.23,0,.27.11.48,0-.18.06-.16,0-.33a.87.87,0,0,1,.14.29c-.08-.32,0-.05,0-.24.1.17.09.31.14.22A.32.32,0,0,1,16.89,166.1Zm1.45-.53h0l0,0Zm.13,0s0,0-.06,0a1.12,1.12,0,0,1,0-.24A2,2,0,0,0,18.47,165.57Zm-.74-2.3c0-.06,0,0,.05.07a.16.16,0,0,0,0,.06v0Z" style="fill:#41995d"/><path d="M17.78,163.72v0l0,.07,0-.11Z" style="fill:#41995d"/><path d="M30.12,164.22h0v0Z" style="fill:#41995d"/><polygon points="20.41 166.49 20.39 166.37 20.39 166.47 20.41 166.49" style="fill:#41995d"/><path d="M30.61,165.31v0Z" style="fill:#41995d"/><path d="M30.92,165.37l0,.08A.34.34,0,0,0,30.92,165.37Z" style="fill:#41995d"/><path d="M31.14,165.48l0-.08h0Z" style="fill:#41995d"/><path d="M27.25,166.09a0,0,0,0,0,0,0C27.21,166.21,27.22,166.17,27.25,166.09Z" style="fill:#41995d"/><path d="M28.51,165l-.07.19S28.47,165.27,28.51,165Z" style="fill:#41995d"/><polygon points="26 166.79 26 166.78 25.99 166.78 26 166.79" style="fill:#41995d"/><path d="M28.39,165.22c0,.09,0,.07.05,0S28.42,165.16,28.39,165.22Z" style="fill:#41995d"/><polygon points="32.24 165.46 32.26 165.46 32.26 165.45 32.24 165.46" style="fill:#41995d"/><path d="M32.26,165.45h0Z" style="fill:#41995d"/><path d="M32.31,165.43h0Z" style="fill:#41995d"/><path d="M31.9,165.46v0Z" style="fill:#41995d"/><path d="M31.8,165.48s0,.07.08,0v0C31.85,165.55,31.84,165.42,31.8,165.48Z" style="fill:#41995d"/><path d="M31.57,164.81l.07.08c0-.06,0-.15,0-.14C31.64,164.52,31.66,164.89,31.57,164.81Z" style="fill:#41995d"/><path d="M31.37,164.58c.05,0,0-.1,0-.14S31.36,164.5,31.37,164.58Z" style="fill:#41995d"/><path d="M29.62,163.74l.07-.32S29.66,163.54,29.62,163.74Z" style="fill:#41995d"/><polygon points="28.94 165.42 28.93 165.63 29 165.31 28.94 165.42" style="fill:#41995d"/><polygon points="29.19 162.84 29.21 162.79 29.13 162.9 29.19 162.84" style="fill:#41995d"/><path d="M25.93,162.08l0,.61C25.94,162.58,26,161.9,25.93,162.08Z" style="fill:#41995d"/><path d="M24.49,162.6c0-.31,0-.52-.08-.21C24.45,162.44,24.48,162.68,24.49,162.6Z" style="fill:#41995d"/><polygon points="20.21 162.13 20.21 161.94 20.18 162.11 20.21 162.13" style="fill:#41995d"/><path d="M71.27,182.5h0Z" style="fill:#41995d"/><path d="M71,182.43c-.06,0-.13,0-.11.07s.08,0,.15-.05.08,0,.07,0a.33.33,0,0,0,.1,0,.73.73,0,0,0-.22,0S71,182.43,71,182.43Z" style="fill:#41995d"/><path d="M66.6,181l0,.05A.08.08,0,0,0,66.6,181Z" style="fill:#41995d"/><path d="M63.83,180.08s0-.06.05-.1A.11.11,0,0,0,63.83,180.08Z" style="fill:#41995d"/><path d="M63.41,179.4l0,0S63.43,179.37,63.41,179.4Z" style="fill:#41995d"/><path d="M66.6,181l0-.14C66.52,180.93,66.57,180.91,66.6,181Z" style="fill:#41995d"/><path d="M70.3,182.51l0,0h0Z" style="fill:#41995d"/><path d="M67.86,181h0l0-.11Z" style="fill:#41995d"/><path d="M68.79,181.34s-.07.17-.09.25a.17.17,0,0,1,.07-.11S68.78,181.4,68.79,181.34Z" style="fill:#41995d"/><path d="M70.17,182.13h0Z" style="fill:#41995d"/><path d="M67.21,180.76v-.11A.45.45,0,0,0,67.21,180.76Z" style="fill:#41995d"/><path d="M40.58,182.67v0Z" style="fill:#41995d"/><polygon points="39.41 182.5 39.43 182.49 39.43 182.49 39.41 182.5" style="fill:#41995d"/><path d="M62.58,178.61h0C62.61,178.57,62.6,178.57,62.58,178.61Z" style="fill:#41995d"/><path d="M54.2,178.31c.11.49-.13.65,0,1.2A4.44,4.44,0,0,0,54.2,178.31Z" style="fill:#41995d"/><path d="M70.28,182.5h0Z" style="fill:#41995d"/><path d="M54.22,179.51h0l0,.05Z" style="fill:#41995d"/><path d="M60.47,178.54a1.62,1.62,0,0,0,0,.23A2.2,2.2,0,0,0,60.47,178.54Z" style="fill:#41995d"/><path d="M62,179.48l0-.07C61.94,179.46,62,179.47,62,179.48Z" style="fill:#41995d"/><path d="M59.62,179.17s0-.11,0,0v.06C59.59,179.12,59.6,179.09,59.62,179.17Z" style="fill:#41995d"/><path d="M58.79,179.12v.11l0,0Z" style="fill:#41995d"/><path d="M43.12,182.8a1.43,1.43,0,0,1-.08-.22C43.08,182.76,43,182.81,43.12,182.8Z" style="fill:#41995d"/><path d="M70.31,182.47l0,0h0A0,0,0,0,0,70.31,182.47Z" style="fill:#41995d"/><path d="M59.37,183.36l-.12-.07A.15.15,0,0,0,59.37,183.36Z" style="fill:#41995d"/><path d="M49,182.92l0,.06S48.94,183,49,182.92Z" style="fill:#41995d"/><path d="M58.88,183.38a2.31,2.31,0,0,0-.06-.37l0,.14Z" style="fill:#41995d"/><path d="M43,182.58Z" style="fill:#41995d"/><path d="M42.26,183c.13,0,0-.25,0-.39s.11.19.19.34c.08-.06.1-.32.17-.3a.16.16,0,0,1,0,.12c.06-.23.29,0,.35-.3l0,.08a3.31,3.31,0,0,1-.1-.44c.06,0,.07-.22.13,0,0,0,0,.08,0,.15l0-.1c.11.31-.06.11,0,.33.1-.09.19-.36.29-.28.07.32-.19.11,0,.39l-.16-.12c.19.49-.09,0,.1.48.2.12.17-.14.37,0,0-.18-.06-.27,0-.46.19-.35.34.87.45.42,0-.23,0-.69.12-.45l0,.41c.18.05,0-.6.23-.31,0,.16-.11.13-.08.19.17.34.05-.24.14-.25l.07.39c.18,0,.33-.34.52-.42a1,1,0,0,0,.06.38c.22-.21.55.06.83.36l0-.4a.44.44,0,0,1,0,.26c.12.16,0-.25,0-.41s.1.23.08.35c.13-.33.38-.76.62-.3l0,.13c.16.18,0-.89.22-.49v.08c.32.19.6-.25.9.46,0-.67.33.31.25-.65a3.58,3.58,0,0,0,.46,1c.07.05,0-.61.1-.71l0,.51.05-.54.12.62.06-.13a1.11,1.11,0,0,1-.09-.39c.09-.24.31.36.34.64l.23-.45a1.3,1.3,0,0,1,0,.43c.1-.55.08.56.17.06a3.22,3.22,0,0,1,0-.43c.1.32.25.33.35.19v.38c.21.11.4-.17.63-.16a2,2,0,0,1-.07-.92l.07.6c0-.37-.08-.23,0-.68a2,2,0,0,1,.08.87l.08-.2c0,.18,0,.27,0,.5,0-.37.22.61.23,0l0,.18c.22,0,.31-.2.49-.23a4.06,4.06,0,0,1,.07-.84c.15.16.33.58.48.53.1-.26,0-.45,0-.77,0,.49.2.44.14.8.19-.08.24-.1.46-.5a2.16,2.16,0,0,1-.06-.47c0-.08.11.21.12.45v.05c.24-.75.7,1.47.87.41v.06l.21-.56c.11.09,0,.39,0,.7.22-.85.39.12.57-.46.19,1.51.56-.1.78.86l0-.35c.05-.35.07.2.11.28a2.44,2.44,0,0,1,0-.51c.46-.43,1,.51,1.42.82.17.09.11-1.83.32-1l-.07.66c.36-.79.71,0,1.06-.64,0,.15,0,.34-.06.34.06.47.26,0,.28-.36.05,0,0,.35,0,.54s.2-.6.23-.14a.61.61,0,0,1,0,.19c.05-.23.21.05.19-.48.12.25.25-.24.34.07.09-.59.21.28.27-.56-.05.87.19.69.29.29,0,.26.06.26,0,.62.09,0,.18-.18.19-.61.11,1,.39-.81.41.48a3.49,3.49,0,0,1,.84-.94c-.07.81-.28.08-.33.94.26-.35.45-1,.67-.84,0,.11-.07.35-.1.48.27-.32.45.06.7-.36a1.29,1.29,0,0,1-.06.21s.08.11.11-.24l0,.09a5.3,5.3,0,0,1,.3-1.32c-.17,1,.18.26,0,1.51a1.6,1.6,0,0,0,.1-.46.84.84,0,0,1,0,.46c.16-.19.15-.55.28-.55,0,.17,0,.23-.08.43.1-.33.2-.64.3-.5s0,.23-.05.22c.2,0,.42-.81.6-.5-.14.68,0,.23,0,.82l.13-.18v-.28c.1,0,.24-.4.3-.21l-.1.23.2-.1-.08-.22c.14-.28.08-.72.19-.55s.1,0,.12.35h0c.07-.17.14-.35.2-.21s-.09.61-.09.73c.11-.46.25-.12.38-.6a2.39,2.39,0,0,0-.08.45l.09-.36a.75.75,0,0,1,0,.4c.13.07,0-.67.17-.37a.79.79,0,0,1,0,.13c.15.16.36-.2.49,0,0,.5-.15.12-.16.55.24-.1.55-.59.75-.45l0-.05c.13-.66.11.34.27,0a1,1,0,0,0-.08.28c.13.12.33-.14.59-.3l-.06.15c.07.14.22.1.31.17,0-.15.1-.12.1-.33.15.82.64-.35.78.29,0,0-.09.11-.07.11l.25-.1c0-.21,0-.13,0-.29s.13-.21.18-.2c-.12.12-.06.33,0,.44,0-.06,0-.13,0-.19,0,.36.1-.39.21-.13l0,.09c.07,0,.15-.16.21-.12,0,.21-.08.09-.12.26.09,0,.26-.37.29-.15-.05.05-.1,0-.15.09,0,.25.06.19.12.24h0l.13.12,0-.06c.21-.48.24-.07.46-.34-.21.25-.06.16-.11.35s.07.12,0,.17c.1-.14.09.12.24-.09,0,.06.08,0,0,.15.11,0,0-.09,0-.16.18-.16.29.21.55,0s.26-.19.44-.2-.08.11-.08.11a.26.26,0,0,0,.24,0s0,0,0,.08.07-.09.15-.05a.41.41,0,0,1-.09.1,1.25,1.25,0,0,1,.26-.07s-.06.05-.1.07a1,1,0,0,0,.3-.05l-.06,0s0,0,0,.05-.11,0-.11-.05h.06c0-.12-.24,0-.36,0l.08-.1-.14.07s0-.11,0-.12-.08,0-.14-.06,0,0,0,0l-.09,0s0-.11.06-.07c-.12-.14-.26,0-.29-.1h0c-.22,0-.05.12-.24.25l0-.38,0,.14a.08.08,0,0,1,0-.1c-.1.09,0,.07-.07.16-.07-.17-.29,0-.25-.28-.07.12.07.13-.06.19,0-.32-.14,0-.19-.15s.13,0,.07-.22c-.12.27-.16-.13-.25-.1-.06.25-.19.05-.34.09,0-.09-.21-.22-.31-.36l0-.05c-.09.29-.2.2-.31.25a.64.64,0,0,1,.14-.34l-.08,0c0,.09-.08.14-.14.16l.06-.24c-.11,0-.28.23-.39,0-.06.25,0,.71-.21.86a1.14,1.14,0,0,1,.11-.42s-.07.1-.08,0l.1-.22c0-.12-.07.19-.12.15s0-.15,0-.3,0,.09.06,0a.56.56,0,0,1-.1-.35c0,.12,0,.27-.1.28s0-.25,0-.38c0,.14-.1,0-.16.28,0,0,0-.16,0-.25-.08.12-.28-.05-.28.32l0,0h0c-.25.29-.37-.29-.59-.2l0-.12c-.14.11-.27,0-.39.27,0,0,0-.25,0-.4-.1.08-.13.22-.23,0,.12-.21,0-.21.11-.15-.09-.13-.09-.35-.27,0,.09-.33,0-.45-.09-.36l0,.26c-.07,0-.12,0-.17,0l.1-.45c-.16-.63-.56.87-.62-.14-.1.32.1.26,0,.64-.1-.08-.12-.81-.16-.82-.11-.31-.23.69-.36.47a1.63,1.63,0,0,1-.18.81,1.54,1.54,0,0,1,0-.92s0,0,0,.12a.41.41,0,0,0,.08-.33l0,.17c0-.19-.19-.21-.11-.5a.37.37,0,0,0,0,.4c-.11-.3-.22-.06-.34-.27,0,.11,0,.33,0,.32-.18-.28-.13.34-.28.4,0-.31.1-.69-.07-.48a1.1,1.1,0,0,1,.09-.66c-.18.34-.23-.3-.3-.39l.09-.14c-.05.08-.09.07-.12.06v.4a.33.33,0,0,1-.06-.25,7,7,0,0,1-.15,1c0-.21-.19.19-.15-.34.15.21,0-.53.18-.59,0,.06-.07,0-.1,0a.31.31,0,0,1,0-.13c-.12-.51-.13.58-.31.54,0-.3,0-.58,0-.52s0,.51-.1.73c-.09-.25-.13.16-.19.12l.06.12c-.05.3-.1.26-.19.34,0-.24.09-.15.07-.26-.13.53-.15-.59-.3-.24,0-.22,0-.59,0-.74-.17.39-.11-.45-.28-.14a1.3,1.3,0,0,1-.11.73l.25-.27-.19.6c.07,0,.17-.25.2-.17a1.14,1.14,0,0,0-.08.58c0-.64-.21.35-.29-.09l.08-1.05c-.13-.5-.33.49-.53.2l.06.2c-.06.42-.14,0-.22.2a3.9,3.9,0,0,0,0-.72c0,.27-.16-.05-.23.67l-.06-.49c-.17-.22-.26,1-.42.88a3.82,3.82,0,0,1,.14-.94c-.06,0-.11-.09-.12.17,0-.24-.18.49-.22.13,0,.16-.06.55-.12.52s0-.19,0-.19a1.94,1.94,0,0,0-.07.67c-.12-1.18-.49.06-.59-1a1,1,0,0,1-.39.25c0-.11,0-.19,0-.15-.14-.36-.13,1.1-.29.69-.07-.62.1-.33.06-.57,0-1.27-.22.16-.32-.59l0-.07c-.08-.44-.23.47-.37.37a1.09,1.09,0,0,0,0-.19,1.74,1.74,0,0,1-.45,1,2.83,2.83,0,0,0,0-.77c-.06.07,0,.82-.12,1a6,6,0,0,1-.13-1.07l.12,0c0-.71-.15,0-.22-.1l0-.31c-.19.1-.2.88-.39.83l0,.23c-.11.78-.09-.44-.2.14l0-.79a5,5,0,0,1-.37.91,6.2,6.2,0,0,1,.31-1.23c-.07,0-.24.06-.28.45,0-.08.07-.27.09-.15-.08.62-.19.93-.33.92,0-1.54-.37-.39-.48-1.58-.24.57-.5-.23-.79-.14.13,1.19-.09,0,0,1.26-.07.08-.09.06-.1,0l-.22-.72c-.06-.35.06-.27,0-.54-.15-.08-.07-.51-.18-.83,0,.44,0,.63-.13.47l.14.55c-.19.66-.21-1-.4-.35l.05-.39c-.1.23-.4,0-.46,1a1.35,1.35,0,0,1,0-.56c-.27-.12-.53,1.07-.75.5v-.3c0,.09,0,.56-.13.27,0-.12,0-.29,0-.31s-.1.52-.17.36l0-.33c-.27-.35-.34.82-.53,1a1.78,1.78,0,0,0-.38-1.21v-.11c-.3-.06-.45.75-.69,1.11-.23-.86-.59-.29-.89-.73a1.82,1.82,0,0,1,0,.7c-.07-.15-.12.57-.17-.15h0c-.11-.69-.22-.48-.32-.48l.06.93c-.38-1.28-.63.6-.88-.54,0,.24-.12.25-.16.48l0-.46a.37.37,0,0,0-.48,0v-.34c-.13,0,0,1.35-.12,1.39l-.11-.66c-.2.05-.48-.46-.62.18a.76.76,0,0,1,0-.31c-.1,0-.44-.31-.29.53-.08-.55-.23,0-.31.27l0-.4c0,.53,0,.67-.13.84,0-.05-.07-.31,0-.22-.13-.18,0,.38-.19.21l0-.26c-.12,0-.09.13-.11.42s-.22-.05-.28-.38c0,.21,0,.49-.08.41a.54.54,0,0,1,0-.25c-.21-.2-.21.48-.38.17a1,1,0,0,0,0-.2c.14,0,.26-.05.25,0,0-.33-.17-.35-.14-.84-.06.29-.14.86-.27.75l0-.11v0s0,0-.06.08-.07-.07-.1-.07c-.06-.25-.16-.09-.21-.08.05.33,0,.3.08.55,0,0,0-.05,0-.07a.05.05,0,0,0,0,0v0l.14-.06c0,.18,0,.33-.14.17,0,.22,0,.44,0,.55-.15-.44-.34-.64-.41-.9-.14.24-.38.26-.4.84,0,.08-.08-.14-.12-.22s.06-.07.06-.15c-.07.17-.28.15-.24.52-.15-.13,0-.36-.15-.24v-.12c-.22-.22-.31.06-.42.29s-.22.41-.46.18a.12.12,0,0,1,.06.08c-.46-.09-.83.45-1.29.3-.13,0-.12.11-.17.22l-.06-.13-.09.19c-.15.14-.35-.15-.53.1l0,0c-.08,0-.24.11-.24.06a0,0,0,0,1,0,0v0a.57.57,0,0,1-.18.12c-.14,0,0-.09-.2,0l-.19.11.09,0-.07,0s-.08,0,.12,0h.13l0,0h-.11a.27.27,0,0,0,.15,0l.06,0a.33.33,0,0,0,.12-.05s0,.05,0,.08-.07-.07,0-.09.07.07.14,0,0,0,0,.05.18,0,.2-.06.23,0,.25.13c0,0,.1-.11.16-.11-.08.18.23,0,.25.24,0-.19.29-.05.41-.17s0,.06,0,0,.13.11.19.17c0-.22.09-.26.13-.41.15.23,0,.28.07.49,0-.19.14-.17.07-.34a.63.63,0,0,1,.16.28c-.05-.32.06-.05.09-.25.14.17.09.32.19.22A.19.19,0,0,1,42.26,183Zm2.79-.67h0l-.06,0Zm.24,0a.2.2,0,0,0-.11,0c0-.12,0-.25,0-.24S45.24,182.25,45.29,182.35Zm-.87-2.3c0-.06,0,0,.07.07a.17.17,0,0,0-.06.06v-.13Z" style="fill:#41995d"/><path d="M44.42,180.51a0,0,0,0,1,0,0l0,.07v-.11Z" style="fill:#41995d"/><path d="M66.62,181h0v0Z" style="fill:#41995d"/><polygon points="48.7 183.15 48.69 183.03 48.68 183.14 48.7 183.15" style="fill:#41995d"/><path d="M67.77,182.18a.13.13,0,0,0,0,.06A.15.15,0,0,0,67.77,182.18Z" style="fill:#41995d"/><path d="M68.34,182.27l.06.08A.18.18,0,0,0,68.34,182.27Z" style="fill:#41995d"/><path d="M68.76,182.41l0-.08h0Z" style="fill:#41995d"/><path d="M61.71,182.72a0,0,0,0,0,0,0C61.64,182.83,61.67,182.8,61.71,182.72Z" style="fill:#41995d"/><path d="M63.89,181.72c0,.08-.07.15-.1.2S63.86,182,63.89,181.72Z" style="fill:#41995d"/><path d="M59.39,183.37h0Z" style="fill:#41995d"/><path d="M63.7,181.91c0,.08.06.07.09,0S63.74,181.84,63.7,181.91Z" style="fill:#41995d"/><polygon points="70.71 182.51 70.73 182.51 70.73 182.5 70.71 182.51" style="fill:#41995d"/><path d="M70.73,182.5h0Z" style="fill:#41995d"/><path d="M70.81,182.49h0Z" style="fill:#41995d"/><path d="M70.11,182.48l0,0Z" style="fill:#41995d"/><path d="M69.93,182.48s.09.08.15.06v0C70.05,182.56,70,182.42,69.93,182.48Z" style="fill:#41995d"/><path d="M69.33,181.75l.13.1c0-.07,0-.16,0-.15C69.36,181.46,69.51,181.84,69.33,181.75Z" style="fill:#41995d"/><path d="M68.91,181.49c.08,0,0-.11,0-.15S68.86,181.4,68.91,181.49Z" style="fill:#41995d"/><path d="M65.64,180.47l0-.33C65.62,180.17,65.67,180.27,65.64,180.47Z" style="fill:#41995d"/><polygon points="64.74 182.14 64.77 182.36 64.84 182.04 64.74 182.14" style="fill:#41995d"/><polygon points="64.71 179.53 64.75 179.49 64.63 179.59 64.71 179.53" style="fill:#41995d"/><path d="M59,178.65v.61C59,179.15,59,178.47,59,178.65Z" style="fill:#41995d"/><path d="M56.44,179.15c0-.31-.09-.51-.14-.21C56.36,179,56.41,179.23,56.44,179.15Z" style="fill:#41995d"/><polygon points="48.93 178.77 48.96 178.57 48.88 178.75 48.93 178.77" style="fill:#41995d"/><path d="M81.22,169.88s6.26-2.17,12.32,0" style="fill:url(#Degradado_sin_nombre_5)"/><path d="M142.34,156.66h0Z" style="fill:#41995d"/><path d="M142.2,156.61s-.07,0-.07.07l.09-.05a0,0,0,0,1,0,0h.05a.18.18,0,0,0-.11,0Z" style="fill:#41995d"/><path d="M140.31,155.42v0Z" style="fill:#41995d"/><path d="M139.06,154.66a.25.25,0,0,0,0-.1A.3.3,0,0,0,139.06,154.66Z" style="fill:#41995d"/><path d="M138.93,154v.05C138.94,154,138.94,154,138.93,154Z" style="fill:#41995d"/><path d="M140.31,155.42v-.13C140.27,155.41,140.3,155.39,140.31,155.42Z" style="fill:#41995d"/><path d="M141.84,156.73s0,0,0,0l0,0Z" style="fill:#41995d"/><path d="M140.93,155.46h0l0-.11Z" style="fill:#41995d"/><path d="M141.34,155.7s-.07.17-.1.25,0-.11.06-.11Z" style="fill:#41995d"/><path d="M141.87,156.38h0Z" style="fill:#41995d"/><path d="M140.65,155.21l0-.1Z" style="fill:#41995d"/><path d="M128.19,156.89h0Z" style="fill:#41995d"/><polygon points="127.56 156.66 127.57 156.66 127.57 156.65 127.56 156.66" style="fill:#41995d"/><path d="M138.59,153.24h0C138.61,153.2,138.61,153.21,138.59,153.24Z" style="fill:#41995d"/><path d="M134.36,153c.06.5-.05.65,0,1.2A10.27,10.27,0,0,0,134.36,153Z" style="fill:#41995d"/><path d="M141.83,156.72h0Z" style="fill:#41995d"/><path d="M134.4,154.2h0v0Z" style="fill:#41995d"/><path d="M137.52,153.2v0Z" style="fill:#41995d"/><path d="M138.2,154.12v-.07S138.19,154.11,138.2,154.12Z" style="fill:#41995d"/><path d="M137.05,153.85s0-.12,0,0v.07C137,153.8,137.05,153.76,137.05,153.85Z" style="fill:#41995d"/><path d="M136.64,153.8v.11l0,0Z" style="fill:#41995d"/><path d="M129.45,157.16l-.08-.22C129.43,157.11,129.38,157.16,129.45,157.16Z" style="fill:#41995d"/><path d="M141.86,156.69l0,0h0A0,0,0,0,1,141.86,156.69Z" style="fill:#41995d"/><path d="M136.7,158l0-.07S136.68,158,136.7,158Z" style="fill:#41995d"/><path d="M132.17,157.5v.06S132.17,157.56,132.17,157.5Z" style="fill:#41995d"/><path d="M136.49,158.06a3.25,3.25,0,0,0,0-.37v.14Z" style="fill:#41995d"/><path d="M129.37,156.93h0Z" style="fill:#41995d"/><path d="M129.09,157.34c.06,0-.05-.24-.08-.39s.09.2.16.34c0,0,0-.3,0-.28a.42.42,0,0,1,0,.12c0-.22.14,0,.11-.27l0,.07c-.05-.15-.1-.31-.13-.43s0-.2.06,0c0,0,0,.08,0,.14v-.09c.11.3,0,.1.05.32,0-.08,0-.35.09-.26.09.32-.07.1.06.38l-.1-.12c.18.48,0,0,.14.47.11.12.05-.13.17,0,0-.18-.08-.27-.11-.45s.32.86.29.42c0-.22-.14-.67,0-.43l.08.4c.09.06-.1-.58.05-.29s0,.13,0,.18c.14.34,0-.23,0-.23l.1.38c.08,0,.1-.32.18-.39a1.89,1.89,0,0,0,.09.38c.07-.19.26.07.44.38l0-.39a1.46,1.46,0,0,1,.06.26c.07.16-.05-.25-.07-.4s.09.23.1.35c0-.32.06-.74.23-.28v.13c.1.18-.1-.87,0-.47V157c.18.21.25-.22.48.49-.1-.67.19.31,0-.63a8.53,8.53,0,0,0,.33,1s-.06-.6,0-.71l.08.52,0-.54.12.62v-.13a1.93,1.93,0,0,1-.08-.38c0-.24.18.36.22.64l.06-.44c0,.21,0,.29,0,.42,0-.54.09.57.08.07,0-.12,0-.32-.06-.43.08.33.14.34.18.2l0,.38c.1.11.16-.16.26-.14a4.35,4.35,0,0,1-.11-.92l.08.59c0-.36,0-.22-.07-.67a3.94,3.94,0,0,1,.11.87l0-.2c0,.17,0,.27.05.5,0-.37.15.6.1,0l0,.18c.1,0,.12-.19.2-.22a6.28,6.28,0,0,1,0-.83c.08.16.18.59.25.54,0-.26,0-.45,0-.77a6.6,6.6,0,0,1,.1.8c.08-.08.1-.09.18-.49a2.9,2.9,0,0,1-.05-.47c0-.08.06.21.07.45v.05c.08-.75.38,1.47.41.42v.06l.07-.55c0,.08,0,.38,0,.69.06-.85.17.12.23-.44.12,1.5.24-.11.36.86l0-.36c0-.35,0,.2,0,.29,0-.28,0-.32,0-.52.2-.43.42.52.61.83.06.08.06-1.84.14-1l0,.66c.16-.79.29,0,.46-.65a2.63,2.63,0,0,1,0,.34c0,.47.11,0,.13-.36a5.21,5.21,0,0,1,0,.53c0,.28.11-.6.1-.13,0,.07,0,.15,0,.18,0-.22.09.05.1-.48,0,.25.12-.25.14.07.07-.6.08.27.15-.56-.07.86,0,.68.11.28,0,.25,0,.26,0,.62,0,0,.09-.18.12-.61,0,1,.22-.82.14.47a4.46,4.46,0,0,1,.44-1c-.1.81-.13.09-.22.94.14-.35.28-1,.36-.85a1.85,1.85,0,0,1-.08.49c.14-.34.19.05.34-.38a1.29,1.29,0,0,1-.05.21s0,.1.08-.24l0,.09a12.26,12.26,0,0,1,.26-1.32c-.17,1,.06.25-.17,1.5a3.28,3.28,0,0,0,.09-.46,1.9,1.9,0,0,1-.06.46c.09-.19.12-.56.18-.55,0,.17,0,.23-.08.42.08-.32.16-.63.19-.5s0,.23-.05.22.29-.82.34-.51a4.45,4.45,0,0,0-.1.8l.08-.18,0-.27s.16-.41.16-.22l-.07.23.1-.11v-.21c.11-.29.13-.71.17-.55s0,0,0,.34h0c.06-.17.12-.35.13-.21l-.14.71c.11-.45.13-.12.26-.59a4.21,4.21,0,0,0-.1.44l.09-.35a1.52,1.52,0,0,1-.06.39c0,.06.12-.67.14-.38a.55.55,0,0,1-.05.13c.05.15.2-.21.24,0-.09.49-.09.12-.16.54.12-.11.35-.59.42-.46v-.06c.18-.64,0,.33.13,0a2.36,2.36,0,0,0-.09.28c.05.11.18-.15.34-.32l-.06.15c0,.13.09.08.12.15a1.4,1.4,0,0,0,.11-.33c-.08.79.37-.37.32.25,0,0-.07.11-.06.11l.14-.12a.83.83,0,0,0,0-.28c.05-.12.11-.2.13-.19a1.14,1.14,0,0,0-.11.42l.06-.18c-.05.34.13-.39.13-.14l0,.09s.11-.16.13-.13c-.05.21-.06.09-.12.26.05,0,.21-.36.18-.16,0,0-.06,0-.1.1,0,.24,0,.18,0,.22h0l0,.1v-.06c.21-.47.14-.08.31-.35-.16.25-.07.15-.14.34a.29.29,0,0,1,0,.16c.09-.14,0,.11.15-.1,0,.06,0,0,0,.14.06,0,0-.09.05-.16s.09.19.27,0,.18-.19.27-.22-.06.11-.06.11.06.05.11,0a.12.12,0,0,0,0,.08s.06-.09.09,0,0,.07-.07.09l.15-.07s0,0-.07.07a.54.54,0,0,0,.17-.07l0,0s0,0,0,0-.06,0-.05,0h0c0-.11-.11,0-.17,0l.06-.1-.09.08s0-.11,0-.11,0,0,0-.06,0,0,0,0l-.05,0s0-.1,0-.07c0-.13-.14.06-.12-.08h0c-.11,0-.05.11-.18.24l.08-.36-.06.14s0,0,0-.09,0,.07-.07.15c0-.16-.15,0-.06-.25-.07.12,0,.12-.08.19.09-.31-.07,0-.06-.13s.07,0,.09-.22c-.13.27-.06-.11-.11-.08-.08.24-.11,0-.19.11s-.06-.21-.08-.34v-.05c-.1.29-.14.21-.2.25a1.08,1.08,0,0,1,.14-.33l0,0a.46.46,0,0,1-.1.17l.08-.24c-.06,0-.19.23-.21,0a3.47,3.47,0,0,1-.26.84,2.9,2.9,0,0,1,.13-.41s-.05.1-.05,0l.1-.22c0-.11-.07.18-.09.16a2.75,2.75,0,0,1,.07-.3s0,.09,0,0a.79.79,0,0,1,0-.34c0,.12-.07.27-.1.28s0-.25,0-.37c0,.14,0,0-.13.28,0,0,0-.16,0-.25-.07.13-.14,0-.2.33v0h0c-.17.29-.13-.27-.26-.17l0-.11c-.09.11-.14,0-.24.27a1.65,1.65,0,0,1,.06-.38c-.06.07-.1.21-.11,0s0-.2.08-.14c0-.14,0-.35-.13,0,.09-.32.05-.44,0-.35v.26s-.06,0-.08-.05l.11-.44c0-.62-.4.87-.29-.12-.1.32,0,.26-.09.63,0-.07,0-.79,0-.8,0-.31-.21.68-.25.47a3.19,3.19,0,0,1-.19.81,3.11,3.11,0,0,1,.14-.91s0,.05,0,.11a.78.78,0,0,0,.08-.33l0,.18c0-.19-.07-.2,0-.49a.73.73,0,0,0-.06.39c0-.29-.1-.05-.14-.25a1.32,1.32,0,0,1-.05.32c-.06-.27-.1.33-.18.39,0-.3.13-.68,0-.46a2.38,2.38,0,0,1,.11-.65c-.12.33-.08-.3-.11-.39l.06-.14c0,.08,0,.07-.06.06l0,.4a.66.66,0,0,1,0-.25c-.06.25-.08.66-.18,1,0-.21-.11.19,0-.34.06.21.07-.53.15-.58s0,0-.05,0a1.06,1.06,0,0,1,0-.14c0-.5-.12.58-.21.54.06-.29.07-.57,0-.51a2.25,2.25,0,0,1-.12.72c0-.25-.08.16-.1.13v.12c-.05.3-.07.25-.12.34,0-.24,0-.16.06-.26-.12.53,0-.58-.13-.24,0-.21.07-.58.07-.73-.12.39,0-.45-.13-.14a2.86,2.86,0,0,1-.12.73l.15-.27-.15.6s.11-.25.12-.17a2.2,2.2,0,0,0-.09.58c0-.64-.13.35-.13-.09l.12-1.05c0-.5-.21.5-.28.21v.2c-.06.42-.07,0-.12.21,0-.36,0-.5,0-.73,0,.27-.08,0-.16.68v-.49c-.07-.22-.19,1-.26.89a8.17,8.17,0,0,1,.12-.94s0-.09-.07.17c0-.24-.11.48-.11.13a2.67,2.67,0,0,1-.09.52l0-.19a3.83,3.83,0,0,0-.08.67c0-1.18-.23.06-.24-1-.07.12-.14.24-.2.26s0-.19,0-.15c-.06-.37-.1,1.1-.17.69,0-.63.06-.33.05-.57,0-1.27-.11.16-.14-.58l0-.08c0-.44-.13.47-.2.38v-.2a3.25,3.25,0,0,1-.24,1,6.57,6.57,0,0,0,0-.78c0,.07,0,.83-.08,1,0-.28-.05-.53,0-1.07l0,0c0-.71-.07,0-.1-.1v-.31c-.1.1-.11.88-.2.82v.24c-.06.77,0-.44-.1.14v-.79c0,.19-.12.76-.18.91a10.26,10.26,0,0,1,.15-1.23s-.12.06-.14.45c0-.08,0-.27.05-.15,0,.62-.1.92-.16.91,0-1.53-.18-.38-.25-1.57-.11.57-.26-.24-.4-.14.09,1.18,0,0,0,1.25,0,.08,0,.06,0,0l-.13-.71a3.15,3.15,0,0,1,0-.55,4.15,4.15,0,0,1-.12-.83c0,.44,0,.63,0,.47l.09.55c-.08.66-.14-1-.22-.36l0-.38c-.05.23-.21,0-.2,1a2.71,2.71,0,0,1,0-.55c-.15-.13-.22,1-.36.48V153c0,.09,0,.55-.05.26a2.57,2.57,0,0,0,0-.3c0,.1,0,.51-.07.35V153c-.16-.35-.12.82-.2,1a3.18,3.18,0,0,0-.26-1.2v-.12c-.16-.06-.18.75-.27,1.09-.18-.85-.32-.3-.51-.73a3.58,3.58,0,0,1,.07.69c-.06-.15,0,.56-.11-.15h0c-.12-.69-.16-.48-.21-.48l.12.92c-.32-1.28-.25.58-.5-.55,0,.23,0,.24,0,.47l-.07-.46c-.1-.09-.15-.12-.24,0l0-.33c-.07,0,.15,1.33.1,1.37l-.13-.66c-.1,0-.31-.46-.29.16a1.38,1.38,0,0,1,0-.31s-.26-.31-.08.52c-.11-.55-.11,0-.11.26l-.07-.4a3.47,3.47,0,0,1,0,.82s-.08-.31,0-.22c-.09-.18,0,.38-.06.2l0-.25c-.06,0,0,.12,0,.41s-.11-.06-.19-.38c0,.2.07.48,0,.39a1.12,1.12,0,0,1,0-.24c-.14-.19,0,.47-.16.15l-.06-.2c.07,0,.12,0,.12,0a5.51,5.51,0,0,1-.19-.83c0,.28.06.84,0,.72l0-.1v0s0,0,0,.07-.05-.07-.07-.07c-.06-.24-.09-.09-.11-.09a3.73,3.73,0,0,0,.12.54.13.13,0,0,1,0-.06s0,0,0,0v0l.06-.06c0,.18,0,.33,0,.16,0,.22.07.44.09.54-.14-.44-.27-.63-.34-.89a1.26,1.26,0,0,0-.07.8c0,.08-.06-.14-.09-.22a.65.65,0,0,0,0-.14c0,.16-.12.14,0,.49-.1-.12-.06-.34-.12-.24l0-.11c-.14-.22-.14,0-.15.27s0,.39-.2.15a.28.28,0,0,1,.05.08c-.25-.11-.33.39-.6.23-.06,0,0,.1,0,.2l0-.12v.17c-.05.12-.22-.16-.25.07l0,.05s-.1.09-.11,0,0,.05,0,0l0,0-.06.1c-.07,0,0-.08-.1,0a.42.42,0,0,1-.07.1l0,0,0,0,.07,0h.06l0,0h-.06s.06,0,.08,0l0,0,0,0s0,0,0,.07,0-.07,0-.08,0,.07.08,0,0,0,0,.05.09,0,.08,0,.11,0,.16.14c0,0,0-.1.05-.11,0,.18.12,0,.18.25,0-.17.13,0,.16-.14s0,.06,0,0a.83.83,0,0,1,.12.17,1,1,0,0,1,0-.38c.12.23.06.26.14.47-.06-.18,0-.16,0-.33a1.31,1.31,0,0,1,.14.29c-.09-.31,0,0,0-.24.1.17.11.31.14.22A.37.37,0,0,1,129.09,157.34Zm1.2-.52h0l0,0Zm.11,0h-.05a.86.86,0,0,1,0-.24A1.09,1.09,0,0,0,130.4,156.81Zm-.78-2.28c0-.06,0,0,0,.07a.08.08,0,0,0,0,.06v0Z" style="fill:#41995d"/><path d="M129.69,155s0,0,0,0l0,.06,0-.1Z" style="fill:#41995d"/><path d="M140.31,155.48h0v0Z" style="fill:#41995d"/><polygon points="132.08 157.73 132.06 157.61 132.07 157.71 132.08 157.73" style="fill:#41995d"/><path d="M140.65,156.56a.13.13,0,0,1,0,.06Z" style="fill:#41995d"/><path d="M140.91,156.62l0,.07S140.92,156.63,140.91,156.62Z" style="fill:#41995d"/><path d="M141.09,156.73l0-.08h0Z" style="fill:#41995d"/><path d="M137.76,157.34v0C137.72,157.45,137.74,157.42,137.76,157.34Z" style="fill:#41995d"/><path d="M138.87,156.28l-.07.2S138.83,156.52,138.87,156.28Z" style="fill:#41995d"/><polygon points="136.71 158.04 136.71 158.03 136.7 158.03 136.71 158.04" style="fill:#41995d"/><path d="M138.76,156.47c0,.08,0,.07,0,0S138.79,156.41,138.76,156.47Z" style="fill:#41995d"/><polygon points="142.05 156.7 142.06 156.7 142.06 156.7 142.05 156.7" style="fill:#41995d"/><path d="M142.06,156.7h0Z" style="fill:#41995d"/><path d="M142.11,156.68h0Z" style="fill:#41995d"/><path d="M141.75,156.71v0Z" style="fill:#41995d"/><path d="M141.66,156.72s0,.07.06.05l0,0S141.7,156.66,141.66,156.72Z" style="fill:#41995d"/><path d="M141.53,156.06l0,.09c0-.06,0-.15.06-.14C141.61,155.78,141.6,156.14,141.53,156.06Z" style="fill:#41995d"/><path d="M141.37,155.84s0-.1,0-.14S141.36,155.76,141.37,155.84Z" style="fill:#41995d"/><path d="M139.9,155l.09-.32S140,154.8,139.9,155Z" style="fill:#41995d"/><polygon points="139.22 156.66 139.19 156.88 139.28 156.56 139.22 156.66" style="fill:#41995d"/><polygon points="139.58 154.1 139.6 154.06 139.53 154.16 139.58 154.1" style="fill:#41995d"/><path d="M136.75,153.33l0,.61C136.74,153.83,136.79,153.15,136.75,153.33Z" style="fill:#41995d"/><path d="M135.48,153.85c0-.32,0-.52-.06-.21C135.44,153.68,135.47,153.93,135.48,153.85Z" style="fill:#41995d"/><polygon points="131.73 153.39 131.73 153.2 131.71 153.37 131.73 153.39" style="fill:#41995d"/></g><path id="arbusto" d="M199,147.45a2.4,2.4,0,0,0,2.4-2.4v-6.88c0-2.16-1.3-4.15-3.5-5.76-3.26-2.38-8.5-3.93-14.4-3.93a31.12,31.12,0,0,0-5.66.5c-1.36-6.77-6.8-11.82-13.31-11.82a12.11,12.11,0,0,0-4.34.79A26.6,26.6,0,0,0,134,93.54a25.29,25.29,0,0,0-3.39.23c-4-13.64-13.68-23.28-25-23.28-12.9,0-23.68,12.43-26.33,29a24.79,24.79,0,0,0-16.13-6c-13,0-23.71,10.1-25.51,23.24a13.56,13.56,0,0,0-19.87,12,12.94,12.94,0,0,0,.12,1.77,22.18,22.18,0,0,0-3.7-.3,20,20,0,0,0-9.35,2.16C1.85,134,0,136.29,0,138.85v8.6Z" style="fill:#80c341"/><g id="flor"><polygon id="petalos" points="69.37 124.78 71.27 128.09 69.37 131.39 65.55 131.39 63.65 134.7 59.83 134.7 57.92 131.39 54.1 131.39 52.19 128.09 54.1 124.78 52.19 121.48 54.1 118.17 57.92 118.17 59.83 114.86 63.65 114.86 65.55 118.17 69.37 118.17 71.27 121.48 69.37 124.78" style="fill:#d2e043"/><polygon id="centro" points="63.15 122.33 60.32 122.33 58.9 124.78 60.32 127.23 63.15 127.23 64.57 124.78 63.15 122.33" style="fill:#ebebeb"/></g><g id="flor-2" data-name="flor"><polygon id="petalos-2" data-name="petalos" points="121.79 107.42 123.69 110.72 121.79 114.03 117.97 114.03 116.07 117.34 112.25 117.34 110.34 114.03 106.52 114.03 104.61 110.72 106.52 107.42 104.61 104.12 106.52 100.81 110.34 100.81 112.25 97.5 116.07 97.5 117.97 100.81 121.79 100.81 123.69 104.12 121.79 107.42" style="fill:#d2e043"/><polygon id="centro-2" data-name="centro" points="115.57 104.97 112.74 104.97 111.32 107.42 112.74 109.87 115.57 109.87 116.99 107.42 115.57 104.97" style="fill:#ebebeb"/></g><g id="flor-3" data-name="flor"><polygon id="petalos-3" data-name="petalos" points="162.14 134.7 164.05 138 162.14 141.31 158.32 141.31 156.42 144.62 152.6 144.62 150.69 141.31 146.87 141.31 144.97 138 146.87 134.7 144.97 131.4 146.87 128.09 150.69 128.09 152.6 124.78 156.42 124.78 158.32 128.09 162.14 128.09 164.05 131.4 162.14 134.7" style="fill:#d2e043"/><polygon id="centro-3" data-name="centro" points="155.92 132.25 153.09 132.25 151.67 134.7 153.09 137.15 155.92 137.15 157.34 134.7 155.92 132.25" style="fill:#ebebeb"/></g></g></g></g></svg>
