<?xml version="1.0" encoding="utf-8"?>
<!-- Generator: Adobe Illustrator 24.0.1, SVG Export Plug-In . SVG Version: 6.00 Build 0)  -->
<svg version="1.1" id="arbustos_tableros" xmlns="http://www.w3.org/2000/svg" xmlns:xlink="http://www.w3.org/1999/xlink" x="0px"
	 y="0px" viewBox="0 0 202.2 156.4" style="enable-background:new 0 0 202.2 156.4;" xml:space="preserve">
<style type="text/css">
	.st0{fill:#41995D;}
	.st1{fill:url(#cesped_1_);}
	.st2{fill:#80C341;}
	.st3{fill:#EBEBEB;}
	.st4{fill:#D2E043;}
</style>
<g id="arbusto_platinum">
	<g id="suelo">
		<g id="monte">
			<g id="monte-2">
				<path class="st0" d="M59.2,92.6L59.2,92.6L59.2,92.6z"/>
				<path class="st0" d="M58.8,92.5c-0.1,0-0.2,0-0.1,0C58.7,92.5,58.8,92.5,58.8,92.5c0.1,0,0.2,0,0.1,0h0.1
					C59,92.5,58.9,92.5,58.8,92.5L58.8,92.5z"/>
				<path class="st0" d="M53,91L53,91z"/>
				<path class="st0" d="M49.4,90.2L49.4,90.2C49.4,90.2,49.4,90.2,49.4,90.2z"/>
				<path class="st0" d="M48.8,89.8L48.8,89.8C48.8,89.8,48.8,89.8,48.8,89.8z"/>
				<path class="st0" d="M53,91L53,91C52.9,91,53,91,53,91z"/>
				<path class="st0" d="M58,92.4L58,92.4z"/>
				<path class="st0" d="M54.6,91.2L54.6,91.2L54.6,91.2L54.6,91.2z"/>
				<path class="st0" d="M55.8,91.5c0,0,0,0.1-0.1,0.1s0,0,0.1,0C55.9,91.6,55.9,91.5,55.8,91.5z"/>
				<path class="st0" d="M57.7,92.2L57.7,92.2z"/>
				<path class="st0" d="M53.8,91L53.8,91z"/>
				<path class="st0" d="M18.9,92.5L18.9,92.5C18.9,92.5,18.9,92.5,18.9,92.5z"/>
				<polygon class="st0" points="17.5,92.6 17.5,92.6 17.5,92.6 				"/>
				<path class="st0" d="M47.6,89.3L47.6,89.3C47.6,89.3,47.7,89.3,47.6,89.3z"/>
				<path class="st0" d="M36.9,88.9c0.1,0.2-0.2,0.3,0,0.6C36.9,89.4,37,89.1,36.9,88.9z"/>
				<path class="st0" d="M57.9,92.4L57.9,92.4z"/>
				<path class="st0" d="M36.9,89.5L36.9,89.5L36.9,89.5z"/>
				<path class="st0" d="M44.9,89.2c0,0,0,0.1,0,0.1C44.9,89.2,44.9,89.2,44.9,89.2z"/>
				<path class="st0" d="M46.9,89.7L46.9,89.7C46.9,89.7,46.9,89.7,46.9,89.7z"/>
				<path class="st0" d="M43.9,89.4C43.9,89.4,43.9,89.4,43.9,89.4L43.9,89.4C43.8,89.4,43.8,89.4,43.9,89.4z"/>
				<path class="st0" d="M42.8,89.4L42.8,89.4L42.8,89.4L42.8,89.4z"/>
				<path class="st0" d="M22.2,92.2c0,0-0.1-0.1-0.1-0.2C22.1,92.1,22,92.2,22.2,92.2z"/>
				<path class="st0" d="M58,92.4L58,92.4L58,92.4z"/>
				<path class="st0" d="M43.7,91.5h-0.2C43.6,91.5,43.7,91.5,43.7,91.5z"/>
				<path class="st0" d="M29.8,91.5L29.8,91.5C29.8,91.5,29.8,91.6,29.8,91.5z"/>
				<path class="st0" d="M43.1,91.5c0-0.1,0-0.1-0.1-0.2c0,0,0,0,0,0.1L43.1,91.5z"/>
				<path class="st0" d="M22.1,92"/>
				<path class="st0" d="M21,92.4c0.2,0,0.1-0.1,0.1-0.2c0.2-0.1,0.1,0.1,0.2,0.2s0.2-0.2,0.3-0.2s0,0,0,0.1c0.1-0.1,0.4,0,0.5-0.2
					l0,0c0-0.1-0.1-0.1-0.1-0.2c0.1,0,0.1-0.1,0.2,0s0,0,0,0.1l0.1-0.1c0.1,0.2-0.1,0.1-0.1,0.2c0.1-0.1,0.3-0.2,0.4-0.2
					s-0.3,0.1-0.1,0.2h-0.2c0.2,0.2-0.1,0,0.1,0.2c0.2,0,0.3-0.1,0.5-0.1c0-0.1,0-0.1,0-0.2c0.3-0.2,0.3,0.4,0.5,0.2
					c0-0.1,0-0.3,0.2-0.3v0.2c0.2,0,0.1-0.3,0.3-0.2c0,0.1-0.2,0.1-0.1,0.1s0.1-0.1,0.2-0.1L24,92c0.2,0,0.5-0.2,0.7-0.3
					c0,0.1,0,0.1,0,0.2c0.3-0.1,0.7-0.1,1,0.1l0.1-0.2c0,0,0.1,0.1,0,0.1s0-0.1,0-0.2s0.1,0.1,0.1,0.2c0.2-0.2,0.6-0.4,0.8-0.2v0.1
					c0.2,0.1,0.1-0.5,0.3-0.3l0,0c0.4,0.1,0.8-0.2,1.1,0.1c0-0.3,0.4,0.1,0.4-0.3c0.3,0.2,0.2,0.3,0.5,0.5c0.1,0,0.1-0.3,0.2-0.4
					v0.3l0.1-0.3l0.1,0.3l0.1-0.1c0,0-0.1-0.1-0.1-0.2s0.4,0.2,0.4,0.3l0.3-0.3c0,0.1,0,0.2-0.1,0.2c0.2-0.3,0.1,0.3,0.2,0
					c0-0.1,0-0.2,0-0.2c0.1,0.1,0.3,0.2,0.4,0.1v0.2c0.3,0,0.6-0.1,0.9-0.1c-0.1-0.1-0.1-0.4,0-0.5l0.1,0.3c0-0.2-0.1-0.1,0-0.3
					c0.1,0,0.1,0.3,0,0.4l0.1-0.1c0,0.1,0,0.2,0,0.3c0-0.2,0.3,0.3,0.3,0v0.1c0.3,0,0.4-0.1,0.7-0.1c0-0.3,0.1-0.2,0.2-0.4
					c0.2,0.1,0.4,0.3,0.6,0.2s0-0.2,0.1-0.4c0,0.3,0.2,0.2,0.1,0.4c0.2,0,0.5-0.1,0.7-0.3c0-0.1-0.1-0.1-0.1-0.2s0.1,0.1,0.1,0.2
					l0,0c0.3-0.4,0.9,0.7,1.2,0.2l0,0L36,91c0.2,0-0.1,0.2,0,0.3c0.3-0.4,0.5,0,0.8-0.3c0.2,0.8,0.7,0,1,0.4v-0.2
					c0.1-0.2,0.1,0.1,0.2,0.1c0-0.1-0.1-0.2,0-0.3c0.6-0.2,1.3,0.3,1.9,0.4c0.2,0,0.1-0.9,0.4-0.5l-0.1,0.3c0.5-0.4,1,0,1.4-0.3
					c0,0.1,0,0.2-0.1,0.2c0.1,0.2,0.4,0,0.4-0.2c0.1,0,0,0.2,0,0.3s0.3-0.3,0.3-0.1c0,0,0,0.1,0,0.1s0.3,0,0.2-0.2
					c0.2,0.1,0.3-0.1,0.5,0c0.1-0.3,0.3,0.2,0.3-0.3c0,0.4,0.3,0.3,0.4,0.2c0,0.1,0.1,0.1,0,0.3c0.1,0,0.2-0.1,0.2-0.3
					c0.2,0.5,0.5-0.4,0.6,0.3c0.3-0.2,0.7-0.3,1.1-0.4c0,0.4-0.4,0-0.4,0.4c0.3-0.2,0.5-0.5,0.8-0.4c0.1,0.1-0.1,0.2-0.1,0.2
					c0.3-0.2,0.6,0.1,0.9-0.1c0,0,0,0.1-0.1,0.1s0.1,0.1,0.1-0.1l0,0c-0.1-0.3,0.3-0.5,0.3-0.7c-0.1,0.5,0.3,0.1,0,0.8
					c0.1-0.1,0.1-0.1,0.1-0.2c0,0,0.1,0.1,0,0.2c0.2-0.1,0.2-0.3,0.3-0.3c0,0.1,0,0.1-0.1,0.2c0.1-0.2,0.2-0.3,0.3-0.2
					c0,0,0,0.1,0,0.1c0.3,0,0.5-0.4,0.8-0.2c-0.1,0.3,0.1,0.1,0.1,0.4l0.2-0.1v-0.1c0.1,0,0.3-0.2,0.4-0.1l-0.1,0.1h0.3L49.3,91
					c0.2-0.1,0-0.4,0.2-0.3c0,0,0.1,0,0.2,0.2l0,0c0.1-0.1,0.2-0.2,0.3-0.1c0,0.1,0,0.2-0.1,0.4c0.1-0.2,0.3,0,0.4-0.3
					c0,0.1,0,0.1,0,0.2l0.1-0.2c0,0.1,0.1,0.1,0,0.2c0.2,0,0-0.3,0.2-0.2c0,0,0,0,0,0.1c0.2,0.1,0.4-0.1,0.6,0c0,0.3-0.2,0-0.2,0.3
					c0.3,0,0.7-0.2,0.9-0.1h0c0.1-0.3,0.2,0.2,0.3,0.1c0,0-0.1,0.2-0.1,0.1c0.2,0.1,0.4,0,0.7-0.1v0.1c0.1,0.1,0.3,0.1,0.4,0.1
					s0.1,0,0.1-0.2c0.3,0.4,0.8-0.1,1,0.3c0,0-0.1,0-0.1,0h0.3c0-0.1,0-0.1-0.1-0.2c0.1-0.1,0.1-0.1,0.2-0.1c-0.1,0,0,0.2,0,0.2
					s0-0.1,0-0.1c0.1,0.2,0.1-0.2,0.3,0l0,0c0.1,0,0.2-0.1,0.2,0s-0.1,0-0.1,0.1s0.3-0.2,0.3,0c-0.1,0-0.1,0-0.2,0
					c0.1,0.1,0.1,0.1,0.2,0.2l0,0l0.2,0.1l0,0c0.2-0.2,0.3,0,0.5-0.1c-0.2,0.1,0,0.1-0.1,0.2s0.1,0.1,0.1,0.1s0.2,0.1,0.3,0
					s0.1,0,0.1,0.1c0.1,0,0,0,0-0.1c0.2-0.1,0.4,0.2,0.7,0.1c0.2,0,0.3,0,0.5,0c0.1,0-0.1,0-0.1,0c0.1,0,0.2,0.1,0.3,0.1
					c0,0,0,0,0,0.1s0.1,0,0.2,0c0,0-0.1,0-0.1,0h0.3c0,0-0.1,0-0.1,0c0.1,0,0.2,0,0.4,0h-0.1l0,0c0,0-0.1,0-0.2,0h0.1
					c-0.1-0.1-0.3-0.1-0.5-0.1h0.1h-0.2c0,0,0-0.1,0,0c-0.1-0.1-0.1,0-0.2-0.1s0,0,0,0h-0.1c0,0,0-0.1,0.1,0c-0.2-0.1-0.3,0-0.4-0.1
					l0,0c-0.3,0,0,0.1-0.3,0.1L57,91.9V92c0,0-0.1,0-0.1,0s0,0-0.1,0.1s-0.4-0.1-0.4-0.2c-0.1,0.1,0.1,0.1,0,0.1
					c0-0.2-0.2,0-0.3-0.1s0.2,0,0-0.1c-0.1,0.1-0.2-0.1-0.3-0.1s-0.2,0-0.4,0c0,0-0.3-0.2-0.5-0.3l0,0c-0.1,0.1-0.2,0.1-0.3,0.1
					c0-0.1,0.1-0.1,0.1-0.2h-0.1c0,0-0.1,0.1-0.2,0.1l0-0.1c-0.2,0-0.3,0.1-0.5-0.1c0,0.1,0.1,0.4-0.1,0.4c0-0.1,0-0.2,0.1-0.2
					s-0.1,0.1-0.1,0l0.1-0.1c-0.1-0.1-0.1,0.1-0.1,0.1s0-0.1,0-0.2s0,0,0.1,0c-0.1,0-0.1-0.1-0.2-0.2c0,0.1,0,0.1-0.1,0.1
					s0-0.1-0.1-0.2s-0.1,0-0.2,0.1c0,0,0-0.1,0-0.1s-0.4-0.1-0.3,0.1l0,0c-0.3,0.1-0.5-0.2-0.8-0.2v-0.1c-0.2,0-0.3,0-0.5,0.1
					s-0.1-0.1-0.1-0.2s-0.2,0.1-0.3,0c0.1-0.1,0-0.1,0.1-0.1c-0.1-0.1-0.2-0.2-0.3,0c0-0.1,0-0.1,0-0.2c0,0-0.1,0-0.1,0l0.1,0.1
					c-0.1,0-0.2,0-0.2,0l0.1-0.2c-0.3-0.3-0.6,0.4-0.8-0.1c-0.1,0.2,0.2,0.2,0,0.3c-0.1,0-0.2-0.4-0.3-0.4c-0.2-0.2-0.2,0.3-0.4,0.2
					c0,0.1,0,0.3-0.2,0.4s-0.1-0.4,0-0.5s0,0,0,0.1s0.1,0,0.1-0.2v0.1c-0.1-0.1-0.3-0.1-0.2-0.3c-0.1,0.1-0.1,0.1,0,0.2
					c-0.2-0.2-0.3,0-0.5-0.2c0,0,0,0.2,0,0.2c-0.3-0.2-0.1,0.2-0.3,0.2c-0.1-0.2,0.1-0.3-0.1-0.3c-0.1-0.1,0-0.3,0-0.3
					c-0.2,0.2-0.3-0.2-0.4-0.2l0.1-0.1c0,0-0.1,0-0.2,0v0.2c0,0-0.1-0.1-0.1-0.1c-0.1,0.1,0,0.3-0.1,0.5c-0.1-0.1-0.2,0.1-0.2-0.2
					c0.2,0.1,0-0.3,0.2-0.3c0,0-0.1,0-0.1,0 M47.5,89.5c-0.2-0.3-0.1,0.3-0.3,0.3c0-0.2,0-0.3-0.1-0.3s0,0.3-0.1,0.4
					c-0.1-0.1-0.2,0.1-0.2,0l0.1,0.1c0,0.2-0.1,0.1-0.2,0.2c0-0.1,0.1-0.1,0.1-0.1c-0.1,0.3-0.2-0.3-0.4-0.1c-0.1-0.1,0-0.3,0-0.4
					c-0.2,0.2-0.2-0.2-0.4-0.1c0,0.2,0,0.2-0.1,0.4l0.3-0.1L46,89.9c0.1,0,0.2-0.1,0.3-0.1c-0.1,0.2-0.1,0.1-0.1,0.3
					c-0.1-0.3-0.3,0.2-0.4-0.1v-0.5c-0.2-0.3-0.4,0.2-0.7,0.1l0.1,0.1c0,0.2-0.2,0-0.3,0.1c0-0.1,0-0.3-0.1-0.4c0,0.1-0.2,0-0.3,0.3
					l-0.1-0.3c-0.2-0.1-0.3,0.5-0.5,0.4c0.1-0.2,0-0.3,0.1-0.5c-0.1,0-0.1-0.1-0.1,0.1c0-0.1-0.2,0.2-0.3,0.1c0,0.1,0,0.3-0.1,0.3
					c0,0,0-0.1,0-0.1c0,0.1-0.1,0.1-0.1,0.3c-0.2-0.6-0.6,0-0.8-0.5c-0.2,0.1-0.3,0.1-0.5,0.1c0-0.1,0-0.1,0-0.1
					c-0.2-0.2-0.1,0.5-0.3,0.3s0.1-0.2,0-0.3c0-0.6-0.3,0.1-0.4-0.3l0,0c-0.1-0.2-0.3,0.2-0.5,0.2c0,0,0-0.1,0-0.1
					c-0.1,0.2-0.3,0.4-0.6,0.5c0.1-0.3,0.1-0.1,0-0.4c-0.1,0,0,0.4-0.1,0.5c-0.1-0.2-0.2-0.3-0.2-0.5h0.2c-0.1-0.4-0.2,0-0.3,0v-0.4
					c-0.2,0.1-0.2,0.4-0.5,0.4v0.1c-0.1,0.4-0.1-0.2-0.3,0.1v-0.4c-0.1,0.2-0.3,0.3-0.5,0.5c0.1-0.2,0.2-0.4,0.4-0.6
					c-0.1,0-0.3,0-0.3,0.2c0,0,0.1-0.1,0.1-0.1c-0.1,0.3-0.3,0.5-0.4,0.5c0-0.8-0.5-0.2-0.6-0.8c-0.3,0.3-0.6-0.1-1-0.1
					c0.2,0.6-0.1,0-0.1,0.6c-0.1,0-0.1,0-0.1,0l-0.3-0.3c-0.1-0.2,0.1-0.1,0.1-0.3c-0.2,0-0.1-0.3-0.2-0.4c0,0.2-0.1,0.3-0.2,0.2
					l0.2,0.3c-0.3,0.3-0.2-0.5-0.5-0.2l0.1-0.2c-0.1,0.1-0.5,0-0.6,0.5c0-0.1-0.1-0.2,0-0.3c-0.3,0-0.7,0.6-1,0.3V89
					c-0.1,0-0.1,0.3-0.2,0.1s0-0.2,0-0.2s-0.2,0.3-0.2,0.2l0.1-0.2c-0.3-0.2-0.5,0.4-0.7,0.5c0-0.3-0.2-0.5-0.4-0.6v-0.1
					c-0.4,0-0.6,0.4-0.9,0.6c-0.3-0.4-0.7-0.1-1.1-0.3c0.1,0.1,0,0.3,0,0.3s-0.2,0.3-0.2-0.1l0,0c-0.1-0.3-0.3-0.2-0.4-0.2v0.5
					c-0.4-0.6-0.9,0.4-1.1-0.2c-0.1,0.1-0.2,0.1-0.2,0.3v-0.2c-0.2,0-0.4,0-0.6,0.1v-0.2c-0.2,0-0.1,0.7-0.3,0.7l0.2-0.3
					c-0.3,0.1-0.6-0.2-0.8,0.2c0-0.1,0-0.1,0-0.2c-0.1,0-0.5-0.1-0.4,0.3c0-0.3-0.3,0-0.4,0.2v-0.2c-0.1,0.3-0.1,0.3-0.3,0.4
					s-0.1-0.2,0-0.1c-0.1-0.1-0.1,0.2-0.3,0.1l0-0.1c-0.1,0-0.1,0.1-0.2,0.2s-0.3,0-0.3-0.2c0,0.1-0.1,0.3-0.1,0.2c0,0,0-0.1,0-0.1
					c-0.3-0.1-0.3,0.3-0.5,0.1c0,0,0-0.1,0-0.1c0.2,0,0.3-0.1,0.3,0c0-0.2-0.2-0.2-0.1-0.4c-0.1,0.2-0.3,0.5-0.4,0.4l0,0l0,0
					c0,0-0.1,0-0.1,0c0,0-0.1,0-0.1,0c0-0.1-0.2,0-0.3,0s-0.1,0.2,0,0.3s0,0,0,0s0,0,0,0l0,0l0.2-0.1c0,0.1-0.1,0.2-0.2,0.1
					l-0.1,0.3c-0.1-0.2-0.4-0.3-0.4-0.4C23.5,91,23.1,91,23,91.3c-0.1,0-0.1-0.1-0.1-0.1S23,91,23,91c-0.1,0.1-0.4,0.1-0.4,0.3
					c-0.2,0,0.1-0.2-0.2-0.1v-0.1c-0.5-0.2-0.6,0.6-1.2,0.4c0,0,0,0,0.1,0c-0.6,0-1.1,0.4-1.7,0.4c-0.2,0-0.2,0.1-0.3,0.2V92
					l-0.1,0.1c-0.2,0.1-0.4,0-0.7,0.2l0,0c-0.1,0-0.3,0.1-0.3,0.1s0,0-0.1,0l0,0l-0.3,0.1c-0.2,0.1,0,0-0.3,0.1l-0.3,0.1h0.1h-0.1
					h0.1h0.2h0.1h-0.1c0.1,0,0.1,0,0.2,0H18l0.2-0.1c0,0-0.1,0,0,0s-0.1,0,0-0.1s0.1,0,0.2,0s0,0,0,0c0.1,0,0.2,0,0.3-0.1
					c0.1,0,0.3,0,0.3,0c0.1,0,0.1-0.1,0.2-0.1c-0.1,0.1,0.3,0,0.3,0.1c0.1-0.1,0.4-0.1,0.5-0.2l0,0c0.1,0,0.2,0,0.2,0.1
					c0-0.1,0.1-0.2,0.2-0.2c0.1,0.1,0,0.2,0,0.3c0-0.1,0.2-0.1,0.1-0.2c0.1,0.1,0.1,0,0.2,0.1c0-0.2,0.1,0,0.1-0.1
					c0.2,0.1,0.1,0.2,0.2,0.1S21,92.4,21,92.4L47.5,89.5z M24.7,91.7L24.7,91.7L24.7,91.7L24.7,91.7z M25,91.7h-0.1
					c0-0.1,0-0.1,0-0.1S25,91.6,25,91.7L25,91.7z M24.2,90.6C24.2,90.6,24.2,90.6,24.2,90.6L24.2,90.6L24.2,90.6
					C24.2,90.6,24.2,90.5,24.2,90.6L24.2,90.6z"/>
				<path class="st0" d="M24.1,90.8L24.1,90.8L24.1,90.8L24.1,90.8L24.1,90.8z"/>
				<path class="st0" d="M53,91L53,91L53,91z"/>
				<polygon class="st0" points="29.5,91.7 29.5,91.6 29.4,91.7 				"/>
				<path class="st0" d="M54.7,91.8L54.7,91.8L54.7,91.8z"/>
				<path class="st0" d="M55.4,91.9L55.4,91.9L55.4,91.9z"/>
				<path class="st0" d="M56,92.1L56,92.1L56,92.1z"/>
				<path class="st0" d="M46.8,91.3L46.8,91.3C46.7,91.4,46.8,91.4,46.8,91.3z"/>
				<path class="st0" d="M49.6,91L49.6,91C49.5,91.1,49.6,91.2,49.6,91z"/>
				<polygon class="st0" points="43.7,91.5 43.7,91.5 43.7,91.5 				"/>
				<path class="st0" d="M49.4,91.1c0,0,0.1,0,0.1,0C49.5,91.1,49.4,91.1,49.4,91.1z"/>
				<polygon class="st0" points="58.5,92.5 58.5,92.5 58.5,92.5 				"/>
				<path class="st0" d="M58.5,92.5L58.5,92.5z"/>
				<path class="st0" d="M58.6,92.5L58.6,92.5z"/>
				<path class="st0" d="M57.7,92.4L57.7,92.4C57.7,92.4,57.7,92.4,57.7,92.4z"/>
				<path class="st0" d="M57.5,92.3c0.1,0,0.1,0,0.2,0.1l0,0C57.7,92.4,57.5,92.3,57.5,92.3z"/>
				<path class="st0" d="M56.6,91.8l0.2,0.1c0,0-0.1-0.1,0-0.1C56.6,91.7,56.8,91.9,56.6,91.8z"/>
				<path class="st0" d="M56,91.6C56.1,91.6,56,91.6,56,91.6C56,91.5,56,91.6,56,91.6z"/>
				<path class="st0" d="M51.7,90.6v-0.2C51.7,90.4,51.7,90.5,51.7,90.6z"/>
				<polygon class="st0" points="50.8,91.3 50.8,91.5 50.9,91.3 				"/>
				<polygon class="st0" points="50.4,90 50.5,90 50.3,90 				"/>
				<path class="st0" d="M43,89.1v0.3C43.1,89.4,43.1,89.1,43,89.1z"/>
				<path class="st0" d="M39.8,89.3c0-0.2-0.1-0.3-0.2-0.1S39.7,89.4,39.8,89.3z"/>
				<polygon class="st0" points="30.1,89.4 30.1,89.3 30,89.4 				"/>
			</g>
			<g id="monte-3">
				<path class="st0" d="M76.5,107.7L76.5,107.7z"/>
				<path class="st0" d="M76.3,107.7C76.3,107.7,76.2,107.7,76.3,107.7C76.2,107.6,76.3,107.6,76.3,107.7L76.3,107.7L76.3,107.7
					C76.3,107.6,76.3,107.6,76.3,107.7L76.3,107.7z"/>
				<path class="st0" d="M73.1,106.7L73.1,106.7L73.1,106.7z"/>
				<path class="st0" d="M71.1,106.1L71.1,106.1L71.1,106.1z"/>
				<path class="st0" d="M70.8,105.8L70.8,105.8C70.8,105.8,70.8,105.8,70.8,105.8z"/>
				<path class="st0" d="M73.1,106.7L73.1,106.7C73,106.7,73.1,106.7,73.1,106.7z"/>
				<path class="st0" d="M75.8,107.7L75.8,107.7z"/>
				<path class="st0" d="M74,106.8L74,106.8L74,106.8L74,106.8z"/>
				<path class="st0" d="M74.7,107c0,0-0.1,0.1-0.1,0.1s0,0,0,0C74.6,107.1,74.6,107,74.7,107z"/>
				<path class="st0" d="M75.7,107.4L75.7,107.4z"/>
				<path class="st0" d="M73.5,106.6L73.5,106.6z"/>
				<path class="st0" d="M54.3,107.7"/>
				<polygon class="st0" points="53.4,107.7 53.5,107.7 53.5,107.7 				"/>
				<path class="st0" d="M70.2,105.4L70.2,105.4C70.2,105.4,70.2,105.3,70.2,105.4z"/>
				<path class="st0" d="M64.2,105.2c0.1,0.2-0.1,0.3,0,0.6C64.2,105.6,64.2,105.3,64.2,105.2z"/>
				<path class="st0" d="M75.8,107.7L75.8,107.7z"/>
				<path class="st0" d="M64.2,105.7L64.2,105.7L64.2,105.7z"/>
				<path class="st0" d="M68.7,105.3c0,0,0,0.1,0,0.1C68.7,105.4,68.7,105.3,68.7,105.3z"/>
				<path class="st0" d="M69.7,105.8L69.7,105.8z"/>
				<path class="st0" d="M68.1,105.6C68.1,105.6,68.1,105.5,68.1,105.6L68.1,105.6C68.1,105.6,68,105.6,68.1,105.6z"/>
				<path class="st0" d="M67.4,105.6L67.4,105.6L67.4,105.6L67.4,105.6z"/>
				<path class="st0" d="M56.1,107.7c0,0,0-0.1,0-0.1C56.1,107.7,56,107.7,56.1,107.7z"/>
				<path class="st0" d="M75.8,107.6L75.8,107.6L75.8,107.6z"/>
				<path class="st0" d="M67.9,107.7L67.9,107.7C67.8,107.7,67.9,107.7,67.9,107.7z"/>
				<path class="st0" d="M60.3,107.5L60.3,107.5C60.3,107.5,60.3,107.6,60.3,107.5z"/>
				<path class="st0" d="M67.6,107.7c0-0.1,0-0.1,0-0.2v0.1V107.7z"/>
				<path class="st0" d="M56,107.6"/>
				<path class="st0" d="M55.5,107.8c0.1,0,0-0.1,0-0.2s0.1,0.1,0.1,0.2s0.1-0.2,0.1-0.2c0,0,0,0,0,0.1c0-0.1,0.2,0,0.3-0.2l0,0
					c0-0.1,0-0.1,0-0.2c0,0,0-0.1,0.1,0s0,0,0,0.1l0,0c0.1,0.2,0,0.1,0,0.2c0.1,0,0.1-0.2,0.2-0.2s-0.1,0.1,0,0.2l-0.1-0.1
					c0.1,0.2-0.1,0,0,0.2c0.1,0,0.1-0.1,0.3,0s0-0.1,0-0.2s0.2,0.4,0.3,0.2s0-0.3,0.1-0.2v0.2c0.1,0,0-0.3,0.2-0.2
					c0,0.1-0.1,0.1-0.1,0.1c0.1,0.2,0-0.1,0.1-0.1v0.2c0.1,0,0.3-0.2,0.4-0.2c0,0.1,0,0.1,0,0.2c0.2-0.1,0.4,0,0.6,0.2v-0.2
					c0,0,0,0.1,0,0.1s0-0.1,0-0.2s0.1,0.1,0,0.2c0.1-0.2,0.3-0.4,0.5-0.2v0.1c0.1,0.1,0-0.4,0.2-0.3l0,0c0.2,0.1,0.4-0.1,0.7,0.2
					c0-0.3,0.2,0.2,0.2-0.3c0.2,0.2,0.1,0.3,0.3,0.5s0-0.3,0.1-0.4v0.3v-0.3l0.1,0.3l0-0.1c0-0.1-0.1-0.1-0.1-0.2
					c0.1-0.1,0.2,0.2,0.2,0.3l0.2-0.2c0,0.1,0,0.2,0,0.2c0.1-0.3,0,0.3,0.1,0c0-0.1,0-0.1,0-0.2c0.1,0.2,0.2,0.2,0.3,0.1v0.2
					c0.2,0,0.3-0.1,0.5-0.1c-0.1-0.1-0.1-0.3,0-0.5v0.3c0-0.2,0-0.1,0-0.3c0.1,0,0.1,0.3,0,0.4l0.1-0.1c0,0.1,0,0.2,0,0.3
					c0-0.2,0.2,0.3,0.2,0v0.1c0.2,0,0.2-0.1,0.4-0.1c0-0.3,0-0.2,0.1-0.4c0.1,0.1,0.2,0.3,0.3,0.3s0-0.2,0-0.4
					c0,0.2,0.1,0.2,0.1,0.4c0.1,0,0.2-0.1,0.3-0.3c0-0.1,0-0.2,0-0.2c0,0,0.1,0.1,0.1,0.2l0,0c0.2-0.4,0.5,0.7,0.6,0.2l0,0l0.2-0.3
					c0.1,0.1,0,0.2,0,0.3c0.2-0.4,0.3,0.1,0.4-0.2c0.1,0.8,0.4,0,0.6,0.4v-0.2c0-0.2,0,0.1,0.1,0.1c0-0.1,0-0.2,0-0.3
					c0.3-0.2,0.7,0.3,1,0.4c0.1,0,0.1-0.9,0.2-0.5v0.3c0.3-0.4,0.5,0,0.8-0.3c0,0.1,0,0.2,0,0.2c0,0.2,0.2,0,0.2-0.2
					c0,0,0,0.2,0,0.3s0.2-0.3,0.2-0.1c0,0,0,0.1,0,0.1c0-0.1,0.2,0,0.1-0.2c0.1,0.1,0.2-0.1,0.3,0c0.1-0.3,0.2,0.1,0.2-0.3
					c0,0.4,0.2,0.3,0.2,0.2c0,0.1,0,0.1,0,0.3c0.1,0,0.1-0.1,0.1-0.3c0.1,0.5,0.3-0.4,0.3,0.3c0.2-0.2,0.4-0.3,0.6-0.4
					c0,0.4-0.2,0-0.2,0.5c0.2-0.2,0.3-0.5,0.5-0.4s0,0.2-0.1,0.2c0.2-0.2,0.3,0,0.5-0.2c0,0,0,0.1,0,0.1c0,0,0.1,0.1,0.1-0.1l0,0
					c0-0.3,0.2-0.5,0.2-0.7c-0.1,0.5,0.1,0.1,0,0.8c0-0.1,0.1-0.2,0.1-0.2c0,0,0,0.1,0,0.2c0.1-0.1,0.1-0.3,0.2-0.3s0,0.1,0,0.2
					c0.1-0.2,0.1-0.3,0.2-0.2s0,0.1,0,0.1c0.1,0,0.3-0.4,0.4-0.2c-0.1,0.3,0,0.1,0,0.4l0.1-0.1v-0.1c0.1,0,0.2-0.2,0.2-0.1l-0.1,0.1
					H71l-0.1-0.1c0.1-0.1,0-0.4,0.1-0.3s0.1,0,0.1,0.2l0,0c0-0.1,0.1-0.2,0.1-0.1s0,0.3,0,0.4c0.1-0.2,0.2,0,0.3-0.3
					c0,0.1,0,0.2,0,0.2v-0.2c0,0.1,0,0.1,0,0.2s0-0.3,0.1-0.2c0,0,0,0,0,0.1s0.3-0.1,0.4,0c0,0.3-0.1,0-0.1,0.3
					c0.2,0,0.4-0.3,0.5-0.2l0,0c0.1-0.3,0.1,0.2,0.2,0c0,0-0.1,0.2,0,0.1s0.2-0.1,0.4-0.1v0.1c0,0.1,0.2,0.1,0.2,0.1
					s0.1-0.1,0.1-0.2c0.1,0.4,0.4-0.2,0.6,0.2c0,0-0.1,0,0,0h0.2c0-0.1,0-0.1,0-0.2s0.1-0.1,0.1-0.1s0,0.2,0,0.2s0-0.1,0-0.1
					c0,0.2,0.1-0.2,0.2-0.1l0,0c0.1,0,0.1-0.1,0.2,0s-0.1,0-0.1,0.1s0.2-0.2,0.2-0.1s-0.1,0-0.1,0s0,0.1,0.1,0.1l0,0l0.1,0.1l0,0
					c0.1-0.2,0.2,0,0.3-0.2c-0.1,0.1,0,0.1-0.1,0.2s0.1,0.1,0,0.1s0.1,0.1,0.2,0s0.1,0,0,0.1s0,0,0-0.1s0.2,0.1,0.4,0
					s0.2-0.1,0.3-0.1s0,0.1,0,0.1c0.1,0,0.1,0,0.2,0l0,0c0,0,0,0,0.1,0H76c0.1,0,0.1,0,0.2,0c0,0,0,0-0.1,0s0.2,0,0.2,0l0,0l0,0
					h-0.1l0,0c0-0.1-0.2,0-0.3,0l0,0h-0.1c0,0,0-0.1,0,0s-0.1,0-0.1-0.1s0,0,0,0h-0.1c0,0,0-0.1,0,0s-0.2,0-0.2-0.1l0,0
					c-0.2,0,0,0.1-0.2,0.1v-0.2v0.1l0,0c0,0,0,0,0,0.1c0-0.1-0.2,0-0.2-0.2c0,0.1,0.1,0.1,0,0.1c0-0.2-0.1,0-0.1-0.1s0.1,0,0-0.1
					c-0.1,0.1-0.1-0.1-0.2-0.1s-0.1,0-0.2,0s-0.2-0.1-0.2-0.2l0,0c0,0.2-0.1,0.1-0.2,0.1s0-0.1,0.1-0.2h-0.1c0,0,0,0.1-0.1,0.1v-0.1
					c-0.1,0-0.2,0.1-0.3,0c0,0.1,0,0.4-0.1,0.4s0-0.2,0.1-0.2s0,0-0.1,0l0.1-0.1c0-0.1,0,0.1-0.1,0.1s0-0.1,0-0.2s0,0,0,0
					c-0.1,0-0.1-0.1-0.1-0.2c0,0.1,0,0.1-0.1,0.1s0-0.1,0-0.2s-0.1,0-0.1,0.1c0,0,0-0.1,0-0.1s-0.2,0-0.2,0.2l0,0
					c-0.2,0.1-0.3-0.2-0.4-0.1v-0.1c-0.1,0-0.2,0-0.3,0.1c0-0.1,0-0.1,0-0.2c-0.1,0-0.1,0.1-0.2,0c0.1-0.1,0-0.1,0.1-0.1
					c-0.1-0.1-0.1-0.2-0.2,0c0.1-0.2,0-0.2-0.1-0.2v0.1c0,0-0.1,0-0.1,0l0.1-0.2c-0.1-0.3-0.4,0.4-0.4-0.1c-0.1,0.2,0.1,0.1,0,0.3
					c-0.1,0-0.1-0.4-0.1-0.4s-0.2,0.3-0.3,0.2c0,0.1,0,0.3-0.1,0.4s0-0.4,0-0.5s0,0,0,0.1c0,0,0-0.1,0-0.2v0.1
					c0-0.1-0.1-0.1-0.1-0.3c-0.1,0.1,0,0.1,0,0.2c-0.1-0.2-0.2,0-0.3-0.2c0,0.1,0,0.2,0,0.2s-0.1,0.2-0.2,0.2c0-0.2,0.1-0.3-0.1-0.2
					c0-0.1,0-0.2,0-0.3c-0.1,0.2-0.2-0.2-0.2-0.2l0.1-0.1c0,0-0.1,0-0.1,0v0.2c0,0,0,0,0-0.1c0,0.2,0,0.3-0.1,0.5
					c0-0.1-0.1,0.1-0.1-0.2c0.1,0.1,0-0.3,0.1-0.3s0,0-0.1,0c0,0,0,0,0-0.1c-0.1-0.3-0.1,0.3-0.2,0.3s0-0.3,0-0.3s0,0.3-0.1,0.4
					c-0.1-0.1-0.1,0.1-0.1,0.1v0.1c0,0.2-0.1,0.1-0.1,0.2c0-0.1,0.1-0.1,0-0.1c-0.1,0.3-0.1-0.3-0.2-0.1c0-0.1,0-0.3,0-0.4
					c-0.1,0.2-0.1-0.2-0.2-0.1c0,0.1,0,0.3-0.1,0.4l0.2-0.1l-0.1,0.3c0.1,0,0.1-0.1,0.2-0.1c0,0.1,0,0.2,0,0.3c0-0.3-0.2,0.2-0.2,0
					v-0.5c-0.1-0.3-0.2,0.2-0.4,0.1v0.1c0,0.2-0.1,0-0.2,0.1c0-0.1,0-0.2,0-0.4c0,0.1-0.1,0-0.2,0.3l-0.1-0.3
					c-0.1-0.1-0.2,0.5-0.3,0.4c0-0.2,0-0.3,0.1-0.5s-0.1,0-0.1,0.1c0-0.1-0.1,0.2-0.2,0.1c0,0.1,0,0.3-0.1,0.3c0,0,0-0.1,0-0.1
					c0,0.1-0.1,0.1,0,0.3c-0.1-0.6-0.3,0-0.4-0.5c-0.1,0.1-0.2,0.1-0.3,0.1c0-0.1,0-0.1,0-0.1c-0.1-0.2-0.1,0.5-0.2,0.3
					s0.1-0.2,0-0.3c0-0.6-0.2,0.1-0.2-0.3l0,0c-0.1-0.2-0.2,0.2-0.3,0.2c0,0,0-0.1,0-0.1c0,0.2-0.2,0.4-0.3,0.5c0-0.1,0-0.3,0-0.4
					c0,0,0,0.4-0.1,0.5c-0.1-0.2-0.1-0.3-0.1-0.5h0.1c0-0.3-0.1,0-0.2,0v-0.2c-0.1,0-0.1,0.4-0.3,0.4v0.1c-0.1,0.4-0.1-0.2-0.1,0.1
					v-0.4c-0.1,0.2-0.2,0.3-0.3,0.4c0-0.2,0.1-0.4,0.2-0.6c0,0-0.2,0-0.2,0.2c0,0,0.1-0.1,0.1-0.1c-0.1,0.3-0.2,0.5-0.3,0.4
					c0-0.8-0.3-0.2-0.3-0.8c-0.2,0.3-0.4-0.1-0.6-0.1c0.1,0.6-0.1,0,0,0.6h-0.1l-0.2-0.4c0-0.2,0-0.1,0-0.3s0-0.3-0.1-0.4
					c0,0.2,0,0.3-0.1,0.2l0.1,0.3c-0.1,0.3-0.1-0.5-0.3-0.2v-0.2c-0.1,0.1-0.3,0-0.3,0.5c0-0.1,0-0.2,0-0.3
					c-0.2-0.1-0.4,0.5-0.5,0.3v-0.2c0,0,0,0.3-0.1,0.1s0-0.2,0-0.2s-0.1,0.3-0.1,0.2v-0.2c-0.2-0.2-0.3,0.4-0.4,0.5
					c0-0.4-0.2-0.5-0.3-0.6v-0.1c-0.2,0-0.3,0.4-0.5,0.6c-0.2-0.4-0.4-0.1-0.6-0.3c0,0.1,0,0.2,0,0.3c0-0.1-0.1,0.3-0.1-0.1l0,0
					c-0.1-0.3-0.2-0.2-0.2-0.2v0.5c-0.3-0.6-0.5,0.3-0.6-0.2c0,0.1-0.1,0.1-0.1,0.2v-0.2c-0.1-0.1-0.2-0.1-0.3,0v-0.2
					c-0.1,0,0,0.7-0.1,0.7L59,106c-0.2,0-0.3-0.2-0.5,0.1c0,0,0-0.1,0-0.2s-0.3-0.1-0.2,0.3c0-0.3-0.2,0-0.2,0.2v-0.2
					c0,0.3,0,0.3-0.1,0.4s0-0.2,0-0.1s0,0.2-0.1,0.1v-0.1c-0.1,0-0.1,0.1-0.1,0.2s-0.2,0-0.2-0.2c0,0.1,0,0.3-0.1,0.2
					c0,0,0-0.1,0-0.1c-0.2-0.1-0.2,0.3-0.3,0.1c0,0,0-0.1,0-0.1c0.1,0,0.2,0,0.2,0c0-0.2-0.1-0.2-0.1-0.4c0,0.2-0.1,0.4-0.2,0.4l0,0
					l0,0l0,0c0,0,0,0-0.1,0s-0.1,0-0.1,0c0,0.2,0,0.2,0,0.3s0,0,0,0l0,0l0,0H57c0,0.1,0,0.2-0.1,0.1v0.3c-0.1-0.2-0.2-0.3-0.3-0.4
					c-0.1,0.1-0.3,0.2-0.3,0.4c0,0,0-0.1-0.1-0.1s0,0,0-0.1s-0.2,0.1-0.2,0.3c-0.1-0.1,0-0.2-0.1-0.1v-0.1c-0.3-0.2-0.3,0.5-0.6,0.3
					l0,0c-0.3,0-0.6,0.3-0.9,0.2c-0.1,0-0.1,0.1-0.1,0.1v-0.1l-0.1,0.1c-0.1,0.1-0.3-0.1-0.4,0.1l0,0c-0.1,0-0.2,0.1-0.2,0s0,0,0,0
					l0,0l-0.1,0.1c-0.1,0,0,0-0.1,0l-0.1,0.1h0.1l0,0h0.3c0,0,0.1,0,0.1,0l0,0c0,0,0,0,0,0s0,0,0.1,0s0,0,0,0s0.1,0,0.2,0
					s0.2,0,0.2,0.1c0,0,0.1-0.1,0.1-0.1c-0.1,0.1,0.2,0,0.2,0.1c0-0.1,0.2,0,0.3-0.1s0,0,0,0s0.1,0,0.1,0.1s0.1-0.1,0.1-0.2
					c0.1,0.1,0,0.1,0,0.2c0-0.1,0.1-0.1,0.1-0.2c0.1,0.1,0.1,0,0.1,0.1c0-0.2,0,0,0.1-0.1c0.1,0.1,0,0.2,0.1,0.1
					S55.5,107.8,55.5,107.8z M57.5,107.4L57.5,107.4z M57.6,107.4C57.6,107.4,57.6,107.4,57.6,107.4c-0.1-0.1-0.1-0.1-0.1-0.1
					S57.6,107.3,57.6,107.4L57.6,107.4z M57.1,106.2L57.1,106.2L57.1,106.2L57.1,106.2C57.1,106.2,57.1,106.3,57.1,106.2L57.1,106.2
					z"/>
				<path class="st0" d="M57.1,106.5L57.1,106.5L57.1,106.5L57.1,106.5L57.1,106.5z"/>
				<path class="st0" d="M73.1,106.7L73.1,106.7L73.1,106.7z"/>
				<polygon class="st0" points="60.1,107.7 60.1,107.6 60.1,107.7 				"/>
				<path class="st0" d="M74,107.3L74,107.3L74,107.3z"/>
				<path class="st0" d="M74.4,107.4L74.4,107.4z"/>
				<path class="st0" d="M74.7,107.5L74.7,107.5L74.7,107.5z"/>
				<path class="st0" d="M69.6,107.4L69.6,107.4C69.6,107.4,69.6,107.4,69.6,107.4z"/>
				<path class="st0" d="M71.2,107C71.2,107,71.1,107.1,71.2,107C71.1,107.1,71.2,107.1,71.2,107z"/>
				<polygon class="st0" points="67.9,107.7 67.9,107.7 67.9,107.7 				"/>
				<path class="st0" d="M71,107.1C71,107.1,71,107.1,71,107.1C71.1,107.1,71.1,107,71,107.1z"/>
				<polygon class="st0" points="76.1,107.7 76.1,107.7 76.1,107.7 				"/>
				<path class="st0" d="M76.1,107.7L76.1,107.7z"/>
				<path class="st0" d="M76.2,107.7L76.2,107.7C76.2,107.7,76.2,107.7,76.2,107.7z"/>
				<path class="st0" d="M75.7,107.6L75.7,107.6L75.7,107.6z"/>
				<path class="st0" d="M75.5,107.6c0,0,0.1,0,0.1,0l0,0C75.7,107.6,75.6,107.6,75.5,107.6z"/>
				<path class="st0" d="M75.1,107.2L75.1,107.2C75.2,107.3,75.2,107.2,75.1,107.2C75.1,107.1,75.2,107.3,75.1,107.2z"/>
				<path class="st0" d="M74.8,107.1C74.8,107.1,74.8,107.1,74.8,107.1C74.8,106.9,74.7,107,74.8,107.1z"/>
				<path class="st0" d="M72.4,106.4v-0.2C72.4,106.2,72.4,106.3,72.4,106.4z"/>
				<polygon class="st0" points="71.8,107.2 71.8,107.3 71.9,107.2 				"/>
				<polygon class="st0" points="71.7,105.9 71.7,105.9 71.6,105.9 				"/>
				<path class="st0" d="M67.6,105.3v0.3C67.6,105.6,67.6,105.2,67.6,105.3z"/>
				<path class="st0" d="M65.8,105.6C65.8,105.4,65.7,105.3,65.8,105.6C65.6,105.6,65.7,105.6,65.8,105.6z"/>
				<polygon class="st0" points="60.4,105.4 60.4,105.3 60.3,105.4 				"/>
			</g>
			<g id="monte-4">
				<path class="st0" d="M166.3,110L166.3,110L166.3,110z"/>
				<path class="st0" d="M166.1,110C166.1,110,166.1,110,166.1,110L166.1,110L166.1,110L166.1,110L166.1,110L166.1,110z"/>
				<path class="st0" d="M164.3,109.3L164.3,109.3C164.3,109.3,164.3,109.3,164.3,109.3z"/>
				<path class="st0" d="M163.1,108.9L163.1,108.9C163.1,108.9,163.1,108.9,163.1,108.9z"/>
				<path class="st0" d="M163,108.6L163,108.6C163,108.6,163,108.6,163,108.6z"/>
				<path class="st0" d="M164.3,109.3L164.3,109.3C164.3,109.3,164.3,109.3,164.3,109.3z"/>
				<polygon class="st0" points="165.8,110.1 165.9,110 165.8,110 				"/>
				<path class="st0" d="M164.8,109.3L164.8,109.3L164.8,109.3L164.8,109.3z"/>
				<path class="st0" d="M165.2,109.5c0,0,0,0.1,0,0.1C165.2,109.6,165.2,109.6,165.2,109.5L165.2,109.5z"/>
				<path class="st0" d="M165.8,109.9L165.8,109.9z"/>
				<path class="st0" d="M164.6,109.2L164.6,109.2z"/>
				<path class="st0" d="M153.4,110.1"/>
				<polygon class="st0" points="152.9,110 152.9,110 152.9,110 				"/>
				<path class="st0" d="M162.6,108.2L162.6,108.2C162.6,108.2,162.6,108.2,162.6,108.2z"/>
				<path class="st0" d="M159.1,108.1c0.1,0.3,0,0.3,0,0.6C159.1,108.5,159.1,108.2,159.1,108.1z"/>
				<path class="st0" d="M165.8,110L165.8,110z"/>
				<path class="st0" d="M159.1,108.7L159.1,108.7L159.1,108.7z"/>
				<path class="st0" d="M161.7,108.2L161.7,108.2z"/>
				<path class="st0" d="M162.4,108.6L162.4,108.6L162.4,108.6z"/>
				<path class="st0" d="M161.4,108.5C161.4,108.5,161.4,108.4,161.4,108.5L161.4,108.5C161.4,108.5,161.4,108.4,161.4,108.5z"/>
				<path class="st0" d="M161,108.5L161,108.5L161,108.5L161,108.5z"/>
				<path class="st0" d="M154.4,110.2v-0.1C154.4,110.2,154.4,110.2,154.4,110.2z"/>
				<path class="st0" d="M165.9,110L165.9,110L165.9,110L165.9,110z"/>
				<path class="st0" d="M161.2,110.6L161.2,110.6C161.2,110.6,161.2,110.6,161.2,110.6z"/>
				<path class="st0" d="M156.9,110.3L156.9,110.3C156.9,110.3,156.9,110.4,156.9,110.3z"/>
				<path class="st0" d="M161,110.6c0-0.1,0-0.1,0-0.2v0.1V110.6z"/>
				<path class="st0" d="M154.4,110.1"/>
				<path class="st0" d="M154.1,110.3c0,0,0-0.1,0-0.2S154.1,110.2,154.1,110.3c0.1,0,0.1-0.2,0.2-0.2s0,0,0,0.1s0.1,0,0.1-0.1l0,0
					c0-0.1,0-0.2-0.1-0.2s0-0.1,0.1,0s0,0,0,0.1l0,0c0.1,0.2,0,0,0,0.2s0.1-0.2,0.1-0.1s-0.1,0,0,0.2l-0.1-0.1c0.1,0.2,0,0,0.1,0.2
					c0.1,0.1,0.1-0.1,0.2,0c0-0.1,0-0.1,0-0.2s0.2,0.4,0.2,0.2s0-0.3,0.1-0.2v0.2c0.1,0,0-0.3,0.1-0.2s0,0.1,0,0.1s0-0.1,0.1-0.1
					v0.2c0.1,0,0.1-0.2,0.2-0.2c0,0.1,0,0.1,0,0.2c0.1-0.1,0.2,0,0.4,0.2v-0.2c0,0,0,0.1,0,0.1c0.1,0.1,0-0.1,0-0.2s0.1,0.1,0,0.2
					c0.1-0.2,0.1-0.4,0.3-0.2v0.1c0.1,0.1,0-0.4,0.1-0.2l0,0c0.1,0.1,0.3-0.1,0.4,0.2c0-0.3,0.1,0.2,0.1-0.3
					c0.1,0.2,0.1,0.3,0.2,0.5c0,0,0-0.3,0-0.4v0.3v-0.3v0.3v-0.1c0-0.1,0-0.1,0-0.2c0-0.1,0.1,0.2,0.1,0.3l0.1-0.2
					c0,0.1,0,0.1,0,0.2c0-0.3,0,0.3,0.1,0c0-0.1,0-0.2,0-0.2c0,0.2,0.1,0.2,0.1,0.1v0.2c0.1,0,0.2-0.1,0.3-0.1c0-0.2,0-0.3,0-0.5
					v0.3c0-0.2,0-0.1,0-0.3c0,0.1,0,0.3,0,0.4v-0.1c0,0.1,0,0.2,0,0.3c0-0.2,0.1,0.3,0.1,0v0.1c0.1,0,0.1-0.1,0.2-0.1
					c0-0.1,0-0.3,0-0.4c0.1,0.1,0.1,0.3,0.2,0.3c0-0.1,0-0.3,0-0.4c0,0.2,0.1,0.2,0,0.4c0.1,0,0.1,0,0.2-0.3c0-0.1,0-0.2,0-0.2
					c0,0,0,0.1,0,0.2l0,0c0.1-0.4,0.3,0.7,0.4,0.2l0,0l0.1-0.3c0,0,0,0.2,0,0.3c0.1-0.4,0.2,0.1,0.2-0.2c0.1,0.8,0.2,0,0.3,0.4v-0.2
					c0-0.2,0,0.1,0.1,0.1c0-0.1,0-0.2,0-0.3c0.2-0.2,0.4,0.3,0.6,0.4s0.1-0.9,0.1-0.5v0.3c0.1-0.4,0.3,0,0.4-0.3c0,0.1,0,0.2,0,0.2
					c0,0.2,0.1,0,0.1-0.2c0,0.1,0,0.2,0,0.3c0,0.1,0.1-0.3,0.1-0.1c0,0,0,0.1,0,0.1c0-0.1,0.1,0,0.1-0.2c0,0.1,0.1-0.1,0.1,0
					c0-0.3,0.1,0.1,0.1-0.3c0,0.4,0.1,0.3,0.1,0.1c0,0.1,0,0.1,0,0.3c0,0,0.1-0.1,0.1-0.3c0,0.5,0.2-0.4,0.2,0.2
					c0.1-0.2,0.2-0.3,0.4-0.5c0,0.4-0.1,0-0.1,0.5c0.1-0.2,0.2-0.5,0.3-0.4s0,0.2-0.1,0.2c0.1-0.2,0.2,0,0.3-0.2v0.1
					c0,0,0,0.1,0.1-0.1l0,0c0-0.2,0.1-0.4,0.1-0.7c-0.1,0.5,0.1,0.1,0,0.8c0-0.1,0-0.2,0.1-0.2c0,0.1,0,0.2,0,0.2
					c0.1-0.1,0.1-0.3,0.1-0.3s0,0.1,0,0.2c0-0.2,0.1-0.3,0.1-0.3s0,0.1,0,0.1s0.2-0.4,0.3-0.3c-0.1,0.3,0,0.1,0,0.4l0.1-0.1v0.1
					c0,0,0.1-0.2,0.1-0.1v0.1h0.1v-0.1c0.1-0.1,0-0.4,0.1-0.3s0,0,0,0.2l0,0c0-0.1,0.1-0.2,0.1-0.1s0,0.3,0,0.4
					c0.1-0.2,0.1-0.1,0.2-0.3c0,0,0,0.2,0,0.2v-0.2c0,0.1,0,0.1,0,0.2c0.1,0,0-0.3,0.1-0.2s0,0,0,0.1s0.2-0.1,0.2,0
					c0,0.3-0.1,0.1-0.1,0.3c0.1-0.1,0.3-0.3,0.3-0.2l0,0c0.1-0.3,0,0.2,0.1,0c0,0,0,0.1,0,0.1c0.1,0,0.1-0.1,0.3-0.2v0.1
					c0,0.1,0.1,0,0.1,0.1s0-0.1,0-0.2c0.1,0.4,0.3-0.2,0.3,0.1v0.1l0.1-0.1c0-0.1,0-0.1,0-0.1s0.1-0.1,0.1-0.1c0,0.1,0,0.1,0,0.2
					v-0.1c0,0.2,0-0.2,0.1-0.1l0,0c0,0,0.1-0.1,0.1-0.1s0,0-0.1,0.1s0.1-0.2,0.1-0.1s0,0-0.1,0s0,0.1,0.1,0.1l0,0h0.1l0,0
					c0.1-0.2,0.1,0,0.2-0.2c-0.1,0.1,0,0.1-0.1,0.2s0,0,0,0.1s0,0,0.1,0s0,0,0,0.1s0,0,0-0.1s0.1,0.1,0.2,0s0.1-0.1,0.2-0.1s0,0,0,0
					c0,0,0.1,0,0.1,0l0,0c0,0,0-0.1,0.1,0l0,0c0,0,0.1,0,0.1,0l0,0c0,0,0.1,0,0.1,0l0,0l0,0h-0.1l0,0c0-0.1-0.1,0-0.2,0l0,0H166
					v-0.1c0,0,0,0-0.1,0l0,0c0,0,0-0.1,0,0s-0.1,0-0.1,0l0,0c-0.1,0,0,0.1-0.1,0.1v-0.2v0.1l0,0c0,0,0,0,0,0.1s-0.1,0-0.1-0.1
					c0,0.1,0,0.1,0,0.1c0-0.2-0.1,0-0.1-0.1s0.1,0,0-0.1c-0.1,0.1-0.1-0.1-0.1,0s-0.1,0-0.1,0s-0.1-0.1-0.1-0.2l0,0
					c0,0.1-0.1,0.1-0.1,0.1s0-0.1,0.1-0.2l0,0c0,0,0,0.1-0.1,0.1v-0.1c0,0-0.1,0.1-0.2,0c0,0.1,0,0.4-0.1,0.4c0-0.1,0-0.1,0-0.2
					c0,0,0,0.1,0,0l0.1-0.1c0-0.1,0,0.1-0.1,0.1s0-0.1,0-0.2s0,0.1,0,0c0-0.1,0-0.1,0-0.2c0,0.1,0,0.1,0,0.1s0-0.1,0-0.2
					s0,0-0.1,0.1c0,0,0-0.1,0-0.1s-0.1,0-0.1,0.2l0,0c-0.1,0.1-0.2-0.1-0.3-0.1v-0.1c-0.1,0-0.1,0-0.2,0.1c0-0.1,0-0.1,0-0.2
					c0,0-0.1,0.1-0.1,0s0-0.1,0.1-0.1s0-0.2-0.1,0c0-0.2,0-0.2,0-0.2v0c0,0-0.1,0-0.1,0v-0.2c-0.1-0.3-0.3,0.4-0.3-0.1
					c-0.1,0.2,0,0.1,0,0.3c-0.1,0-0.1-0.4-0.1-0.4s-0.1,0.3-0.2,0.2c0,0.1,0,0.3-0.1,0.4c0-0.1,0-0.3,0-0.4l0,0c0-0.1,0-0.1,0-0.2
					v0.1c0-0.1-0.1-0.1,0-0.3c0,0.1,0,0.1,0,0.2c0-0.2-0.1,0-0.1-0.1c0,0.1,0,0.1,0,0.2c-0.1-0.1-0.1,0.2-0.1,0.2
					c0-0.2,0.1-0.3,0-0.2c0-0.1,0-0.2,0-0.3c-0.1,0.2-0.1-0.2-0.1-0.2v-0.1c0,0,0,0-0.1,0v0.2c0,0,0-0.1,0-0.1c0,0.1,0,0.3-0.1,0.5
					c0-0.1-0.1,0.1-0.1-0.2c0.1,0.1,0-0.3,0.1-0.3s0,0,0,0c0,0,0,0,0-0.1c0-0.3-0.1,0.3-0.1,0.3s0-0.3,0-0.3s0,0.3,0,0.4
					c0-0.1-0.1,0.1-0.1,0.1v0.1c0,0.2,0,0.1-0.1,0.2c0-0.1,0-0.1,0-0.1c-0.1,0.3-0.1-0.3-0.1-0.1c0-0.1,0-0.3,0-0.4
					c-0.1,0.2,0-0.2-0.1-0.1c0,0.1,0,0.2-0.1,0.4l0.1-0.1l-0.1,0.3c0,0,0.1-0.1,0.1-0.1c0,0.1,0,0.2,0,0.3c0-0.3-0.1,0.2-0.1,0v-0.5
					c-0.1-0.3-0.1,0.3-0.2,0.1v0.1c0,0.2-0.1,0-0.1,0.1c0-0.1,0-0.2,0-0.4c0,0.1-0.1,0-0.1,0.3v-0.2c-0.1-0.1-0.1,0.5-0.2,0.4
					c0-0.2,0-0.3,0.1-0.5c0,0-0.1,0-0.1,0.1c0-0.1-0.1,0.2-0.1,0.1c0,0.1,0,0.3-0.1,0.3v-0.1c0,0.1,0,0.2,0,0.3c0-0.6-0.2,0-0.2-0.5
					c0,0.1-0.1,0.1-0.2,0.1c0-0.1,0-0.1,0-0.1c-0.1-0.2-0.1,0.6-0.1,0.3s0-0.2,0-0.3c0-0.6-0.1,0.1-0.1-0.3l0,0
					c0-0.2-0.1,0.2-0.2,0.2v-0.1c0,0.2-0.1,0.4-0.2,0.5c0-0.1,0-0.3,0-0.4c0,0,0,0.4-0.1,0.5c0-0.2,0-0.4,0-0.5l0,0
					c0-0.4-0.1,0-0.1,0v-0.2c-0.1,0.1-0.1,0.4-0.2,0.4v0.1c-0.1,0.4,0-0.2-0.1,0.1v-0.4c0,0.2-0.1,0.3-0.1,0.4
					c0-0.2,0.1-0.4,0.1-0.6c0,0-0.1,0-0.1,0.2c0,0,0-0.1,0-0.1c0,0.3-0.1,0.5-0.1,0.4c0-0.8-0.2-0.2-0.2-0.8
					c-0.1,0.3-0.2-0.1-0.3-0.1c0.1,0.6,0,0,0,0.6l0,0l-0.1-0.4c0-0.2,0-0.1,0-0.3s0-0.3-0.1-0.4c0,0.2,0,0.3,0,0.2l0.1,0.3
					c-0.1,0.3-0.1-0.5-0.2-0.2v-0.2c0,0.1-0.2,0-0.2,0.5c0-0.1,0-0.2,0-0.3c-0.1-0.1-0.2,0.5-0.3,0.2v-0.1c0,0,0,0.3,0,0.1
					c0,0,0-0.1,0-0.2c0,0,0,0.3-0.1,0.2v-0.2c-0.1-0.2-0.1,0.4-0.2,0.5c0-0.2,0-0.4-0.2-0.6V108c-0.1,0-0.2,0.4-0.3,0.6
					c-0.1-0.4-0.3-0.2-0.4-0.4c0,0.1,0,0.2,0,0.3c0-0.1,0,0.3-0.1-0.1l0,0c-0.1-0.3-0.1-0.2-0.1-0.2v0.5c-0.2-0.6-0.3,0.3-0.4-0.3
					c0,0.1,0,0.2-0.1,0.2v-0.2c-0.1-0.1-0.1-0.1-0.2,0c0,0,0,0,0,0v-0.2c-0.1,0,0,0.7,0,0.7l-0.1-0.3c-0.1,0-0.2-0.2-0.3,0.1
					c0,0,0-0.1,0-0.2s-0.2-0.2-0.1,0.3c0-0.3-0.1,0-0.1,0.1v-0.2c0,0.3,0,0.3,0,0.4s0-0.2,0-0.1s0,0.2-0.1,0.1V109
					c-0.1,0,0,0.1,0,0.2s-0.1,0-0.1-0.2c0,0.1,0,0.2,0,0.2c0,0,0-0.1,0-0.1c-0.1-0.1-0.1,0.2-0.2,0.1s0-0.1,0-0.1s0.1,0,0.1,0
					c0-0.1-0.1-0.3-0.1-0.4c0,0.1,0,0.4-0.1,0.4l0,0l0,0l0,0c0,0,0,0-0.1,0s-0.1,0-0.1,0c0,0.2,0,0.2,0.1,0.3s0,0,0,0l0,0l0,0h0.1
					c0,0.1,0,0.2-0.1,0.1v0.3c-0.1-0.2-0.1-0.3-0.2-0.4c-0.1,0.1-0.2,0.1-0.2,0.4c0,0,0-0.1,0-0.1s0,0,0-0.1s-0.1,0.1-0.1,0.3
					c-0.1-0.1,0-0.2-0.1-0.1l0,0c-0.2-0.2-0.1,0.5-0.4,0.2l0,0c-0.2,0-0.3,0.2-0.5,0.1s-0.1,0-0.1,0.1V110v0.1
					c-0.1,0.1-0.1-0.1-0.2,0l0,0c0,0-0.1,0.1-0.1,0s0,0,0,0l0,0h-0.1c-0.1,0,0,0-0.1,0s-0.1,0.1-0.1,0l0,0l0,0l0,0c0,0,0,0,0.1,0
					l0,0h0.1l0,0l0,0c0,0,0,0,0.1,0s0,0,0,0h0.1c0,0,0.1,0,0.1,0.1s0-0.1,0.1-0.1s0.1,0,0.1,0.1c0-0.1,0.1,0,0.2-0.1s0,0,0,0
					s0.1,0,0.1,0.1s0-0.1,0-0.2C154.2,110.1,154.1,110.1,154.1,110.3c0-0.2,0.1-0.2,0-0.3c0,0,0.1,0.1,0.1,0.1c0-0.2,0,0,0-0.1
					c0.1,0.1,0,0.2,0.1,0.1C154.3,110.3,154.2,110.3,154.1,110.3C154.1,110.3,154.1,110.3,154.1,110.3z M155.2,110L155.2,110z
					 M155.3,110L155.3,110c0-0.1,0-0.1,0-0.1C155.3,109.9,155.3,110,155.3,110L155.3,110z M155,108.9L155,108.9L155,108.9L155,108.9
					L155,108.9z"/>
				<path class="st0" d="M155,109.1L155,109.1z"/>
				<path class="st0" d="M164.3,109.3L164.3,109.3L164.3,109.3z"/>
				<polygon class="st0" points="156.8,110.4 156.8,110.4 156.8,110.4 				"/>
				<path class="st0" d="M164.8,109.9L164.8,109.9z"/>
				<path class="st0" d="M165,110L165,110L165,110z"/>
				<path class="st0" d="M165.2,110L165.2,110L165.2,110z"/>
				<path class="st0" d="M162.2,110.2L162.2,110.2C162.2,110.2,162.2,110.3,162.2,110.2z"/>
				<path class="st0" d="M163.1,109.7C163.1,109.8,163.1,109.8,163.1,109.7C163.1,109.8,163.1,109.8,163.1,109.7z"/>
				<polygon class="st0" points="161.3,110.6 161.3,110.6 161.2,110.6 				"/>
				<path class="st0" d="M163.1,109.8L163.1,109.8C163.1,109.8,163.1,109.8,163.1,109.8z"/>
				<polygon class="st0" points="166,110 166,110 166,110 				"/>
				<path class="st0" d="M166,110L166,110z"/>
				<path class="st0" d="M166.1,110L166.1,110z"/>
				<path class="st0" d="M165.8,110L165.8,110z"/>
				<path class="st0" d="M165.7,110C165.7,110,165.7,110,165.7,110L165.7,110C165.8,110,165.7,110,165.7,110z"/>
				<path class="st0" d="M165.4,109.7L165.4,109.7L165.4,109.7C165.5,109.6,165.5,109.7,165.4,109.7z"/>
				<path class="st0" d="M165.3,109.6C165.3,109.6,165.3,109.6,165.3,109.6C165.3,109.4,165.3,109.5,165.3,109.6z"/>
				<path class="st0" d="M163.9,109.1v-0.2C163.9,108.9,163.9,109,163.9,109.1z"/>
				<polygon class="st0" points="163.5,109.9 163.5,110 163.5,109.9 				"/>
				<polygon class="st0" points="163.5,108.6 163.5,108.6 163.5,108.7 				"/>
				<path class="st0" d="M161.1,108.2v0.3C161.1,108.5,161.1,108.1,161.1,108.2z"/>
				<path class="st0" d="M160,108.5c0-0.2,0-0.3-0.1-0.1S160,108.5,160,108.5z"/>
				<polygon class="st0" points="156.8,108.3 156.9,108.2 156.8,108.3 				"/>
			</g>
		</g>
		
			<linearGradient id="cesped_1_" gradientUnits="userSpaceOnUse" x1="101.098" y1="6.49" x2="101.098" y2="97.86" gradientTransform="matrix(1 0 0 -1 0 158)">
			<stop  offset="0" style="stop-color:#4FB56D;stop-opacity:0"/>
			<stop  offset="0.47" style="stop-color:#2B9955;stop-opacity:0.52"/>
			<stop  offset="0.94" style="stop-color:#0B7F40"/>
		</linearGradient>
		<path id="cesped" class="st1" d="M0.5,77h201.4c1.4,14.7-2.2,21.9-6.4,25.6c-6.1,5.5-14.5,4.5-15.8,9.4c-1.6,5.8,1.4,9.6-0.3,13.5
			c-1.9,4.4-7.8-0.3-20.3,5.5c-12.7,5.9-9.4,17.5-20.4,22.6c-13.9,6.4-23.6-10-46.6-7c-14.6,1.9-13.6,8.8-28.7,9.8
			c-17.3,1.2-36.5-6.7-36.5-6.7l0,0c-0.5-5.9-2.7-11.4-6.4-16.1c-6.6-8.1-13.8-7-16.4-13.7c-2.9-7.3,4.5-11.2,1.4-20.9
			C4,94.4,1.6,93,0.5,87.2C-0.2,83.8-0.2,80.4,0.5,77z"/>
	</g>
	<path id="arbusto" class="st2" d="M0.5,77v-8.6c0-2.6,1.8-4.9,4.8-6.4c2.9-1.5,6.1-2.2,9.4-2.2c1.2,0,2.5,0.1,3.7,0.3
		c-0.1-0.6-0.1-1.2-0.1-1.8c0-7.5,6-13.6,13.5-13.6c2.2,0,4.4,0.5,6.3,1.5c1.8-13.1,12.5-23.2,25.5-23.2c5.9,0,11.6,2.1,16.1,6
		C82.3,12.4,93.1,0,106,0c11.4,0,21.1,9.6,25,23.3c1.1-0.2,2.3-0.2,3.4-0.2c13.7,0.1,25.1,10.7,26.3,24.4c1.4-0.5,2.9-0.8,4.3-0.8
		c6.5,0,11.9,5,13.3,11.8c1.9-0.3,3.8-0.5,5.7-0.5c5.9,0,11.1,1.5,14.4,3.9c2.2,1.6,3.5,3.6,3.5,5.8V77H0.5"/>
	<g id="texto">
		<path class="st3" d="M45.4,64.6h-3.4V47.8h6.7c3.7,0,6.7,3,6.7,6.8c0,0.9-0.2,1.8-0.5,2.6c-0.3,0.8-0.8,1.5-1.4,2.1
			c-0.6,0.6-1.3,1.1-2.1,1.4c-0.8,0.4-1.7,0.5-2.6,0.5h-3.4V64.6z M45.4,51.2v6.7h3.4c0.4,0,0.9-0.1,1.3-0.3
			c0.4-0.2,0.8-0.4,1.1-0.7c0.3-0.3,0.5-0.7,0.7-1.1c0.2-0.4,0.3-0.9,0.3-1.3c0-0.4-0.1-0.9-0.3-1.3c-0.2-0.4-0.4-0.8-0.7-1.1
			c-0.3-0.3-0.7-0.5-1.1-0.7c-0.4-0.2-0.9-0.3-1.3-0.3H45.4z"/>
		<path class="st3" d="M69.3,64.6H57.5V47.8h3.4v13.4h8.4V64.6z"/>
		<path class="st3" d="M84.3,64.6h-3.4v-3.4h-6.7v3.4h-3.4V54.5c0-0.9,0.2-1.8,0.5-2.6c0.3-0.8,0.8-1.5,1.4-2.1
			c0.6-0.6,1.3-1.1,2.1-1.4c1.7-0.7,3.6-0.7,5.2,0c0.8,0.3,1.5,0.8,2.1,1.4c0.6,0.6,1.1,1.3,1.4,2.1c0.4,0.8,0.5,1.7,0.5,2.6
			L84.3,64.6z M80.9,57.9v-3.4c0-0.9-0.4-1.7-1-2.4c-0.3-0.3-0.7-0.5-1.1-0.7c-0.4-0.2-0.9-0.3-1.3-0.3c-0.4,0-0.9,0.1-1.3,0.3
			c-0.4,0.2-0.8,0.4-1.1,0.7c-0.3,0.3-0.5,0.7-0.7,1.1c-0.2,0.4-0.3,0.9-0.3,1.3v3.4L80.9,57.9z"/>
		<path class="st3" d="M93.7,64.6h-3.3V51.2h-5.1v-3.4h13.4v3.4h-5L93.7,64.6z"/>
		<path class="st3" d="M103.9,64.6h-3.4V47.8h3.4V64.6z"/>
		<path class="st3" d="M120.5,64.6h-3.6l-6.5-11.1v11.1H107V47.8h3.6l6.5,11.1V47.8h3.4L120.5,64.6z"/>
		<path class="st3" d="M136.8,57.9c0,0.9-0.2,1.8-0.5,2.6c-0.3,0.8-0.8,1.5-1.4,2.1c-0.6,0.6-1.3,1.1-2.1,1.4
			c-1.7,0.7-3.6,0.7-5.2,0c-1.6-0.7-2.9-2-3.6-3.6c-0.4-0.8-0.5-1.7-0.5-2.6V47.8h3.3v10.1c0,0.9,0.4,1.7,1,2.4c0.6,0.6,1.5,1,2.4,1
			c0.5,0,0.9-0.1,1.3-0.3c0.4-0.2,0.8-0.4,1.1-0.7c0.6-0.6,1-1.5,1-2.4V47.8h3.4L136.8,57.9z"/>
		<path class="st3" d="M156.4,64.6h-3.4v-12c0-0.2,0-0.5-0.1-0.7c-0.1-0.2-0.2-0.4-0.4-0.5c-0.2-0.2-0.3-0.3-0.5-0.4
			c-0.4-0.2-0.9-0.2-1.3,0c-0.2,0.1-0.4,0.2-0.5,0.4c-0.2,0.2-0.3,0.3-0.4,0.5c-0.1,0.2-0.1,0.4-0.1,0.7v12h-3.4v-12
			c0-0.2,0-0.4-0.1-0.7c-0.2-0.4-0.5-0.7-0.9-0.9c-0.2-0.1-0.4-0.1-0.7-0.1c-0.2,0-0.4,0-0.7,0.1c-0.4,0.2-0.7,0.5-0.9,0.9
			c-0.1,0.2-0.1,0.4-0.1,0.7v12h-3.4v-12c0-0.7,0.1-1.4,0.4-2c0.3-0.6,0.6-1.1,1.1-1.6c0.5-0.4,1-0.8,1.6-1c0.6-0.3,1.3-0.4,2-0.4
			c0.6,0,1.2,0.1,1.8,0.3c0.6,0.2,1.1,0.6,1.6,1c0.5-0.4,1-0.8,1.6-1c1.2-0.5,2.6-0.4,3.8,0.1c0.6,0.2,1.1,0.6,1.6,1
			c0.9,0.9,1.5,2.2,1.5,3.6L156.4,64.6z"/>
	</g>
	<g id="flores">
		<g id="flor">
			<polygon id="petalos" class="st4" points="31.9,67 33.2,69.2 31.9,71.4 29.4,71.4 28.1,73.7 25.5,73.7 24.3,71.4 21.7,71.4 
				20.5,69.2 21.7,67 20.5,64.8 21.7,62.6 24.3,62.6 25.5,60.4 28.1,60.4 29.4,62.6 31.9,62.6 33.2,64.8 			"/>
			<polygon id="centro" class="st3" points="27.8,65.4 25.9,65.4 24.9,67 25.9,68.7 27.8,68.7 28.7,67 			"/>
		</g>
		<g id="flor-2">
			<polygon id="petalos-2" class="st4" points="123.8,21 125.1,23.2 123.8,25.4 121.3,25.4 120,27.6 117.5,27.6 116.2,25.4 
				113.7,25.4 112.4,23.2 113.7,21 112.4,18.8 113.7,16.6 116.2,16.6 117.5,14.4 120,14.4 121.3,16.6 123.8,16.6 125.1,18.8 			"/>
			<polygon id="centro-2" class="st3" points="119.7,19.3 117.8,19.3 116.9,21 117.8,22.6 119.7,22.6 120.6,21 			"/>
		</g>
		<g id="flor-3">
			<polygon id="petalos-3" class="st4" points="101.3,27.6 102.6,29.8 101.3,32 98.7,32 97.5,34.2 94.9,34.2 93.7,32 91.1,32 
				89.8,29.8 91.1,27.6 89.8,25.4 91.1,23.2 93.7,23.2 94.9,21 97.5,21 98.7,23.2 101.3,23.2 102.6,25.4 			"/>
			<polygon id="centro-3" class="st3" points="97.1,26 95.3,26 94.3,27.6 95.3,29.2 97.1,29.2 98.1,27.6 			"/>
		</g>
	</g>
</g>
</svg>
