<?xml version="1.0" encoding="utf-8"?>
<!-- Generator: Adobe Illustrator 24.0.1, SVG Export Plug-In . SVG Version: 6.00 Build 0)  -->
<svg version="1.1" id="arbustos_tableros_1_" xmlns="http://www.w3.org/2000/svg" xmlns:xlink="http://www.w3.org/1999/xlink"
	 x="0px" y="0px" viewBox="0 0 121.2 89.7" style="enable-background:new 0 0 121.2 89.7;" xml:space="preserve">
<style type="text/css">
	.st0{fill:url(#cesped_1_);}
	.st1{fill:#41995D;}
	.st2{fill:#80C341;}
	.st3{fill:#EBEBEB;}
	.st4{fill:#D2E043;}
</style>
<g id="arbusto_silver">
	<g id="suelo">
		
			<linearGradient id="cesped_1_" gradientUnits="userSpaceOnUse" x1="61.7093" y1="2.3157" x2="61.7093" y2="39.9827" gradientTransform="matrix(1 0 0 -1 0 92)">
			<stop  offset="0" style="stop-color:#4FB56D;stop-opacity:0"/>
			<stop  offset="0.55" style="stop-color:#47A463;stop-opacity:0.6"/>
			<stop  offset="0.94" style="stop-color:#41995D"/>
		</linearGradient>
		<path id="cesped" class="st0" d="M25.4,52.2c-2.5,0-5,0.4-7.3,1.4c-1.9,0.8-3.3,1.9-3.6,3.4c-0.5,2.4,2.7,3.9,2.3,6.4
			c-0.7,4-10,3.5-11,7.2c-1.2,3.9,7.9,10.1,13.6,13.1c7.8,4.3,16.5,6.3,25.4,6c12.1-0.5,12.6-5.1,23.3-4.6c10.3,0.6,12,5,20.2,3.6
			c6.8-1.1,11.8-5.2,16.4-8.9c2.4-1.7,4.6-3.8,6.6-6c1.8-2.2,3.3-4.7,4.4-7.3c0.9-2.1,1.6-4.4,2-6.7c-0.3-3.2-2.2-5.9-5.2-7.2
			c-1.8-0.8-3.6-0.7-7.2-0.5c-1.3,0.1-2.4,0.2-3.2,0.3L25.4,52.2z"/>
		<g id="monte">
			<path class="st1" d="M59.4,70.1L59.4,70.1z"/>
			<path class="st1" d="M59.1,70.1C59.1,70.1,59,70.1,59.1,70.1C59.1,70.1,59.1,70.1,59.1,70.1C59.1,70.1,59.2,70.1,59.1,70.1h0.2
				H59.1L59.1,70.1z"/>
			<path class="st1" d="M55,69.1L55,69.1C55,69.1,55,69.1,55,69.1z"/>
			<path class="st1" d="M52.5,68.6L52.5,68.6C52.5,68.6,52.5,68.5,52.5,68.6z"/>
			<path class="st1" d="M52.1,68.2L52.1,68.2C52.1,68.2,52.1,68.2,52.1,68.2z"/>
			<path class="st1" d="M55,69.1L55,69.1C55,69.1,55,69.1,55,69.1z"/>
			<path class="st1" d="M58.5,70.1L58.5,70.1z"/>
			<path class="st1" d="M56.2,69.2L56.2,69.2L56.2,69.2z"/>
			<path class="st1" d="M57,69.4c0,0,0,0.1-0.1,0.1S56.9,69.4,57,69.4C57,69.4,57,69.4,57,69.4z"/>
			<path class="st1" d="M58.4,69.9L58.4,69.9z"/>
			<path class="st1" d="M55.6,69L55.6,69z"/>
			<path class="st1" d="M31.3,70.1L31.3,70.1z"/>
			<polygon class="st1" points="30.2,70.1 30.2,70.1 30.2,70.1 			"/>
			<path class="st1" d="M51.3,67.8L51.3,67.8C51.3,67.8,51.3,67.8,51.3,67.8z"/>
			<path class="st1" d="M43.8,67.6c0.1,0.3-0.1,0.3,0,0.6C43.8,68.1,43.9,67.7,43.8,67.6z"/>
			<path class="st1" d="M58.5,70.1L58.5,70.1z"/>
			<path class="st1" d="M43.8,68.2L43.8,68.2L43.8,68.2z"/>
			<path class="st1" d="M49.4,67.7c0,0,0,0.1,0,0.1C49.4,67.8,49.4,67.8,49.4,67.7z"/>
			<path class="st1" d="M50.8,68.2L50.8,68.2C50.8,68.2,50.8,68.2,50.8,68.2z"/>
			<path class="st1" d="M48.7,68C48.7,68,48.7,67.9,48.7,68L48.7,68C48.7,68,48.6,68,48.7,68z"/>
			<path class="st1" d="M47.9,68L47.9,68L47.9,68L47.9,68z"/>
			<path class="st1" d="M33.5,70.1c0,0,0-0.1,0-0.1C33.5,70.1,33.4,70.1,33.5,70.1z"/>
			<path class="st1" d="M58.5,70L58.5,70L58.5,70C58.5,70,58.5,70.1,58.5,70z"/>
			<path class="st1" d="M48.5,70.1h-0.1C48.5,70.1,48.5,70.1,48.5,70.1z"/>
			<path class="st1" d="M38.9,70L38.9,70C38.9,70,38.8,70,38.9,70z"/>
			<path class="st1" d="M48.1,70.1c0-0.1,0-0.1-0.1-0.2c0,0,0,0,0,0.1L48.1,70.1z"/>
			<path class="st1" d="M33.5,70"/>
			<path class="st1" d="M32.7,70.2c0.1,0,0-0.1,0-0.2s0.1,0.1,0.1,0.2S33,70,33.1,70c0,0,0,0,0,0.1c0.1-0.1,0.3,0,0.3-0.2l0,0
				c0-0.1,0-0.1,0-0.2c0,0,0.1-0.1,0.1,0s0,0,0,0.1l0,0c0.1,0.2-0.1,0.1,0,0.2c0.1,0,0.2-0.2,0.3-0.2s-0.2,0.1,0,0.2L33.7,70
				c0.1,0.2-0.1,0,0,0.2c0.2,0,0.2-0.1,0.3,0c0-0.1,0-0.1,0-0.2c0.2-0.2,0.2,0.4,0.4,0.2s0-0.3,0.2-0.2v0.2c0.2,0,0-0.3,0.2-0.2
				c0,0.1-0.1,0.1-0.1,0.1c0.1,0.2,0.1-0.1,0.1-0.1v0.2c0.2,0,0.3-0.2,0.5-0.2c0,0.1,0,0.1,0,0.2c0.3-0.1,0.5,0,0.7,0.2l0.1-0.2
				c0,0,0,0.1,0,0.1s0-0.1,0-0.2s0.1,0.1,0.1,0.2c0.1-0.2,0.4-0.4,0.6-0.2V70c0.1,0.1,0.1-0.4,0.2-0.3l0,0c0.3,0.1,0.6-0.2,0.8,0.2
				c0-0.3,0.3,0.2,0.3-0.3c0.2,0.2,0.1,0.3,0.4,0.5c0.1,0,0.1-0.3,0.1-0.4V70l0.1-0.3l0.1,0.3l0.1-0.1c0-0.1-0.1-0.1-0.1-0.2
				c0.1-0.1,0.3,0.2,0.3,0.3l0.2-0.2c0,0.1,0,0.2-0.1,0.2c0.1-0.3,0,0.3,0.2,0c0-0.1,0-0.1,0-0.2c0,0.1,0.1,0.2,0.2,0.1
				c0,0,0.1,0,0.1,0v0.2c0.2,0,0.4-0.1,0.6-0.1c-0.1-0.1-0.1-0.3,0-0.5v0.3c0-0.2-0.1-0.1,0-0.3c0.1,0,0.1,0.3,0,0.4l0.1-0.1
				c0,0.1,0,0.2,0,0.3c0-0.2,0.2,0.3,0.2,0v0.1c0.2,0,0.3-0.1,0.5-0.1c0-0.3,0.1-0.2,0.1-0.4c0.1,0.1,0.3,0.3,0.4,0.3s0-0.2,0.1-0.4
				c0,0.3,0.2,0.2,0.1,0.4c0.2,0,0.3-0.1,0.5-0.3c0-0.1-0.1-0.2,0-0.2s0.1,0.1,0.1,0.2l0,0c0.3-0.4,0.6,0.7,0.8,0.2l0,0l0.2-0.3
				c0.1,0,0,0.2,0,0.3c0.2-0.4,0.4,0,0.5-0.2c0.2,0.8,0.5-0.1,0.7,0.4V70c0-0.2,0.1,0.1,0.1,0.2c0-0.1-0.1-0.2,0-0.3
				c0.4-0.2,0.9,0.3,1.3,0.4c0.2,0,0.1-0.9,0.3-0.5l-0.1,0.3c0.3-0.4,0.7,0,1-0.3c0,0.1,0,0.2-0.1,0.2c0.1,0.2,0.3,0,0.3-0.2
				c0,0,0,0.2,0,0.3s0.2-0.3,0.2-0.1c0,0,0,0.1,0,0.1c0-0.1,0.2,0,0.2-0.2c0.1,0.1,0.2-0.1,0.3,0c0.1-0.3,0.2,0.1,0.2-0.3
				c0,0.4,0.2,0.3,0.3,0.1c0,0.1,0.1,0.1,0,0.3c0.1,0,0.2-0.1,0.2-0.3c0.1,0.5,0.3-0.4,0.4,0.2c0.2-0.2,0.5-0.3,0.7-0.4
				c0,0.4-0.3,0-0.3,0.5c0.2-0.2,0.4-0.5,0.6-0.4c0,0,0,0.2-0.1,0.2c0.2-0.2,0.4,0,0.6-0.2c0,0,0,0.1,0,0.1c0,0,0.1,0.1,0.1-0.1l0,0
				c0-0.3,0.2-0.5,0.2-0.7c-0.1,0.5,0.2,0.1,0,0.8c0-0.1,0.1-0.1,0.1-0.2c0,0,0,0.1,0,0.2c0.1-0.1,0.1-0.3,0.2-0.3s0,0.1,0,0.2
				c0.1-0.2,0.2-0.3,0.3-0.2s0,0.1,0,0.1c0.2,0,0.3-0.4,0.5-0.2c-0.1,0.3,0.1,0.1,0,0.4l0.1-0.1v-0.1c0.1,0,0.2-0.2,0.3-0.1
				l-0.1,0.1l0.2-0.1l-0.1-0.1c0.1-0.1,0-0.4,0.2-0.3c0,0,0.1,0,0.1,0.2l0,0c0.1-0.1,0.1-0.2,0.2-0.1s0,0.3,0,0.4
				c0.1-0.2,0.2-0.1,0.3-0.3c0,0.1,0,0.1,0,0.2l0-0.2c0,0.1,0,0.1,0,0.2s0-0.3,0.1-0.2c0,0,0,0,0,0.1c0.2,0.1,0.3-0.1,0.5,0
				c0,0.3-0.1,0.1-0.1,0.3c0.2,0,0.5-0.3,0.7-0.2l0,0c0.1-0.3,0.1,0.2,0.3,0c0,0,0,0.1,0,0.2c0.1,0.1,0.3-0.1,0.5-0.1v0.1
				c0.1,0.1,0.2,0.1,0.3,0.1s0.1-0.1,0.1-0.2c0.2,0.4,0.5-0.2,0.7,0.2c0,0-0.1,0,0,0h0.2c0-0.1,0-0.1,0-0.1c0-0.1,0.1-0.1,0.2-0.1
				c-0.1,0.1,0,0.2,0,0.2s0-0.1,0-0.1c0.1,0.2,0-0.2,0.2-0.1l0,0c0,0,0.1-0.1,0.2-0.1s-0.1,0-0.1,0.1s0.2-0.2,0.3-0.1s-0.1,0-0.1,0
				s0.1,0.1,0.1,0.1l0,0l0.1,0.1l0,0c0.1-0.2,0.2,0,0.4-0.1c-0.2,0.1,0,0.1-0.1,0.2s0.1,0.1,0.1,0.1s0.1,0.1,0.2,0s0.1,0,0,0.1
				s0,0,0-0.1s0.3,0.1,0.5,0s0.2-0.1,0.4-0.1s0,0.1,0,0.1c0.1,0,0.1,0,0.2,0l0,0c0,0,0,0,0.1,0h-0.1h0.2c0,0,0,0-0.1,0
				c0.1,0,0.2,0,0.3,0h0l0,0c0,0-0.1,0-0.1,0h0.1c0-0.1-0.2,0-0.3,0h0.1h-0.1v-0.1c0,0-0.1,0-0.1,0s0,0,0,0h-0.1c0,0,0-0.1,0,0
				c-0.1-0.1-0.2,0-0.3-0.1l0,0c-0.2,0,0,0.1-0.2,0.1L58,69.6v0.1l0,0c0,0,0,0,0,0.1s-0.3,0-0.3-0.2c0,0.1,0.1,0.1,0,0.1
				c0-0.2-0.1,0-0.2-0.1s0.1,0,0-0.1c-0.1,0.1-0.2-0.1-0.2-0.1s-0.2,0-0.3,0s-0.2-0.1-0.3-0.2l0,0c0,0.1-0.2,0.1-0.2,0.1
				s0-0.1,0.1-0.2h-0.1c0,0-0.1,0.1-0.1,0.1v-0.1c-0.1,0-0.2,0.1-0.4,0c0,0.1,0.1,0.4-0.1,0.4c0-0.1,0-0.2,0.1-0.2s0,0-0.1,0
				l0.1-0.1c0-0.1,0,0.1-0.1,0.1s0-0.1,0-0.2s0,0,0.1,0c-0.1,0-0.1-0.1-0.1-0.2c0,0.1,0,0.1-0.1,0.1s0-0.1-0.1-0.2s-0.1,0-0.1,0.1
				c0,0,0-0.1,0-0.1s-0.3,0-0.2,0.2l0,0l0,0c-0.2,0.1-0.4-0.2-0.5-0.1V69c-0.1,0.1-0.2,0-0.3,0.1s-0.1-0.1,0-0.2s-0.1,0.1-0.2,0
				c0.1-0.1,0-0.1,0.1-0.1c-0.1-0.1-0.1-0.2-0.2,0c0.1-0.2-0.1-0.2-0.1-0.2l0.1,0.1c-0.1,0-0.1,0-0.2,0v-0.2
				c-0.2-0.3-0.4,0.4-0.6-0.1c-0.1,0.2,0.1,0.1,0,0.3c-0.1,0-0.2-0.4-0.2-0.4c-0.1-0.2-0.2,0.3-0.3,0.2c0,0.1,0,0.3-0.1,0.4
				s-0.1-0.4,0-0.5s0,0,0,0.1c0.1,0,0.1-0.1,0.1-0.2c0,0,0,0,0,0v0.1c0-0.1-0.2-0.1-0.1-0.3c-0.1,0.1,0,0.1,0,0.2
				c-0.1-0.2-0.2,0-0.3-0.2c0,0.1,0,0.2,0,0.2c-0.2-0.2-0.1,0.2-0.2,0.2c-0.1-0.2,0.1-0.3-0.1-0.2c-0.1-0.1,0-0.3,0-0.3
				c-0.1,0.2-0.2-0.2-0.3-0.2l0.1-0.1c0,0-0.1,0-0.1,0V68c0,0-0.1,0-0.1-0.1c0,0.1,0,0.3-0.1,0.5c0-0.1-0.2,0.1-0.2-0.2
				c0.2,0.1,0-0.3,0.1-0.3s-0.1,0-0.1,0c0,0,0,0,0-0.1c-0.1-0.3-0.1,0.3-0.3,0.3c0-0.2,0-0.3,0-0.3s0,0.3-0.1,0.4
				c-0.1-0.1-0.1,0.1-0.2,0.1v0.1c0,0.2-0.1,0.1-0.2,0.2c0-0.1,0.1-0.1,0-0.1c-0.1,0.3-0.2-0.3-0.3-0.1c0-0.1,0-0.3,0-0.4
				c-0.1,0.2-0.1-0.2-0.3-0.1c0,0.2,0,0.2-0.1,0.4l0.2-0.1l-0.2,0.3c0.1,0,0.1-0.1,0.2-0.1s-0.1,0.1,0,0.3c-0.1-0.3-0.2,0.2-0.3,0
				V68c-0.1-0.3-0.3,0.2-0.5,0.1l0.1,0.1c0,0.2-0.1,0-0.2,0.1c0-0.1,0-0.2,0-0.4c0,0.1-0.1,0-0.2,0.3l-0.1-0.3
				c-0.2-0.1-0.2,0.5-0.3,0.4c0.1-0.2,0-0.3,0.1-0.5c0,0-0.1,0-0.1,0.1c0-0.1-0.2,0.3-0.2,0.1c0,0.1,0,0.3-0.1,0.3c0,0,0-0.1,0-0.1
				c0,0.1-0.1,0.1,0,0.3c-0.1-0.6-0.4,0-0.6-0.5c-0.1,0.1-0.2,0.1-0.3,0.1c0,0,0-0.1,0-0.1c-0.1-0.2-0.1,0.6-0.3,0.3s0.1-0.2,0-0.3
				c0-0.6-0.2,0.1-0.3-0.3l0,0c-0.1-0.2-0.2,0.2-0.3,0.2c0,0,0-0.1,0-0.1c-0.1,0.2-0.2,0.4-0.4,0.5c0-0.3,0.1-0.1,0-0.4
				c-0.1,0,0,0.4-0.1,0.5c-0.1-0.2-0.2-0.5-0.2-0.7h0.1c0-0.4-0.1,0-0.2,0v-0.2c-0.2,0-0.2,0.4-0.3,0.4v0.1
				c-0.1,0.4-0.1-0.2-0.2,0.1V68c-0.1,0.2-0.2,0.3-0.3,0.5c0.1-0.2,0.2-0.4,0.3-0.6c-0.1,0-0.2,0.1-0.3,0.2c0,0,0.1-0.1,0.1-0.1
				c-0.1,0.3-0.2,0.5-0.3,0.5c0-0.8-0.3-0.2-0.4-0.8c-0.2,0.3-0.4-0.1-0.7-0.1c0.1,0.6-0.1,0,0,0.6c-0.1,0-0.1,0-0.1,0l-0.2-0.3
				c0-0.2,0-0.1,0-0.3s-0.1-0.3-0.2-0.4c0,0.2,0,0.3-0.1,0.2l0.1,0.3c-0.2,0.3-0.2-0.5-0.4-0.2l0.1-0.2c-0.1,0.1-0.4,0-0.4,0.5
				c0-0.1,0-0.2,0-0.3c-0.2-0.1-0.5,0.5-0.7,0.3v-0.2c0,0-0.1,0.3-0.1,0.1s0-0.2,0-0.2s-0.1,0.3-0.2,0.2v-0.2
				c-0.2-0.2-0.3,0.4-0.5,0.5c0-0.2-0.1-0.5-0.3-0.6v-0.1c-0.3,0-0.4,0.4-0.7,0.6c-0.2-0.4-0.5-0.1-0.8-0.3c0,0.1,0,0.2,0,0.3
				c-0.1-0.1-0.1,0.3-0.2-0.1l0,0c-0.1-0.3-0.2-0.2-0.3-0.2v0.5c-0.3-0.6-0.6,0.3-0.8-0.3c0,0.1-0.1,0.1-0.2,0.3V68
				c-0.1-0.1-0.3-0.1-0.4,0v-0.2c-0.1,0-0.1,0.7-0.2,0.7l-0.1-0.3c-0.2,0-0.4-0.2-0.6,0.1c0,0,0-0.2,0-0.2s-0.4-0.2-0.3,0.3
				c0-0.3-0.2,0-0.3,0.2v-0.2c-0.1,0.3-0.1,0.3-0.2,0.4s0-0.2,0-0.1c-0.1-0.1-0.1,0.2-0.2,0.1v-0.1c-0.1,0-0.1,0.1-0.1,0.2
				s-0.2,0-0.2-0.2c0,0.1,0,0.3-0.1,0.2c0,0,0-0.1,0-0.1c-0.2-0.1-0.2,0.3-0.3,0.1c0,0,0-0.1,0-0.1c0.1,0,0.2,0,0.2,0
				c0-0.2-0.1-0.2-0.1-0.4c-0.1,0.2-0.2,0.4-0.3,0.4s0,0,0,0l0,0c0,0,0,0-0.1,0c0,0-0.1,0-0.1,0c0-0.1-0.1,0-0.2,0s0,0.2,0,0.3
				s0,0,0,0l0,0l0,0h0.1c0,0.1-0.1,0.2-0.1,0.1c0,0.1,0,0.2,0,0.3c-0.1-0.2-0.3-0.3-0.3-0.4c-0.2,0.1-0.4,0.2-0.4,0.4
				c0,0-0.1-0.1-0.1-0.1s0,0,0.1-0.1s-0.3,0.1-0.3,0.3c-0.1-0.1,0-0.2-0.1-0.1v-0.1c-0.3-0.2-0.4,0.5-0.8,0.3l0,0
				c-0.4,0-0.8,0.3-1.2,0.2c-0.1,0-0.1,0.1-0.2,0.1v-0.1l-0.1,0.1C31.2,70,31,69.9,30.9,70l0,0c-0.1,0-0.2,0.1-0.2,0s0,0,0,0l0,0
				l-0.2,0.1c-0.1,0,0,0-0.2,0l-0.2,0.1h0.1h-0.1c0,0-0.1,0,0.1,0h0.1h-0.1c0,0,0.1,0,0.1,0l0,0h0.1c0,0,0,0,0,0s-0.1,0,0-0.1
				s0,0,0.1,0s0,0,0,0s0.2,0,0.2,0s0.2,0,0.2,0.1c0,0,0.1-0.1,0.2-0.1c-0.1,0.1,0.2,0,0.2,0.1c0.1-0.1,0.3,0,0.4-0.1s0,0,0,0
				s0.1,0,0.1,0.1s0.1-0.1,0.2-0.2c0.1,0.1,0,0.1,0,0.3c0-0.1,0.2-0.1,0.1-0.2c0.1,0.1,0.1,0,0.1,0.1c0-0.2,0.1,0,0.1-0.1
				c0.1,0.1,0,0.2,0.2,0.1S32.7,70.2,32.7,70.2z M35.5,69.8C35.5,69.8,35.5,69.8,35.5,69.8c-0.1-0.1-0.1-0.1-0.1-0.1
				S35.5,69.7,35.5,69.8L35.5,69.8z M34.9,68.7C34.9,68.7,34.9,68.7,34.9,68.7C35,68.7,34.9,68.7,34.9,68.7L34.9,68.7L34.9,68.7z"/>
			<path class="st1" d="M34.9,68.9L34.9,68.9L34.9,68.9L34.9,68.9L34.9,68.9z"/>
			<path class="st1" d="M55.1,69.1L55.1,69.1L55.1,69.1z"/>
			<polygon class="st1" points="38.6,70.1 38.6,70 38.6,70.1 			"/>
			<path class="st1" d="M56.2,69.8L56.2,69.8L56.2,69.8z"/>
			<path class="st1" d="M56.7,69.8L56.7,69.8L56.7,69.8z"/>
			<path class="st1" d="M57.1,69.9L57.1,69.9L57.1,69.9z"/>
			<path class="st1" d="M50.7,69.8L50.7,69.8C50.6,69.9,50.7,69.9,50.7,69.8z"/>
			<path class="st1" d="M52.6,69.4C52.6,69.4,52.6,69.5,52.6,69.4C52.6,69.5,52.6,69.5,52.6,69.4z"/>
			<polygon class="st1" points="48.6,70.1 48.6,70.1 48.5,70.1 			"/>
			<path class="st1" d="M52.5,69.5C52.5,69.5,52.5,69.5,52.5,69.5C52.6,69.5,52.5,69.4,52.5,69.5z"/>
			<polygon class="st1" points="58.9,70.1 58.9,70.1 58.9,70.1 			"/>
			<path class="st1" d="M58.9,70.1L58.9,70.1z"/>
			<path class="st1" d="M59,70.1L59,70.1z"/>
			<path class="st1" d="M58.3,70L58.3,70z"/>
			<path class="st1" d="M58.2,70c0,0,0.1,0,0.2,0l0,0C58.3,70,58.2,70,58.2,70z"/>
			<path class="st1" d="M57.6,69.6h0.1c0,0,0-0.1,0-0.1C57.6,69.5,57.7,69.7,57.6,69.6z"/>
			<path class="st1" d="M57.2,69.5C57.2,69.5,57.2,69.5,57.2,69.5C57.2,69.3,57.1,69.4,57.2,69.5z"/>
			<path class="st1" d="M54.1,68.8v-0.2C54.1,68.7,54.2,68.7,54.1,68.8z"/>
			<polygon class="st1" points="53.5,69.6 53.5,69.7 53.5,69.6 			"/>
			<polygon class="st1" points="53.2,68.3 53.3,68.3 53.2,68.3 			"/>
			<path class="st1" d="M48,67.8v0.3C48,68.1,48.1,67.7,48,67.8z"/>
			<path class="st1" d="M45.8,68c0-0.2-0.1-0.3-0.1-0.1S45.8,68,45.8,68z"/>
			<polygon class="st1" points="39,67.9 39.1,67.8 39,67.9 			"/>
		</g>
	</g>
	<path id="arbusto" class="st2" d="M121.2,26.2c-0.1,4.4-1.6,8.7-4.4,12.1c-0.5,0.6-0.7,1.3-0.7,2l0,0c0,6.7-5.4,12.1-12.1,12.1
		c0,0,0,0,0,0H25.7c-3.6,0-7.1-0.5-10.5-1.5C6.2,48.1,0,42,0,34.9c0-9.6,11.5-17.5,25.7-17.5c5.1,0,10.1,1,14.7,3.2
		c1.6,0.7,3.4,0.1,4.2-1.5c0,0,0-0.1,0-0.1C49.3,8,64.3,0,82.1,0C103.7,0,121.2,11.7,121.2,26.2z"/>
	<g id="texto">
		<path class="st3" d="M22.7,31.5c0-0.7,0.1-1.4,0.4-2c0.3-0.6,0.6-1.1,1.1-1.5c0.5-0.5,1-0.8,1.6-1.1c0.6-0.3,1.3-0.4,2-0.4h7.7
			v3.4h-7.7c-0.4,0-0.9,0.2-1.2,0.5c-0.2,0.2-0.3,0.3-0.4,0.5c-0.1,0.2-0.1,0.4-0.1,0.6c0,0.2,0,0.5,0.1,0.7
			c0.2,0.4,0.5,0.7,0.9,0.9c0.2,0.1,0.4,0.1,0.6,0.1h3.4c0.7,0,1.4,0.1,2,0.4c0.6,0.3,1.1,0.6,1.6,1.1c0.5,0.5,0.8,1,1.1,1.6
			c0.5,1.3,0.5,2.7,0,3.9c-0.3,0.6-0.6,1.1-1.1,1.6c-0.5,0.5-1.1,0.8-1.7,1.1c-0.6,0.3-1.3,0.4-2,0.4h-7.4v-3.4h7.5
			c0.2,0,0.4,0,0.6-0.1c0.2-0.1,0.4-0.2,0.5-0.4c0.2-0.2,0.3-0.3,0.3-0.5c0.2-0.4,0.2-0.9,0-1.3c-0.1-0.2-0.2-0.4-0.3-0.5
			c-0.2-0.2-0.3-0.3-0.5-0.4c-0.2-0.1-0.4-0.1-0.6-0.1h-3.4c-0.7,0-1.3-0.1-2-0.4c-1.2-0.5-2.2-1.5-2.7-2.7
			C22.8,32.9,22.7,32.2,22.7,31.5z"/>
		<path class="st3" d="M41.7,43.3h-3.4V26.5h3.4V43.3z"/>
		<path class="st3" d="M56.6,43.3H44.8V26.5h3.4v13.4h8.4V43.3z"/>
		<path class="st3" d="M69.5,26.5L64,43.3h-3.4l-5.5-16.8h3.8l3.3,11.2l3.4-11.2L69.5,26.5z"/>
		<path class="st3" d="M82.6,43.3H71.1V26.5h11.5v3.4h-8.2v3.4H80v3.4h-5.6v3.4h8.2V43.3z"/>
		<path class="st3" d="M88.3,43.3H85V26.5h6.7c0.6,0,1.2,0.1,1.8,0.2c0.6,0.2,1.1,0.4,1.6,0.7c0.5,0.3,1,0.7,1.4,1.1
			c1.3,1.3,2,3,2,4.8c0,0.6-0.1,1.1-0.2,1.7c-0.1,0.5-0.4,1.1-0.6,1.6c-0.3,0.5-0.6,0.9-1,1.4c-0.4,0.4-0.8,0.8-1.3,1.1l1.9,4.4
			h-3.6l-1.5-3.4h-3.8L88.3,43.3z M88.3,29.9v6.7h3.4c0.4,0,0.9-0.1,1.3-0.3c0.4-0.2,0.8-0.4,1.1-0.7c0.3-0.3,0.6-0.7,0.7-1.1
			c0.3-0.8,0.3-1.8,0-2.6c-0.2-0.4-0.4-0.8-0.7-1.1c-0.3-0.3-0.7-0.5-1.1-0.7c-0.4-0.2-0.9-0.3-1.3-0.3H88.3z"/>
	</g>
	<g id="flor">
		<polygon id="petalos" class="st4" points="103.5,14.6 104.8,16.8 103.5,19 100.9,19 99.7,21.3 97.1,21.3 95.9,19 93.3,19 
			92.1,16.8 93.3,14.6 92.1,12.4 93.3,10.2 95.9,10.2 97.1,8 99.7,8 100.9,10.2 103.5,10.2 104.8,12.4 		"/>
		<polygon id="centro" class="st3" points="99.3,13 97.5,13 96.5,14.6 97.5,16.3 99.3,16.3 100.3,14.6 		"/>
	</g>
</g>
</svg>
