<svg xmlns="http://www.w3.org/2000/svg" xmlns:xlink="http://www.w3.org/1999/xlink" viewBox="0 0 512 103.9"><defs><linearGradient id="Degradado_sin_nombre_43" x1="256" y1="-129.88" x2="256" y2="-203.23" gradientTransform="translate(0 210.74)" gradientUnits="userSpaceOnUse"><stop offset="0" stop-color="#4fb56d" stop-opacity="0.1"/><stop offset="0.37" stop-color="#22914f" stop-opacity="0.6"/><stop offset="0.47" stop-color="#24914e" stop-opacity="0.67"/><stop offset="1" stop-color="#2f9049"/></linearGradient></defs><g id="Capa_2" data-name="Capa 2"><g id="sections"><path id="suelo_bottom" d="M512,0V50.82a32.63,32.63,0,0,1-6.53,19.59l-5.75,7.67h0c-7.68,13-11.53,19.44-15.37,22.6-13,10.71-21.48-11.61-45.77-12.48-17.49-.64-18.6,10.72-31.83,6.55C388.24,88.88,388.5,66,372.07,60.25c-18.82-6.6-27.23,20.57-48.27,13.67-9.92-3.24-14.13-11.27-23.06-21.11A103.15,103.15,0,0,0,281.24,36a45.45,45.45,0,0,0-49.72-.18,102.45,102.45,0,0,0-20.26,17.32C202.33,63,198.12,71,188.2,74.24c-21,6.9-29.45-20.27-48.27-13.67-16.43,5.78-16.17,28.63-34.68,34.5C92,99.24,90.91,87.88,73.42,88.52c-24.29.87-32.73,23.19-45.77,12.48C23.81,97.84,20,91.37,12.28,78.4h0L6.53,70.73A32.63,32.63,0,0,1,0,51.14V0Z" style="fill:url(#Degradado_sin_nombre_43)"/></g></g></svg>
