<?xml version="1.0" encoding="utf-8"?>
<!-- Generator: Adobe Illustrator 24.0.1, SVG Export Plug-In . SVG Version: 6.00 Build 0)  -->
<svg version="1.1" id="sections" xmlns="http://www.w3.org/2000/svg" xmlns:xlink="http://www.w3.org/1999/xlink" x="0px" y="0px"
	 viewBox="0 0 512 103.9" style="enable-background:new 0 0 512 103.9;" xml:space="preserve">
<style type="text/css">
	.ht0{fill:url(#suelo_bottom_1_);}
</style>
<linearGradient id="suelo_bottom_1_" gradientUnits="userSpaceOnUse" x1="256" y1="235.88" x2="256" y2="309.23" gradientTransform="matrix(1 0 0 -1 0 316.74)">
	<stop  offset="0" style="stop-color:#4FB56D;stop-opacity:0.1"/>
	<stop  offset="0.37" style="stop-color:#22914F;stop-opacity:0.6"/>
	<stop  offset="0.47" style="stop-color:#24914E;stop-opacity:0.67"/>
	<stop  offset="1" style="stop-color:#2F9049"/>
</linearGradient>
<path id="suelo_bottom" class="ht0" d="M512,0v50.8c0,7.1-2.3,13.9-6.5,19.6l-5.8,7.7l0,0c-7.7,13-11.5,19.4-15.4,22.6
	c-13,10.7-21.5-11.6-45.8-12.5c-17.5-0.6-18.6,10.7-31.8,6.6c-18.5-5.9-18.3-28.8-34.7-34.5c-18.8-6.6-27.2,20.6-48.3,13.7
	c-9.9-3.2-14.1-11.3-23.1-21.1c-5.8-6.4-12.3-12-19.5-16.8c-15.1-9.9-34.6-10-49.7-0.2c-7.5,4.9-14.3,10.7-20.3,17.3
	c-8.9,9.9-13.1,17.9-23.1,21.1c-21,6.9-29.4-20.3-48.3-13.7c-16.4,5.8-16.2,28.6-34.7,34.5c-13.2,4.2-14.3-7.2-31.8-6.6
	c-24.3,0.9-32.7,23.2-45.8,12.5c-3.8-3.2-7.6-9.6-15.4-22.6l0,0l-5.7-7.7C2.3,65.1,0,58.2,0,51.1V0H512z"/>
</svg>
