<?xml version="1.0" encoding="utf-8"?>
<!-- Generator: Adobe Illustrator 24.0.1, SVG Export Plug-In . SVG Version: 6.00 Build 0)  -->
<svg version="1.1" id="jardin_1_" xmlns="http://www.w3.org/2000/svg" xmlns:xlink="http://www.w3.org/1999/xlink" x="0px" y="0px"
	 viewBox="0 0 224.8 241" style="enable-background:new 0 0 224.8 241;" xml:space="preserve">
<style type="text/css">
	.st0{fill:#0B7F40;}
	.st1{fill:#EBEBEB;}
	.st2{fill:#23A249;}
	.st3{fill:url(#cesped_1_);}
	.st4{fill:#41995D;}
	.st5{fill:url(#SVGID_1_);}
	.st6{fill:#80C341;}
	.st7{fill:#D2E043;}
</style>
<g id="hoja_back">
	<path id="hoja" class="st0" d="M221.8,25.2c12.5,10.3-16.6,44.2-35.4,67.1s-38.2,39.1-50.7,28.8s-7.5-37.2,11.3-60
		S209.2,14.9,221.8,25.2z"/>
	<g id="raiz">
		<path class="st1" d="M164.9,73.4c1.7,0.6,3.4,1.1,5.2,1.3c1.8,0.3,3.6,0.3,5.4,0.2c1.8-0.2,3.5-0.5,5.2-1.1c1.7-0.5,3.4-1.2,5-2.1
			l0.1,0.1c-1.4,1.3-3,2.3-4.7,2.9c-1.8,0.7-3.6,1-5.5,1c-3.7,0.1-7.3-0.7-10.7-2.3L164.9,73.4z"/>
	</g>
	<g id="raiz-2">
		<path class="st1" d="M154.5,91.2c2.6-6.4,6.1-12.5,10.3-18.1c4.1-5.6,8.7-10.9,13.7-15.7c1.3-1.2,2.6-2.3,3.9-3.5
			c0.6-0.6,1.3-1.2,1.9-1.7l2-1.6c1.4-1.1,2.7-2.2,4.1-3.3l4.3-3l2.1-1.5l2.2-1.4l4.4-2.8c0.7-0.5,1.5-0.9,2.3-1.3L208,36l4.6-2.4
			c-3,1.8-6,3.5-8.9,5.4l-4.3,2.9l-2.2,1.4l-2.1,1.5l-4.1,3.1c-1.4,1.1-2.7,2.2-4,3.3l-2,1.7c-0.7,0.6-1.3,1.2-1.9,1.7
			c-1.3,1.2-2.6,2.3-3.8,3.5c-5,4.8-9.6,10-13.8,15.5l-1.6,2.1l-1.5,2.1c-1,1.4-1.9,2.9-2.9,4.3C157.7,85,156,88,154.5,91.2z"/>
	</g>
	<g id="raiz-3">
		<path class="st1" d="M188.9,48.8c1.4,0.3,2.8,0.4,4.3,0.3c1.4,0,2.8-0.2,4.2-0.5c1.4-0.3,2.7-0.7,4-1.3c1.3-0.5,2.6-1.1,3.9-1.8
			l0.1,0.1c-0.5,0.5-1,1-1.6,1.5c-0.3,0.2-0.6,0.4-0.9,0.6l-1,0.5c-1.3,0.6-2.8,1-4.3,1.2C194.6,49.9,191.7,49.7,188.9,48.8
			L188.9,48.8z"/>
	</g>
	<g id="raiz-4">
		<path class="st1" d="M167.8,49.1c0.8,2.3,2.1,4.4,3.8,6.2c0.9,0.8,1.8,1.6,2.8,2.3c1,0.7,2.1,1.3,3.1,1.9v0.1
			c-1.3-0.1-2.5-0.5-3.7-1.1c-1.1-0.7-2.1-1.5-2.9-2.5c-1.6-2-2.8-4.3-3.3-6.8L167.8,49.1z"/>
	</g>
</g>
<path id="hoja_front" class="st2" d="M106.4,0.1c-16.1,2-9.5,46.3-5.9,75.6s11.4,53.4,27.5,51.4s26.2-27.4,22.5-56.8
	S122.5-1.9,106.4,0.1z"/>
<g id="arbusto_flor">
	
		<linearGradient id="cesped_1_" gradientUnits="userSpaceOnUse" x1="99.535" y1="14.68" x2="99.535" y2="108.1886" gradientTransform="matrix(1 0 0 -1 0 242)">
		<stop  offset="0" style="stop-color:#41995D;stop-opacity:0"/>
		<stop  offset="7.000000e-02" style="stop-color:#449B5C;stop-opacity:4.000000e-02"/>
		<stop  offset="0.19" style="stop-color:#4BA058;stop-opacity:0.16"/>
		<stop  offset="0.34" style="stop-color:#58A853;stop-opacity:0.36"/>
		<stop  offset="0.51" style="stop-color:#69B34B;stop-opacity:0.63"/>
		<stop  offset="0.7" style="stop-color:#7EC242;stop-opacity:0.97"/>
		<stop  offset="0.72" style="stop-color:#80C341"/>
	</linearGradient>
	<path id="cesped" class="st3" d="M199.1,147.4c-42.7,1.4-56.9,11.3-61,21.4c-3.5,8.8,1.2,16.3-3.8,21.1c-10.4,9.9-36.9-16-54.2-6.7
		c-17,9.1-4,41-23.5,53.3c-13.3,8.4-36.5,4.4-49.9-7.7c-2.5-2.3-4.7-4.8-6.6-7.6v-73.8L199.1,147.4z"/>
	<g id="monte">
		<path class="st4" d="M32.6,165.4L32.6,165.4z"/>
		<path class="st4" d="M32.4,165.4C32.4,165.4,32.3,165.4,32.4,165.4C32.4,165.5,32.3,165.4,32.4,165.4L32.4,165.4L32.4,165.4
			C32.5,165.4,32.4,165.4,32.4,165.4C32.4,165.4,32.4,165.4,32.4,165.4z"/>
		<path class="st4" d="M30.1,164.2L30.1,164.2z"/>
		<path class="st4" d="M28.6,163.4c0,0,0-0.1,0-0.1C28.6,163.3,28.6,163.4,28.6,163.4z"/>
		<path class="st4" d="M28.5,162.8L28.5,162.8C28.5,162.8,28.5,162.7,28.5,162.8z"/>
		<path class="st4" d="M30.1,164.2V164C30.1,164.1,30.1,164.1,30.1,164.2z"/>
		<path class="st4" d="M32,165.5L32,165.5L32,165.5z"/>
		<path class="st4" d="M30.8,164.2L30.8,164.2v-0.1V164.2z"/>
		<path class="st4" d="M31.3,164.4c0,0-0.1,0.2-0.1,0.3c0,0,0-0.1,0.1-0.1L31.3,164.4z"/>
		<path class="st4" d="M32,165.1L32,165.1z"/>
		<path class="st4" d="M30.5,164v-0.1V164z"/>
		<path class="st4" d="M15.9,165.6L15.9,165.6z"/>
		<polygon class="st4" points="15.2,165.4 15.2,165.4 15.2,165.4 		"/>
		<path class="st4" d="M28,162L28,162L28,162z"/>
		<path class="st4" d="M23.2,161.8c0.1,0.5-0.1,0.6,0,1.2C23.2,162.6,23.2,162.1,23.2,161.8z"/>
		<path class="st4" d="M32,165.5L32,165.5z"/>
		<path class="st4" d="M23.2,163L23.2,163L23.2,163z"/>
		<path class="st4" d="M26.8,162L26.8,162z"/>
		<path class="st4" d="M27.6,162.9L27.6,162.9C27.6,162.8,27.6,162.8,27.6,162.9z"/>
		<path class="st4" d="M26.3,162.6C26.3,162.6,26.3,162.5,26.3,162.6L26.3,162.6C26.3,162.6,26.3,162.5,26.3,162.6z"/>
		<path class="st4" d="M25.8,162.6v0.1l0,0V162.6z"/>
		<path class="st4" d="M17.3,165.9l-0.1-0.2C17.3,165.9,17.3,165.9,17.3,165.9z"/>
		<path class="st4" d="M32,165.4L32,165.4L32,165.4L32,165.4z"/>
		<path class="st4" d="M26,166.8L26,166.8L26,166.8z"/>
		<path class="st4" d="M20.5,166.3L20.5,166.3C20.5,166.3,20.5,166.3,20.5,166.3z"/>
		<path class="st4" d="M25.7,166.8c0-0.1,0-0.2,0-0.4v0.1V166.8z"/>
		<path class="st4" d="M17.3,165.7"/>
		<path class="st4" d="M16.9,166.1c0.1,0,0-0.2-0.1-0.4S16.9,165.9,16.9,166.1c0.1-0.1,0.1-0.4,0.1-0.3c0,0,0,0.1,0,0.1
			c0-0.2,0.2,0,0.2-0.3v0.1c0-0.2-0.1-0.3-0.1-0.4s0-0.2,0.1,0c0,0,0,0.1,0,0.1v-0.1c0.1,0.3,0,0.1,0,0.3c0-0.1,0.1-0.4,0.1-0.3
			c0.1,0.3-0.1,0.1,0,0.4l-0.1-0.1c0.2,0.5,0,0,0.1,0.5c0.1,0.1,0.1-0.1,0.2,0c0-0.2-0.1-0.3-0.1-0.4c0.1-0.3,0.3,0.9,0.3,0.4
			c0-0.2-0.1-0.7,0-0.4l0.1,0.4c0.1,0.1-0.1-0.6,0.1-0.3s0,0.1,0,0.2c0.1,0.3,0-0.2,0-0.2l0.1,0.4c0.1,0,0.1-0.3,0.2-0.4
			c0,0.1,0,0.3,0.1,0.4c0.1-0.2,0.3,0.1,0.5,0.4v-0.4c0,0.1,0.1,0.2,0.1,0.3c0.1,0.2,0-0.3,0-0.4s0.1,0.2,0.1,0.4
			c0-0.3,0.1-0.7,0.3-0.3v0.1c0.1,0.2-0.1-0.9,0.1-0.5v0.1c0.2,0.2,0.3-0.2,0.5,0.5c-0.1-0.7,0.2,0.3,0.1-0.6c0.1,0.3,0.2,0.7,0.3,1
			c0,0.1,0-0.6,0-0.7l0.1,0.5v-0.5l0.1,0.6v-0.1c0-0.1-0.1-0.3-0.1-0.4c0-0.2,0.2,0.4,0.2,0.6l0.1-0.4c0,0.1,0,0.3,0,0.4
			c0-0.5,0.1,0.6,0.1,0.1c0-0.1,0-0.3,0-0.4c0.1,0.3,0.2,0.3,0.2,0.2v0.4c0.1,0.1,0.2-0.2,0.3-0.1c-0.1-0.3-0.1-0.6-0.1-0.9l0.1,0.6
			c0-0.2-0.1-0.4-0.1-0.7c0.1,0.3,0.1,0.6,0.1,0.9v-0.2c0,0.2,0,0.3,0,0.5c0-0.4,0.2,0.6,0.1,0v0.2c0.1,0,0.2-0.2,0.3-0.2
			c0-0.3,0-0.6,0-0.8c0.1,0.2,0.2,0.6,0.3,0.6c0-0.3,0-0.5,0-0.8c0,0.5,0.1,0.4,0.1,0.8c0.1-0.1,0.1-0.1,0.2-0.5c0-0.2,0-0.3,0-0.5
			s0.1,0.2,0.1,0.4v0c0.1-0.8,0.4,1.5,0.5,0.4l0,0l0.1-0.6c0,0.1,0,0.4,0,0.7c0.1-0.8,0.2,0.1,0.3-0.4c0.1,1.5,0.3-0.1,0.4,0.9v-0.4
			c0-0.4,0,0.2,0.1,0.3c0-0.3,0-0.3,0-0.5c0.2-0.4,0.5,0.5,0.7,0.8c0.1,0.1,0.1-1.8,0.2-1v0.7c0.2-0.8,0.4,0,0.6-0.6
			c0,0.1,0,0.2,0,0.3c0,0.5,0.1,0,0.1-0.4c0,0.2,0,0.4,0,0.5c0,0.3,0.1-0.6,0.1-0.1c0,0.1,0,0.1,0,0.2c0-0.2,0.1,0,0.1-0.5
			c0,0.3,0.1-0.2,0.2,0.1c0.1-0.6,0.1,0.3,0.2-0.6c-0.1,0.9,0.1,0.7,0.1,0.3c0,0.3,0,0.3,0,0.6c0,0,0.1-0.2,0.1-0.6
			c0,1,0.3-0.8,0.2,0.5c0.1-0.3,0.3-0.7,0.5-0.9c-0.1,0.8-0.1,0.1-0.2,0.9c0.2-0.4,0.3-1,0.4-0.9c0,0.2,0,0.3-0.1,0.5
			c0.2-0.3,0.2,0.1,0.4-0.4c0,0.1,0,0.1,0,0.2c0,0,0,0.1,0.1-0.2v0.1c0.1-0.4,0.1-0.9,0.3-1.3c-0.2,1,0.1,0.3-0.1,1.5
			c0-0.1,0.1-0.3,0.1-0.5c0,0.2,0,0.3,0,0.5c0.1-0.2,0.1-0.6,0.2-0.6c0,0.2,0,0.2-0.1,0.4c0.1-0.3,0.2-0.6,0.2-0.5s0,0.2,0,0.2
			s0.3-0.8,0.4-0.5c-0.1,0.7,0,0.2-0.1,0.8l0.1-0.2v-0.3c0,0,0.2-0.4,0.2-0.2l-0.1,0.2l0.1-0.1v-0.2c0.1-0.3,0.1-0.7,0.2-0.6
			s0,0,0,0.3l0,0c0.1-0.2,0.1-0.4,0.1-0.2s-0.1,0.6-0.1,0.7c0.1-0.5,0.1-0.1,0.3-0.6c0,0.1-0.1,0.4-0.1,0.4l0.1-0.4
			c0,0.1,0,0.3,0,0.4c0.1,0.1,0.1-0.7,0.1-0.4c0,0,0,0.1,0,0.1c0.1,0.1,0.2-0.2,0.3,0c-0.1,0.5-0.1,0.1-0.1,0.6
			c0.1-0.1,0.4-0.6,0.5-0.5v-0.1c0.1-0.7,0,0.3,0.1,0c0,0.1-0.1,0.2-0.1,0.3c0.1,0.1,0.2-0.2,0.4-0.3l0,0.1c0,0.1,0.1,0.1,0.1,0.1
			c0.1-0.1,0.1-0.2,0.1-0.3c0,0.8,0.4-0.4,0.4,0.3c0,0-0.1,0.1-0.1,0.1l0.2-0.1c0-0.1,0-0.2,0-0.3c0-0.1,0.1-0.2,0.1-0.2
			c-0.1,0.1-0.1,0.3-0.1,0.4l0.1-0.2c0,0.4,0.1-0.4,0.1-0.1v0.1c0,0,0.1-0.2,0.1-0.1c0,0.2-0.1,0.1-0.1,0.3c0,0,0.2-0.4,0.2-0.2
			c0,0-0.1,0-0.1,0.1c0,0.2,0,0.2,0,0.2l0,0v0.1v-0.1c0.2-0.5,0.1-0.1,0.3-0.4c-0.2,0.3-0.1,0.1-0.1,0.3s0,0.1,0,0.2
			c0.1-0.1,0,0.1,0.2-0.1c0,0.1,0,0,0,0.1c0.1-0.1,0-0.1,0-0.2s0.1,0.2,0.3,0c0.1-0.1,0.2-0.2,0.3-0.2s-0.1,0.1-0.1,0.1
			s0.1,0.1,0.1,0c0,0,0,0,0,0.1c0,0,0.1-0.1,0.1,0c0,0,0,0.1-0.1,0.1c0,0,0.1-0.1,0.2-0.1c0,0,0,0.1-0.1,0.1c0.1,0,0.1,0,0.2-0.1
			l0,0l0,0h-0.1l0,0c0-0.1-0.1,0-0.2,0l0.1-0.1l-0.1,0.1c0,0,0-0.1,0-0.1c0.1,0-0.1,0-0.1-0.1s0,0,0,0h-0.1c0,0,0-0.1,0-0.1
			c0-0.1-0.2,0.1-0.1-0.1l0,0c-0.1,0,0,0.1-0.2,0.3v-0.4v0.1c0,0,0,0,0-0.1s0,0.1-0.1,0.1c0-0.2-0.2,0-0.1-0.3c0,0.1,0,0.1-0.1,0.2
			c0.1-0.3-0.1,0-0.1-0.1s0.1,0,0.1-0.2c-0.1,0.3-0.1-0.1-0.1-0.1c-0.1,0.2-0.1,0.1-0.2,0.1s-0.1-0.2-0.1-0.3l0,0
			c-0.1,0.3-0.1,0.2-0.2,0.3c0-0.1,0.1-0.2,0.1-0.3h0c0,0.1-0.1,0.1-0.1,0.2l0.1-0.2c-0.1,0-0.2,0.2-0.2,0c0,0.3-0.1,0.6-0.2,0.9
			c0-0.1,0.1-0.3,0.1-0.4c0,0-0.1,0.1-0.1,0l0.1-0.2c0-0.1-0.1,0.2-0.1,0.1c0-0.2,0-0.1,0.1-0.3s0,0.1,0,0c0-0.1,0-0.2,0-0.3
			c0,0.1-0.1,0.3-0.1,0.3s0-0.3,0-0.4c0,0.1,0,0-0.1,0.3c0,0,0-0.2,0-0.3c-0.1,0.1-0.2,0-0.2,0.3l0,0l0,0c-0.2,0.3-0.2-0.3-0.3-0.2
			V164c-0.1,0.1-0.2,0-0.3,0.3c0-0.1,0-0.3,0-0.4c-0.1,0.1-0.1,0.2-0.1,0s0-0.2,0.1-0.1c0-0.1,0-0.4-0.2,0c0.1-0.3,0-0.4,0-0.4v0.3
			c0,0-0.1,0-0.1,0l0.1-0.4c0-0.6-0.4,0.9-0.3-0.1c-0.1,0.3,0,0.3-0.1,0.6c0-0.3,0-0.5,0-0.8c0-0.3-0.2,0.7-0.3,0.5
			c0,0.3-0.1,0.5-0.2,0.8c0-0.3,0-0.6,0.1-0.9c0,0,0,0.1,0,0.1c0.1-0.1,0.1-0.2,0.1-0.3v0.2c0-0.2-0.1-0.2,0-0.5c0,0.1,0,0.3,0,0.4
			c0-0.3-0.1-0.1-0.2-0.3c0,0.1,0,0.2,0,0.3c-0.1-0.3-0.1,0.3-0.2,0.4c0-0.3,0.1-0.7,0-0.5c0-0.2,0-0.4,0.1-0.6
			c-0.1,0.3-0.1-0.3-0.1-0.4l0.1-0.1c0,0.1-0.1,0.1-0.1,0.1v0.4c0-0.1,0-0.2,0-0.3c-0.1,0.3-0.1,0.7-0.2,1c0-0.2-0.1,0.2-0.1-0.3
			c0.1,0.2,0-0.5,0.1-0.6s0,0-0.1,0c0,0,0-0.1,0-0.1c0-0.5-0.1,0.6-0.2,0.6c0-0.3,0-0.6,0-0.5c0,0.2,0,0.5-0.1,0.7
			c0-0.3-0.1,0.2-0.1,0.1v0.1c0,0.3-0.1,0.3-0.1,0.4c0-0.2,0-0.2,0-0.3c-0.1,0.5,0-0.6-0.1-0.2c0-0.2,0.1-0.6,0-0.7
			c-0.1,0.4,0-0.4-0.2-0.1c0,0.2,0,0.5-0.1,0.7l0.2-0.3l-0.1,0.6c0,0,0.1-0.2,0.1-0.2c-0.1,0.2-0.1,0.4-0.1,0.6
			c0-0.6-0.1,0.4-0.2-0.1l0.1-1.1c0-0.5-0.2,0.5-0.3,0.2v0.2c0,0.4-0.1,0.1-0.1,0.2c0-0.2,0-0.5,0-0.7c0,0.3-0.1-0.1-0.2,0.7v-0.5
			c-0.1-0.2-0.2,1-0.3,0.9c0-0.3,0.1-0.6,0.1-0.9c0,0-0.1-0.1-0.1,0.2c0-0.2-0.1,0.5-0.1,0.1c0,0.2,0,0.4-0.1,0.5V163
			c0,0.2-0.1,0.4-0.1,0.7c0-1.2-0.3,0.1-0.3-1c0,0.1-0.1,0.2-0.2,0.3c0-0.1,0-0.2,0-0.1c-0.1-0.4-0.1,1.1-0.2,0.7
			c0-0.6,0.1-0.3,0-0.6c0-1.3-0.1,0.2-0.2-0.6v-0.1c0-0.4-0.1,0.5-0.2,0.4v-0.2c0,0.3-0.1,0.7-0.3,1c0-0.3,0-0.5,0-0.8
			c0,0.1,0,0.8-0.1,1c0-0.4-0.1-0.7-0.1-1.1h0.1c0-0.7-0.1,0-0.1-0.1v-0.3c-0.1,0.1-0.1,0.9-0.2,0.8v0.2c-0.1,0.8,0-0.4-0.1,0.1
			v-0.8c-0.1,0.3-0.1,0.6-0.2,0.9c0-0.4,0.1-0.8,0.2-1.2c0,0-0.1,0.1-0.2,0.4c0-0.1,0-0.3,0-0.1c0,0.6-0.1,0.9-0.2,0.9
			c0-1.5-0.2-0.4-0.3-1.6c-0.1,0.6-0.3-0.2-0.5-0.1c0.1,1.2,0,0,0,1.3c0,0.1,0,0.1-0.1,0l-0.1-0.7c0-0.4,0-0.3,0-0.6
			c-0.1-0.1-0.1-0.5-0.1-0.8c0,0.4,0,0.6-0.1,0.5l0.1,0.6c-0.1,0.7-0.1-1-0.2-0.4v-0.4c-0.1,0.2-0.2,0-0.3,1c0-0.2,0-0.4,0-0.6
			c-0.2-0.1-0.3,1.1-0.4,0.5v-0.3c0,0.1,0,0.6-0.1,0.3c0-0.1,0-0.3,0-0.3s0,0.5-0.1,0.4v-0.3c-0.2-0.4-0.2,0.8-0.3,1
			c0-0.4-0.1-0.8-0.3-1.2v-0.1c-0.2-0.1-0.2,0.7-0.3,1.1c-0.2-0.9-0.4-0.3-0.6-0.7c0,0.2,0.1,0.5,0,0.7c0-0.1,0,0.6-0.1-0.1l0,0
			c-0.1-0.7-0.1-0.5-0.2-0.5l0.1,0.9c-0.3-1.3-0.3,0.6-0.5-0.6c0,0.2,0,0.3,0,0.5l-0.1-0.5c-0.1-0.1-0.2-0.1-0.3,0V162
			c-0.1,0,0.1,1.3,0,1.4l-0.1-0.7c-0.1,0.1-0.3-0.5-0.3,0.2c0-0.1,0-0.2,0-0.3c0,0-0.3-0.3-0.1,0.5c-0.1-0.6-0.1,0-0.1,0.3l-0.1-0.4
			c0,0.3,0,0.5,0,0.8c0,0-0.1-0.3,0-0.2c-0.1-0.2,0,0.4-0.1,0.2v-0.3c-0.1,0,0,0.1,0,0.4s-0.1-0.1-0.2-0.4c0,0.2,0,0.5,0,0.4
			c0-0.1,0-0.2,0-0.2c-0.1-0.2-0.1,0.5-0.2,0.1l0-0.2c0.1,0,0.1,0,0.1,0c-0.1-0.3-0.1-0.5-0.2-0.8c0,0.3,0,0.8-0.1,0.7v-0.1l0,0
			c0,0,0,0,0,0.1s0-0.1-0.1-0.1c-0.1-0.3-0.1-0.1-0.1-0.1c0,0.2,0.1,0.4,0.1,0.5 M17.6,163.8L17.6,163.8L17.6,163.8L17.6,163.8
			c0.1,0.1,0.1,0.3,0,0.1c0,0.2,0,0.4,0.1,0.5c-0.1-0.4-0.3-0.6-0.3-0.9c-0.1,0.2-0.2,0.5-0.1,0.8c0,0.1-0.1-0.1-0.1-0.2
			s0-0.1,0-0.1c0,0.2-0.1,0.1-0.1,0.5c-0.1-0.1,0-0.4-0.1-0.2V164c-0.1-0.2-0.2,0.1-0.2,0.3s-0.1,0.4-0.3,0.1c0,0,0,0.1,0,0.1
			c-0.3-0.1-0.4,0.4-0.7,0.2c-0.1,0-0.1,0.1-0.1,0.2v-0.1v0.2c-0.1,0.1-0.2-0.2-0.3,0.1l0,0c0,0-0.1,0.1-0.1,0.1s0,0.1,0,0l0,0
			l-0.1,0.1c-0.1,0,0-0.1-0.1,0c0,0-0.1,0.1-0.1,0.1h0.1l0,0h0.1h0.1l0,0h-0.1c0,0,0.1,0,0.1,0l0,0h0.1c0,0,0,0,0,0.1
			s-0.1-0.1,0-0.1s0.1,0.1,0.1,0.1s0,0,0,0h0.1c0,0,0.1,0,0.2,0.1c0,0,0-0.1,0.1-0.1c0,0.2,0.1,0,0.2,0.3c0-0.2,0.2,0,0.2-0.1
			s0,0.1,0,0c0.1,0,0.1,0.1,0.1,0.2c0-0.2,0-0.3,0-0.4c0.1,0.2,0,0.3,0.1,0.5c0-0.2,0.1-0.2,0-0.3c0.1,0.1,0.1,0.2,0.1,0.3
			c-0.1-0.3,0-0.1,0-0.2c0.1,0.2,0.1,0.3,0.1,0.2c0.2,0.1,0.3,0.2,0.2,0.4L17.6,163.8z M18.3,165.6L18.3,165.6L18.3,165.6z
			 M18.5,165.6C18.5,165.6,18.5,165.6,18.5,165.6c-0.1-0.1-0.1-0.2-0.1-0.2C18.4,165.4,18.4,165.5,18.5,165.6z M17.7,163.3
			C17.7,163.2,17.7,163.3,17.7,163.3c0,0.1,0,0.1,0,0.1l0,0L17.7,163.3z"/>
		<path class="st4" d="M17.8,163.7L17.8,163.7L17.8,163.7L17.8,163.7L17.8,163.7z"/>
		<path class="st4" d="M30.1,164.2L30.1,164.2L30.1,164.2z"/>
		<polygon class="st4" points="20.4,166.5 20.4,166.4 20.4,166.5 		"/>
		<path class="st4" d="M30.6,165.3L30.6,165.3z"/>
		<path class="st4" d="M30.9,165.4L30.9,165.4C30.9,165.4,30.9,165.4,30.9,165.4z"/>
		<path class="st4" d="M31.1,165.5L31.1,165.5L31.1,165.5L31.1,165.5z"/>
		<path class="st4" d="M27.3,166.1L27.3,166.1C27.2,166.2,27.2,166.2,27.3,166.1z"/>
		<path class="st4" d="M28.5,165l-0.1,0.2C28.4,165.2,28.5,165.3,28.5,165z"/>
		<polygon class="st4" points="26,166.8 26,166.8 26,166.8 		"/>
		<path class="st4" d="M28.4,165.2C28.4,165.3,28.4,165.3,28.4,165.2C28.5,165.1,28.4,165.2,28.4,165.2z"/>
		<polygon class="st4" points="32.2,165.5 32.3,165.5 32.3,165.4 		"/>
		<path class="st4" d="M32.3,165.4L32.3,165.4z"/>
		<path class="st4" d="M32.3,165.4L32.3,165.4z"/>
		<path class="st4" d="M31.9,165.5L31.9,165.5z"/>
		<path class="st4" d="M31.8,165.5C31.8,165.5,31.8,165.6,31.8,165.5L31.8,165.5C31.9,165.6,31.8,165.4,31.8,165.5z"/>
		<path class="st4" d="M31.6,164.8L31.6,164.8C31.6,164.8,31.6,164.7,31.6,164.8C31.6,164.5,31.7,164.9,31.6,164.8z"/>
		<path class="st4" d="M31.4,164.6c0,0,0-0.1,0-0.1S31.4,164.5,31.4,164.6z"/>
		<path class="st4" d="M29.6,163.7l0.1-0.3C29.7,163.4,29.7,163.5,29.6,163.7z"/>
		<polygon class="st4" points="28.9,165.4 28.9,165.6 29,165.3 		"/>
		<polygon class="st4" points="29.2,162.8 29.2,162.8 29.1,162.9 		"/>
		<path class="st4" d="M25.9,162.1v0.6C25.9,162.6,26,161.9,25.9,162.1z"/>
		<path class="st4" d="M24.5,162.6c0-0.3,0-0.5-0.1-0.2C24.5,162.4,24.5,162.7,24.5,162.6z"/>
		<polygon class="st4" points="20.2,162.1 20.2,161.9 20.2,162.1 		"/>
		<path class="st4" d="M71.3,182.5L71.3,182.5z"/>
		<path class="st4" d="M71,182.4c-0.1,0-0.1,0-0.1,0.1S71,182.5,71,182.4c0.1,0,0.1,0,0.1,0c0,0,0.1,0,0.1,0
			C71.1,182.4,71.1,182.4,71,182.4L71,182.4z"/>
		<path class="st4" d="M66.6,181L66.6,181C66.6,181,66.6,181,66.6,181z"/>
		<path class="st4" d="M63.8,180.1c0,0,0-0.1,0-0.1C63.8,180,63.8,180,63.8,180.1z"/>
		<path class="st4" d="M63.4,179.4L63.4,179.4C63.4,179.4,63.4,179.4,63.4,179.4z"/>
		<path class="st4" d="M66.6,181v-0.1C66.5,180.9,66.6,180.9,66.6,181z"/>
		<path class="st4" d="M70.3,182.5L70.3,182.5L70.3,182.5z"/>
		<path class="st4" d="M67.9,181L67.9,181v-0.1V181z"/>
		<path class="st4" d="M68.8,181.3c0,0-0.1,0.2-0.1,0.3c0,0,0-0.1,0.1-0.1C68.8,181.5,68.8,181.4,68.8,181.3z"/>
		<path class="st4" d="M70.2,182.1L70.2,182.1z"/>
		<path class="st4" d="M67.2,180.8v-0.1C67.2,180.7,67.2,180.7,67.2,180.8z"/>
		<path class="st4" d="M40.6,182.7L40.6,182.7z"/>
		<polygon class="st4" points="39.4,182.5 39.4,182.5 39.4,182.5 		"/>
		<path class="st4" d="M62.6,178.6L62.6,178.6C62.6,178.6,62.6,178.6,62.6,178.6z"/>
		<path class="st4" d="M54.2,178.3c0.1,0.5-0.1,0.6,0,1.2C54.3,179.1,54.3,178.7,54.2,178.3z"/>
		<path class="st4" d="M70.3,182.5L70.3,182.5z"/>
		<path class="st4" d="M54.2,179.5L54.2,179.5L54.2,179.5L54.2,179.5z"/>
		<path class="st4" d="M60.5,178.5c0,0.1,0,0.2,0,0.2C60.5,178.7,60.5,178.6,60.5,178.5z"/>
		<path class="st4" d="M62,179.5L62,179.5C61.9,179.5,62,179.5,62,179.5z"/>
		<path class="st4" d="M59.6,179.2C59.6,179.2,59.6,179.1,59.6,179.2L59.6,179.2C59.6,179.1,59.6,179.1,59.6,179.2z"/>
		<path class="st4" d="M58.8,179.1v0.1l0,0V179.1z"/>
		<path class="st4" d="M43.1,182.8c0-0.1-0.1-0.1-0.1-0.2C43.1,182.8,43,182.8,43.1,182.8z"/>
		<path class="st4" d="M70.3,182.5L70.3,182.5L70.3,182.5L70.3,182.5z"/>
		<path class="st4" d="M59.4,183.4l-0.1-0.1C59.3,183.3,59.3,183.4,59.4,183.4z"/>
		<path class="st4" d="M49,182.9L49,182.9C49,183,48.9,183,49,182.9z"/>
		<path class="st4" d="M58.9,183.4c0-0.1,0-0.2-0.1-0.4v0.1L58.9,183.4z"/>
		<path class="st4" d="M43,182.6"/>
		<path class="st4" d="M42.3,183c0.1,0,0-0.3,0-0.4s0.1,0.2,0.2,0.3c0.1-0.1,0.1-0.3,0.2-0.3c0,0,0,0.1,0,0.1c0.1-0.2,0.3,0,0.3-0.3
			v0.1c0-0.1-0.1-0.3-0.1-0.4c0.1,0,0.1-0.2,0.1,0c0,0,0,0.1,0,0.1v-0.1c0.1,0.3-0.1,0.1,0,0.3c0.1-0.1,0.2-0.4,0.3-0.3
			c0.1,0.3-0.2,0.1,0,0.4l-0.2-0.1c0.2,0.5-0.1,0,0.1,0.5c0.2,0.1,0.2-0.1,0.4,0c0-0.2-0.1-0.3,0-0.5c0.2-0.4,0.3,0.9,0.5,0.4
			c0-0.2,0-0.7,0.1-0.4v0.4c0.2,0.1,0-0.6,0.2-0.3c0,0.2-0.1,0.1-0.1,0.2c0.2,0.3,0-0.2,0.1-0.3l0.1,0.4c0.2,0,0.3-0.3,0.5-0.4
			c0,0.1,0,0.3,0.1,0.4c0.2-0.2,0.5,0.1,0.8,0.4v-0.4c0,0.1,0,0.2,0,0.3c0.1,0.2,0-0.3,0-0.4s0.1,0.2,0.1,0.4
			c0.1-0.3,0.4-0.8,0.6-0.3v0.1c0.2,0.2,0-0.9,0.2-0.5v0.1c0.3,0.2,0.6-0.3,0.9,0.5c0-0.7,0.3,0.3,0.3-0.6c0.1,0.4,0.3,0.7,0.5,1
			c0.1,0.1,0-0.6,0.1-0.7v0.5l0-0.5l0.1,0.6l0.1-0.1c-0.1-0.1-0.1-0.3-0.1-0.4c0.1-0.2,0.3,0.4,0.3,0.6l0.2-0.4c0,0.1,0,0.3,0,0.4
			c0.1-0.6,0.1,0.6,0.2,0.1c0-0.1,0-0.3,0-0.4c0.1,0.3,0.3,0.3,0.3,0.2v0.4c0.2,0.1,0.4-0.2,0.6-0.2c-0.1-0.3-0.1-0.6-0.1-0.9
			l0.1,0.6c0-0.4-0.1-0.2,0-0.7c0.1,0.3,0.1,0.6,0.1,0.9l0.1-0.2c0,0.2,0,0.3,0,0.5c0-0.4,0.2,0.6,0.2,0v0.2c0.2,0,0.3-0.2,0.5-0.2
			c0-0.3,0-0.6,0.1-0.8c0.2,0.2,0.3,0.6,0.5,0.5c0.1-0.3,0-0.4,0-0.8c0,0.5,0.2,0.4,0.1,0.8c0.2-0.1,0.2-0.1,0.5-0.5
			c0-0.2-0.1-0.3-0.1-0.5c0-0.1,0.1,0.2,0.1,0.4v0.1c0.2-0.8,0.7,1.5,0.9,0.4v0.1l0.2-0.6c0.1,0.1,0,0.4,0,0.7
			c0.2-0.9,0.4,0.1,0.6-0.5c0.2,1.5,0.6-0.1,0.8,0.9v-0.4c0-0.4,0.1,0.2,0.1,0.3c0-0.2,0-0.3,0-0.5c0.5-0.4,1,0.5,1.4,0.8
			c0.2,0.1,0.1-1.8,0.3-1l-0.1,0.7c0.4-0.8,0.7,0,1.1-0.6c0,0.1,0,0.3-0.1,0.3c0.1,0.5,0.3,0,0.3-0.4c0,0,0,0.4,0,0.5
			s0.2-0.6,0.2-0.1c0,0.1,0,0.1,0,0.2c0-0.2,0.2,0.1,0.2-0.5c0.1,0.3,0.3-0.2,0.3,0.1c0.1-0.6,0.2,0.3,0.3-0.6
			c0,0.9,0.2,0.7,0.3,0.3c0,0.3,0.1,0.3,0,0.6c0.1,0,0.2-0.2,0.2-0.6c0.1,1,0.4-0.8,0.4,0.5c0.2-0.4,0.5-0.7,0.8-0.9
			c-0.1,0.8-0.3,0.1-0.3,0.9c0.3-0.4,0.5-1,0.7-0.8c0,0.1-0.1,0.4-0.1,0.5c0.3-0.3,0.5,0.1,0.7-0.4c0,0.1,0,0.1-0.1,0.2
			c0,0,0.1,0.1,0.1-0.2v0.1c0-0.5,0.1-0.9,0.3-1.3c-0.2,1,0.2,0.3,0,1.5c0.1-0.1,0.1-0.3,0.1-0.5c0,0.2,0,0.3,0,0.5
			c0.2-0.2,0.2-0.6,0.3-0.6c0,0.2,0,0.2-0.1,0.4c0.1-0.3,0.2-0.6,0.3-0.5s0,0.2,0,0.2c0.2,0,0.4-0.8,0.6-0.5c-0.1,0.7,0,0.2,0,0.8
			l0.1-0.2v-0.3c0.1,0,0.2-0.4,0.3-0.2l-0.1,0.2l0.2-0.1l-0.1-0.2c0.1-0.3,0.1-0.7,0.2-0.6s0.1,0,0.1,0.4l0,0
			c0.1-0.2,0.1-0.4,0.2-0.2s-0.1,0.6-0.1,0.7c0.1-0.5,0.3-0.1,0.4-0.6c0,0.1-0.1,0.3-0.1,0.4l0.1-0.4c0,0.1,0,0.3,0,0.4
			c0.1,0.1,0-0.7,0.2-0.4c0,0,0,0.1,0,0.1c0.2,0.2,0.4-0.2,0.5,0c0,0.5-0.2,0.1-0.2,0.6c0.2-0.1,0.6-0.6,0.8-0.4V182
			c0.1-0.7,0.1,0.3,0.3,0c0,0.1-0.1,0.2-0.1,0.3c0.1,0.1,0.3-0.1,0.6-0.3l-0.1,0.1c0.1,0.1,0.2,0.1,0.3,0.2c0-0.1,0.1-0.1,0.1-0.3
			c0.2,0.8,0.6-0.4,0.8,0.3c0,0-0.1,0.1-0.1,0.1l0.3-0.1c0-0.2,0-0.1,0-0.3s0.1-0.2,0.2-0.2c-0.1,0.1-0.1,0.3,0,0.4
			c0-0.1,0-0.1,0-0.2c0,0.4,0.1-0.4,0.2-0.1v0.1c0.1,0,0.2-0.2,0.2-0.1c0,0.2-0.1,0.1-0.1,0.3c0.1,0,0.3-0.4,0.3-0.1
			c-0.1,0.1-0.1,0-0.2,0.1c0,0.3,0.1,0.2,0.1,0.2l0,0l0.1,0.1v-0.1c0.2-0.5,0.2-0.1,0.5-0.3c-0.2,0.3-0.1,0.2-0.1,0.4s0.1,0.1,0,0.2
			c0.1-0.1,0.1,0.1,0.2-0.1c0,0.1,0.1,0,0,0.1c0.1,0,0-0.1,0-0.2c0.2-0.2,0.3,0.2,0.6,0s0.3-0.2,0.4-0.2s-0.1,0.1-0.1,0.1
			c0.1,0,0.2,0,0.2,0c0,0,0,0,0,0.1s0.1-0.1,0.2-0.1c0,0-0.1,0.1-0.1,0.1c0.1,0,0.2-0.1,0.3-0.1c0,0-0.1,0.1-0.1,0.1
			c0.1,0,0.2,0,0.3-0.1h-0.1c0,0,0,0,0,0.1s-0.1,0-0.1-0.1h0.1c0-0.1-0.2,0-0.4,0l0.1-0.1l-0.1,0.1c0,0,0-0.1,0-0.1s-0.1,0-0.1-0.1
			s0,0,0,0h-0.1c0,0,0-0.1,0.1-0.1c-0.1-0.1-0.3,0-0.3-0.1l0,0c-0.2,0-0.1,0.1-0.2,0.3v-0.4v0.1c0,0,0-0.1,0-0.1
			c-0.1,0.1,0,0.1-0.1,0.2c-0.1-0.2-0.3,0-0.3-0.3c-0.1,0.1,0.1,0.1-0.1,0.2c0-0.3-0.1,0-0.2-0.1s0.1,0,0.1-0.2
			c-0.1,0.3-0.2-0.1-0.3-0.1c-0.1,0.3-0.2,0.1-0.3,0.1c0-0.1-0.2-0.2-0.3-0.4v-0.1c-0.1,0.3-0.2,0.2-0.3,0.3c0-0.1,0.1-0.2,0.1-0.3
			h-0.1c0,0.1-0.1,0.1-0.1,0.2l0.1-0.2c-0.1,0-0.3,0.2-0.4,0c-0.1,0.3,0,0.7-0.2,0.9c0-0.1,0-0.3,0.1-0.4c0,0-0.1,0.1-0.1,0l0.1-0.2
			c0-0.1-0.1,0.2-0.1,0.1s0-0.1,0-0.3s0,0.1,0.1,0c-0.1-0.1-0.1-0.2-0.1-0.4c0,0.1,0,0.3-0.1,0.3s0-0.3,0-0.4c0,0.1-0.1,0-0.2,0.3
			c0,0,0-0.2,0-0.3c-0.1,0.1-0.3-0.1-0.3,0.3l0,0l0,0c-0.3,0.3-0.4-0.3-0.6-0.2v-0.1c-0.1,0.1-0.3,0-0.4,0.3c0,0,0-0.3,0-0.4
			c-0.1,0.1-0.1,0.2-0.2,0c0.1-0.2,0-0.2,0.1-0.1c-0.1-0.1-0.1-0.4-0.3,0c0.1-0.3,0-0.4-0.1-0.4v0.3c-0.1,0-0.1,0-0.2,0l0.1-0.4
			c-0.2-0.6-0.6,0.9-0.6-0.1c-0.1,0.3,0.1,0.3,0,0.6c-0.1-0.1-0.1-0.8-0.2-0.8c-0.1-0.3-0.2,0.7-0.4,0.5c0,0.3-0.1,0.6-0.2,0.8
			c-0.1-0.3-0.1-0.6,0-0.9c0,0,0,0,0,0.1c0.1-0.1,0.1-0.2,0.1-0.3v0.2c0-0.2-0.2-0.2-0.1-0.5c-0.1,0.1-0.1,0.3,0,0.4
			c-0.1-0.3-0.2-0.1-0.3-0.3c0,0.1,0,0.3,0,0.3c-0.2-0.3-0.1,0.3-0.3,0.4c0-0.3,0.1-0.7-0.1-0.5c0-0.2,0-0.5,0.1-0.7
			c-0.2,0.3-0.2-0.3-0.3-0.4l0.1-0.1c0,0.1-0.1,0.1-0.1,0.1v0.4c-0.1-0.1-0.1-0.2-0.1-0.3c0,0.3-0.1,0.7-0.2,1
			c0-0.2-0.2,0.2-0.2-0.3c0.2,0.2,0-0.5,0.2-0.6c0,0.1-0.1,0-0.1,0c0,0,0-0.1,0-0.1c-0.1-0.5-0.1,0.6-0.3,0.5c0-0.3,0-0.6,0-0.5
			s0,0.5-0.1,0.7c-0.1-0.3-0.1,0.2-0.2,0.1l0.1,0.1c0,0.3-0.1,0.3-0.2,0.3c0-0.2,0.1-0.1,0.1-0.3c-0.1,0.5-0.2-0.6-0.3-0.2
			c0-0.2,0-0.6,0-0.7c-0.2,0.4-0.1-0.4-0.3-0.1c0,0.2,0,0.5-0.1,0.7l0.3-0.3l-0.2,0.6c0.1,0,0.2-0.3,0.2-0.2
			c-0.1,0.2-0.1,0.4-0.1,0.6c0-0.6-0.2,0.4-0.3-0.1l0.1-1.1c-0.1-0.5-0.3,0.5-0.5,0.2l0.1,0.2c-0.1,0.4-0.1,0-0.2,0.2
			c0-0.2,0-0.5,0-0.7c0,0.3-0.2-0.1-0.2,0.7l-0.1-0.5c-0.2-0.2-0.3,1-0.4,0.9c0-0.3,0.1-0.6,0.1-0.9c-0.1,0-0.1-0.1-0.1,0.2
			c0-0.2-0.2,0.5-0.2,0.1c0,0.2-0.1,0.6-0.1,0.5s0-0.2,0-0.2c-0.1,0.2-0.1,0.4-0.1,0.7c-0.1-1.2-0.5,0.1-0.6-1
			c-0.1,0.1-0.2,0.2-0.4,0.3c0-0.1,0-0.2,0-0.1c-0.1-0.4-0.1,1.1-0.3,0.7c-0.1-0.6,0.1-0.3,0.1-0.6c0-1.3-0.2,0.2-0.3-0.6v-0.1
			c-0.1-0.4-0.2,0.5-0.4,0.4c0-0.1,0-0.1,0-0.2c0,0.4-0.2,0.7-0.5,1c0-0.3,0-0.5,0-0.8c-0.1,0.1,0,0.8-0.1,1
			c-0.1-0.4-0.1-0.7-0.1-1.1h0.1c0-0.7-0.2,0-0.2-0.1v-0.3c-0.2,0.1-0.2,0.9-0.4,0.8v0.2c-0.1,0.8-0.1-0.4-0.2,0.1v-0.8
			c-0.1,0.3-0.2,0.6-0.4,0.9c0.1-0.4,0.2-0.8,0.3-1.2c-0.1,0-0.2,0.1-0.3,0.4c0-0.1,0.1-0.3,0.1-0.1c-0.1,0.6-0.2,0.9-0.3,0.9
			c0-1.5-0.4-0.4-0.5-1.6c-0.2,0.6-0.5-0.2-0.8-0.1c0.1,1.2-0.1,0,0,1.3c-0.1,0.1-0.1,0.1-0.1,0l-0.2-0.7c-0.1-0.4,0.1-0.3,0-0.5
			c-0.2-0.1-0.1-0.5-0.2-0.8c0,0.4,0,0.6-0.1,0.5l0.1,0.6c-0.2,0.7-0.2-1-0.4-0.4l0-0.4c-0.1,0.2-0.4,0-0.5,1c0-0.2,0-0.4,0-0.6
			c-0.3-0.1-0.5,1.1-0.8,0.5v-0.3c0,0.1,0,0.6-0.1,0.3c0-0.1,0-0.3,0-0.3s-0.1,0.5-0.2,0.4v-0.3c-0.3-0.4-0.3,0.8-0.5,1
			c0-0.4-0.1-0.9-0.4-1.2v-0.1c-0.3-0.1-0.5,0.8-0.7,1.1c-0.2-0.9-0.6-0.3-0.9-0.7c0,0.2,0,0.5,0,0.7c-0.1-0.1-0.1,0.6-0.2-0.1l0,0
			c-0.1-0.7-0.2-0.5-0.3-0.5l0.1,0.9c-0.4-1.3-0.6,0.6-0.9-0.5c0,0.2-0.1,0.3-0.2,0.5V179c-0.1-0.1-0.3-0.1-0.5,0v-0.3
			c-0.1,0,0,1.4-0.1,1.4l-0.1-0.7c-0.2,0.1-0.5-0.5-0.6,0.2c0-0.1,0-0.2,0-0.3c-0.1,0-0.4-0.3-0.3,0.5c-0.1-0.6-0.2,0-0.3,0.3v-0.4
			c0,0.5,0,0.7-0.1,0.8c0-0.1-0.1-0.3,0-0.2c-0.1-0.2,0,0.4-0.2,0.2v-0.3c-0.1,0-0.1,0.1-0.1,0.4s-0.2-0.1-0.3-0.4
			c0,0.2,0,0.5-0.1,0.4c0-0.1,0-0.2,0-0.3c-0.2-0.2-0.2,0.5-0.4,0.2c0-0.1,0-0.1,0-0.2c0.1,0,0.3-0.1,0.3,0c0-0.3-0.2-0.4-0.1-0.8
			c-0.1,0.3-0.1,0.9-0.3,0.8v-0.1l0,0c0,0,0,0-0.1,0.1s-0.1-0.1-0.1-0.1c-0.1-0.3-0.2-0.1-0.2-0.1c0,0.3,0,0.3,0.1,0.6
			c0,0,0-0.1,0-0.1l0,0l0,0l0.1-0.1c0,0.2,0,0.3-0.1,0.2c0,0.2,0,0.4,0,0.6c-0.2-0.4-0.3-0.6-0.4-0.9c-0.1,0.2-0.4,0.3-0.4,0.8
			c0,0.1-0.1-0.1-0.1-0.2s0.1-0.1,0.1-0.1c-0.1,0.2-0.3,0.1-0.2,0.5c-0.2-0.1,0-0.4-0.2-0.2V181c-0.2-0.2-0.3,0.1-0.4,0.3
			s-0.2,0.4-0.5,0.2c0,0,0.1,0,0.1,0.1c-0.5-0.1-0.8,0.4-1.3,0.3c-0.1,0-0.1,0.1-0.2,0.2l-0.1-0.1l-0.1,0.2
			c-0.2,0.1-0.3-0.1-0.5,0.1l0,0c-0.1,0-0.2,0.1-0.2,0.1l0,0l0,0c-0.1,0.1-0.1,0.1-0.2,0.1c-0.1,0,0-0.1-0.2,0l-0.2,0.1h0.1h-0.1
			c0,0-0.1,0,0.1,0h0.1l0,0h-0.1c0,0,0.1,0,0.2,0h0.1c0,0,0.1,0,0.1-0.1c0,0,0,0.1,0,0.1s-0.1-0.1,0-0.1s0.1,0.1,0.1,0s0,0,0,0.1
			s0.2,0,0.2-0.1s0.2,0,0.3,0.1c0,0,0.1-0.1,0.2-0.1c-0.1,0.2,0.2,0,0.3,0.2c0-0.2,0.3-0.1,0.4-0.2s0,0.1,0,0s0.1,0.1,0.2,0.2
			c0-0.2,0.1-0.3,0.1-0.4c0.2,0.2,0,0.3,0.1,0.5c0-0.2,0.1-0.2,0.1-0.3c0.1,0.1,0.1,0.2,0.2,0.3c0-0.3,0.1-0.1,0.1-0.3
			c0.1,0.2,0.1,0.3,0.2,0.2C42.4,182.8,42.4,182.9,42.3,183C42.3,183,42.3,183,42.3,183z M45,182.3L45,182.3L45,182.3L45,182.3z
			 M45.3,182.3c0,0-0.1,0-0.1,0c0-0.1,0-0.3,0-0.2S45.2,182.3,45.3,182.3L45.3,182.3z M44.4,180C44.4,180,44.4,180,44.4,180
			c0,0.1,0,0.1,0,0.1L44.4,180L44.4,180z"/>
		<path class="st4" d="M44.4,180.5L44.4,180.5L44.4,180.5L44.4,180.5L44.4,180.5z"/>
		<path class="st4" d="M66.6,181L66.6,181L66.6,181z"/>
		<polygon class="st4" points="48.7,183.1 48.7,183 48.7,183.1 		"/>
		<path class="st4" d="M67.8,182.2C67.8,182.2,67.8,182.2,67.8,182.2C67.8,182.2,67.8,182.2,67.8,182.2z"/>
		<path class="st4" d="M68.3,182.3L68.3,182.3C68.4,182.3,68.4,182.3,68.3,182.3z"/>
		<path class="st4" d="M68.8,182.4L68.8,182.4L68.8,182.4L68.8,182.4z"/>
		<path class="st4" d="M61.7,182.7L61.7,182.7C61.6,182.8,61.7,182.8,61.7,182.7z"/>
		<path class="st4" d="M63.9,181.7c0,0.1-0.1,0.1-0.1,0.2S63.9,182,63.9,181.7z"/>
		<path class="st4" d="M59.4,183.4L59.4,183.4z"/>
		<path class="st4" d="M63.7,181.9C63.7,182,63.8,182,63.7,181.9C63.8,181.8,63.7,181.8,63.7,181.9z"/>
		<polygon class="st4" points="70.7,182.5 70.7,182.5 70.7,182.5 		"/>
		<path class="st4" d="M70.7,182.5L70.7,182.5z"/>
		<path class="st4" d="M70.8,182.5L70.8,182.5z"/>
		<path class="st4" d="M70.1,182.5L70.1,182.5z"/>
		<path class="st4" d="M69.9,182.5c0,0,0.1,0.1,0.2,0.1l0,0C70.1,182.6,70,182.4,69.9,182.5z"/>
		<path class="st4" d="M69.3,181.8l0.1,0.1c0-0.1,0-0.2,0-0.1C69.4,181.5,69.5,181.8,69.3,181.8z"/>
		<path class="st4" d="M68.9,181.5c0.1,0,0-0.1,0-0.1S68.9,181.4,68.9,181.5z"/>
		<path class="st4" d="M65.6,180.5v-0.3C65.6,180.2,65.7,180.3,65.6,180.5z"/>
		<polygon class="st4" points="64.7,182.1 64.8,182.4 64.8,182 		"/>
		<polygon class="st4" points="64.7,179.5 64.8,179.5 64.6,179.6 		"/>
		<path class="st4" d="M59,178.6v0.6C59,179.1,59,178.5,59,178.6z"/>
		<path class="st4" d="M56.4,179.1c0-0.3-0.1-0.5-0.1-0.2C56.4,179,56.4,179.2,56.4,179.1z"/>
		<polygon class="st4" points="48.9,178.8 49,178.6 48.9,178.8 		"/>
		
			<linearGradient id="SVGID_1_" gradientUnits="userSpaceOnUse" x1="81.22" y1="72.6022" x2="93.54" y2="72.6022" gradientTransform="matrix(1 0 0 -1 0 242)">
			<stop  offset="5.000000e-02" style="stop-color:#41995D;stop-opacity:0.5"/>
			<stop  offset="0.15" style="stop-color:#469C5B;stop-opacity:0.54"/>
			<stop  offset="0.31" style="stop-color:#52A455;stop-opacity:0.63"/>
			<stop  offset="0.5" style="stop-color:#66B24D;stop-opacity:0.79"/>
			<stop  offset="0.72" style="stop-color:#80C341"/>
		</linearGradient>
		<path class="st5" d="M81.2,169.9c0,0,6.3-2.2,12.3,0"/>
		<path class="st4" d="M142.3,156.7L142.3,156.7z"/>
		<path class="st4" d="M142.2,156.6C142.2,156.6,142.1,156.6,142.2,156.6L142.2,156.6L142.2,156.6L142.2,156.6
			C142.2,156.6,142.2,156.6,142.2,156.6L142.2,156.6z"/>
		<path class="st4" d="M140.3,155.4L140.3,155.4z"/>
		<path class="st4" d="M139.1,154.7c0,0,0-0.1,0-0.1C139.1,154.6,139.1,154.6,139.1,154.7z"/>
		<path class="st4" d="M138.9,154L138.9,154C138.9,154,138.9,154,138.9,154z"/>
		<path class="st4" d="M140.3,155.4v-0.1C140.3,155.4,140.3,155.4,140.3,155.4z"/>
		<path class="st4" d="M141.8,156.7L141.8,156.7L141.8,156.7z"/>
		<path class="st4" d="M140.9,155.5L140.9,155.5v-0.1V155.5z"/>
		<path class="st4" d="M141.3,155.7c0,0-0.1,0.2-0.1,0.3s0-0.1,0.1-0.1L141.3,155.7z"/>
		<path class="st4" d="M141.9,156.4L141.9,156.4z"/>
		<path class="st4" d="M140.6,155.2v-0.1V155.2z"/>
		<path class="st4" d="M128.2,156.9L128.2,156.9z"/>
		<polygon class="st4" points="127.6,156.7 127.6,156.7 127.6,156.6 		"/>
		<path class="st4" d="M138.6,153.2L138.6,153.2C138.6,153.2,138.6,153.2,138.6,153.2z"/>
		<path class="st4" d="M134.4,153c0.1,0.5-0.1,0.6,0,1.2C134.4,153.8,134.4,153.4,134.4,153z"/>
		<path class="st4" d="M141.8,156.7L141.8,156.7z"/>
		<path class="st4" d="M134.4,154.2L134.4,154.2L134.4,154.2z"/>
		<path class="st4" d="M137.5,153.2L137.5,153.2z"/>
		<path class="st4" d="M138.2,154.1L138.2,154.1C138.2,154,138.2,154.1,138.2,154.1z"/>
		<path class="st4" d="M137.1,153.9C137.1,153.9,137.1,153.7,137.1,153.9L137.1,153.9C137,153.8,137.1,153.8,137.1,153.9z"/>
		<path class="st4" d="M136.6,153.8v0.1l0,0V153.8z"/>
		<path class="st4" d="M129.4,157.2l-0.1-0.2C129.4,157.1,129.4,157.2,129.4,157.2z"/>
		<path class="st4" d="M141.9,156.7L141.9,156.7L141.9,156.7L141.9,156.7z"/>
		<path class="st4" d="M136.7,158L136.7,158C136.7,157.9,136.7,158,136.7,158z"/>
		<path class="st4" d="M132.2,157.5L132.2,157.5C132.2,157.6,132.2,157.6,132.2,157.5z"/>
		<path class="st4" d="M136.5,158.1c0-0.1,0-0.2,0-0.4v0.1V158.1z"/>
		<path class="st4" d="M129.4,156.9L129.4,156.9z"/>
		<path class="st4" d="M129.1,157.3c0.1,0-0.1-0.2-0.1-0.4S129.1,157.1,129.1,157.3c0.1-0.1,0.1-0.4,0.1-0.3c0,0,0,0.1,0,0.1
			c0-0.2,0.1,0,0.1-0.3v0.1c-0.1-0.1-0.1-0.3-0.1-0.4s0-0.2,0.1,0c0,0,0,0.1,0,0.1v-0.1c0.1,0.3,0,0.1,0.1,0.3c0-0.1,0-0.4,0.1-0.3
			c0.1,0.3-0.1,0.1,0.1,0.4l-0.1-0.1c0.2,0.5,0,0,0.1,0.5c0.1,0.1,0.1-0.1,0.2,0c0-0.2-0.1-0.3-0.1-0.4s0.3,0.9,0.3,0.4
			c0-0.2-0.1-0.7,0-0.4l0.1,0.4c0.1,0.1-0.1-0.6,0.1-0.3s0,0.1,0,0.2c0.1,0.3,0-0.2,0-0.2l0.1,0.4c0.1,0,0.1-0.3,0.2-0.4
			c0,0.1,0,0.3,0.1,0.4c0.1-0.2,0.3,0.1,0.4,0.4v-0.4c0,0.1,0,0.2,0.1,0.3c0.1,0.2-0.1-0.3-0.1-0.4s0.1,0.2,0.1,0.4
			c0-0.3,0.1-0.7,0.2-0.3v0.1c0.1,0.2-0.1-0.9,0-0.5v0.1c0.2,0.2,0.3-0.2,0.5,0.5c-0.1-0.7,0.2,0.3,0-0.6c0.1,0.3,0.2,0.7,0.3,1
			c0,0-0.1-0.6,0-0.7l0.1,0.5v-0.5l0.1,0.6v-0.1c0-0.1-0.1-0.3-0.1-0.4c0-0.2,0.2,0.4,0.2,0.6l0.1-0.4c0,0.2,0,0.3,0,0.4
			c0-0.5,0.1,0.6,0.1,0.1c0-0.1,0-0.3-0.1-0.4c0.1,0.3,0.1,0.3,0.2,0.2v0.4c0.1,0.1,0.2-0.2,0.3-0.1c-0.1-0.3-0.1-0.6-0.1-0.9
			l0.1,0.6c0-0.4,0-0.2-0.1-0.7c0.1,0.3,0.1,0.6,0.1,0.9v-0.2c0,0.2,0,0.3,0.1,0.5c0-0.4,0.1,0.6,0.1,0v0.2c0.1,0,0.1-0.2,0.2-0.2
			c0-0.3,0-0.6,0-0.8c0.1,0.2,0.2,0.6,0.3,0.5c0-0.3,0-0.4,0-0.8c0,0.3,0.1,0.5,0.1,0.8c0.1-0.1,0.1-0.1,0.2-0.5
			c0-0.2,0-0.3-0.1-0.5c0-0.1,0.1,0.2,0.1,0.4v0.1c0.1-0.8,0.4,1.5,0.4,0.4v0.1l0.1-0.6c0,0.1,0,0.4,0,0.7c0.1-0.9,0.2,0.1,0.2-0.4
			c0.1,1.5,0.2-0.1,0.4,0.9V158c0-0.4,0,0.2,0,0.3c0-0.3,0-0.3,0-0.5c0.2-0.4,0.4,0.5,0.6,0.8c0.1,0.1,0.1-1.8,0.1-1v0.7
			c0.2-0.8,0.3,0,0.5-0.6c0,0.1,0,0.2,0,0.3c0,0.5,0.1,0,0.1-0.4c0,0.2,0,0.4,0,0.5c0,0.3,0.1-0.6,0.1-0.1c0,0.1,0,0.1,0,0.2
			c0-0.2,0.1,0.1,0.1-0.5c0,0.3,0.1-0.3,0.1,0.1c0.1-0.6,0.1,0.3,0.1-0.6c-0.1,0.9,0,0.7,0.1,0.3c0,0.3,0,0.3,0,0.6
			c0,0,0.1-0.2,0.1-0.6c0,1,0.2-0.8,0.1,0.5c0.1-0.4,0.3-0.7,0.4-1c-0.1,0.8-0.1,0.1-0.2,0.9c0.1-0.4,0.3-1,0.4-0.9
			c0,0.2,0,0.3-0.1,0.5c0.1-0.3,0.2,0.1,0.3-0.4c0,0.1,0,0.1-0.1,0.2c0,0,0,0.1,0.1-0.2v0.1c0.1-0.4,0.1-0.9,0.3-1.3
			c-0.2,1,0.1,0.3-0.2,1.5c0-0.2,0.1-0.3,0.1-0.5c0,0.2,0,0.3-0.1,0.5c0.1-0.2,0.1-0.6,0.2-0.6c0,0.2,0,0.2-0.1,0.4
			c0.1-0.3,0.2-0.6,0.2-0.5s0,0.2-0.1,0.2s0.3-0.8,0.3-0.5c-0.1,0.3-0.1,0.5-0.1,0.8l0.1-0.2v-0.3c0,0,0.2-0.4,0.2-0.2l-0.1,0.2
			l0.1-0.1v-0.2c0.1-0.3,0.1-0.7,0.2-0.6s0,0,0,0.3l0,0c0.1-0.2,0.1-0.4,0.1-0.2l-0.1,0.7c0.1-0.4,0.1-0.1,0.3-0.6
			c0,0.1-0.1,0.3-0.1,0.4l0.1-0.4c0,0.1,0,0.3-0.1,0.4c0,0.1,0.1-0.7,0.1-0.4c0,0,0,0.1-0.1,0.1c0.1,0.1,0.2-0.2,0.2,0
			c-0.1,0.5-0.1,0.1-0.2,0.5c0.1-0.1,0.4-0.6,0.4-0.5v-0.1c0.2-0.6,0,0.3,0.1,0c0,0.1-0.1,0.2-0.1,0.3c0.1,0.1,0.2-0.1,0.3-0.3
			l-0.1,0.1c0,0.1,0.1,0.1,0.1,0.1c0.1-0.1,0.1-0.2,0.1-0.3c-0.1,0.8,0.4-0.4,0.3,0.3c0,0-0.1,0.1-0.1,0.1l0.1-0.1
			c0-0.1,0-0.2,0-0.3c0.1-0.1,0.1-0.2,0.1-0.2c-0.1,0.1-0.1,0.3-0.1,0.4l0.1-0.2c-0.1,0.3,0.1-0.4,0.1-0.1v0.1c0,0,0.1-0.2,0.1-0.1
			c-0.1,0.2-0.1,0.1-0.1,0.3c0.1,0,0.2-0.4,0.2-0.2c0,0-0.1,0-0.1,0.1c0,0.2,0,0.2,0,0.2l0,0v0.1v-0.1c0.2-0.5,0.1-0.1,0.3-0.4
			c-0.2,0.3-0.1,0.1-0.1,0.3c0,0.1,0,0.1,0,0.2c0.1-0.1,0,0.1,0.1-0.1c0,0.1,0,0,0,0.1c0.1,0,0-0.1,0.1-0.2s0.1,0.2,0.3,0
			s0.2-0.2,0.3-0.2s-0.1,0.1-0.1,0.1s0.1,0.1,0.1,0c0,0,0,0.1,0,0.1c0,0,0.1-0.1,0.1,0s0,0.1-0.1,0.1l0.1-0.1c0,0,0,0-0.1,0.1
			c0.1,0,0.1,0,0.2-0.1l0,0l0,0c0,0-0.1,0-0.1,0l0,0c0-0.1-0.1,0-0.2,0l0.1-0.1l-0.1,0.1v-0.1c0,0,0,0,0-0.1s0,0,0,0h-0.1
			c0,0,0-0.1,0-0.1c0-0.1-0.1,0.1-0.1-0.1l0,0c-0.1,0-0.1,0.1-0.2,0.2l0.1-0.4l-0.1,0.1c0,0,0,0,0-0.1s0,0.1-0.1,0.1
			c0-0.2-0.1,0-0.1-0.3c-0.1,0.1,0,0.1-0.1,0.2c0.1-0.3-0.1,0-0.1-0.1s0.1,0,0.1-0.2c-0.1,0.3-0.1-0.1-0.1-0.1
			c-0.1,0.2-0.1,0-0.2,0.1s-0.1-0.2-0.1-0.3v-0.1c-0.1,0.3-0.1,0.2-0.2,0.3c0-0.1,0.1-0.2,0.1-0.3l0,0c0,0.1-0.1,0.1-0.1,0.2
			l0.1-0.2c-0.1,0-0.2,0.2-0.2,0c-0.1,0.3-0.1,0.6-0.3,0.8c0-0.1,0.1-0.3,0.1-0.4c0,0-0.1,0.1-0.1,0l0.1-0.2c0-0.1-0.1,0.2-0.1,0.2
			c0-0.1,0-0.2,0.1-0.3c0,0,0,0.1,0,0c0-0.1,0-0.2,0-0.3c0,0.1-0.1,0.3-0.1,0.3s0-0.3,0-0.4c0,0.1,0,0-0.1,0.3c0,0,0-0.2,0-0.3
			c-0.1,0.1-0.1,0-0.2,0.3l0,0l0,0c-0.2,0.3-0.1-0.3-0.3-0.2v-0.1c-0.1,0.1-0.1,0-0.2,0.3c0-0.1,0-0.3,0.1-0.4
			c-0.1,0.1-0.1,0.2-0.1,0s0-0.2,0.1-0.1c0-0.1,0-0.4-0.1,0c0.1-0.3,0.1-0.4,0-0.4v0.3c0,0-0.1,0-0.1-0.1l0.1-0.4
			c0-0.6-0.4,0.9-0.3-0.1c-0.1,0.3,0,0.3-0.1,0.6c0-0.1,0-0.8,0-0.8c0-0.3-0.2,0.7-0.3,0.5c0,0.3-0.1,0.5-0.2,0.8
			c0-0.3,0-0.6,0.1-0.9c0,0,0,0.1,0,0.1c0.1-0.1,0.1-0.2,0.1-0.3v0.2c0-0.2-0.1-0.2,0-0.5c-0.1,0.1-0.1,0.3-0.1,0.4
			c0-0.3-0.1-0.1-0.1-0.3c0,0.1,0,0.2-0.1,0.3c-0.1-0.3-0.1,0.3-0.2,0.4c0-0.3,0.1-0.7,0-0.5c0-0.2,0-0.4,0.1-0.6
			c-0.1,0.3-0.1-0.3-0.1-0.4l0.1-0.1c0,0.1,0,0.1-0.1,0.1v0.4c0-0.1,0-0.2,0-0.3c-0.1,0.3-0.1,0.7-0.2,1c0-0.2-0.1,0.2,0-0.3
			c0.1,0.2,0.1-0.5,0.1-0.6s0,0-0.1,0c0,0,0-0.1,0-0.1c0-0.5-0.1,0.6-0.2,0.5c0.1-0.3,0.1-0.6,0-0.5c0,0.2,0,0.5-0.1,0.7
			c0-0.3-0.1,0.2-0.1,0.1v0.1c-0.1,0.3-0.1,0.3-0.1,0.3c0-0.2,0-0.2,0.1-0.3c-0.1,0.5,0-0.6-0.1-0.2c0-0.2,0.1-0.6,0.1-0.7
			c-0.1,0.4,0-0.4-0.1-0.1c0,0.2,0,0.5-0.1,0.7l0.1-0.3l-0.1,0.6c0,0,0.1-0.3,0.1-0.2c-0.1,0.2-0.1,0.4-0.1,0.6
			c0-0.6-0.1,0.4-0.1-0.1l0.1-1.1c0-0.5-0.2,0.5-0.3,0.2v0.2c-0.1,0.4-0.1,0-0.1,0.2c0-0.4,0-0.5,0-0.7c0,0.3-0.1,0-0.2,0.7v-0.5
			c-0.1-0.2-0.2,1-0.3,0.9c0-0.3,0.1-0.6,0.1-0.9c0,0,0-0.1-0.1,0.2c0-0.2-0.1,0.5-0.1,0.1c0,0.2,0,0.4-0.1,0.5v-0.2
			c0,0.2-0.1,0.4-0.1,0.7c0-1.2-0.2,0.1-0.2-1c-0.1,0.1-0.1,0.2-0.2,0.3s0-0.2,0-0.1c-0.1-0.4-0.1,1.1-0.2,0.7
			c0-0.6,0.1-0.3,0.1-0.6c0-1.3-0.1,0.2-0.1-0.6v-0.1c0-0.4-0.1,0.5-0.2,0.4v-0.2c0,0.3-0.1,0.7-0.2,1c0-0.3,0-0.5,0-0.8
			c0,0.1,0,0.8-0.1,1c0-0.3-0.1-0.5,0-1.1l0,0c0-0.7-0.1,0-0.1-0.1v-0.3c-0.1,0.1-0.1,0.9-0.2,0.8v0.2c-0.1,0.8,0-0.4-0.1,0.1v-0.8
			c0,0.2-0.1,0.8-0.2,0.9c0-0.4,0.1-0.8,0.1-1.2c0,0-0.1,0.1-0.1,0.4c0-0.1,0-0.3,0.1-0.1c0,0.6-0.1,0.9-0.2,0.9
			c0-1.5-0.2-0.4-0.3-1.6c-0.1,0.6-0.3-0.2-0.4-0.1c0.1,1.2,0,0,0,1.3c0,0.1,0,0.1,0,0l-0.1-0.7c0-0.2,0-0.4,0-0.6
			c-0.1-0.3-0.1-0.5-0.1-0.8c0,0.4,0,0.6,0,0.5l0.1,0.6c-0.1,0.7-0.1-1-0.2-0.4v-0.4c-0.1,0.2-0.2,0-0.2,1c0-0.2,0-0.4,0-0.6
			c-0.1-0.1-0.2,1-0.4,0.5V153c0,0.1,0,0.6-0.1,0.3c0-0.1,0-0.2,0-0.3c0,0.1,0,0.5-0.1,0.4V153c-0.2-0.4-0.1,0.8-0.2,1
			c0-0.4-0.1-0.8-0.3-1.2v-0.1c-0.2-0.1-0.2,0.8-0.3,1.1c-0.2-0.9-0.3-0.3-0.5-0.7c0,0.2,0.1,0.5,0.1,0.7c-0.1-0.1,0,0.6-0.1-0.1
			l0,0c-0.1-0.7-0.2-0.5-0.2-0.5l0.1,0.9c-0.3-1.3-0.3,0.6-0.5-0.6c0,0.2,0,0.2,0,0.5l-0.1-0.5c-0.1-0.1-0.1-0.1-0.2,0v-0.3
			c-0.1,0,0.1,1.3,0.1,1.4l-0.1-0.7c-0.1,0-0.3-0.5-0.3,0.2c0-0.1,0-0.2,0-0.3c0,0-0.3-0.3-0.1,0.5c-0.1-0.6-0.1,0-0.1,0.3l-0.1-0.4
			c0,0.3,0,0.5,0,0.8c0,0-0.1-0.3,0-0.2c-0.1-0.2,0,0.4-0.1,0.2v-0.3c-0.1,0,0,0.1,0,0.4s-0.1-0.1-0.2-0.4c0,0.2,0.1,0.5,0,0.4
			c0-0.1,0-0.2,0-0.2c-0.1-0.2,0,0.5-0.2,0.1l-0.1-0.2c0.1,0,0.1,0,0.1,0c-0.1-0.3-0.1-0.5-0.2-0.8c0,0.3,0.1,0.8,0,0.7v-0.1l0,0
			c0,0,0,0,0,0.1s-0.1-0.1-0.1-0.1c-0.1-0.2-0.1-0.1-0.1-0.1c0,0.2,0.1,0.4,0.1,0.5c0,0,0,0,0-0.1l0,0l0,0l0.1-0.1
			c0,0.2,0,0.3,0,0.2c0,0.2,0.1,0.4,0.1,0.5c-0.1-0.4-0.3-0.6-0.3-0.9c-0.1,0.3-0.1,0.5-0.1,0.8c0,0.1-0.1-0.1-0.1-0.2
			c0,0,0-0.1,0-0.1c0,0.2-0.1,0.1,0,0.5c-0.1-0.1-0.1-0.3-0.1-0.2v-0.1c-0.1-0.2-0.1,0-0.1,0.3s0,0.4-0.2,0.1c0,0,0,0.1,0.1,0.1
			c-0.3-0.1-0.3,0.4-0.6,0.2c-0.1,0,0,0.1,0,0.2v-0.1v0.2c-0.1,0.1-0.2-0.2-0.3,0.1v0.1c0,0-0.1,0.1-0.1,0s0,0.1,0,0l0,0l-0.1,0.1
			c-0.1,0,0-0.1-0.1,0c0,0,0,0.1-0.1,0.1l0,0l0,0h0.1h0.1l0,0h-0.1c0,0,0.1,0,0.1,0l0,0l0,0c0,0,0,0,0,0.1s0-0.1,0-0.1s0,0.1,0.1,0
			s0,0,0,0.1s0.1,0,0.1,0s0.1,0,0.2,0.1c0,0,0-0.1,0.1-0.1c0,0.2,0.1,0,0.2,0.3c0-0.2,0.1,0,0.2-0.1s0,0.1,0,0
			c0,0.1,0.1,0.1,0.1,0.2c0-0.1,0-0.3,0-0.4c0.1,0.2,0.1,0.3,0.1,0.5c-0.1-0.2,0-0.2,0-0.3c0.1,0.1,0.1,0.2,0.1,0.3
			c-0.1-0.3,0,0,0-0.2c0.1,0.2,0.1,0.3,0.1,0.2C129.1,157.1,129.2,157.2,129.1,157.3z M130.3,156.8L130.3,156.8L130.3,156.8z
			 M130.4,156.8L130.4,156.8c-0.1-0.1-0.1-0.2-0.1-0.2C130.4,156.7,130.4,156.7,130.4,156.8L130.4,156.8z M129.6,154.5
			C129.6,154.5,129.6,154.5,129.6,154.5c0,0.1,0,0.1,0,0.1l0,0V154.5z"/>
		<path class="st4" d="M129.7,155L129.7,155L129.7,155L129.7,155L129.7,155z"/>
		<path class="st4" d="M140.3,155.5L140.3,155.5L140.3,155.5z"/>
		<polygon class="st4" points="132.1,157.7 132.1,157.6 132.1,157.7 		"/>
		<path class="st4" d="M140.6,156.6C140.7,156.6,140.7,156.6,140.6,156.6L140.6,156.6z"/>
		<path class="st4" d="M140.9,156.6L140.9,156.6C140.9,156.7,140.9,156.6,140.9,156.6z"/>
		<path class="st4" d="M141.1,156.7L141.1,156.7L141.1,156.7L141.1,156.7z"/>
		<path class="st4" d="M137.8,157.3L137.8,157.3C137.7,157.4,137.7,157.4,137.8,157.3z"/>
		<path class="st4" d="M138.9,156.3l-0.1,0.2C138.8,156.5,138.8,156.5,138.9,156.3z"/>
		<polygon class="st4" points="136.7,158 136.7,158 136.7,158 		"/>
		<path class="st4" d="M138.8,156.5C138.8,156.6,138.8,156.5,138.8,156.5S138.8,156.4,138.8,156.5z"/>
		<polygon class="st4" points="142.1,156.7 142.1,156.7 142.1,156.7 		"/>
		<path class="st4" d="M142.1,156.7L142.1,156.7z"/>
		<path class="st4" d="M142.1,156.7L142.1,156.7z"/>
		<path class="st4" d="M141.8,156.7L141.8,156.7z"/>
		<path class="st4" d="M141.7,156.7C141.7,156.7,141.7,156.8,141.7,156.7L141.7,156.7C141.7,156.8,141.7,156.7,141.7,156.7z"/>
		<path class="st4" d="M141.5,156.1L141.5,156.1C141.5,156.1,141.5,156,141.5,156.1C141.6,155.8,141.6,156.1,141.5,156.1z"/>
		<path class="st4" d="M141.4,155.8c0,0,0-0.1,0-0.1S141.4,155.8,141.4,155.8z"/>
		<path class="st4" d="M139.9,155l0.1-0.3C140,154.7,140,154.8,139.9,155z"/>
		<polygon class="st4" points="139.2,156.7 139.2,156.9 139.3,156.6 		"/>
		<polygon class="st4" points="139.6,154.1 139.6,154.1 139.5,154.2 		"/>
		<path class="st4" d="M136.8,153.3v0.6C136.7,153.8,136.8,153.1,136.8,153.3z"/>
		<path class="st4" d="M135.5,153.9c0-0.3,0-0.5-0.1-0.2C135.4,153.7,135.5,153.9,135.5,153.9z"/>
		<polygon class="st4" points="131.7,153.4 131.7,153.2 131.7,153.4 		"/>
	</g>
	<path id="arbusto" class="st6" d="M199,147.4c1.3,0,2.4-1.1,2.4-2.4v-6.9c0-2.2-1.3-4.1-3.5-5.8c-3.3-2.4-8.5-3.9-14.4-3.9
		c-1.9,0-3.8,0.2-5.7,0.5c-1.4-6.8-6.8-11.8-13.3-11.8c-1.5,0-3,0.3-4.3,0.8c-1.1-13.7-12.5-24.2-26.2-24.4c-1.1,0-2.3,0.1-3.4,0.2
		c-4-13.6-13.7-23.3-25-23.3c-12.9,0-23.7,12.4-26.3,29c-4.5-3.9-10.2-6-16.1-6c-13,0-23.7,10.1-25.5,23.2
		c-6.6-3.5-14.8-0.9-18.3,5.7c-1,1.9-1.6,4.1-1.6,6.3c0,0.6,0,1.2,0.1,1.8c-1.2-0.2-2.5-0.3-3.7-0.3c-3.2,0-6.5,0.7-9.4,2.2
		c-3,1.6-4.8,3.9-4.8,6.5v8.6L199,147.4z"/>
	<g id="flor">
		<polygon id="petalos" class="st7" points="69.4,124.8 71.3,128.1 69.4,131.4 65.6,131.4 63.7,134.7 59.8,134.7 57.9,131.4 
			54.1,131.4 52.2,128.1 54.1,124.8 52.2,121.5 54.1,118.2 57.9,118.2 59.8,114.9 63.7,114.9 65.6,118.2 69.4,118.2 71.3,121.5 		
			"/>
		<polygon id="centro" class="st1" points="63.2,122.3 60.3,122.3 58.9,124.8 60.3,127.2 63.2,127.2 64.6,124.8 		"/>
	</g>
	<g id="flor-2">
		<polygon id="petalos-2" class="st7" points="121.8,107.4 123.7,110.7 121.8,114 118,114 116.1,117.3 112.3,117.3 110.3,114 
			106.5,114 104.6,110.7 106.5,107.4 104.6,104.1 106.5,100.8 110.3,100.8 112.3,97.5 116.1,97.5 118,100.8 121.8,100.8 
			123.7,104.1 		"/>
		<polygon id="centro-2" class="st1" points="115.6,105 112.7,105 111.3,107.4 112.7,109.9 115.6,109.9 117,107.4 		"/>
	</g>
	<g id="flor-3">
		<polygon id="petalos-3" class="st7" points="162.1,134.7 164.1,138 162.1,141.3 158.3,141.3 156.4,144.6 152.6,144.6 150.7,141.3 
			146.9,141.3 145,138 146.9,134.7 145,131.4 146.9,128.1 150.7,128.1 152.6,124.8 156.4,124.8 158.3,128.1 162.1,128.1 
			164.1,131.4 		"/>
		<polygon id="centro-3" class="st1" points="155.9,132.3 153.1,132.3 151.7,134.7 153.1,137.1 155.9,137.1 157.3,134.7 		"/>
	</g>
</g>
</svg>
